<?xml version="1.0" encoding="UTF-8" standalone="no"?>
<!-- Created with Inkscape (http://www.inkscape.org/) -->

<svg
   xmlns:dc="http://purl.org/dc/elements/1.1/"
   xmlns:cc="http://creativecommons.org/ns#"
   xmlns:rdf="http://www.w3.org/1999/02/22-rdf-syntax-ns#"
   xmlns:svg="http://www.w3.org/2000/svg"
   xmlns="http://www.w3.org/2000/svg"
   xmlns:sodipodi="http://sodipodi.sourceforge.net/DTD/sodipodi-0.dtd"
   xmlns:inkscape="http://www.inkscape.org/namespaces/inkscape"
   width="4cm"
   height="3cm"
   viewBox="0 0 39.999999 30"
   version="1.1"
   id="svg8"
   inkscape:version="0.92.4 (5da689c313, 2019-01-14)"
   sodipodi:docname="BD.svg">
  <defs
     id="defs2" />
  <sodipodi:namedview
     id="base"
     pagecolor="#ffffff"
     bordercolor="#666666"
     borderopacity="1.0"
     inkscape:pageopacity="0.0"
     inkscape:pageshadow="2"
     inkscape:zoom="0.98994949"
     inkscape:cx="-63.58924"
     inkscape:cy="6.0118149"
     inkscape:document-units="mm"
     inkscape:current-layer="layer1"
     showgrid="false"
     inkscape:window-width="1280"
     inkscape:window-height="1001"
     inkscape:window-x="1272"
     inkscape:window-y="-8"
     inkscape:window-maximized="1"
     units="cm" />
  <metadata
     id="metadata5">
    <rdf:RDF>
      <cc:Work
         rdf:about="">
        <dc:format>image/svg+xml</dc:format>
        <dc:type
           rdf:resource="http://purl.org/dc/dcmitype/StillImage" />
        <dc:title></dc:title>
      </cc:Work>
    </rdf:RDF>
  </metadata>
  <g
     inkscape:label="Laag 1"
     inkscape:groupmode="layer"
     id="layer1"
     transform="translate(0,-267)">
    <g
       transform="matrix(0.33264071,0,0,0.33264714,725.95626,380.114)"
       id="g3735">
      <circle
         inkscape:export-ydpi="300"
         inkscape:export-xdpi="300"
         style="opacity:1;fill:#57b1a0;fill-opacity:1;fill-rule:nonzero;stroke:none;stroke-width:0.55562496;stroke-miterlimit:4;stroke-dasharray:none;stroke-dashoffset:0;stroke-opacity:1"
         id="circle3556"
         cx="294.48816"
         cy="-2121.8328"
         r="43.297665"
         transform="rotate(-90)" />
      <g
         id="g3733"
         transform="matrix(0.79449983,0,0,0.79449983,-1808.0981,-437.63387)"
         style="fill:#ffffff;fill-opacity:1"
         inkscape:export-xdpi="300"
         inkscape:export-ydpi="300">
        <path
           inkscape:export-ydpi="300"
           inkscape:export-xdpi="300"
           id="path3558"
           d="m -415.31689,147.98865 c -0.19307,0.94326 -0.62463,1.62545 -0.98237,2.33242 -0.25305,0.49981 -0.1049,0.76743 0.28099,1.01515 0.89592,0.57532 1.79911,1.14143 2.70084,1.70826 0.35845,0.22489 0.67272,0.47357 0.70769,0.94521 0.0433,0.5797 -0.32568,0.82889 -0.79172,0.97533 -0.37959,0.11894 -0.64139,0.31497 -0.46435,0.72759 0.20497,0.47626 0.56611,0.21834 0.85972,0.0917 0.30965,-0.13454 0.60059,-0.31134 0.90028,-0.47017 0.29118,-0.15518 0.60812,-0.19744 0.72396,0.16393 0.10541,0.3298 -0.25403,0.33417 -0.46022,0.42233 -0.44952,0.19113 -0.99814,0.18531 -1.36364,0.6494 0.5843,0.30577 1.14215,0.0744 1.6847,0.10667 0.23047,0.0135 0.58117,-0.0663 0.59937,0.24286 0.0226,0.37716 -0.3548,0.32495 -0.60324,0.32082 -0.36235,-0.005 -0.72422,-0.0593 -1.08607,-0.0919 -0.11439,-0.0101 -0.25113,-0.0737 -0.30868,0.0869 -0.0486,0.13576 0.0467,0.22635 0.13674,0.30867 0.26155,0.23776 0.59791,0.3048 0.9214,0.40364 0.15081,0.0462 0.39416,0.0285 0.35651,0.26545 -0.0367,0.22756 -0.27055,0.2907 -0.459,0.24868 -0.25598,-0.0576 -0.5253,-0.1411 -0.7378,-0.2873 -1.42072,-0.97752 -3.06197,-1.26918 -4.7071,-1.56863 -0.45657,-0.0835 -1.10136,-0.0225 -1.23226,-0.5644 -0.1326,-0.55007 0.47186,-0.77739 0.84806,-1.05911 0.44467,-0.33345 0.91947,-0.6278 1.36536,-0.96002 0.36671,-0.27297 0.31207,-0.41019 -0.12896,-0.60253 -1.82096,-0.79416 -3.66134,-0.71012 -5.52771,-0.24408 -0.16394,0.0407 -0.33418,0.0811 -0.50079,0.0782 -1.04915,-0.0185 -1.16498,0.042 -0.76767,1.20871 0.3349,0.98285 0.79294,1.92369 1.14047,2.90314 0.29361,0.82911 0.16927,1.04915 -0.612,1.43603 -0.67879,0.33563 -1.4149,0.50029 -2.14517,0.65911 -1.27041,0.27661 -2.24208,0.99111 -3.06537,1.95405 -0.14159,0.16586 -0.27443,0.34098 -0.43254,0.48985 -0.20108,0.18821 -0.47212,0.21954 -0.65449,0.032 -0.16442,-0.1688 0.0199,-0.3694 0.14837,-0.50273 0.23145,-0.23921 0.49034,-0.45172 0.88279,-0.80702 -0.73464,0.0325 -1.26723,0.0634 -1.80054,0.074 -0.15155,0.003 -0.38397,0.0628 -0.40778,-0.17826 -0.0233,-0.23434 0.162,-0.35044 0.37183,-0.3565 0.48377,-0.0143 0.96804,9.1e-4 1.45229,-0.004 0.16273,-0.001 0.37814,0.0339 0.41336,-0.19113 0.0401,-0.25279 -0.16442,-0.32905 -0.36478,-0.35358 -0.38444,-0.0462 -0.77472,-0.0507 -1.15503,-0.11781 -0.23826,-0.0412 -0.49423,-0.16028 -0.41651,-0.4811 0.0673,-0.27831 0.30284,-0.28438 0.52919,-0.22026 0.46459,0.1321 0.92384,0.28244 1.38867,0.41382 0.3298,0.0935 0.61054,0.13503 0.41092,-0.38177 -0.0597,-0.15592 -0.26303,-0.39804 -0.0512,-0.51462 0.24068,-0.13333 0.4301,0.11945 0.47892,0.31693 0.2278,0.91704 0.74095,0.76841 1.38138,0.44954 0.64989,-0.32471 1.2993,-0.6426 1.92247,-1.01904 0.43229,-0.2618 0.52871,-0.56368 0.37934,-1.02802 -0.19452,-0.60375 -0.47673,-1.16159 -0.77374,-1.71701 -0.35264,-0.66033 -0.74461,-1.30222 -0.93088,-2.0422 -0.25525,-1.01515 -0.11224,-1.29201 0.92529,-1.54046 0.91607,-0.21882 1.8399,-0.40922 2.76446,-0.59088 1.0001,-0.19671 1.10258,-0.33709 0.78103,-1.27671 -0.45486,-1.32698 -0.47721,-2.62019 -0.003,-3.9751 0.38129,-1.08898 0.43351,-1.04625 -0.68973,-1.40277 -1.6116,-0.51145 -3.01168,-1.32867 -3.66182,-3.04107 -0.1904,-0.50101 -0.64454,-0.66033 -1.16378,-0.73124 -0.37181,-0.051 -1.07683,0.0444 -0.99887,-0.42573 0.0972,-0.5887 0.61783,-0.0333 0.94957,-0.0135 0.23,0.0135 0.4675,0.0581 0.58456,-0.15106 0.10566,-0.18894 -0.0793,-0.35773 -0.20035,-0.50393 -0.22779,-0.27346 -0.5661,-0.4998 -0.39319,-0.93573 0.0462,-0.1173 0.14353,-0.19964 0.28488,-0.14208 0.4114,0.16757 0.42087,0.55177 0.48159,0.90829 0.0311,0.1836 -0.008,0.47261 0.23266,0.46969 0.36307,-0.005 0.14255,-0.33054 0.1904,-0.51097 0.0367,-0.13965 0.0483,-0.28657 0.0834,-0.42695 0.049,-0.19672 0.13892,-0.41941 0.37498,-0.34704 0.30212,0.0922 0.0797,0.31498 0.0449,0.47963 -0.0349,0.1654 -0.10351,0.32277 -0.13916,0.48791 -0.14328,0.66787 0.0362,0.86871 0.71109,0.92311 0.31985,0.0256 0.90149,-0.22149 0.90052,0.25039 -7.3e-4,0.5117 -0.58285,0.22562 -0.90027,0.24698 -0.44006,0.0296 -0.54182,0.17656 -0.27273,0.5122 1.03385,1.2886 2.4264,1.87949 4.03704,2.01573 0.41334,0.0349 0.54425,-0.29192 0.59281,-0.60715 0.0544,-0.35653 0.0539,-0.72542 0.0433,-1.08776 -0.023,-0.79221 0.25112,-1.47611 0.74898,-2.06844 0.55979,-0.66494 1.20628,-1.28617 2.15367,-1.07004 1.04211,0.238 1.69298,0.99063 2.02764,1.99267 0.19598,0.58674 0.15907,1.20748 0.0661,1.80249 -0.11704,0.748 -0.0981,1.49941 -0.145,2.24766 -0.0353,0.56029 0.0248,1.09967 0.4617,1.54847 0.29069,0.29847 0.34994,0.73368 0.4619,1.13051 0.34584,1.22401 1.72308,1.92684 2.93155,1.48994 0.50637,-0.18287 0.78055,-0.55299 0.77619,-1.10623 -3.5e-4,-0.17291 -0.003,-0.35457 0.19137,-0.42986 0.11704,-0.0457 0.23751,-0.008 0.32809,0.093 0.1671,0.1853 0.003,0.29652 -0.0854,0.43569 -0.12261,0.19549 -0.17339,0.43568 -0.0101,0.60641 0.15857,0.16757 0.35409,-0.0189 0.53283,-0.0586 0.36307,-0.0816 0.8126,-0.68218 1.04356,-0.17873 0.18238,0.39731 -0.51874,0.45948 -0.84928,0.64843 -0.20496,0.11654 -0.6307,0.0552 -0.54715,0.4335 0.0647,0.29069 0.40872,0.29022 0.67636,0.30891 0.0964,0.008 0.19478,-0.003 0.28998,0.0101 0.17656,0.0256 0.44952,-0.0391 0.40994,0.26059 -0.0259,0.19597 -0.24286,0.2465 -0.41214,0.18068 -1.16426,-0.45026 -2.33775,-0.0313 -3.50567,-0.0378 -1.33814,-0.009 -2.36155,-0.45052 -2.89243,-1.75346 -0.0323,-0.0808 -0.10908,-0.14303 -0.26545,-0.33805 z m -0.50709,7.82369 c 0.27006,0.22902 0.56441,0.31791 0.87429,0.32739 0.30066,0.009 0.43205,-0.22029 0.42865,-0.46969 -0.005,-0.35652 -0.28779,-0.2521 -0.46483,-0.18045 -0.26011,0.10464 -0.58165,0.032 -0.83811,0.32275 z"
           style="clip-rule:evenodd;fill:#ffffff;fill-opacity:1;fill-rule:evenodd;stroke-width:0.24285889"
           inkscape:connector-curvature="0" />
        <path
           inkscape:export-ydpi="300"
           inkscape:export-xdpi="300"
           style="fill:#ffffff;fill-opacity:1;stroke-width:0.12628691"
           id="path3560"
           d="m -371.52159,138.25474 c -4.24817,-0.9935 -7.24129,3.8957 -8.20865,5.7506 6.7e-4,-0.009 0.002,-0.0181 0.002,-0.0271 0,-0.10452 -0.0223,-0.20407 -0.062,-0.29526 0.28793,-0.88413 0.63294,-1.76587 0.72324,-2.69672 0.0921,-0.95031 -0.29336,-1.83533 -0.76985,-2.63195 -0.025,-0.0419 -0.0905,-0.004 -0.0654,0.0383 0.54379,0.90939 0.86847,1.83305 0.724,2.89879 -0.10634,0.7845 -0.41006,1.5465 -0.66061,2.2983 -0.14586,-0.23906 -0.42167,-0.40059 -0.73852,-0.40059 -0.0109,0 -0.0214,9.8e-4 -0.0321,0.003 -0.004,-2.5e-4 -0.008,-0.003 -0.0124,-0.003 -0.009,0 -0.0184,0.003 -0.0277,0.004 -0.25675,0.0201 -0.4804,0.14662 -0.62121,0.3315 -0.24272,-0.73551 -0.50944,-1.4681 -0.64002,-2.23263 -0.17895,-1.04717 0.1941,-2.0125 0.72413,-2.89879 0.0251,-0.0421 -0.0404,-0.0801 -0.0656,-0.0383 -0.49151,0.82199 -0.82364,1.66219 -0.76972,2.63194 0.0498,0.89361 0.41322,1.77054 0.69723,2.61805 -0.0648,0.11136 -0.10216,0.23856 -0.10216,0.37394 0,0.003 3.3e-4,0.006 6.7e-4,0.009 -0.97762,-1.86876 -3.96507,-6.7221 -8.19896,-5.73189 0,0 -1.38916,0.37886 -0.16834,2.10482 0,0 -0.0842,1.43123 0.33681,1.43123 0,0 0.042,0.96823 0.42091,1.05233 0,0 -0.33681,1.09454 0.12628,1.51545 0,0 -0.25257,1.59968 1.05235,1.89431 h 1.64173 c 0,0 -2.39945,1.6416 -1.76802,2.44151 0,0 -1.64299,-0.0421 -0.10582,1.38915 0,0 -1.24127,0.84194 0.0216,1.09452 l 0.58686,0.58938 c 0,0 -1.13911,1.13659 0,1.17865 0,0 0.42344,-0.0841 0.67601,0.71566 0,0 -0.50515,2.06265 -0.88401,2.31522 0,0 -0.96812,1.72583 0.46309,1.5575 0,0 0.38783,-0.76177 0.33681,-2.06265 0,0 0.429,-1.26274 1.22486,-0.67349 0,0 0.20635,0.25258 0.50111,0 0,0 0.71566,0.0421 0.71566,0.37887 0,0 0.71554,0.33668 0.67349,-0.71568 0,0 -0.0842,-0.75758 0.37886,-0.29461 0,0 0.46309,0.29448 0.63144,-1.55764 l 1.40506,-3.96389 c 0.12477,1.3673 0.40753,2.32217 0.73664,2.32217 0.34678,0 0.64216,-1.05917 0.75532,-2.54419 l 1.48387,4.18591 c 0.16847,1.85212 0.63143,1.55764 0.63143,1.55764 0.46297,-0.46297 0.37886,0.29461 0.37886,0.29461 -0.0422,1.05236 0.67337,0.71568 0.67337,0.71568 0,-0.33669 0.71579,-0.37887 0.71579,-0.37887 0.29476,0.25258 0.50098,0 0.50098,0 0.79599,-0.58925 1.22486,0.67349 1.22486,0.67349 -0.051,1.30088 0.33668,2.06265 0.33668,2.06265 1.43133,0.16833 0.46322,-1.5575 0.46322,-1.5575 -0.37886,-0.25257 -0.88401,-2.31522 -0.88401,-2.31522 0.25257,-0.79977 0.67589,-0.71566 0.67589,-0.71566 1.13911,-0.0421 0,-1.17865 0,-1.17865 l 0.58698,-0.58938 c 1.26287,-0.25258 0.0217,-1.09452 0.0217,-1.09452 1.53692,-1.43134 -0.10608,-1.38915 -0.10608,-1.38915 0.63143,-0.79991 -1.76802,-2.44151 -1.76802,-2.44151 h 1.64173 c 1.30505,-0.29463 1.05247,-1.89431 1.05247,-1.89431 0.46297,-0.42091 0.12629,-1.51545 0.12629,-1.51545 0.37886,-0.0841 0.42104,-1.05233 0.42104,-1.05233 0.42104,0 0.33668,-1.43123 0.33668,-1.43123 1.22081,-1.72609 -0.16834,-2.10482 -0.16834,-2.10482 z"
           inkscape:connector-curvature="0" />
        <path
           inkscape:export-ydpi="300"
           inkscape:export-xdpi="300"
           style="fill:#ffffff;fill-opacity:1;stroke-width:0.33479315"
           id="path3562"
           d="m -415.55348,189.52925 c 1.50355,0.73923 -1.42622,0.47975 -1.99905,0.22598 1.68634,1.48348 -1.27724,0.0392 -1.29063,0.0335 0.32575,0.51156 0.51591,1.12155 -1.61404,-0.13928 0.13392,0.381 -1.09611,0.70541 -3.14237,-0.31738 -1.37768,0.49114 -3.49055,-0.90059 -4.54281,-1.48481 -1.11252,-0.61736 -1.70978,-0.95316 -2.73961,-1.69372 -0.63678,0.0356 -1.02246,0.11249 -1.84504,0.16405 -1.04055,1.06464 -1.76102,1.85241 -2.23608,2.26253 -1.17848,0.2049 -4.30947,0.49416 -3.6603,-0.57584 -0.4811,0.0114 -1.42053,-0.13727 -0.96487,-0.78275 -0.32677,0.0576 -1.14801,-0.35656 -0.46469,-0.87314 -0.31137,-0.16841 -1.36128,-0.79781 0.30165,-1.00873 -1.09545,-0.35857 -1.57153,-1.47108 0.33914,-1.05292 -0.38937,-0.34083 -1.4838,-1.79081 -0.1664,-1.54307 1.86647,0.35053 4.73833,0.72549 5.86558,0.20356 -1.32914,-1.61738 -5.9265,-5.83177 -4.2425,-5.84248 -1.25648,-0.89558 -1.8946,-2.46374 -1.08038,-2.3844 -1.607,-1.80386 -1.82027,-3.90468 -0.61668,-3.41522 -1.59195,-1.32946 -2.08443,-4.01517 -0.65452,-3.06102 -0.82059,-0.994 -1.69037,-2.76405 -0.0128,-2.08107 -0.2049,-0.32474 -1.11956,-1.52298 -1.17781,-1.6646 -0.44828,-1.08707 1.75265,0.86378 1.37132,0.15033 -0.32811,-0.61435 -0.88487,-2.54811 -0.47039,-2.17984 0.62338,0.55375 1.28795,1.46974 1.59127,1.51427 0.10351,0.0154 -0.36325,-1.05025 -0.42183,-1.51996 -0.37197,-2.98635 0.61233,-0.18112 1.5089,0.75027 0.22866,-0.50922 0.0787,-3.11123 0.50521,-2.90901 0.17441,0.0826 0.97357,3.00309 1.05225,3.18755 0.19886,0.46671 0.31704,-1.62943 0.53868,-2.34287 0.11313,-0.36426 0.37162,-0.23703 0.43624,0.50553 0.0771,0.8842 0.29829,2.91204 0.5216,2.9251 0.16103,0.009 0.33815,-1.81626 0.85473,-1.63748 0.20757,0.59927 -0.0177,3.30106 0.24707,4.60005 0.31237,1.53302 0.82694,1.986 1.42053,3.10254 1.11787,2.10217 3.21034,5.86189 3.40719,6.34499 0.77807,1.90833 2.18921,2.94953 2.5384,3.43298 0.49516,0.21326 0.96756,0.1386 1.33951,-0.0147 2.25919,-0.93174 2.59967,0.0639 2.6211,0.0657 0.83565,0.0669 1.18584,0.5899 0.92369,1.19789 -0.40811,-0.34015 -0.59225,-0.33647 -0.96453,-0.17042 0.24172,0.005 0.76032,0.10819 0.9093,0.16808 -0.0442,0.0871 -0.16741,0.20589 -0.67663,0.1627 -0.68029,-0.0579 -1.57218,0.84636 -1.89794,1.27958 0.47072,0.5946 1.74092,1.09478 2.11824,1.35725 0.83766,0.58255 2.39076,1.73858 3.78752,2.5277 0.64213,0.36258 1.27288,0.56178 1.74126,0.72381 1.4376,0.49784 0.52495,0.57954 -0.0402,0.4724 0.49951,0.29194 1.13327,0.4426 1.86948,0.36324 1.21262,-0.1309 2.07706,-0.93272 2.50124,-1.2856 1.20995,-1.00739 0.39874,0.33681 0.17142,0.57685 -1.55378,1.64049 -2.12025,1.53571 -3.56052,1.68201 z m -7.42437,-8.98987 c 0.009,-0.0797 -0.0138,-0.11022 -0.15067,-0.11616 -0.0488,-0.003 -0.18782,0.0211 -0.35822,0.1915 0.1992,0 0.50185,-0.0134 0.50889,-0.0753 z"
           inkscape:connector-curvature="0" />
        <path
           inkscape:export-ydpi="300"
           inkscape:export-xdpi="300"
           inkscape:export-filename="C:\Users\u0076217\Desktop\Experiment logger.png"
           sodipodi:nodetypes="cccccccccccccccccccccccccccccccccccccccccccccccccccccccccccccccccccccccccccccccccccccccccccccccccccccccccccccccccccccccccccccccccccccccccccccccccccccccccccccccccccccccccccccccccccccccccccccccccccccccccccccccccccccccccccccccccccccccccccccccccccccccccccccccccccc"
           inkscape:connector-curvature="0"
           d="m -403.53891,163.14698 c 0.5703,0.24697 -0.20861,1.2931 0.71103,0.83564 -0.63083,0.85701 1.04027,-0.25664 0.21624,0.68537 0.37511,0.62924 0.33217,-0.87293 1.07388,-0.39583 0.69934,-0.29166 0.45504,0.27901 0.78802,0.799 0.5675,0.0676 -0.45759,-1.26565 0.55709,-0.63039 -0.57348,1.00079 0.39793,-0.11894 0.24968,-0.63957 0.46618,0.13627 -0.39733,0.70131 0.43203,0.56624 0.0616,-0.77895 0.61935,-0.87974 1.6713,-0.89429 0.79169,0.56548 -0.88446,-0.30256 -0.066,0.54979 -0.66061,0.17281 0.65293,0.47962 0.7037,0.42148 0.84131,-0.38604 0.31008,0.32783 -0.35918,0.68171 0.65072,0.38981 0.93826,-0.0825 1.30066,0.33078 -0.50534,0.0421 -0.68409,1.17245 0.35964,0.76877 -0.78781,0.0968 -0.98268,0.0692 -0.3349,0.3656 0.23396,0.20496 1.01483,-0.64559 0.42652,0.3381 0.11311,0.67178 0.13352,1.01266 1.12154,0.82831 -0.74717,0.55359 1.50038,-0.13587 0.47278,0.90894 0.79992,-0.2186 2.30293,-0.35589 1.6713,1.10322 -0.45373,-0.36673 -0.3455,0.21686 -0.77335,0.0258 0.16889,0.638 -0.33696,1.29562 -0.0151,1.58836 0.0465,1.10559 0.3644,-0.7979 0.99095,0.11957 0.42415,0.47443 0.87824,0.6464 1.14627,-0.18325 1.0019,-0.44438 2.17472,0.65651 1.39274,1.21683 0.11213,-0.70825 -0.53448,0.39662 -0.54977,-0.2859 -0.37591,0.4143 -1.40492,-0.12936 -1.0386,-0.14339 -0.53218,0.34849 -1.00007,0.60603 0.19688,0.5153 1.53039,-0.43096 2.48027,2.27945 1.2663,1.64762 -0.67548,0.1197 -1.19302,-0.17424 -1.09771,-0.40407 -0.73074,-0.67281 -1.2656,-0.44675 -0.71424,0.17272 -0.66691,0.30331 0.57097,1.67577 -0.662,1.57325 0.38109,0.19534 1.89371,0.595 0.7353,0.77883 -0.59448,0.33434 0.0385,0.14081 0.0637,0.28406 0.58844,-0.0692 0.31761,0.59899 0.004,0.29686 0.15441,0.72423 -1.44727,0.34212 -0.88271,0.85348 0.26544,-0.73463 0.40183,0.75036 0.44715,-0.38851 -1.03697,-0.79139 1.8841,0.0796 2.60898,0.0664 -1.37675,-0.18367 -2.23756,1.21685 -1.77013,0.1378 0.19587,0.36839 0.92587,-0.58664 0.94972,0.34178 0.7945,0.0762 -0.47212,0.0678 0.48013,0.45813 0.37961,-0.43042 0.90289,0.51245 0.51679,-0.59009 -0.21128,0.48521 -0.10276,-0.8836 -0.008,-0.24188 0.42207,-0.50649 0.59231,0.26747 0.98676,-0.0364 -0.0313,0.88633 1.5994,-0.38524 1.02538,0.79521 0.11816,-0.94143 -0.8704,0.90008 -0.8503,0.41784 -0.68013,-0.41173 0.21904,1.50059 -0.9566,0.88327 0.99744,0.31546 0.45597,0.36262 0.1347,0.61711 1.51716,1.18677 -1.82639,0.16539 -1.31488,0.73166 -0.31063,0.0804 0.48256,0.47524 0.6471,0.36283 -0.91029,0.0433 -0.35825,1.21907 -1.42008,1.16751 0.29742,0.62476 0.73847,0.93447 0.34619,1.47504 2.12083,-0.4863 0.42979,-0.21874 1.15316,-0.27762 0.52547,0.22648 -1.31146,0.37742 -0.53578,0.24786 0.40022,-0.14301 0.83641,-0.20662 0.84207,0.54655 0.70969,0.25561 -0.42974,-1.18521 0.47188,-0.49569 0.74931,0.73879 -1.08098,0.81867 0.0971,1.01614 0.34568,0.83801 -0.88217,0.049 -0.69545,0.92451 -1.03171,-0.31064 -0.16483,1.23645 -0.96492,0.86037 -0.56565,-0.0383 -1.33719,-0.072 -0.47601,0.57541 -0.11673,0.38642 -0.37547,0.47993 -0.68951,0.70006 0.9996,0.009 -0.9185,0.46301 0.44348,0.3995 0.0199,0.66587 0.71777,0.64741 -0.41775,1.18385 0.41081,1.21355 -0.77892,0.24063 -0.48013,-0.38118 -0.70189,-0.0739 0.18599,1.79782 0.50579,1.18749 1.09007,-0.44028 2.71565,0.421 1.56822,1.27412 -0.98615,0.24182 -2.20605,-0.0476 -2.30124,-0.16725 -0.50183,0.2311 -0.78008,0.47589 -1.38174,0.0439 0.33316,0.43992 -0.37871,0.54241 0.23456,1.26446 -1.04402,0.0114 -0.97504,0.80663 0.31153,0.75869 -0.69696,-0.0307 -2.67113,0.15136 -1.29762,-0.28543 0.0554,-1.61885 -0.56634,0.61707 -1.56116,0.0178 -0.0352,0.62961 1.7132,0.36246 0.52411,0.59376 -0.29731,-0.0562 -2.06346,-0.0676 -1.20214,0.1576 -1.14113,0.55953 -0.38058,-0.33722 -1.03542,-0.74449 -0.7365,0.29663 -0.5166,0.006 -1.29928,0.3523 -0.15312,0.31138 -0.89864,0.66676 0.004,0.33354 -0.23709,0.6785 -1.58289,-0.23501 -0.59374,-0.14293 -0.83839,-0.33526 -1.06393,-0.24476 -1.56501,-0.86131 0.69474,-0.12388 -0.55158,-0.96882 -0.46915,0.0183 -0.0731,-1.04519 -0.0177,7.84081 0.2331,8.13538 -1.25841,0.34758 -1.10105,-0.3445 -1.55307,-0.0359 -0.64685,-1.06939 0.4609,-7.71113 -0.34032,-8.20224 -0.49602,0.15299 -0.88979,0.51157 -1.3451,-0.0294 -0.17146,0.71446 -0.40736,-0.0874 -0.66935,0.49343 -0.55142,-0.91479 -0.66973,1.38832 -0.9653,0.0269 -0.67351,0.11566 -1.3551,-0.41926 -0.36651,-0.48379 -0.16457,-0.25373 0.0666,-0.38237 0.21257,-0.68173 0.0333,-0.39215 0.48171,0.52506 0.45815,-0.45447 -0.18261,-0.5416 1.35502,-0.5036 0.92361,0.4618 0.30677,0.94165 1.36501,-0.81258 0.38116,-0.16127 -0.37592,-1.10376 1.52503,-1.16746 1.15086,-0.25654 0.42952,-0.26155 0.38353,-1.77472 -0.31153,-0.9969 -0.31463,-0.0957 -0.28467,-0.91898 -0.77701,-0.31889 -0.0982,-0.58509 -0.60518,0.36454 -0.5351,-0.61206 -0.55481,-0.58502 1.93235,-0.28615 0.72935,-1.42939 -0.33967,-0.70853 -0.55362,-0.35247 -1.00424,-1.00424 0.16877,0.67236 0.39364,1.63521 -0.3262,0.80631 0.009,0.33814 -0.56835,-1.01625 -0.37751,-0.28955 -0.45629,0.21911 -0.81208,-0.10452 0.10629,-0.43248 -0.70609,-0.20296 -0.65748,0.3323 -1.09815,-0.25701 -0.39576,0.0378 -2.27836,-0.20464 -1.11924,-0.23046 0.1745,-0.62181 -0.49372,-0.0958 -0.79166,-0.97125 0.41991,0.89945 -1.42012,0.57642 -0.39218,0.0404 -1.00486,-0.36616 -1.2389,-0.54973 -2.52159,-0.54244 1.28051,0.26212 0.0146,-0.83178 0.50669,-0.60979 0.50617,0.37073 1.88015,-1.30776 0.43525,-0.73898 0.40214,0.67503 -0.96756,-0.21439 -0.82466,0.50213 -0.71416,-0.77101 1.77137,-0.59653 0.39217,-0.68905 -0.12669,-0.54091 0.27275,-1.16322 -0.49112,-0.79898 0.51193,0.23375 -0.50372,0.59328 -0.088,-0.2016 0.13808,-0.14928 -1.04854,0.82271 -0.89292,0.43753 -0.51965,-0.30781 -1.40805,0.0736 -1.40511,-0.65377 -0.99922,0.32627 0.0638,-0.82436 0.6304,-0.0659 -0.51438,-0.42434 1.03943,-0.0491 0.65972,0.17593 0.27335,-0.84315 -0.52947,-0.28011 -0.61942,-0.96392 -0.17969,-0.1302 -0.45211,-0.46065 -0.63042,0.32254 0.0339,-0.57102 0.0972,-0.77967 -0.47646,-0.89063 -0.26205,0.24575 -0.19207,0.006 -0.64507,-0.0769 0.67105,-0.81839 0.0943,-0.42528 -0.17592,-1.22277 0.51335,-0.13544 1.44733,0.41138 2.2174,-0.0101 0.85061,0.11426 -0.78656,0.0572 0.004,0.36331 -0.97299,0.68797 0.24916,0.20529 0.26481,0.0425 -0.52837,1.10556 0.48403,0.87399 1.05831,1.66167 1.05674,-0.084 1.34365,-0.77305 0.71927,-1.27545 -0.29493,-0.58975 -0.67501,-0.0335 -0.33444,-0.70738 -0.38278,-0.48741 -0.55582,0.55417 -0.8723,-0.17226 -0.43446,0.58622 -0.0524,-0.88243 -0.55114,-0.17591 -0.23955,-0.43924 -0.0443,-0.92489 -0.47143,-0.18692 0.12641,-0.69991 0.1412,-1.38636 -0.86131,-0.89797 -0.72978,-0.18681 0.41707,-0.54737 -0.31427,-0.9862 0.42481,-0.11781 1.27426,-0.70759 1.19024,0.27516 0.17961,-0.0553 0.1597,-0.028 0.56811,-0.2932 -0.20633,0.71678 0.50177,0.009 0.29687,-0.19057 -0.25586,-0.37187 -0.12856,-0.50041 -0.53009,-0.28449 0.68838,0.35547 -0.74832,0.56049 -0.2286,-0.3276 1.26257,0.13364 2.61412,-0.12716 1.37764,-0.27625 -0.32217,0.0909 0.17005,-0.44773 0.0958,-0.48975 -0.33213,-0.21468 0.17425,-1.29225 -0.20159,-1.16917 0.62102,0.75787 1.13302,-0.38796 1.54302,-0.63773 -0.0188,-0.51586 -0.56301,-0.16355 -0.15073,-0.71332 0.55864,-0.40695 0.67594,-0.68724 0.0664,-0.87001 -0.39064,0.70563 -0.5054,-0.6323 -0.75134,-0.25658 -0.0129,-0.74755 -1.02364,-1.50342 0.0769,-1.35973 -0.59149,0.69945 0.28406,0.1834 0.32941,0.0334 0.30933,-0.69998 -0.92954,-1.17921 0.13974,-1.41519 -0.71722,-0.42938 0.59091,-0.16634 0.77333,0.24188 0.27094,-0.55243 1.04067,0.26432 0.11363,0.29321 0.29171,0.30646 1.83875,-0.26933 1.0079,-0.23456 0.13368,-0.47785 0.38549,-0.83106 0.5461,-0.0697 0.40093,-0.65324 1.48433,-0.22537 1.11443,0.40713 0.50616,0.28941 0.85855,-0.33356 0.25633,-0.35948 0.9676,-0.69186 -0.30148,-0.44885 -0.38484,-1.29745 -0.0268,-0.0839 -0.89355,-0.29231 -0.34453,-0.64139 -0.46263,0.0404 -1.07771,-1.45557 -0.72202,-1.16183 0.4324,-0.33525 0.72232,0.18573 0.76967,-0.65608 0.78616,-0.25016 0.0871,1.16485 0.62536,0.53329 0.54912,-0.73849 0.80994,0.26253 1.50132,0.27901 0.73316,0.78448 -0.41042,-2.06775 0.10174,-0.63269 0.6213,-0.0759 0.67048,0.64084 1.15083,0.0954 0.39855,0.033 0.22392,-0.64752 -0.15763,-0.66704 0.18296,-0.8057 -1.06541,-1.15596 -0.0591,-1.38542 -1.22267,-0.50647 0.67479,-0.004 0.38852,-0.33354 0.27851,-0.80851 -0.48726,-0.84866 0.49113,-1.16918 z m 7.20197,7.88735 c 0.26627,1.57931 1.04408,-0.32081 0,0 z m -5.28145,0.3885 c -0.13906,0.83486 -1.20128,-0.27183 -1.38176,0.7037 0.80413,0.13088 1.35849,0.16127 1.81424,0.0881 0.95056,-0.0888 0.22623,-0.68224 -0.43248,-0.79167 z m -2.52894,0.14293 c 0.33968,0.82507 1.08743,-0.12895 0,0 z m -1.53935,1.63099 c -1.36143,0.23643 -0.19701,0.63922 -0.14066,0.695 0.0151,0.95055 0.39377,-0.5962 0.40913,0.16262 -0.009,0.24429 -0.46592,0.37661 0.0283,0.67806 -0.12021,0.96052 1.35863,-0.33498 0.41417,0.0114 -0.80547,-1.08869 0.36804,-0.95772 0.82738,-0.65054 0.88406,-0.0323 -0.33489,-0.96655 -0.56625,-0.3876 -0.38549,-0.0576 -0.53601,-0.52749 -0.97218,-0.50854 z m 4.05363,1.12517 c 0.34046,0.46823 -1.54835,-0.12729 -1.04548,0.54885 0.34704,-0.0965 0.99697,0.74206 1.31257,0.0385 0.006,-2.9e-4 0.52881,-0.84667 -0.26709,-0.58733 z m 3.4159,0.5571 c 0.22643,0.11603 -0.61684,-0.33494 -0.62765,0.21306 -0.008,0.53353 0.87688,0.41599 1.06747,0.006 0.30836,0.14223 1.2751,-0.52184 0.43615,-0.39583 -0.31178,0.0934 -0.65113,-0.56495 -0.87597,0.17593 z m 0.70737,0.71837 c -0.24984,1.00614 -0.86375,0.40996 -0.86864,0.82466 0.192,0.78951 0.81693,0.26481 1.19054,-0.0666 1.07812,0.003 -0.0674,-0.91789 -0.16797,-0.23383 -0.10631,-0.27107 -0.069,-0.32207 -0.15393,-0.52412 z m -2.49595,1.5027 c 0.34248,0.55528 0.22608,0.23284 0.21624,0.67254 1.25855,0.45585 1.05965,-0.51512 0.3995,-0.60289 -0.41153,0.11312 -0.23765,-0.0447 -0.61574,-0.0696 z m -11.90432,0.92359 c -0.0387,0.49098 -1.86867,0.3482 -0.22724,0.7147 0.56562,0.28346 1.54721,-0.38415 1.47338,0.0183 -0.65621,0.90913 1.55636,0.29102 0.51844,0.12853 0.51165,-0.75015 -0.95532,-0.7824 -1.76458,-0.86151 z m 9.91414,1.30846 c -0.26942,1.03889 1.54421,0.36867 0,0 z m -2.77449,0.63041 c -0.0399,0.52025 -0.75799,0.59168 0.16676,0.87458 0.65416,0.0841 -0.001,-0.2907 0.83061,-0.38256 -0.26894,-0.29927 -0.69139,-0.0917 -0.99737,-0.49202 z m 5.40973,0.16493 c -0.765,0.11894 -0.94282,0.84749 -0.9511,0.85304 0.68259,0.38024 1.3802,0.0587 0.58092,-0.41324 0.37035,0.0177 1.20105,-0.85943 0.37018,-0.4398 z m -5.39507,2.07812 c -0.37622,0.27584 -1.26428,0.68793 -0.1576,0.91626 1.0737,-0.18177 0.74611,-0.42707 0.1576,-0.91626 z m 7.17999,0.30053 c -0.52255,1.11435 1.04739,0.88441 1.4807,0.2419 -1.06335,-0.35961 -1.62648,0.51789 -1.23485,-0.36507 -0.0837,0.0387 -0.1389,0.14237 -0.24585,0.12312 z m -13.97879,0.64873 0.0138,0.0138 z m 11.39487,0.56807 c 0.45705,0.61116 -1.46203,0.98134 -0.20524,1.05923 -0.0844,-0.38467 1.28794,-0.77257 1.17834,-0.41184 0.43856,-0.78232 -0.64882,-0.48996 -0.9731,-0.64739 z m -1.31211,0.34455 c -0.63009,-0.0595 -1.18568,0.88645 -0.30788,0.25288 0.81935,0.59523 0.18732,0.11692 0.50579,-0.28588 z m -1.77392,1.04088 c -1.15328,0.16164 0.46251,0.81535 0.19059,-0.132 l -0.11313,0.0371 z m -7.4622,0.76235 0.0165,0.0138 z m 7.25329,0.13199 c 0.51969,0.51686 -0.75107,0.31635 -0.35553,0.96758 0.64312,-0.1398 1.25349,-0.15403 0.5232,-0.84985 l -0.0722,-0.079 z m 7.07002,0.30052 c -0.0648,0.28522 -1.0541,-0.0201 -0.13561,0.6011 0.56513,0.6441 1.45836,1.19619 1.3112,0.57037 -1.26242,0.31468 -0.0508,-1.62257 -1.17559,-1.17147 z m -1.73726,2.70854 c -0.0339,0.41725 -1.34441,0.0534 -0.74036,0.48745 0.24493,1.1089 1.95649,-0.0509 0.84252,-0.56672 z m 2.12209,2.76348 c 0.43939,0.85849 -0.35047,0.41642 -0.98728,0.41646 -0.58417,1.01912 0.8871,0.38471 1.00562,0.47417 0.51968,10e-4 1.99383,-0.45078 0.69637,-0.50579 -0.34783,-0.33096 -0.31861,-0.003 -0.71471,-0.38484 z"
           style="fill:#ffffff;fill-opacity:1;stroke:#000000;stroke-width:0.00343605"
           id="path3564" />
        <g
           inkscape:export-ydpi="300"
           inkscape:export-xdpi="300"
           style="fill:#ffffff;fill-opacity:1"
           id="g3701"
           transform="matrix(0.33479316,0,0,0.33479316,-383.55463,189.12788)">
          <g
             style="fill:#ffffff;fill-opacity:1"
             id="g3570">
            <g
               style="fill:#ffffff;fill-opacity:1"
               id="g3568">
              <path
                 style="fill:#ffffff;fill-opacity:1"
                 d="M 15.302,67.686 16.88,66.813 C 17.084,66.7 17.211,66.485 17.211,66.25 L 17.209,65.033 15.631,42.7 c -0.02,-0.282 -0.221,-0.517 -0.497,-0.581 -0.272,-0.063 -0.558,0.062 -0.7,0.306 -5.423,9.434 -0.271,24.285 -0.048,24.912 0.063,0.178 0.2,0.318 0.377,0.387 0.074,0.027 0.151,0.041 0.228,0.041 0.108,0.001 0.216,-0.027 0.311,-0.079 z"
                 id="path3566"
                 inkscape:connector-curvature="0" />
            </g>
          </g>
          <g
             style="fill:#ffffff;fill-opacity:1"
             id="g3576">
            <g
               style="fill:#ffffff;fill-opacity:1"
               id="g3574">
              <path
                 style="fill:#ffffff;fill-opacity:1"
                 d="m 22.733,63.322 1.599,-0.836 c 0.207,-0.107 0.339,-0.318 0.345,-0.553 l 0.028,-1.215 -1.023,-22.367 c -0.013,-0.282 -0.209,-0.522 -0.482,-0.592 -0.275,-0.072 -0.561,0.046 -0.708,0.288 -5.655,9.296 -0.873,24.271 -0.667,24.903 0.059,0.18 0.193,0.324 0.368,0.396 0.079,0.031 0.161,0.047 0.243,0.047 0.103,0.002 0.205,-0.022 0.297,-0.071 z"
                 id="path3572"
                 inkscape:connector-curvature="0" />
            </g>
          </g>
          <g
             style="fill:#ffffff;fill-opacity:1"
             id="g3582">
            <g
               style="fill:#ffffff;fill-opacity:1"
               id="g3580">
              <path
                 style="fill:#ffffff;fill-opacity:1"
                 d="m 29.709,60.285 1.631,-0.77 c 0.211,-0.1 0.352,-0.307 0.367,-0.539 L 31.783,57.759 31.65,35.372 c -0.002,-0.283 -0.188,-0.53 -0.458,-0.611 -0.27,-0.08 -0.562,0.024 -0.718,0.26 -6.02,9.064 -1.836,24.218 -1.655,24.858 0.051,0.182 0.18,0.332 0.352,0.41 0.084,0.039 0.175,0.059 0.266,0.059 0.091,0 0.186,-0.022 0.272,-0.063 z"
                 id="path3578"
                 inkscape:connector-curvature="0" />
            </g>
          </g>
          <g
             style="fill:#ffffff;fill-opacity:1"
             id="g3588">
            <g
               style="fill:#ffffff;fill-opacity:1"
               id="g3586">
              <path
                 style="fill:#ffffff;fill-opacity:1"
                 d="m 37.685,58.301 1.628,-0.723 c 0.218,-0.098 0.365,-0.309 0.38,-0.547 l 0.072,-1.154 -0.211,-21.186 c -0.003,-0.279 -0.186,-0.525 -0.452,-0.607 -0.267,-0.081 -0.555,0.017 -0.716,0.245 -6.003,8.58 -1.76,22.962 -1.576,23.571 0.054,0.176 0.18,0.32 0.347,0.396 0.085,0.039 0.176,0.059 0.268,0.059 0.088,0 0.176,-0.017 0.26,-0.054 z"
                 id="path3584"
                 inkscape:connector-curvature="0" />
            </g>
          </g>
          <g
             style="fill:#ffffff;fill-opacity:1"
             id="g3594">
            <g
               style="fill:#ffffff;fill-opacity:1"
               id="g3592">
              <path
                 style="fill:#ffffff;fill-opacity:1"
                 d="m 44.345,56.998 1.659,-0.662 c 0.221,-0.088 0.375,-0.291 0.4,-0.527 l 0.125,-1.164 0.74,-21.443 c 0.01,-0.279 -0.163,-0.533 -0.427,-0.626 -0.263,-0.094 -0.557,-0.006 -0.727,0.217 -6.379,8.418 -2.787,23.142 -2.631,23.765 0.045,0.18 0.165,0.33 0.329,0.416 0.093,0.045 0.193,0.07 0.293,0.07 0.082,-10e-4 0.163,-0.017 0.239,-0.046 z"
                 id="path3590"
                 inkscape:connector-curvature="0" />
            </g>
          </g>
          <g
             style="fill:#ffffff;fill-opacity:1"
             id="g3600">
            <g
               style="fill:#ffffff;fill-opacity:1"
               id="g3598">
              <path
                 style="fill:#ffffff;fill-opacity:1"
                 d="m 51.779,54.557 1.667,-0.566 c 0.23,-0.08 0.397,-0.281 0.429,-0.523 l 0.145,-1.09 1.089,-20.039 c 0.016,-0.275 -0.146,-0.53 -0.403,-0.631 -0.252,-0.101 -0.548,-0.03 -0.726,0.181 -6.532,7.699 -3.176,21.625 -3.03,22.213 0.044,0.176 0.158,0.324 0.315,0.41 0.096,0.053 0.201,0.078 0.308,0.078 0.068,0 0.138,-0.012 0.206,-0.033 z"
                 id="path3596"
                 inkscape:connector-curvature="0" />
            </g>
          </g>
          <g
             style="fill:#ffffff;fill-opacity:1"
             id="g3606">
            <g
               style="fill:#ffffff;fill-opacity:1"
               id="g3604">
              <path
                 style="fill:#ffffff;fill-opacity:1"
                 d="m 60.09,51.176 1.656,-0.52 c 0.24,-0.075 0.415,-0.285 0.444,-0.537 l 0.119,-1.008 0.647,-18.36 c 0.009,-0.27 -0.152,-0.516 -0.401,-0.617 -0.247,-0.102 -0.535,-0.036 -0.719,0.166 -6.385,7.094 -2.714,19.903 -2.555,20.444 0.049,0.166 0.162,0.305 0.313,0.385 0.094,0.051 0.198,0.076 0.302,0.076 0.066,0 0.131,-0.01 0.194,-0.029 z"
                 id="path3602"
                 inkscape:connector-curvature="0" />
            </g>
          </g>
          <g
             style="fill:#ffffff;fill-opacity:1"
             id="g3610">
            <path
               style="fill:#ffffff;fill-opacity:1"
               d="m 67.892,47.394 c -0.093,0 -0.185,-0.02 -0.27,-0.06 -0.157,-0.073 -0.278,-0.206 -0.336,-0.369 -0.163,-0.46 -3.927,-11.363 1.237,-17.818 0.168,-0.211 0.451,-0.293 0.708,-0.207 0.256,0.087 0.43,0.326 0.435,0.596 l 0.313,15.848 -0.057,0.883 c -0.016,0.251 -0.178,0.468 -0.412,0.557 l -1.391,0.528 c -0.073,0.028 -0.151,0.042 -0.227,0.042 z"
               id="path3608"
               inkscape:connector-curvature="0" />
          </g>
          <g
             style="fill:#ffffff;fill-opacity:1"
             id="g3616">
            <g
               style="fill:#ffffff;fill-opacity:1"
               id="g3614">
              <path
                 style="fill:#ffffff;fill-opacity:1"
                 d="m 76.407,26.854 c -0.011,-0.254 -0.172,-0.479 -0.408,-0.572 -0.241,-0.093 -0.508,-0.034 -0.688,0.145 -4.722,4.741 -1.107,12.857 -0.95,13.2 0.106,0.233 0.339,0.376 0.584,0.376 0.061,0 0.12,-0.008 0.181,-0.026 l 1.253,-0.366 c 0.258,-0.076 0.442,-0.304 0.46,-0.573 l 0.041,-0.67"
                 id="path3612"
                 inkscape:connector-curvature="0" />
            </g>
          </g>
          <g
             style="fill:#ffffff;fill-opacity:1"
             id="g3622">
            <g
               style="fill:#ffffff;fill-opacity:1"
               id="g3620">
              <path
                 style="fill:#ffffff;fill-opacity:1"
                 d="m 81.753,34.549 0.94,-0.253 c 0.265,-0.072 0.455,-0.303 0.474,-0.576 l 0.029,-0.497 -0.394,-8.087 c -0.012,-0.25 -0.168,-0.47 -0.4,-0.563 -0.229,-0.095 -0.495,-0.043 -0.679,0.126 -3.647,3.418 -0.834,9.267 -0.714,9.514 0.11,0.224 0.337,0.358 0.577,0.358 0.056,0 0.112,-0.007 0.167,-0.022 z"
                 id="path3618"
                 inkscape:connector-curvature="0" />
            </g>
          </g>
          <g
             style="fill:#ffffff;fill-opacity:1"
             id="g3628">
            <g
               style="fill:#ffffff;fill-opacity:1"
               id="g3626">
              <path
                 style="fill:#ffffff;fill-opacity:1"
                 d="m 40.457,78.715 c 0.092,-0.266 -10e-4,-0.563 -0.229,-0.729 L 22.097,64.775 21.103,64.154 c -0.199,-0.125 -0.448,-0.131 -0.651,-0.018 l -1.577,0.873 c -0.166,0.092 -0.281,0.252 -0.318,0.438 -0.037,0.186 0.009,0.377 0.126,0.525 0.415,0.52 10.27,12.768 21.144,13.174 0.008,0 0.016,0 0.024,0 0.272,0 0.515,-0.171 0.606,-0.431 z"
                 id="path3624"
                 inkscape:connector-curvature="0" />
            </g>
          </g>
          <g
             style="fill:#ffffff;fill-opacity:1"
             id="g3634">
            <g
               style="fill:#ffffff;fill-opacity:1"
               id="g3632">
              <path
                 style="fill:#ffffff;fill-opacity:1"
                 d="m 47.703,75.594 c 0.085,-0.27 -0.015,-0.563 -0.247,-0.723 L 29.004,62.113 27.996,61.515 c -0.201,-0.117 -0.451,-0.119 -0.652,0 l -1.556,0.912 c -0.163,0.096 -0.275,0.258 -0.308,0.443 -0.032,0.188 0.019,0.377 0.14,0.521 0.427,0.512 10.582,12.51 21.463,12.648 0.003,0 0.006,0 0.009,0 0.278,0.002 0.526,-0.18 0.611,-0.445 z"
                 id="path3630"
                 inkscape:connector-curvature="0" />
            </g>
          </g>
          <g
             style="fill:#ffffff;fill-opacity:1"
             id="g3640">
            <g
               style="fill:#ffffff;fill-opacity:1"
               id="g3638">
              <path
                 style="fill:#ffffff;fill-opacity:1"
                 d="m 54.32,72.238 c 0.282,-0.008 0.526,-0.199 0.602,-0.473 0.074,-0.271 -0.037,-0.561 -0.275,-0.711 L 35.704,59.043 34.671,58.484 c -0.207,-0.113 -0.456,-0.102 -0.652,0.025 l -1.518,0.973 c -0.159,0.102 -0.265,0.27 -0.29,0.457 -0.025,0.187 0.034,0.375 0.161,0.516 0.436,0.48 10.804,11.787 21.542,11.787 z"
                 id="path3636"
                 inkscape:connector-curvature="0" />
            </g>
          </g>
          <g
             style="fill:#ffffff;fill-opacity:1"
             id="g3646">
            <g
               style="fill:#ffffff;fill-opacity:1"
               id="g3644">
              <path
                 style="fill:#ffffff;fill-opacity:1"
                 d="m 62.805,67.938 c 0.277,-0.035 0.501,-0.244 0.552,-0.52 0.052,-0.273 -0.079,-0.549 -0.324,-0.682 L 44.37,56.605 43.359,56.15 c -0.217,-0.098 -0.473,-0.068 -0.66,0.08 l -1.401,1.1 c -0.146,0.113 -0.234,0.283 -0.245,0.467 -0.011,0.184 0.059,0.363 0.189,0.494 0.402,0.396 9.96,9.754 19.779,9.754 10e-4,0 10e-4,0 10e-4,0 0.603,0 1.203,-0.037 1.783,-0.107 z"
                 id="path3642"
                 inkscape:connector-curvature="0" />
            </g>
          </g>
          <g
             style="fill:#ffffff;fill-opacity:1"
             id="g3652">
            <g
               style="fill:#ffffff;fill-opacity:1"
               id="g3650">
              <path
                 style="fill:#ffffff;fill-opacity:1"
                 d="m 69.312,62.576 c 0.27,-0.068 0.465,-0.305 0.481,-0.582 0.017,-0.279 -0.147,-0.537 -0.408,-0.637 L 52.003,54.605 51.073,54.32 c -0.227,-0.07 -0.478,-0.008 -0.645,0.164 l -1.099,1.111 c -0.13,0.131 -0.197,0.313 -0.185,0.494 0.014,0.186 0.104,0.354 0.25,0.467 0.343,0.262 8.48,6.428 16.534,6.428 v 0 c 1.186,0 2.324,-0.136 3.384,-0.408 z"
                 id="path3648"
                 inkscape:connector-curvature="0" />
            </g>
          </g>
          <g
             style="fill:#ffffff;fill-opacity:1"
             id="g3658">
            <g
               style="fill:#ffffff;fill-opacity:1"
               id="g3656">
              <path
                 style="fill:#ffffff;fill-opacity:1"
                 d="m 75.25,57.922 c 0.261,-0.088 0.437,-0.332 0.437,-0.607 0,-0.275 -0.174,-0.52 -0.435,-0.607 l -15.312,-5.2 -0.823,-0.207 c -0.229,-0.057 -0.463,0.012 -0.622,0.182 l -1.074,1.131 c -0.126,0.133 -0.189,0.311 -0.175,0.492 0.014,0.182 0.104,0.348 0.248,0.459 0.267,0.205 6.604,5.021 13.555,5.021 v 0 c 1.478,0 2.892,-0.223 4.201,-0.664 z"
                 id="path3654"
                 inkscape:connector-curvature="0" />
            </g>
          </g>
          <g
             style="fill:#ffffff;fill-opacity:1"
             id="g3665">
            <g
               style="fill:#ffffff;fill-opacity:1"
               id="g3663">
              <path
                 style="fill:#ffffff;fill-opacity:1"
                 d="m 79.738,52.055 c 0.252,-0.107 0.409,-0.361 0.392,-0.633 -0.017,-0.271 -0.204,-0.503 -0.467,-0.578 l -13.446,-3.8 -0.729,-0.135 c -0.224,-0.038 -0.442,0.035 -0.592,0.197 l -1.052,1.148 c -0.121,0.132 -0.181,0.31 -0.166,0.488 0.016,0.179 0.104,0.343 0.247,0.453 0.202,0.157 5.023,3.839 10.88,3.839 v 0 c 1.734,10e-4 3.394,-0.329 4.933,-0.979 z"
                 id="path3661"
                 inkscape:connector-curvature="0" />
            </g>
          </g>
          <g
             style="fill:#ffffff;fill-opacity:1"
             id="g3671">
            <g
               style="fill:#ffffff;fill-opacity:1"
               id="g3669">
              <path
                 style="fill:#ffffff;fill-opacity:1"
                 d="m 85.397,45.613 c 0.241,-0.125 0.376,-0.389 0.339,-0.657 -0.038,-0.269 -0.239,-0.485 -0.505,-0.541 L 73.631,42.004 73,41.941 C 72.782,41.92 72.59,42 72.455,42.154 l -1.031,1.165 c -0.117,0.133 -0.175,0.309 -0.159,0.485 0.017,0.176 0.105,0.338 0.245,0.447 0.144,0.113 3.59,2.759 8.266,2.759 h 0.001 c 1.953,-10e-4 3.845,-0.47 5.62,-1.397 z"
                 id="path3667"
                 inkscape:connector-curvature="0" />
            </g>
          </g>
          <g
             style="fill:#ffffff;fill-opacity:1"
             id="g3677">
            <g
               style="fill:#ffffff;fill-opacity:1"
               id="g3675">
              <path
                 style="fill:#ffffff;fill-opacity:1"
                 d="m 89.878,38.592 c 0.232,-0.143 0.348,-0.417 0.29,-0.682 -0.058,-0.267 -0.277,-0.467 -0.547,-0.501 L 79.805,36.176 79.266,36.17 c -0.156,0.015 -0.371,0.08 -0.495,0.224 l -0.984,1.148 c -0.112,0.133 -0.168,0.307 -0.151,0.481 0.018,0.173 0.105,0.333 0.242,0.441 0.101,0.079 2.476,1.918 6.038,1.919 v 0 c 2.032,-0.001 4.038,-0.604 5.962,-1.791 z"
                 id="path3673"
                 inkscape:connector-curvature="0" />
            </g>
          </g>
          <g
             style="fill:#ffffff;fill-opacity:1"
             id="g3683">
            <g
               style="fill:#ffffff;fill-opacity:1"
               id="g3681">
              <path
                 style="fill:#ffffff;fill-opacity:1"
                 d="m 93.127,32.72 c 0.248,-0.128 0.384,-0.403 0.337,-0.678 -0.048,-0.275 -0.269,-0.487 -0.544,-0.526 l -6.471,-0.9 -0.371,-0.005 c -0.155,-0.029 -0.306,0.052 -0.424,0.152 l -0.969,0.819 c -0.13,0.111 -0.212,0.269 -0.225,0.44 -0.014,0.17 0.042,0.34 0.153,0.47 0.054,0.061 1.329,1.505 3.928,1.505 h 0.001 c 1.417,-10e-4 2.96,-0.43 4.585,-1.277 z"
                 id="path3679"
                 inkscape:connector-curvature="0" />
            </g>
          </g>
          <g
             style="fill:#ffffff;fill-opacity:1"
             id="g3689">
            <g
               style="fill:#ffffff;fill-opacity:1"
               id="g3687">
              <path
                 style="fill:#ffffff;fill-opacity:1"
                 d="m 87.402,29.691 0.72,-0.193 c 0.266,-0.072 0.455,-0.304 0.474,-0.578 l 0.021,-0.396 -0.301,-6.187 c -0.012,-0.25 -0.168,-0.47 -0.4,-0.563 -0.23,-0.093 -0.496,-0.044 -0.679,0.126 -2.87,2.69 -0.673,7.261 -0.578,7.455 0.11,0.224 0.337,0.358 0.576,0.358 0.056,0 0.113,-0.007 0.167,-0.022 z"
                 id="path3685"
                 inkscape:connector-curvature="0" />
            </g>
          </g>
          <g
             style="fill:#ffffff;fill-opacity:1"
             id="g3693">
            <path
               style="fill:#ffffff;fill-opacity:1"
               d="m 94.039,28.048 c 0.221,-0.129 0.341,-0.403 0.3,-0.678 -0.043,-0.275 -0.239,-0.488 -0.485,-0.527 l -3.861,-0.601 -0.221,-0.003 c -0.145,-0.002 -0.271,0.052 -0.377,0.152 l -0.575,0.545 c -0.116,0.111 -0.189,0.27 -0.2,0.44 -0.013,0.171 0.037,0.34 0.138,0.469 0.033,0.044 0.847,1.075 2.474,1.075 v 0 c 0.871,10e-4 1.815,-0.293 2.807,-0.872 z"
               id="path3691"
               inkscape:connector-curvature="0" />
          </g>
          <g
             style="fill:#ffffff;fill-opacity:1"
             id="g3699">
            <g
               style="fill:#ffffff;fill-opacity:1"
               id="g3697">
              <path
                 style="fill:#ffffff;fill-opacity:1"
                 id="path3695"
                 d="m 9.952,76.727 0.336,-0.359 C 14.573,71.778 22.549,63.233 43.045,57.901 64.64,52.285 70.204,47.333 78.63,39.839 87.737,31.738 90.997,27.904 92.748,25.845 c 1.154,-1.359 1.254,-2.938 1.135,-4.005 -0.004,-0.214 -0.051,-1.281 -0.663,-1.281 -0.242,0 -0.494,0.175 -0.794,0.549 l -3.854,4.816 C 67.89,49.635 47.271,52.908 47.057,52.939 11.513,59.475 4.306,75.164 4.237,75.322 c -0.016,0.037 -0.02,0.08 -0.011,0.119 0.028,0.123 0.724,3.027 2.749,3.027 v 0 c 0.894,10e-4 1.895,-0.585 2.977,-1.741 z"
                 inkscape:connector-curvature="0" />
            </g>
          </g>
        </g>
        <g
           inkscape:export-ydpi="300"
           inkscape:export-xdpi="300"
           style="fill:#ffffff;fill-opacity:1"
           id="g3705"
           transform="matrix(-0.05588835,-0.14813693,0.14813693,-0.05588835,-385.44146,199.60821)">
          <path
             style="fill:#ffffff;fill-opacity:1"
             id="path3703"
             d="m 98.525,30.53 c -1.001,-1.312 -4.911,-1.687 -9.744,0.896 -2.447,1.308 -2.952,3.041 -2.855,4.435 -0.772,0.412 -1.431,0.795 -2.602,1.092 -1.055,0.272 -2.525,-0.127 -3.843,-0.645 -1.751,-0.687 -3.967,-1.462 -6.313,-0.711 -9.666,3.09 -6.407,14.297 -3.787,20.02 1.857,4.057 -0.343,8.558 -3.86,7.061 C 62.918,61.573 62.782,56.92 62.34,51.796 62.144,49.507 61.89,47.15 61.557,44.783 59.987,33.61 53.782,26.524 45.66,27.673 c -1.229,0.176 -2.399,0.345 -3.393,0.748 -9.873,4.001 -8.41,13.728 -7.342,23.915 0.195,1.859 0.395,3.754 0.536,5.656 0.411,5.509 -3.482,10.335 -6.344,11.236 -0.619,0.194 -1.736,0.502 -2.607,-0.049 -2.913,-1.841 -1.133,-4.805 1.08,-7.729 2.769,-3.658 6.711,-8.574 2.862,-16.04 C 27.56,39.8 21.65,40.012 17.302,39.888 14.008,39.796 10.907,39.144 9.709,36.963 8.3,34.398 8.954,32.423 10.538,30.743 c 0,0 3.388,-4.086 9.253,-1.448 2.711,1.219 8.035,1.978 12.353,-2.546 4.055,-4.247 1.611,-13.476 1.497,-13.745 0,0 -0.121,-0.275 -0.283,-0.298 -0.203,-0.028 -0.18,0.356 -0.18,0.356 0.241,4.216 -1.963,11.727 -6.545,12.725 -0.917,0.199 -3.449,0.013 -5.885,-1.392 -5.163,-2.979 -19.025,-2.642 -20.244,9.628 -0.682,6.86 5.374,12.003 9.897,13.832 2.084,0.84 4.128,1.042 5.771,1.204 2.354,0.231 3.786,0.416 4.288,2.014 1.06,3.366 -10.798,5.656 -12.072,15.369 -1.263,9.622 6.989,23.417 22.969,18.389 5.125,-1.614 10.357,-5.68 12.88,-10.517 4.552,-8.736 2.777,-18.047 2.278,-24.544 -0.333,-4.329 -0.574,-7.458 0.843,-7.905 0.654,-0.206 1.098,-0.123 1.474,0.073 2.263,1.178 1.741,12.706 2.441,16.361 1.831,9.573 6.616,13.957 13.512,14.916 6.865,0.954 12.016,-4.201 13.14,-7.586 1.776,-5.354 0.432,-10.115 -1.904,-14.781 -1.794,-3.589 -3.241,-6.875 -1.955,-8.444 1.544,-1.887 3.07,-1.366 5.032,-0.682 1.2,0.421 3.801,0.96 5.786,0.335 1.667,-0.525 3.053,-1.417 4.008,-2.161 1.291,0.456 3.13,0.416 5.461,-1.378 1.813,-1.391 5.813,-5.839 4.172,-7.988 z"
             inkscape:connector-curvature="0" />
        </g>
        <path
           inkscape:export-ydpi="300"
           inkscape:export-xdpi="300"
           id="path3707"
           d="m -396.99979,154.37 c -0.61493,-0.0705 -1.06536,-0.59321 -1.46878,-1.00604 -0.5219,-0.53373 -1.01543,-1.09761 -1.45418,-1.70232 -0.33584,-0.46258 -0.64297,-0.94948 -0.89047,-1.46553 -0.224,-0.46697 -0.45334,-0.98644 -0.47246,-1.51108 -0.0152,-0.41607 0.10692,-0.83959 0.23452,-1.23943 -0.25901,0.1457 -0.50391,0.22868 -0.6911,0.23679 -0.70425,0.60262 -1.63217,1.35208 -2.66511,2.14432 -2.33524,1.79165 -4.3209,3.1238 -4.43451,2.97532 -0.11401,-0.1483 1.68709,-1.7208 4.02235,-3.51245 1.03294,-0.79257 1.99699,-1.49487 2.76137,-2.01903 0.0564,-0.17861 0.2,-0.3937 0.40795,-0.60586 -0.41947,0.0194 -0.86032,0.0278 -1.25824,-0.0945 -0.50179,-0.15463 -0.94411,-0.51071 -1.33699,-0.84784 -0.43438,-0.37279 -0.825,-0.79565 -1.18482,-1.23992 -0.47034,-0.58024 -0.88738,-1.20313 -1.26762,-1.84528 -0.29419,-0.49678 -0.68236,-1.06715 -0.59095,-1.67933 0.0391,-0.26289 0.16191,-0.60521 0.39628,-0.75545 0.23908,-0.15333 0.58334,-0.0731 0.81673,0.0541 0.25204,0.13728 0.43049,0.36484 0.59938,0.59094 0.35479,0.4749 0.6843,0.96859 1.02467,1.45371 1.00538,1.43214 2.05664,2.89038 3.43093,3.86919 0.0945,-0.0562 0.18719,-0.10376 0.27682,-0.14312 -0.0302,-0.0313 -0.0542,-0.0566 -0.0572,-0.06 -0.895,-0.91364 -1.85112,-1.81223 -2.57561,-2.87353 -0.42481,-0.62255 -0.69987,-1.32209 -0.90766,-2.04318 -0.14408,-0.50002 -0.27439,-1.02355 -0.28541,-1.54707 -0.005,-0.25593 0.0495,-0.57505 0.17796,-0.79873 0.2,-0.34766 0.64087,-0.46727 0.99631,-0.28786 0.32318,0.16322 0.4809,0.52499 0.62141,0.83796 0.24913,0.55496 0.38722,1.15369 0.58657,1.72696 0.33664,0.96893 0.65837,1.94384 0.98593,2.91617 0.22952,0.68073 0.47717,1.35774 0.68674,2.04529 0.065,-0.0189 0.12725,-0.0321 0.18462,-0.0387 0.0253,-0.16532 0.12641,-0.34652 0.28688,-0.50066 -6.7e-4,-0.001 -0.002,-0.001 -0.003,-0.003 -0.1193,-0.15576 -0.1013,-0.37004 0.04,-0.47847 0.14165,-0.10857 0.35317,-0.0705 0.47262,0.0852 0.0225,0.0291 0.0381,0.0606 0.0511,0.0927 0.21006,-0.0406 0.39937,0.003 0.50196,0.13615 0.10276,0.13373 0.0955,0.32773 0.002,0.52012 0.0279,0.0208 0.054,0.0442 0.0763,0.0733 0.11945,0.15577 0.10145,0.36987 -0.0402,0.47862 -0.1415,0.10857 -0.35302,0.0705 -0.47247,-0.0854 -6.7e-4,-0.001 -0.001,-0.001 -0.002,-0.003 -0.19044,0.11502 -0.39175,0.16565 -0.55788,0.14716 -0.0214,0.0538 -0.0503,0.11022 -0.0851,0.16857 0.60975,0.38056 1.1994,0.79517 1.79748,1.19291 0.85416,0.5681 1.71254,1.13181 2.5612,1.70784 0.50212,0.34102 1.04444,0.62953 1.5161,1.01399 0.26613,0.21686 0.57457,0.46258 0.64832,0.81704 0.0812,0.39014 -0.14847,0.7848 -0.53616,0.88788 -0.24945,0.0663 -0.57182,0.0367 -0.8177,-0.0351 -0.50294,-0.1462 -0.97475,-0.40764 -1.42047,-0.67636 -0.64282,-0.38754 -1.24705,-0.83423 -1.73848,-1.40589 -0.83731,-0.9746 -1.45743,-2.13072 -2.10818,-3.23188 -0.003,-0.004 -0.0208,-0.0337 -0.0432,-0.0709 -0.0612,0.0765 -0.13145,0.15348 -0.21006,0.23015 0.58965,1.58109 1.72567,2.97418 2.84857,4.31637 0.3804,0.45447 0.77183,0.90036 1.13861,1.36617 0.17457,0.22173 0.34816,0.45334 0.41525,0.73229 0.0626,0.25835 0.0507,0.61136 -0.15899,0.80262 -0.20536,0.18721 -0.56794,0.21702 -0.83197,0.18705 z"
           style="fill:#ffffff;fill-opacity:1;stroke-width:0.1620806"
           inkscape:connector-curvature="0" />
        <g
           inkscape:export-ydpi="300"
           inkscape:export-xdpi="300"
           transform="matrix(0.06943458,0,0,0.06943458,-379.8383,160.63638)"
           id="g3711"
           style="fill:#ffffff;fill-opacity:1;image-rendering:optimizeQuality;shape-rendering:geometricPrecision;text-rendering:geometricPrecision">
          <path
             style="fill:#ffffff;fill-opacity:1"
             inkscape:connector-curvature="0"
             id="path3709"
             d="m 327,17 c -7,39 -36,65 -74,81 -7,3 -22,55 -56,60 -6,1 21,-48 14,-47 -42,10 -89,9 -130,2 -16,-3 -39,55 -50,58 -5,2 4,-46 -2,-49 0,-8 -34,-45 -28,-47 10,-3 65,32 73,21 15,-21 63,-54 89,-70 6,-4 -56,-14 -50,-17 34,-14 74,3 77,2 11,-4 25,-8 42,-10 -1,6 2,41 22,58 C 236,26 237,0 240,0 c 26,-1 62,3 87,17 z m -57,-4 c 4,0 8,3 8,7 0,5 -4,8 -8,8 -4,0 -8,-3 -8,-8 0,-4 4,-7 8,-7 z"
             class="fil0" />
        </g>
        <path
           inkscape:export-ydpi="300"
           inkscape:export-xdpi="300"
           id="path3713"
           d="m -381.0953,210.56669 c -0.14227,-0.12489 -0.38668,-0.48109 -0.43195,-0.6201 -0.0582,-0.10806 -0.24378,-0.34271 -0.43711,-0.61234 -0.23215,-0.24705 -0.94731,-1.17624 -0.90527,-1.80929 -0.0511,-0.18428 -0.52894,-1.55319 -2.34531,-2.8335 l 0.003,-0.003 c -0.27168,-0.1674 -0.26004,-0.4436 -0.24646,-0.54963 0.003,-0.0127 0.005,-0.0244 0.007,-0.0362 0,-0.003 0.002,-0.0101 0.002,-0.0101 l -0.003,-0.001 c 0.006,-0.0428 0.0118,-0.086 0.0118,-0.1305 0,-0.43776 -0.28969,-0.79276 -0.64598,-0.79276 -0.0582,0 -0.11122,0.0127 -0.16489,0.0291 -0.10277,-0.26898 -0.32521,-0.45717 -0.58515,-0.45717 -0.25413,0 -0.4701,0.1811 -0.57614,0.44164 -0.33366,0.55868 -0.57485,0.71713 -0.66796,0.75657 -0.008,0.003 -0.0173,0.005 -0.0252,0.008 -0.0252,0.0284 -2.49919,-0.0409 -4.17524,-0.53412 -0.12996,-0.0504 -0.25994,-0.0911 -0.39056,-0.12733 -0.0102,-0.003 -0.0213,-0.008 -0.0317,-0.0126 v 0.003 c -0.7585,-0.20236 -1.5254,-0.15445 -2.32139,0.19844 -0.83866,0.3718 -1.71096,0.36729 -2.60653,0.1855 -1.22858,-0.2496 -2.46298,-0.51212 -3.70644,-0.65049 -2.90204,-0.32268 -5.62626,0.20821 -7.85065,2.20757 -1.37406,1.2344 -3.10055,1.65341 -4.32654,3.03975 -1.03718,1.17495 -1.19044,3.55323 -1.51569,5.09734 -0.19204,0.90527 -0.39055,1.81185 -0.64662,2.70029 -0.38215,1.32559 -0.45328,2.77467 -1.47041,3.85906 -0.16749,0.6175 0.0925,1.62301 0.11059,1.69739 0.53151,2.24442 1.01843,2.59877 3.30747,2.3925 0.22501,-0.0196 0.47979,-0.0171 0.6615,-0.12223 0.16229,-0.0944 0.34788,-0.32849 0.34335,-0.49662 -0.0149,-0.56451 -0.48884,-0.64016 -0.92079,-0.72615 -0.54446,-0.1073 -0.64016,-0.26965 -0.33624,-0.72939 0.21274,-0.32268 0.48496,-0.62205 0.78176,-0.86972 1.23506,-1.03329 2.23602,-2.24055 2.96153,-3.68703 0.17653,-0.35176 0.43842,-0.61302 0.74103,-0.79407 0.7391,-0.87875 1.38766,-1.87389 1.68251,-2.89556 -0.11515,0.48369 -0.40284,1.46849 -1.19495,2.68282 -0.16297,0.4992 0.38668,1.18463 0.51924,1.45621 1.02942,1.38765 2.01164,2.74749 2.67636,4.19012 0.0971,0.20822 0.33237,0.3925 0.54705,0.50047 1.09344,0.54835 2.25864,0.65567 3.45102,0.43971 0.17653,-0.0323 0.42159,-0.22362 0.45393,-0.37957 0.0356,-0.17083 -0.0873,-0.45912 -0.23342,-0.56387 -0.26512,-0.1889 -0.59101,-0.30455 -0.90785,-0.40348 -0.96412,-0.3039 -0.93826,-0.0401 -0.88135,-1.25897 0.003,-0.0483 0.0173,-0.095 0.0173,-0.14296 0.003,-0.74621 0.43259,-1.96446 0.32202,-2.85356 0.78306,0.40931 2.04332,0.85161 3.72583,0.75331 0.0957,-1.1691 0.35759,-2.02327 0.57227,-2.56773 0.0137,-0.003 0.0278,-0.008 0.0414,-0.0101 -0.14419,0.44488 -0.2386,0.91692 -0.29033,1.40641 -0.0149,0.10338 -0.0265,0.21214 -0.0369,0.32654 -10e-4,0.0302 -0.005,0.0601 -0.008,0.09 -0.011,0.15446 -0.0149,0.31945 -0.0149,0.49468 -0.002,0.0801 -0.009,0.15982 -0.009,0.23998 0.004,0 0.008,-6.7e-4 0.0102,-0.001 0.0336,1.02943 0.28064,2.37891 0.98804,4.07825 0.46945,1.12707 1.38248,1.84805 2.54317,2.06272 0.86906,0.16033 1.79437,0.0401 2.69253,0.0126 0.31814,-0.0101 0.59877,-0.12805 0.59877,-0.55545 0,-0.41705 -0.22437,-0.60587 -0.58325,-0.66925 -0.38538,-0.0679 -0.774,-0.13246 -1.16456,-0.14541 -0.63369,-0.0196 -1.00485,-0.36017 -0.97123,-0.95506 0.0905,-1.57905 0.0356,-3.21113 0.43841,-4.71582 0.0382,-0.1442 0.0873,-0.28387 0.13256,-0.42547 0.2276,0.69576 0.60783,1.09603 0.60783,1.09603 v -6.7e-4 c 0.94924,1.16004 1.95668,2.27159 3.37472,2.87813 0.49208,0.21017 0.67507,0.48689 0.57097,0.99061 -0.0524,0.26123 -0.16037,0.53475 -0.12608,0.78695 0.0472,0.35822 0.10669,0.8225 0.34465,1.01131 0.15777,0.12734 0.75137,-0.0369 0.95118,-0.25411 1.38246,-1.51504 1.88877,-3.00615 0.91237,-4.76497 -0.53411,-0.96022 -1.26414,-1.81895 -1.96831,-2.67313 -0.42872,-0.52053 -0.65503,-1.03136 -0.45652,-1.69415 0.12674,-0.42612 0.25024,-0.86065 0.37633,-1.29586 l 10e-4,-0.003 c 0.18688,-0.64918 0.55092,-1.12704 0.55092,-1.12704 0,0 0.15907,-0.22045 0.66925,-0.79471 0.001,0 0.001,0 0.001,0 0.12416,0.28906 0.41061,0.83997 0.77142,0.79148 -0.0382,-0.0369 -0.18556,-0.46815 -0.18556,-0.79016 0.0886,0.003 0.18234,0.005 0.27869,0.008 0.12804,0.29485 0.52893,1.09018 1.08439,1.00807 -0.0524,-0.042 -0.24379,-0.56902 -0.22245,-0.95636 0.93049,0.0802 1.9916,0.25671 2.80117,0.63434 0.10992,0.044 0.65697,0.53865 1.03201,0.52376 0.39767,0.0543 0.65373,0.19797 0.82703,-0.022 0.008,-0.0244 0.19852,0.13393 0.33624,0.0147 0.15519,-0.12684 0.4397,-0.36339 0.5742,-0.64661 0.0459,0.008 0.52312,-0.18428 0.5173,-0.36858 -0.0614,-0.15958 0.0407,-0.16178 -0.33948,-0.55482 z"
           style="clip-rule:evenodd;fill:#ffffff;fill-opacity:1;fill-rule:evenodd;stroke-width:0.6466223"
           inkscape:connector-curvature="0" />
        <g
           inkscape:export-ydpi="300"
           inkscape:export-xdpi="300"
           style="fill:#ffffff;fill-opacity:1"
           id="g3717"
           transform="matrix(0.33479316,0,0,0.33479316,-377.31518,162.39708)">
          <path
             style="fill:#ffffff;fill-opacity:1"
             id="path3715"
             d="m 88.971,77.337 c 0.047,-2.563 -4.815,-3.382 -6.62,-4.405 -1.878,-1.064 -3.047,-2.471 -4.457,-4.021 -0.78,-0.857 -4.803,-2.692 -4.968,-3.046 -1.554,-3.318 -0.116,-7.353 -0.146,-10.85 -0.021,-2.568 -0.289,-5.902 -1.86,-8.04 -0.675,-0.919 -3.324,-2.686 -3.202,-3.706 0.283,-2.362 4.653,-5.155 6.17,-7.057 3.348,-4.202 5.383,-9.051 5.72,-14.424 0.61,-9.763 -6.896,-18.375 -17.016,-16.636 -9.201,1.582 -13.668,11.005 -15.7,19.166 -0.986,3.961 -0.963,8.116 -1.236,12.172 -0.184,2.722 0.852,7.286 -1.931,7.94 -3.87,0.909 -7.846,1.043 -11.614,2.456 -4.288,1.608 -4.412,-0.239 -6.798,-3.158 -4.114,-5.033 -14.586,0.969 -13.218,5.69 -1.238,1.28 -1.638,3.089 -1.029,4.739 0.844,2.284 5.44,0.968 7.317,1.461 1.938,0.51 1.302,4.081 1.87,5.771 0.735,2.19 4.008,5.574 3.095,8.128 0.566,4.696 -0.167,10.388 -0.97,15.009 -0.24,1.384 -0.562,3.976 -1.992,4.783 -0.436,0.246 -7.125,0.589 -5.855,2.323 0.575,0.785 5.626,0.412 6.228,0.349 2.542,-0.271 4.146,-2.097 5.05,-4.46 2.064,-5.396 4.275,-12.844 3.811,-18.604 2.191,1.693 5.478,2.392 6.319,5.086 0.923,2.957 2.438,5.598 3.217,8.646 0.63,2.466 2.356,5.24 2.356,7.737 0,3.011 -4.924,1.189 -4.559,3.042 0.149,0.76 4.861,0.978 5.196,0.978 3.215,0 3.842,-5.263 3.102,-7.794 -0.559,-6.388 -1.063,-13.604 -4.465,-19.068 2.51,0.022 5.037,-0.513 7.359,-1.453 1.991,-0.807 3.843,-1.944 5.443,-3.379 0.833,-0.747 3.384,-5.029 4.364,-4.888 0.391,0.057 -3.903,7.755 -4.39,8.665 -1.67,3.123 1.043,8.448 2.169,11.446 0.902,2.1 5.306,6.383 5.306,8.525 -10e-4,1.581 -3.507,0.873 -4.081,0.611 -1.594,-0.725 -1.903,1.185 -3.005,0.953 -4.084,-0.859 -4.754,1.76 -1.478,2.436 2.912,0.6 8.438,0.499 11.299,-0.51 9.389,-3.312 -7.378,-17.294 0.034,-23.267 2.13,5.128 7.455,7.675 12.002,10.415 3.254,1.962 14.178,2.985 7.647,9.624 -1.072,1.09 -4.289,-0.72 -4.595,1.896 -0.163,1.398 4.644,1.281 5.045,1.086 1.605,-0.804 4.282,1.205 4.08,-1.542 -0.268,-3.625 1.413,-7.196 0.986,-10.825 z M 12.195,49.723 12.199,49.734 Z M 65.605,37.48 c -5.726,2.717 -11.167,4.427 -17.348,5.927 0.519,-3.138 -0.385,-6.565 0,-9.792 1.134,-3.036 1.293,-7.309 1.944,-10.526 1.495,-7.38 5.522,-13.282 13.025,-15.316 8.52,-2.31 12.564,6.377 13.017,13.061 0.445,6.591 -5.592,13.235 -10.638,16.646 z"
             inkscape:connector-curvature="0" />
        </g>
        <g
           inkscape:export-ydpi="300"
           inkscape:export-xdpi="300"
           style="fill:#ffffff;fill-opacity:1"
           id="g3723"
           transform="matrix(0.21324588,0,0,0.21324588,-430.49493,160.81313)">
          <path
             id="path3719"
             d="M 49.682,92.458 C 48.839,92.1 47.639,85.84 47.639,81.783 c 0,-3.388 -1.715,-12.197 -1.788,-12.57 -0.014,-0.145 -1.996,-18.653 1.258,-30.702 0.786,-2.909 0.527,-5.889 0.358,-7.149 0.922,0.062 2.792,0.283 4.653,1.073 -0.755,3.272 -5.312,24.177 -1.673,37.011 0.025,0.075 1.749,5.2 1.749,9.739 0,2.809 0.303,4.388 0.523,5.54 0.151,0.788 0.271,1.41 0.247,2.146 -0.053,1.742 -1.943,5.552 -3.284,5.587 z m 8.689,-45.463 c -0.365,-0.444 -0.694,-0.924 -1.002,-1.418 0.345,0.468 0.685,0.938 1.004,1.419 l 0.007,0.01 c -0.003,-0.004 -0.006,-0.007 -0.009,-0.011 z m 2.067,-1.118 c -0.445,-0.553 -0.853,-1.144 -1.237,-1.75 l 1.245,1.759 C 60.443,45.883 60.441,45.88 60.438,45.877 Z m 3.144,-0.659 c -0.504,-0.449 -0.973,-0.943 -1.419,-1.458 0.025,0.026 0.052,0.053 0.078,0.079 0.452,0.457 0.904,0.913 1.343,1.379 0.004,0.004 0.007,0.007 0.011,0.011 -0.004,-0.003 -0.009,-0.007 -0.013,-0.011 z M 34.498,43.131 c 0.528,-0.486 1.071,-0.957 1.616,-1.428 -0.516,0.505 -1.051,0.99 -1.616,1.429 -0.003,0.003 -0.007,0.006 -0.011,0.008 0.003,-0.003 0.007,-0.006 0.011,-0.009 z m 38.356,-0.67 c -0.31,-0.252 -0.777,-0.754 -1.087,-1.086 -0.388,-0.417 -0.789,-0.849 -1.136,-1.136 -2.682,-2.22 -5.288,-4.011 -7.968,-5.477 -4.562,-2.494 -11.387,-5.466 -18,-5.466 -1.93,0 -3.756,0.255 -5.428,0.759 -3.787,1.14 -8.23,5.479 -10.885,8.07 -0.769,0.75 -1.559,1.522 -1.973,1.848 0.065,-0.63 0.627,-2.057 0.95,-2.877 0.255,-0.647 0.5,-1.274 0.661,-1.781 0.461,-1.465 1.136,-3.062 1.788,-4.606 0.189,-0.448 0.375,-0.887 0.549,-1.31 1.496,-3.617 3.441,-7.201 5.782,-10.652 3.43,-5.062 8.098,-10.872 13.789,-10.872 1.561,0 3.146,0.452 4.71,1.345 2.759,1.573 5.062,3.931 7.139,6.246 l 0.464,0.516 c 2.495,2.775 5.324,5.921 7.285,9.126 2.703,4.42 4.401,13.381 3.36,17.353 z M 33.018,41.18 c 0.597,-0.52 1.225,-1.028 1.85,-1.523 -0.599,0.532 -1.215,1.05 -1.852,1.526 -10e-4,10e-4 -0.003,0.002 -0.004,0.003 z"
             inkscape:connector-curvature="0"
             style="fill:#ffffff;fill-opacity:1" />
          <path
             id="path3721"
             d="m 49.895,8.375 c 1.473,0 2.975,0.43 4.463,1.279 2.696,1.538 4.964,3.862 7.014,6.146 l 0.464,0.516 c 2.603,2.894 5.294,5.887 7.23,9.053 2.654,4.338 4.026,12.123 3.472,16.097 -0.146,-0.153 -0.289,-0.306 -0.405,-0.431 -0.399,-0.429 -0.812,-0.872 -1.184,-1.18 -2.706,-2.24 -5.338,-4.049 -8.047,-5.531 -4.612,-2.521 -11.521,-5.527 -18.24,-5.527 -1.979,0 -3.853,0.263 -5.572,0.78 -3.904,1.176 -8.229,5.398 -11.09,8.191 -0.209,0.204 -0.425,0.415 -0.636,0.619 0.147,-0.396 0.302,-0.79 0.427,-1.108 0.26,-0.66 0.505,-1.283 0.672,-1.814 0.455,-1.442 1.124,-3.028 1.771,-4.561 0.19,-0.45 0.376,-0.89 0.551,-1.313 1.483,-3.586 3.413,-7.14 5.733,-10.563 3.363,-4.961 7.921,-10.653 13.377,-10.653 m -1.86,23.538 c 0.887,0.097 2.18,0.319 3.504,0.826 -0.98,4.362 -5.113,24.354 -1.572,36.842 0.004,0.017 0.01,0.033 0.015,0.049 0.017,0.051 1.714,5.103 1.714,9.555 0,2.856 0.308,4.462 0.532,5.635 0.151,0.786 0.26,1.354 0.238,2.036 -0.049,1.599 -1.674,4.656 -2.61,5.059 -0.771,-1.133 -1.717,-6.61 -1.717,-10.131 0,-3.351 -1.64,-11.858 -1.789,-12.624 -0.102,-0.969 -1.915,-18.831 1.242,-30.518 0.699,-2.584 0.596,-5.222 0.443,-6.729 m 1.86,-24.538 c -5.984,0 -10.84,6.129 -14.203,11.091 -2.291,3.379 -4.269,6.969 -5.83,10.742 -0.77,1.864 -1.747,4.034 -2.352,5.957 -0.593,1.883 -2.405,5.444 -1.262,5.444 0.851,0 7.713,-8.443 13.131,-10.075 1.702,-0.513 3.478,-0.738 5.284,-0.738 6.162,0 12.671,2.622 17.76,5.404 2.809,1.536 5.426,3.385 7.889,5.424 0.864,0.716 2.176,2.483 2.738,2.483 0.058,0 0.107,-0.019 0.148,-0.06 C 74.509,39.278 72.885,29.693 69.92,24.846 67.815,21.405 64.808,18.128 62.116,15.131 59.983,12.755 57.651,10.381 54.853,8.785 53.127,7.8 51.472,7.375 49.895,7.375 Z M 44.7,30.802 c -2.634,2.274 -5.288,4.524 -7.966,6.734 -1.347,1.097 -2.741,2.132 -4.046,3.268 l -3.91,3.442 0.053,0.085 c 1.623,-0.709 3.08,-1.711 4.484,-2.748 1.403,-1.046 2.663,-2.261 3.944,-3.443 2.572,-2.354 5.072,-4.779 7.51,-7.266 z m 2.185,0.036 c -0.003,0 -0.004,0 -0.004,0 0,0 0.74,3.868 -0.253,7.543 -3.317,12.282 -1.266,30.928 -1.266,30.928 0,0 1.778,9.097 1.778,12.475 0,3.376 1.069,11.175 2.529,11.175 0,0 0.001,0 0.002,0 1.789,-0.01 3.741,-4.281 3.797,-6.071 0.061,-1.934 -0.771,-3.025 -0.771,-7.702 0,-4.679 -1.768,-9.876 -1.768,-9.876 -3.88,-13.688 1.773,-37.162 1.773,-37.162 -2.768,-1.296 -5.692,-1.31 -5.817,-1.31 z m -6.983,0.358 c -2.372,1.038 -4.555,2.454 -6.658,3.957 -1.053,0.751 -2.11,1.507 -3.061,2.385 -0.938,0.894 -1.862,1.8 -2.651,2.841 l 0.052,0.055 c 1.083,-0.727 2.07,-1.544 3.088,-2.326 1.004,-0.795 1.942,-1.669 2.937,-2.478 0.995,-0.808 2.016,-1.583 3.068,-2.317 1.047,-0.738 2.119,-1.454 3.256,-2.048 z m 2.76,0.004 c -2.562,1.776 -5.112,3.569 -7.649,5.378 -1.273,0.899 -2.572,1.764 -3.791,2.734 -1.208,0.986 -2.424,1.961 -3.544,3.065 l 0.045,0.061 c 1.377,-0.759 2.658,-1.647 3.948,-2.524 1.278,-0.892 2.477,-1.891 3.701,-2.854 2.458,-1.917 4.903,-3.85 7.335,-5.799 z m 13.891,1.451 -0.051,0.055 c 2.223,2.229 4.51,4.396 6.869,6.487 1.177,1.049 2.344,2.117 3.624,3.046 1.292,0.907 2.607,1.813 4.079,2.433 l 0.037,-0.064 C 69.873,43.627 68.654,42.655 67.454,41.647 66.247,40.651 64.983,39.72 63.76,38.737 61.323,36.753 58.923,34.72 56.553,32.651 Z m -10.125,0.006 c -1.897,2.591 -3.871,5.125 -5.928,7.58 -1.038,1.221 -2.133,2.385 -3.182,3.585 -1.042,1.21 -2.123,2.371 -3.274,3.498 l 0.044,0.061 c 1.426,-0.794 2.627,-1.917 3.78,-3.047 1.138,-1.153 2.12,-2.441 3.099,-3.72 1.966,-2.553 3.802,-5.198 5.523,-7.914 z m -2.212,0.299 c -2.102,2.327 -4.289,4.575 -6.56,6.715 -1.146,1.062 -2.356,2.043 -3.497,3.092 -1.144,1.052 -2.298,2.073 -3.509,3.093 l 0.05,0.087 c 1.502,-0.556 2.85,-1.45 4.104,-2.415 1.255,-0.975 2.336,-2.141 3.416,-3.289 2.169,-2.29 4.191,-4.704 6.074,-7.22 z m 10.831,0.006 -0.057,0.05 c 2.084,2.505 4.229,4.959 6.453,7.347 1.108,1.196 2.205,2.412 3.433,3.496 1.247,1.05 2.5,2.155 4.024,2.829 l 0.037,-0.065 c -1.265,-1.019 -2.4,-2.167 -3.549,-3.312 -1.146,-1.143 -2.353,-2.23 -3.516,-3.367 -2.31,-2.286 -4.581,-4.618 -6.825,-6.978 z m -1.879,0.754 -0.09,0.045 c 1.324,2.874 2.776,5.688 4.383,8.425 0.798,1.371 1.586,2.761 2.591,4.008 1.008,1.23 2.115,2.442 3.508,3.275 l 0.064,-0.077 c -1.01,-1.226 -1.886,-2.502 -2.77,-3.794 l -2.716,-3.837 c -1.741,-2.618 -3.393,-5.31 -4.97,-8.045 z m 7.49,0.908 -0.043,0.061 c 1.679,1.337 3.371,2.658 5.075,3.96 0.848,0.658 1.67,1.35 2.57,1.935 0.901,0.583 1.819,1.142 2.811,1.599 l 0.043,-0.061 C 70.362,41.326 69.538,40.637 68.697,39.97 67.854,39.305 66.934,38.749 66.039,38.158 64.258,36.962 62.465,35.784 60.658,34.624 Z m -5.382,0.216 -0.084,0.055 c 1.538,2.544 3.226,4.998 5.082,7.336 0.924,1.171 1.851,2.36 2.978,3.363 1.126,0.989 2.364,1.922 3.796,2.446 l 0.051,-0.087 C 65.97,46.971 64.956,45.939 63.949,44.875 62.948,43.813 61.882,42.802 60.886,41.713 58.917,39.519 57.05,37.215 55.276,34.84 Z m -9.355,1.183 c -1.587,2.132 -3.232,4.221 -4.945,6.242 l -2.645,2.951 c -0.856,1.005 -1.741,1.966 -2.691,2.905 l 0.043,0.062 c 1.22,-0.603 2.229,-1.529 3.196,-2.455 0.954,-0.948 1.757,-2.024 2.564,-3.086 1.622,-2.121 3.129,-4.318 4.541,-6.577 z m 6.6,1.179 -0.09,0.045 c 1.044,2.328 2.196,4.607 3.479,6.824 0.636,1.111 1.255,2.245 2.077,3.245 0.824,0.985 1.74,1.955 2.899,2.587 L 60.95,49.827 C 60.173,48.801 59.489,47.766 58.789,46.72 58.097,45.675 57.307,44.689 56.587,43.646 55.17,41.548 53.818,39.392 52.521,37.202 Z m -0.644,2.606 -0.072,0.021 c 0.536,1.978 1.377,3.868 2.392,5.658 0.503,0.897 1.026,1.797 1.696,2.586 0.674,0.782 1.415,1.513 2.274,2.102 L 58.22,50.122 C 57.658,49.25 57.063,48.439 56.486,47.614 55.913,46.789 55.271,46.012 54.708,45.173 54.147,44.335 53.63,43.464 53.159,42.568 52.679,41.676 52.232,40.76 51.877,39.808 Z m -6.297,0.191 c -0.811,1.575 -1.638,3.141 -2.489,4.686 -0.433,0.769 -0.915,1.508 -1.306,2.292 l -1.179,2.362 0.056,0.051 c 0.747,-0.546 1.283,-1.297 1.774,-2.04 0.487,-0.754 0.827,-1.583 1.191,-2.394 0.738,-1.618 1.408,-3.261 2.021,-4.926 z m -0.875,0.773 -3.516,3.764 c -0.589,0.623 -1.214,1.213 -1.746,1.882 -0.539,0.665 -1.03,1.364 -1.533,2.067 l 0.046,0.06 c 0.798,-0.417 1.428,-1.027 2.046,-1.626 0.611,-0.609 1.113,-1.313 1.643,-1.991 1.069,-1.347 2.107,-2.717 3.119,-4.107 z m 6.555,1.912 -0.07,0.023 c 0.388,1.493 0.813,2.974 1.282,4.444 0.228,0.737 0.423,1.489 0.752,2.19 0.334,0.698 0.703,1.389 1.217,2 l 0.068,-0.031 c -0.141,-0.78 -0.353,-1.515 -0.588,-2.245 -0.234,-0.729 -0.583,-1.416 -0.886,-2.122 z m -6.489,2.506 h -0.075 c -0.134,0.799 -0.365,1.574 -0.631,2.321 -0.142,0.373 -0.341,0.72 -0.432,1.105 -0.09,0.387 -0.17,0.779 -0.163,1.232 l 0.067,0.033 c 0.363,-0.276 0.603,-0.63 0.798,-1.002 0.192,-0.375 0.242,-0.802 0.31,-1.212 0.147,-0.821 0.209,-1.654 0.126,-2.477 z m 6.33,0.934 c -0.26,0.93 -0.41,1.894 -0.397,2.885 0.003,0.493 0.007,1.017 0.226,1.499 0.216,0.468 0.594,0.937 1.114,1.079 l 0.047,-0.059 c -0.235,-0.451 -0.351,-0.844 -0.454,-1.271 -0.094,-0.42 -0.254,-0.844 -0.334,-1.301 -0.142,-0.911 -0.172,-1.868 -0.127,-2.82 z"
             inkscape:connector-curvature="0"
             style="fill:#ffffff;fill-opacity:1" />
        </g>
        <g
           inkscape:export-ydpi="300"
           inkscape:export-xdpi="300"
           id="g3729"
           style="fill:#ffffff;fill-opacity:1;image-rendering:optimizeQuality;shape-rendering:geometricPrecision;text-rendering:geometricPrecision"
           transform="matrix(0.02867987,0.017268,-0.017268,0.02867987,-427.85762,187.79333)">
          <path
             style="fill:#ffffff;fill-opacity:1"
             id="path3725"
             d="m 323,334 c 64,30 62,163 133,223 21,18 -41,-97 -34,-198 0,-1 1,-3 1,-4 1,1 1,2 2,3 5,4 9,4 12,4 2,0 2,-1 6,-2 -1,1 -5,7 -5,8 -19,26 30,151 41,188 -4,-50 -26,-150 8,-181 21,-21 -6,12 -1,102 6,126 21,146 81,255 27,48 2,64 -34,6 -44,-72 -140,-190 -234,-189 -13,-1 -47,19 -46,16 0,-4 44,-49 84,-36 126,42 160,154 55,-33 -56,-101 -17,-111 -83,-161 -3,2 -2,6 -1,16 4,54 -82,33 -106,-18 -7,-15 -19,-59 -24,-93 -71,44 -29,127 -30,131 -10,21 -164,-16 -64,-133 -15,2 -51,-15 -58,-39 -6,-20 1,-30 -16,-48 -32,-35 23,-50 36,-21 9,20 26,11 30,37 4,21 -5,15 30,27 11,4 16,7 17,10 11,-7 21,-11 32,-13 -20,-22 -15,-50 -17,-91 48,-15 111,16 104,60 1,-11 9,-22 20,-31 -18,-40 9,-35 -27,-48 -23,-9 -12,-24 -30,-35 -28,-18 -3,-70 26,-33 16,19 25,15 45,24 24,12 39,60 23,71 65,-26 161,-16 138,87 -50,24 -89,-52 -145,-18 35,18 72,48 82,74 17,49 17,78 -51,83 z M 199,150 c -27,10 -38,44 -32,-32 20,-4 50,25 32,32 z m 30,53 c 67,-1 80,94 63,93 -5,0 -121,-78 -63,-93 z m -80,15 c -35,0 -84,66 -59,97 17,22 13,-20 30,-39 7,-7 71,-59 29,-58 z m 245,-85 c -22,-27 -105,-23 -113,16 -5,28 24,-2 50,-1 9,0 91,18 63,-15 z"
             class="fil0"
             inkscape:connector-curvature="0" />
          <path
             style="fill:#ffffff;fill-opacity:1"
             id="path3727"
             d="m 444,269 c -23,36 -32,104 -1,87 28,-16 43,-152 1,-87 z m -15,74 c 1,-44 23,-75 25,-69 -11,21 -18,45 -25,69 z"
             class="fil1"
             inkscape:connector-curvature="0" />
        </g>
        <path
           inkscape:export-ydpi="300"
           inkscape:export-xdpi="300"
           style="fill:#ffffff;fill-opacity:1;stroke-width:0.16613901"
           id="path3731"
           d="m -391.31015,165.39206 c 0.18957,0.0467 0.38827,0.0763 0.58481,0.0859 -0.0204,0.12826 -0.0329,0.26101 -0.0337,0.40057 0.0563,0.67452 0.3351,1.10431 0.74181,1.35702 -0.0106,0.008 -0.0213,0.0152 -0.0302,0.0271 -0.17361,0.2316 -0.34723,0.46302 -0.52084,0.69462 -0.0965,0.12859 0.11995,0.2527 0.21515,0.12577 0.17361,-0.2316 0.34723,-0.46302 0.52084,-0.69462 0.0115,-0.0153 0.0181,-0.0307 0.0214,-0.0453 0.40837,0.18076 0.9111,0.22213 1.43843,0.17261 -0.009,0.0218 -0.0148,0.0461 -0.009,0.0747 0.0658,0.33145 0.13307,0.65891 0.30187,0.95564 0.0794,0.13972 0.29473,0.0142 0.21515,-0.12578 -0.15783,-0.27746 -0.21531,-0.5868 -0.27679,-0.89615 -0.003,-0.0134 -0.009,-0.0233 -0.0141,-0.0335 0.80079,-0.10996 1.63165,-0.40704 2.24919,-0.71872 0.069,0.32531 0.11763,0.66224 0.25735,0.96411 0.0675,0.1457 0.28227,0.0191 0.21515,-0.12577 -0.13723,-0.2964 -0.17578,-0.63981 -0.24489,-0.95979 0.0733,-0.041 0.14371,-0.0821 0.20801,-0.12249 0.47266,-0.29722 0.92323,-0.66339 1.35752,-1.05565 0.15866,0.19173 0.33377,0.36186 0.53463,0.51421 0.1281,0.0972 0.25204,-0.11945 0.12577,-0.21515 -0.17827,-0.13525 -0.33743,-0.29175 -0.47781,-0.46519 0.27728,-0.25769 0.54825,-0.52367 0.81258,-0.78933 0.0646,0.051 0.1369,0.0919 0.19704,0.14786 0.11763,0.1092 0.29423,-0.0666 0.17627,-0.17627 -0.0608,-0.0564 -0.13341,-0.0973 -0.19787,-0.14869 0.18508,-0.18708 0.36833,-0.37283 0.5481,-0.55242 0.14288,-0.1427 0.29639,-0.29888 0.44924,-0.46518 0.13706,0.0548 0.2615,0.13473 0.39258,0.20185 0.14272,0.0731 0.26882,-0.14187 0.12577,-0.21515 -0.11614,-0.0595 -0.22744,-0.12578 -0.34457,-0.18142 0.28327,-0.32729 0.54793,-0.68864 0.72005,-1.06828 0.008,0.003 0.0153,0.008 0.0246,0.009 0.36567,0.0492 0.73118,0.0578 1.09967,0.058 0.16066,0 0.16066,-0.2492 0,-0.2492 -0.3459,0 -0.68897,-0.009 -1.03222,-0.0506 0.0437,-0.12875 0.0768,-0.25902 0.0935,-0.39059 0.0331,-0.25918 -0.009,-0.47898 -0.10334,-0.66356 0.71307,-0.71275 2.17392,-0.679 3.09234,-0.50257 0.157,0.0302 0.22396,-0.21 0.0661,-0.24023 -0.9558,-0.1836 -2.40985,-0.21682 -3.2206,0.46071 0.23907,-0.43164 0.60491,-0.73501 1.01128,-0.99901 0.21017,-0.0186 0.42848,-0.0344 0.6403,-0.0774 0.36468,-0.0744 0.58847,-0.24406 1.01195,-0.0567 0.0885,0.0392 0.17129,0.12299 0.26832,0.14485 0.22645,0.051 0.34607,0.005 0.55025,-0.11274 0.13923,-0.08 0.0138,-0.29539 -0.12576,-0.21515 -0.27446,0.15767 -0.82056,-0.12826 -1.14619,-0.14254 -0.17079,-0.008 -0.34856,0.0177 -0.52849,0.0542 0.50921,-0.30305 1.00381,-0.62484 1.32413,-1.13025 0.0864,-0.13622 -0.12943,-0.261 -0.21515,-0.12578 -0.41817,0.65993 -1.13307,1.00166 -1.79082,1.40255 -0.0896,0.0156 -0.17859,0.0287 -0.26632,0.0343 -0.69845,0.0434 -1.06146,0.33261 -1.18307,1.0053 -0.22147,-0.11857 -0.48297,-0.19024 -0.75295,-0.2193 0.11181,-0.19721 0.21765,-0.40538 0.369,-0.56687 0.10982,-0.11717 -0.066,-0.29374 -0.17627,-0.17628 -0.19721,0.21034 -0.32431,0.48546 -0.47616,0.73118 -0.60125,0.0144 -1.21531,0.28908 -1.79115,0.633 -0.0671,-0.2258 -0.11961,-0.46437 -0.12443,-0.69729 -0.003,-0.16049 -0.25253,-0.16082 -0.24921,0 0.006,0.27878 0.0703,0.56603 0.15401,0.83251 -0.44027,0.27929 -0.85329,0.58465 -1.21348,0.82522 -0.1384,0.0925 -0.28858,0.18126 -0.44625,0.26798 -0.0236,-0.0872 -0.0404,-0.17794 -0.0585,-0.2625 -0.0244,-0.11426 -0.0859,-0.29971 -0.043,-0.41468 0.0563,-0.15085 -0.18475,-0.21532 -0.24024,-0.0662 -0.0555,0.14905 0.006,0.35687 0.0346,0.50557 0.0229,0.11793 0.0482,0.23992 0.0851,0.35671 -0.50224,0.25983 -1.06878,0.50556 -1.62351,0.77469 -0.10533,-0.14969 -0.21981,-0.30186 -0.28144,-0.47265 -0.0542,-0.15002 -0.2949,-0.0854 -0.24024,0.0662 0.0679,0.1884 0.18358,0.35305 0.29706,0.51702 -0.42948,0.21565 -0.84449,0.44892 -1.2095,0.71737 -0.25003,-0.20019 -0.55623,-0.33227 -0.78932,-0.55189 -0.1168,-0.11022 -0.2934,0.0658 -0.17628,0.17627 0.22579,0.21265 0.51952,0.34341 0.76441,0.53248 -0.47914,0.39292 -0.84764,0.86043 -1.00547,1.4522 -0.17362,-0.006 -0.34574,-0.0319 -0.51586,-0.0673 -0.14272,-0.0297 -0.35853,-0.0633 -0.45572,-0.18373 -0.10085,-0.12514 -0.27613,0.0524 -0.17628,0.17626 0.11646,0.14422 0.34141,0.19339 0.51188,0.23526 z m 7.82199,-3.18988 c 0.23143,-0.23159 0.46303,-0.46303 0.69463,-0.69463 0.11381,-0.11375 0.28991,0.0625 0.17627,0.17628 -0.23159,0.2316 -0.46319,0.46303 -0.69463,0.69463 -0.11364,0.11376 -0.28991,-0.0625 -0.17627,-0.17628 z m -0.68898,2.23374 c -0.30619,0.12262 -0.61322,0.24207 -0.92589,0.3474 -0.15268,0.0515 -0.21764,-0.18924 -0.0661,-0.24023 0.31268,-0.10528 0.6197,-0.22496 0.92589,-0.34741 0.1492,-0.0599 0.21349,0.18143 0.0661,0.24024 z m -1.5102,-0.96062 c 0.22379,-0.27678 0.47067,-0.53346 0.69463,-0.81026 0.10101,-0.12489 0.27629,0.0525 0.17627,0.17628 -0.22379,0.27678 -0.47067,0.53347 -0.69463,0.81026 -0.10117,0.12489 -0.27629,-0.0525 -0.17627,-0.17628 z m -2.63214,1.35271 c 0.16066,0 0.16066,0.24921 0,0.24921 -0.16065,0 -0.16065,-0.24921 0,-0.24921 z m 0.57883,1.2153 c 0.16065,0 0.16065,0.24921 0,0.24921 -0.16066,0 -0.16082,-0.24921 0,-0.24921 z m 1.01693,-0.56553 c -0.30702,0.0747 -0.62102,0.11237 -0.93436,0.0582 -0.15816,-0.0275 -0.0909,-0.26748 0.0661,-0.24024 0.26715,0.0462 0.54111,0.005 0.80195,-0.0582 0.15617,-0.0381 0.22246,0.20236 0.0663,0.24024 z m -0.26449,-1.22843 c 0.16066,0 0.16066,0.24921 0,0.24921 -0.16065,0 -0.16065,-0.24921 0,-0.24921 z m 6.46198,-4.68529 c -0.28476,0.21548 -0.53514,0.46735 -0.71639,0.79232 0.0929,-0.50922 0.36567,-0.70459 0.71639,-0.79232 z"
           inkscape:connector-curvature="0" />
      </g>
    </g>
  </g>
</svg>
