<?xml version="1.0" encoding="UTF-8" standalone="no"?>
<!-- Created with Inkscape (http://www.inkscape.org/) -->

<svg
   xmlns:dc="http://purl.org/dc/elements/1.1/"
   xmlns:cc="http://creativecommons.org/ns#"
   xmlns:rdf="http://www.w3.org/1999/02/22-rdf-syntax-ns#"
   xmlns:svg="http://www.w3.org/2000/svg"
   xmlns="http://www.w3.org/2000/svg"
   xmlns:sodipodi="http://sodipodi.sourceforge.net/DTD/sodipodi-0.dtd"
   xmlns:inkscape="http://www.inkscape.org/namespaces/inkscape"
   width="10cm"
   height="10cm"
   viewBox="0 0 100 100"
   version="1.1"
   id="svg8"
   inkscape:version="0.92.4 (5da689c313, 2019-01-14)"
   sodipodi:docname="BD.svg">
  <defs
     id="defs2" />
  <sodipodi:namedview
     id="base"
     pagecolor="#ffffff"
     bordercolor="#666666"
     borderopacity="1.0"
     inkscape:pageopacity="0.0"
     inkscape:pageshadow="2"
     inkscape:zoom="0.7"
     inkscape:cx="-106.19967"
     inkscape:cy="49.888512"
     inkscape:document-units="mm"
     inkscape:current-layer="layer1"
     showgrid="false"
     inkscape:window-width="1280"
     inkscape:window-height="1001"
     inkscape:window-x="1272"
     inkscape:window-y="-8"
     inkscape:window-maximized="1"
     units="cm"
     showguides="false" />
  <metadata
     id="metadata5">
    <rdf:RDF>
      <cc:Work
         rdf:about="">
        <dc:format>image/svg+xml</dc:format>
        <dc:type
           rdf:resource="http://purl.org/dc/dcmitype/StillImage" />
        <dc:title />
      </cc:Work>
    </rdf:RDF>
  </metadata>
  <g
     inkscape:label="Laag 1"
     inkscape:groupmode="layer"
     id="layer1"
     transform="translate(0,-197)">
    <g
       inkscape:export-ydpi="300"
       inkscape:export-xdpi="300"
       style="fill:#00407a;fill-opacity:1"
       transform="matrix(1.0632267,0,0,1.0632472,470.92029,54.745255)"
       id="g3733">
      <path
         inkscape:connector-curvature="0"
         style="clip-rule:evenodd;fill:#00407a;fill-opacity:1;fill-rule:evenodd;stroke-width:0.25500345"
         d="m -416.56781,146.68573 c -0.20273,0.99043 -0.65587,1.70673 -1.0315,2.44905 -0.2657,0.52481 -0.11014,0.80581 0.29504,1.06592 0.94073,0.60409 1.88908,1.19851 2.8359,1.79368 0.37638,0.23614 0.70636,0.49726 0.74308,0.99248 0.0455,0.60869 -0.34196,0.87034 -0.83131,1.0241 -0.39857,0.12489 -0.67346,0.33072 -0.48757,0.76398 0.21522,0.50007 0.59442,0.22926 0.90271,0.0963 0.32514,-0.14126 0.63063,-0.32691 0.9453,-0.49368 0.30574,-0.16294 0.63853,-0.20731 0.76017,0.17213 0.11068,0.34629 -0.26674,0.35088 -0.48324,0.44345 -0.472,0.20069 -1.04805,0.19458 -1.43183,0.68187 0.61352,0.32106 1.19927,0.0781 1.76895,0.11201 0.24199,0.0142 0.61023,-0.0696 0.62934,0.255 0.0237,0.39602 -0.37254,0.3412 -0.63341,0.33686 -0.38047,-0.005 -0.76043,-0.0623 -1.14038,-0.0965 -0.12011,-0.0106 -0.26369,-0.0774 -0.32411,0.0912 -0.051,0.14255 0.049,0.23767 0.14357,0.32411 0.27463,0.24965 0.62781,0.32004 0.96748,0.42383 0.15835,0.0485 0.41387,0.0299 0.37434,0.27872 -0.0385,0.23894 -0.28408,0.30524 -0.48195,0.26111 -0.26879,-0.0605 -0.55157,-0.14815 -0.7747,-0.30166 -1.49177,-1.0264 -3.21509,-1.33265 -4.94249,-1.64707 -0.4794,-0.0877 -1.15643,-0.0236 -1.29388,-0.59263 -0.13923,-0.57757 0.49546,-0.81626 0.89047,-1.11207 0.46691,-0.35013 0.96545,-0.65919 1.43364,-1.00803 0.38505,-0.28662 0.32767,-0.4307 -0.13541,-0.63266 -1.91202,-0.83387 -3.84443,-0.74563 -5.80413,-0.25628 -0.17214,0.0427 -0.35089,0.0851 -0.52584,0.0821 -1.10161,-0.0194 -1.22323,0.0441 -0.80605,1.26915 0.35164,1.032 0.83259,2.01989 1.1975,3.04832 0.30829,0.87057 0.17773,1.10161 -0.64261,1.50784 -0.71273,0.35241 -1.48565,0.52531 -2.25244,0.69207 -1.33394,0.29044 -2.3542,1.04067 -3.21866,2.05176 -0.14867,0.17416 -0.28815,0.35803 -0.45417,0.51435 -0.21113,0.19762 -0.49573,0.23052 -0.68722,0.0336 -0.17264,-0.17724 0.0209,-0.38787 0.15579,-0.52787 0.24303,-0.25117 0.51486,-0.47431 0.92694,-0.84738 -0.77138,0.0341 -1.3306,0.0666 -1.89058,0.0777 -0.15913,0.003 -0.40317,0.0659 -0.42817,-0.18717 -0.0245,-0.24606 0.1701,-0.36797 0.39042,-0.37433 0.50796,-0.015 1.01645,9.6e-4 1.52491,-0.004 0.17087,-0.001 0.39705,0.0356 0.43404,-0.20069 0.0421,-0.26543 -0.17265,-0.3455 -0.38303,-0.37126 -0.40366,-0.0485 -0.81346,-0.0532 -1.21279,-0.1237 -0.25017,-0.0433 -0.51894,-0.16829 -0.43733,-0.50516 0.0707,-0.29222 0.31798,-0.2986 0.55565,-0.23127 0.48782,0.1387 0.97004,0.29656 1.45811,0.43451 0.34629,0.0982 0.64107,0.14178 0.43147,-0.40086 -0.0627,-0.16372 -0.27618,-0.41794 -0.0538,-0.54035 0.25272,-0.14 0.45161,0.12542 0.50287,0.33278 0.23919,0.96289 0.778,0.80683 1.45046,0.47202 0.68239,-0.34095 1.36427,-0.67474 2.0186,-1.07 0.45391,-0.27489 0.55515,-0.59187 0.39831,-1.07943 -0.20424,-0.63394 -0.50057,-1.21968 -0.81243,-1.80287 -0.37027,-0.69335 -0.78184,-1.36734 -0.97743,-2.14433 -0.26801,-1.06591 -0.11785,-1.35662 0.97156,-1.61749 0.96188,-0.22976 1.93191,-0.42968 2.9027,-0.62043 1.05012,-0.20654 1.15772,-0.35394 0.82009,-1.34055 -0.47761,-1.39334 -0.50107,-2.75122 -0.003,-4.17388 0.40036,-1.14344 0.45519,-1.09857 -0.72422,-1.47292 -1.69219,-0.53703 -3.16229,-1.39511 -3.84494,-3.19315 -0.19992,-0.52606 -0.67677,-0.69335 -1.22197,-0.7678 -0.39041,-0.0536 -1.13068,0.0466 -1.04882,-0.44702 0.10206,-0.61814 0.64872,-0.035 0.99705,-0.0142 0.2415,0.0142 0.49088,0.061 0.61379,-0.15861 0.11095,-0.19839 -0.0833,-0.37562 -0.21037,-0.52913 -0.23918,-0.28714 -0.5944,-0.52479 -0.41285,-0.98252 0.0485,-0.12317 0.15071,-0.20963 0.29913,-0.14919 0.43197,0.17595 0.44191,0.57936 0.50567,0.95371 0.0327,0.19278 -0.008,0.49625 0.2443,0.49318 0.38122,-0.005 0.14967,-0.34707 0.19992,-0.53652 0.0385,-0.14664 0.0507,-0.3009 0.0876,-0.4483 0.0515,-0.20656 0.14586,-0.44039 0.39373,-0.3644 0.31723,0.0968 0.0837,0.33073 0.0471,0.50362 -0.0366,0.17367 -0.10868,0.33891 -0.14611,0.51231 -0.15045,0.70126 0.038,0.91215 0.74664,0.96927 0.33585,0.0269 0.94658,-0.23257 0.94556,0.26291 -7.7e-4,0.53729 -0.612,0.2369 -0.94529,0.25933 -0.46207,0.0311 -0.56892,0.18539 -0.28637,0.53781 1.08555,1.35304 2.54773,1.97348 4.23892,2.11653 0.43401,0.0367 0.57146,-0.30651 0.62245,-0.63751 0.0571,-0.37436 0.0566,-0.76169 0.0455,-1.14215 -0.0242,-0.83183 0.26368,-1.54993 0.78643,-2.17188 0.58778,-0.69819 1.2666,-1.35049 2.26137,-1.12355 1.09422,0.2499 1.77764,1.04017 2.12903,2.09232 0.20579,0.61608 0.16703,1.26786 0.0694,1.89263 -0.12289,0.7854 -0.10301,1.57439 -0.15225,2.36005 -0.0371,0.58831 0.026,1.15466 0.48479,1.62591 0.30522,0.31339 0.36744,0.77037 0.485,1.18704 0.36313,1.28522 1.80924,2.0232 3.07814,1.56445 0.53169,-0.19202 0.81959,-0.58065 0.81501,-1.16155 -3.7e-4,-0.18156 -0.003,-0.3723 0.20094,-0.45136 0.12289,-0.048 0.24938,-0.008 0.34449,0.0977 0.17546,0.19457 0.003,0.31135 -0.0897,0.45748 -0.12874,0.20527 -0.18206,0.45747 -0.0106,0.63674 0.1665,0.17594 0.3718,-0.0198 0.55947,-0.0615 0.38123,-0.0857 0.85324,-0.71629 1.09575,-0.18766 0.1915,0.41718 -0.54468,0.48245 -0.89175,0.68085 -0.21521,0.12237 -0.66224,0.058 -0.57451,0.45518 0.0679,0.30523 0.42916,0.30473 0.71018,0.32436 0.10122,0.008 0.20452,-0.003 0.30448,0.0106 0.18539,0.0269 0.472,-0.041 0.43044,0.27362 -0.0272,0.20577 -0.255,0.25883 -0.43275,0.18972 -1.22248,-0.47278 -2.45465,-0.0329 -3.68098,-0.0397 -1.40505,-0.009 -2.47964,-0.47305 -3.03707,-1.84115 -0.0339,-0.0848 -0.11453,-0.15018 -0.27872,-0.35495 z m -0.53245,8.21492 c 0.28356,0.24048 0.59263,0.33381 0.91801,0.34377 0.31569,0.009 0.45366,-0.23131 0.45009,-0.49318 -0.005,-0.37435 -0.30219,-0.26471 -0.48808,-0.18947 -0.27312,0.10987 -0.61074,0.0336 -0.88002,0.33888 z"
         id="path3558"
         inkscape:export-xdpi="300"
         inkscape:export-ydpi="300" />
      <path
         inkscape:connector-curvature="0"
         d="m -370.58246,135.94248 c -4.4606,-1.04318 -7.6034,4.09051 -8.61913,6.03817 7e-4,-0.009 0.002,-0.019 0.002,-0.0285 0,-0.10974 -0.0234,-0.21427 -0.0651,-0.31002 0.30233,-0.92834 0.66459,-1.85418 0.7594,-2.83158 0.0967,-0.99783 -0.30803,-1.9271 -0.80834,-2.76356 -0.0262,-0.044 -0.095,-0.004 -0.0687,0.0402 0.57098,0.95487 0.9119,1.92472 0.7602,3.04375 -0.11166,0.82373 -0.43056,1.62384 -0.69364,2.41323 -0.15316,-0.25101 -0.44276,-0.42062 -0.77546,-0.42062 -0.0114,0 -0.0225,0.001 -0.0337,0.003 -0.004,-2.6e-4 -0.008,-0.003 -0.013,-0.003 -0.009,0 -0.0193,0.003 -0.0291,0.004 -0.26958,0.0211 -0.50442,0.15395 -0.65227,0.34808 -0.25486,-0.77229 -0.53492,-1.54152 -0.67203,-2.34428 -0.18789,-1.09953 0.20381,-2.11314 0.76035,-3.04375 0.0264,-0.0442 -0.0424,-0.0841 -0.0689,-0.0402 -0.51609,0.86309 -0.86483,1.74531 -0.80822,2.76355 0.0523,0.9383 0.43389,1.85908 0.7321,2.74897 -0.068,0.11693 -0.10727,0.25049 -0.10727,0.39264 0,0.003 3.5e-4,0.006 7.1e-4,0.009 -1.02651,-1.96221 -4.16335,-7.05825 -8.60897,-6.01852 0,0 -1.45862,0.3978 -0.17676,2.21007 0,0 -0.0884,1.50281 0.35366,1.50281 0,0 0.0441,1.01664 0.44196,1.10495 0,0 -0.35366,1.14927 0.13259,1.59123 0,0 -0.2652,1.67968 1.10497,1.98904 h 1.72383 c 0,0 -2.51944,1.72369 -1.85643,2.5636 0,0 -1.72515,-0.0442 -0.11111,1.45862 0,0 -1.30334,0.88404 0.0227,1.14925 l 0.6162,0.61885 c 0,0 -1.19607,1.19343 0,1.23759 0,0 0.44462,-0.0883 0.70982,0.75145 0,0 -0.53041,2.1658 -0.92822,2.431 0,0 -1.01653,1.81213 0.48625,1.63538 0,0 0.40723,-0.79986 0.35365,-2.16579 0,0 0.45046,-1.32589 1.28611,-0.70717 0,0 0.21667,0.26521 0.52617,0 0,0 0.75145,0.0442 0.75145,0.39782 0,0 0.75132,0.35351 0.70717,-0.75147 0,0 -0.0884,-0.79547 0.39781,-0.30935 0,0 0.48624,0.30921 0.66301,-1.63553 l 1.47532,-4.16211 c 0.13101,1.43567 0.42791,2.43829 0.77348,2.43829 0.36412,0 0.67427,-1.11213 0.79309,-2.67141 l 1.55808,4.39523 c 0.17689,1.94474 0.663,1.63553 0.663,1.63553 0.48612,-0.48612 0.39781,0.30935 0.39781,0.30935 -0.0443,1.10498 0.70704,0.75147 0.70704,0.75147 0,-0.35353 0.75158,-0.39782 0.75158,-0.39782 0.3095,0.26521 0.52604,0 0.52604,0 0.83579,-0.61872 1.28611,0.70717 1.28611,0.70717 -0.0536,1.36593 0.35351,2.16579 0.35351,2.16579 1.50291,0.17675 0.48639,-1.63538 0.48639,-1.63538 -0.39781,-0.2652 -0.92822,-2.431 -0.92822,-2.431 0.2652,-0.83976 0.70969,-0.75145 0.70969,-0.75145 1.19607,-0.0442 0,-1.23759 0,-1.23759 l 0.61633,-0.61885 c 1.32603,-0.26521 0.0228,-1.14925 0.0228,-1.14925 1.61378,-1.50292 -0.11139,-1.45862 -0.11139,-1.45862 0.66301,-0.83991 -1.85643,-2.5636 -1.85643,-2.5636 h 1.72383 c 1.37031,-0.30936 1.1051,-1.98904 1.1051,-1.98904 0.48612,-0.44196 0.1326,-1.59123 0.1326,-1.59123 0.39781,-0.0883 0.4421,-1.10495 0.4421,-1.10495 0.44209,0 0.35352,-1.50281 0.35352,-1.50281 1.28185,-1.8124 -0.17676,-2.21007 -0.17676,-2.21007 z"
         id="path3560"
         style="fill:#00407a;fill-opacity:1;stroke-width:0.1326021"
         inkscape:export-xdpi="300"
         inkscape:export-ydpi="300" />
      <path
         inkscape:connector-curvature="0"
         d="m -415.24847,190.30364 c 1.57874,0.77619 -1.49754,0.50374 -2.09901,0.23728 1.77066,1.55766 -1.34112,0.0412 -1.35517,0.0352 0.34203,0.53714 0.5417,1.17764 -1.69476,-0.14624 0.14062,0.40005 -1.15092,0.74068 -3.29951,-0.33325 -1.44657,0.5157 -3.6651,-0.94563 -4.76998,-1.55907 -1.16815,-0.64823 -1.79528,-1.00082 -2.87661,-1.77841 -0.66862,0.0374 -1.07359,0.11811 -1.9373,0.17225 -1.09259,1.11788 -1.84908,1.94504 -2.3479,2.37567 -1.23741,0.21515 -4.52497,0.51887 -3.84334,-0.60463 -0.50516,0.012 -1.49157,-0.14414 -1.01312,-0.8219 -0.34311,0.0605 -1.20542,-0.37439 -0.48793,-0.9168 -0.32694,-0.17683 -1.42935,-0.8377 0.31674,-1.05917 -1.15023,-0.3765 -1.65012,-1.54465 0.3561,-1.10557 -0.40884,-0.35788 -1.558,-1.88037 -0.17472,-1.62024 1.9598,0.36806 4.97527,0.76177 6.15889,0.21374 -1.3956,-1.69826 -6.22286,-6.1234 -4.45465,-6.13464 -1.31931,-0.94037 -1.98934,-2.58695 -1.13441,-2.50364 -1.68736,-1.89406 -1.91129,-4.09994 -0.64751,-3.586 -1.67156,-1.39594 -2.18867,-4.21596 -0.68725,-3.21409 -0.86163,-1.04371 -1.7749,-2.90227 -0.0134,-2.18514 -0.21515,-0.34098 -1.17555,-1.59914 -1.23671,-1.74784 -0.4707,-1.14143 1.84029,0.90697 1.43989,0.15785 -0.34452,-0.64508 -0.92912,-2.67554 -0.49391,-2.28885 0.65455,0.58144 1.35236,1.54324 1.67084,1.58999 0.10869,0.0162 -0.38141,-1.10277 -0.44292,-1.59597 -0.39057,-3.13568 0.64295,-0.19017 1.58435,0.78779 0.2401,-0.53468 0.0826,-3.26681 0.53048,-3.05448 0.18313,0.0867 1.02225,3.15327 1.10487,3.34695 0.2088,0.49005 0.33289,-1.71091 0.56562,-2.46003 0.11878,-0.38247 0.3902,-0.24888 0.45805,0.53081 0.081,0.92842 0.31321,3.05766 0.54768,3.07138 0.16909,0.009 0.35506,-1.90709 0.89748,-1.71937 0.21795,0.62924 -0.0186,3.46614 0.25942,4.83009 0.32799,1.60968 0.86829,2.08531 1.49157,3.25768 1.17377,2.2073 3.37088,6.15503 3.57757,6.66228 0.81698,2.00376 2.29868,3.09703 2.66534,3.60466 0.51992,0.22392 1.01594,0.14553 1.40649,-0.0154 2.37217,-0.97833 2.72967,0.0671 2.75217,0.069 0.87744,0.0702 1.24514,0.6194 0.96988,1.25779 -0.42851,-0.35716 -0.62186,-0.3533 -1.01276,-0.17894 0.25381,0.005 0.79834,0.1136 0.95477,0.17648 -0.0464,0.0915 -0.17578,0.21619 -0.71046,0.17084 -0.71431,-0.0608 -1.6508,0.88868 -1.99285,1.34357 0.49426,0.62433 1.82797,1.14952 2.22416,1.42512 0.87955,0.61168 2.51032,1.82552 3.97692,2.6541 0.67425,0.38071 1.33654,0.58987 1.82834,0.76001 1.50949,0.52273 0.5512,0.60852 -0.0422,0.49602 0.52449,0.30654 1.18994,0.46473 1.96297,0.3814 1.27325,-0.13744 2.18092,-0.97936 2.62631,-1.34989 1.27046,-1.05776 0.41868,0.35366 0.18,0.6057 -1.63148,1.72253 -2.22628,1.61251 -3.73857,1.76612 z m -7.79564,-9.43943 c 0.009,-0.0837 -0.0145,-0.11573 -0.1582,-0.12197 -0.0512,-0.003 -0.19721,0.0222 -0.37613,0.20108 0.20916,0 0.52694,-0.0141 0.53433,-0.0791 z"
         id="path3562"
         style="fill:#00407a;fill-opacity:1;stroke-width:0.35153505"
         inkscape:export-xdpi="300"
         inkscape:export-ydpi="300" />
      <path
         id="path3564"
         style="fill:#00407a;fill-opacity:1;stroke:#000000;stroke-width:0.00360788"
         d="m -404.20085,162.0795 c 0.59881,0.25932 -0.21905,1.35776 0.74658,0.87743 -0.66237,0.89986 1.09229,-0.26948 0.22705,0.71964 0.39387,0.6607 0.34879,-0.91658 1.12759,-0.41563 0.73431,-0.30624 0.47779,0.29297 0.82742,0.83896 0.59588,0.071 -0.48047,-1.32894 0.58495,-0.66191 -0.60216,1.05083 0.41783,-0.12489 0.26217,-0.67156 0.48949,0.14309 -0.4172,0.73638 0.45363,0.59456 0.0647,-0.8179 0.65032,-0.92373 1.75488,-0.93901 0.83128,0.59376 -0.92869,-0.31769 -0.0693,0.57728 -0.69365,0.18145 0.68558,0.50361 0.73889,0.44256 0.88338,-0.40535 0.32558,0.34422 -0.37715,0.7158 0.68326,0.4093 0.98518,-0.0866 1.36571,0.34732 -0.53061,0.0442 -0.7183,1.23108 0.37762,0.80721 -0.82721,0.10164 -1.03182,0.0727 -0.35165,0.38389 0.24566,0.21521 1.06558,-0.67788 0.44785,0.355 0.11877,0.70538 0.1402,1.0633 1.17763,0.86973 -0.78454,0.58128 1.57541,-0.14266 0.49642,0.9544 0.83992,-0.22953 2.41809,-0.37369 1.75487,1.15839 -0.47641,-0.38507 -0.36277,0.2277 -0.81202,0.0271 0.17734,0.6699 -0.35381,1.36041 -0.0159,1.66778 0.0488,1.16088 0.38262,-0.8378 1.0405,0.12555 0.44536,0.49816 0.92216,0.67873 1.20359,-0.19241 1.052,-0.4666 2.28347,0.68934 1.46239,1.27768 0.11774,-0.74367 -0.56121,0.41645 -0.57726,-0.3002 -0.39471,0.43502 -1.47518,-0.13583 -1.09054,-0.15056 -0.55879,0.36592 -1.05008,0.63634 0.20672,0.54107 1.60692,-0.45251 2.60431,2.39344 1.32963,1.73001 -0.70926,0.12569 -1.25268,-0.18295 -1.1526,-0.42427 -0.76729,-0.70646 -1.32889,-0.46909 -0.74996,0.18135 -0.70026,0.31848 0.59952,1.75957 -0.69511,1.65193 0.40015,0.20511 1.98841,0.62475 0.77207,0.81777 -0.6242,0.35106 0.0404,0.14786 0.0669,0.29827 0.61787,-0.0727 0.33349,0.62894 0.004,0.3117 0.16213,0.76045 -1.51964,0.35923 -0.92685,0.89616 0.27871,-0.77136 0.42192,0.78789 0.46951,-0.40793 -1.08883,-0.83097 1.97832,0.0836 2.73945,0.0697 -1.4456,-0.19286 -2.34946,1.2777 -1.85865,0.14469 0.20566,0.38681 0.97217,-0.61598 0.99721,0.35887 0.83423,0.08 -0.49573,0.0712 0.50414,0.48104 0.39859,-0.45195 0.94804,0.53807 0.54263,-0.6196 -0.22184,0.50947 -0.1079,-0.92779 -0.008,-0.25398 0.44318,-0.53181 0.62193,0.28085 1.03611,-0.0382 -0.0329,0.93066 1.67938,-0.4045 1.07665,0.83498 0.12407,-0.98851 -0.91392,0.94509 -0.89282,0.43873 -0.71414,-0.43232 0.23,1.57563 -1.00443,0.92744 1.04731,0.33124 0.47877,0.38076 0.14143,0.64797 1.59303,1.24612 -1.91772,0.17366 -1.38063,0.76825 -0.32617,0.0844 0.50669,0.49901 0.67946,0.38097 -0.95581,0.0455 -0.37617,1.28004 -1.4911,1.2259 0.3123,0.656 0.7754,0.9812 0.36351,1.5488 2.22688,-0.51062 0.45128,-0.22968 1.21082,-0.2915 0.55175,0.2378 -1.37704,0.39629 -0.56257,0.26025 0.42023,-0.15016 0.87824,-0.21695 0.88418,0.57388 0.74518,0.26839 -0.45123,-1.24448 0.49548,-0.52048 0.78678,0.77574 -1.13504,0.85961 0.10195,1.06696 0.36297,0.87991 -0.92628,0.0515 -0.73023,0.97074 -1.0833,-0.32617 -0.17307,1.29828 -1.01317,0.90339 -0.59393,-0.0402 -1.40406,-0.0756 -0.49981,0.60419 -0.12257,0.40574 -0.39425,0.50393 -0.72399,0.73507 1.04958,0.009 -0.96443,0.48616 0.46565,0.41947 0.0209,0.69917 0.75367,0.67979 -0.43864,1.24305 0.43136,1.27424 -0.81787,0.25267 -0.50414,-0.40024 -0.73698,-0.0776 0.1953,1.88773 0.53109,1.24688 1.14458,-0.4623 2.85145,0.44205 1.64664,1.33783 -1.03547,0.25391 -2.31637,-0.05 -2.41632,-0.17561 -0.52692,0.24265 -0.81909,0.49968 -1.45083,0.0461 0.34982,0.46192 -0.39765,0.56954 0.24629,1.32769 -1.09623,0.012 -1.0238,0.84697 0.3271,0.79663 -0.73181,-0.0322 -2.8047,0.15893 -1.36251,-0.2997 0.0582,-1.6998 -0.59466,0.64793 -1.63922,0.0187 -0.037,0.66109 1.79887,0.38058 0.55031,0.62345 -0.31217,-0.059 -2.16664,-0.071 -1.26225,0.16548 -1.19819,0.58751 -0.39961,-0.35408 -1.0872,-0.78172 -0.77333,0.31147 -0.54243,0.006 -1.36425,0.36992 -0.16078,0.32695 -0.94358,0.7001 0.004,0.35022 -0.24895,0.71243 -1.66205,-0.24676 -0.62343,-0.15008 -0.88032,-0.35202 -1.11714,-0.257 -1.64327,-0.90438 0.72948,-0.13007 -0.57917,-1.01727 -0.49261,0.0192 -0.0768,-1.09746 -0.0186,8.2329 0.24475,8.5422 -1.32134,0.36496 -1.15611,-0.36173 -1.63073,-0.0377 -0.6792,-1.12286 0.48395,-8.09673 -0.35734,-8.6124 -0.52082,0.16064 -0.93428,0.53715 -1.41236,-0.0309 -0.18004,0.75018 -0.42773,-0.0918 -0.70283,0.5181 -0.57899,-0.96053 -0.70322,1.45775 -1.01357,0.0282 -0.70719,0.12144 -1.42286,-0.44023 -0.38483,-0.50799 -0.1728,-0.26641 0.0699,-0.40149 0.2232,-0.71582 0.035,-0.41176 0.50579,0.55132 0.48106,-0.47719 -0.19175,-0.56869 1.42278,-0.52879 0.96979,0.48489 0.32211,0.98874 1.43327,-0.85321 0.40022,-0.16933 -0.39472,-1.15896 1.60129,-1.22585 1.20841,-0.26937 0.451,-0.27463 0.40271,-1.86347 -0.3271,-1.04676 -0.33037,-0.10048 -0.29891,-0.96493 -0.81587,-0.33483 -0.10311,-0.61435 -0.63544,0.38277 -0.56186,-0.64267 -0.58255,-0.61427 2.02898,-0.30046 0.76582,-1.50087 -0.35665,-0.74396 -0.5813,-0.37009 -1.05446,-1.05446 0.17721,0.70599 0.41333,1.71698 -0.34251,0.84663 0.009,0.35505 -0.59677,-1.06707 -0.39639,-0.30403 -0.4791,0.23007 -0.85269,-0.10974 0.11161,-0.4541 -0.7414,-0.21311 -0.69036,0.34892 -1.15307,-0.26986 -0.41555,0.0397 -2.39229,-0.21488 -1.1752,-0.24199 0.18322,-0.6529 -0.51841,-0.10059 -0.83125,-1.01982 0.44091,0.94443 -1.49114,0.60525 -0.41179,0.0424 -1.05511,-0.38447 -1.30086,-0.57722 -2.64769,-0.56956 1.34454,0.27522 0.0153,-0.87338 0.53203,-0.64029 0.53148,0.38927 1.97417,-1.37315 0.45701,-0.77593 0.42225,0.70879 -1.01594,-0.22511 -0.8659,0.52724 -0.74987,-0.80957 1.85995,-0.62636 0.41178,-0.72351 -0.13302,-0.56796 0.28639,-1.22139 -0.51567,-0.83893 0.53753,0.24544 -0.52891,0.62295 -0.0924,-0.21168 0.14498,-0.15675 -1.10098,0.86385 -0.93758,0.45941 -0.54563,-0.32321 -1.47846,0.0773 -1.47537,-0.68647 -1.04919,0.34259 0.067,-0.86558 0.66192,-0.0692 -0.5401,-0.44556 1.09141,-0.0516 0.69271,0.18473 0.28702,-0.88532 -0.55594,-0.29412 -0.65039,-1.01213 -0.18868,-0.13671 -0.47472,-0.48368 -0.66195,0.33867 0.0356,-0.59957 0.10206,-0.81866 -0.50028,-0.93517 -0.27516,0.25804 -0.20168,0.006 -0.67733,-0.0807 0.70461,-0.85932 0.099,-0.44655 -0.18472,-1.28392 0.53902,-0.14221 1.51971,0.43195 2.32829,-0.0106 0.89314,0.11997 -0.8259,0.0601 0.004,0.38148 -1.02165,0.72237 0.26162,0.21555 0.27805,0.0446 -0.55479,1.16085 0.50823,0.9177 1.11123,1.74476 1.10959,-0.0882 1.41084,-0.8117 0.75524,-1.33923 -0.30968,-0.61924 -0.70877,-0.0352 -0.35116,-0.74275 -0.40193,-0.51178 -0.58362,0.58188 -0.91593,-0.18087 -0.45618,0.61553 -0.055,-0.92656 -0.5787,-0.18471 -0.25153,-0.46121 -0.0465,-0.97114 -0.495,-0.19627 0.13273,-0.73491 0.14826,-1.45569 -0.90438,-0.94287 -0.76628,-0.19615 0.43792,-0.57474 -0.32999,-1.03552 0.44606,-0.1237 1.33798,-0.74297 1.24976,0.28892 0.18859,-0.0581 0.16769,-0.0294 0.59652,-0.30786 -0.21665,0.75262 0.52686,0.009 0.31172,-0.2001 -0.26866,-0.39047 -0.13499,-0.52543 -0.5566,-0.29872 0.7228,0.37325 -0.78574,0.58852 -0.24003,-0.34398 1.3257,0.14032 2.74484,-0.13352 1.44653,-0.29006 -0.33828,0.0954 0.17855,-0.47012 0.10059,-0.51424 -0.34874,-0.22542 0.18296,-1.35688 -0.21167,-1.22764 0.65207,0.79577 1.18968,-0.40736 1.62018,-0.66962 -0.0197,-0.54166 -0.59116,-0.17173 -0.15827,-0.74899 0.58658,-0.4273 0.70974,-0.72161 0.0697,-0.91352 -0.41017,0.74092 -0.53067,-0.66392 -0.78891,-0.26941 -0.0135,-0.78493 -1.07483,-1.5786 0.0808,-1.42773 -0.62107,0.73443 0.29826,0.19258 0.34588,0.0351 0.3248,-0.73499 -0.97602,-1.23818 0.14673,-1.48596 -0.75309,-0.45086 0.62046,-0.17466 0.812,0.25397 0.28449,-0.58005 1.09271,0.27754 0.11931,0.30787 0.3063,0.32179 1.9307,-0.28279 1.0583,-0.24629 0.14037,-0.50174 0.40477,-0.87261 0.57341,-0.0732 0.42098,-0.68591 1.55856,-0.23664 1.17016,0.42749 0.53147,0.30388 0.90148,-0.35024 0.26915,-0.37746 1.01598,-0.72646 -0.31656,-0.47129 -0.40409,-1.36233 -0.0281,-0.0881 -0.93823,-0.30693 -0.36176,-0.67346 -0.48576,0.0424 -1.1316,-1.52836 -0.75812,-1.21993 0.45402,-0.35202 0.75844,0.19502 0.80816,-0.68889 0.82547,-0.26267 0.0915,1.2231 0.65663,0.55996 0.57658,-0.77542 0.85044,0.27566 1.5764,0.29296 0.76982,0.82371 -0.43095,-2.17115 0.10682,-0.66433 0.65237,-0.0797 0.70401,0.67289 1.20838,0.10017 0.41848,0.0346 0.23512,-0.6799 -0.16551,-0.70039 0.19211,-0.846 -1.11869,-1.21377 -0.0621,-1.4547 -1.28381,-0.5318 0.70854,-0.004 0.40795,-0.35022 0.29244,-0.84895 -0.51162,-0.8911 0.51569,-1.22765 z m 7.56211,8.28177 c 0.27959,1.65828 1.09629,-0.33685 0,0 z m -5.54556,0.40793 c -0.14601,0.8766 -1.26135,-0.28543 -1.45085,0.73889 0.84434,0.13742 1.42642,0.16933 1.90496,0.0925 0.9981,-0.0932 0.23754,-0.71636 -0.45411,-0.83126 z m -2.6554,0.15007 c 0.35667,0.86633 1.14181,-0.1354 0,0 z m -1.61633,1.71255 c -1.42951,0.24826 -0.20686,0.67119 -0.14769,0.72976 0.0159,0.99808 0.41346,-0.62602 0.42959,0.17075 -0.009,0.25651 -0.48922,0.39544 0.0297,0.71197 -0.12622,1.00855 1.42657,-0.35173 0.43488,0.012 -0.84574,-1.14313 0.38645,-1.00561 0.86876,-0.68307 0.92827,-0.0339 -0.35164,-1.01489 -0.59457,-0.40699 -0.40476,-0.0605 -0.56281,-0.55386 -1.02079,-0.53397 z m 4.25634,1.18144 c 0.35749,0.49164 -1.62578,-0.13366 -1.09776,0.5763 0.36439,-0.10133 1.04682,0.77916 1.37821,0.0404 0.006,-3e-4 0.55525,-0.88901 -0.28045,-0.6167 z m 3.58672,0.58496 c 0.23775,0.12183 -0.64769,-0.35169 -0.65904,0.22371 -0.008,0.56021 0.92073,0.4368 1.12085,0.006 0.32378,0.14935 1.33887,-0.54793 0.45796,-0.41562 -0.32737,0.0981 -0.68369,-0.5932 -0.91977,0.18473 z m 0.74274,0.75429 c -0.26233,1.05646 -0.90694,0.43046 -0.91208,0.8659 0.20161,0.82899 0.85779,0.27805 1.25008,-0.0699 1.13203,0.003 -0.0708,-0.96379 -0.17637,-0.24552 -0.11163,-0.28463 -0.0725,-0.33818 -0.16163,-0.55033 z m -2.62076,1.57785 c 0.3596,0.58304 0.23738,0.24448 0.22705,0.70617 1.32149,0.47864 1.11264,-0.54088 0.41948,-0.63304 -0.43211,0.11878 -0.24954,-0.0469 -0.64653,-0.0731 z m -12.49962,0.96977 c -0.0406,0.51553 -1.96211,0.36561 -0.2386,0.75044 0.5939,0.29764 1.62458,-0.40336 1.54706,0.0192 -0.68903,0.95459 1.63419,0.30557 0.54436,0.13495 0.53724,-0.78766 -1.00309,-0.82152 -1.85282,-0.90459 z m 10.40992,1.37389 c -0.2829,1.09085 1.62143,0.38711 0,0 z m -2.91324,0.66194 c -0.0419,0.54626 -0.79589,0.62127 0.1751,0.91831 0.68687,0.0883 -0.001,-0.30523 0.87215,-0.40169 -0.28239,-0.31423 -0.72597,-0.0963 -1.04725,-0.51662 z m 5.68025,0.17318 c -0.80325,0.12488 -0.98996,0.88987 -0.99866,0.89569 0.71673,0.39926 1.44922,0.0616 0.60997,-0.4339 0.38887,0.0186 1.26111,-0.90241 0.38869,-0.46179 z m -5.66485,2.18204 c -0.39504,0.28963 -1.32751,0.72233 -0.16549,0.96208 1.1274,-0.19086 0.78342,-0.44843 0.16549,-0.96208 z m 7.53903,0.31555 c -0.54868,1.17008 1.09977,0.92864 1.55475,0.254 -1.11653,-0.37759 -1.70782,0.54379 -1.2966,-0.38332 -0.0879,0.0406 -0.14585,0.14949 -0.25815,0.12927 z m -14.67782,0.68118 0.0145,0.0145 z m 11.96469,0.59647 c 0.47991,0.64173 -1.53514,1.03042 -0.2155,1.1122 -0.0886,-0.4039 1.35234,-0.8112 1.23726,-0.43243 0.46049,-0.82144 -0.68126,-0.51446 -1.02176,-0.67977 z m -1.37772,0.36178 c -0.6616,-0.0625 -1.24498,0.93078 -0.32328,0.26553 0.86032,0.62499 0.19669,0.12277 0.53108,-0.30018 z m -1.86263,1.09293 c -1.21095,0.16973 0.48564,0.85613 0.20012,-0.1386 l -0.11879,0.039 z m -7.83536,0.80048 0.0173,0.0145 z m 7.616,0.13859 c 0.54568,0.5427 -0.78863,0.33217 -0.37331,1.01596 0.67528,-0.14679 1.31617,-0.16173 0.54937,-0.89235 l -0.0758,-0.0829 z m 7.42357,0.31554 c -0.068,0.29949 -1.10681,-0.0211 -0.14239,0.63116 0.59339,0.67631 1.53129,1.25601 1.37677,0.5989 -1.32555,0.33041 -0.0533,-1.70371 -1.23438,-1.23006 z m -1.82414,2.84399 c -0.0356,0.43812 -1.41164,0.0561 -0.77738,0.51183 0.25718,1.16435 2.05433,-0.0534 0.88465,-0.59506 z m 2.22821,2.90167 c 0.46137,0.90142 -0.36799,0.43725 -1.03665,0.43729 -0.61338,1.07008 0.93146,0.40395 1.05591,0.49788 0.54567,10e-4 2.09353,-0.47332 0.73119,-0.53108 -0.36522,-0.34751 -0.33454,-0.003 -0.75045,-0.40409 z"
         inkscape:connector-curvature="0"
         sodipodi:nodetypes="cccccccccccccccccccccccccccccccccccccccccccccccccccccccccccccccccccccccccccccccccccccccccccccccccccccccccccccccccccccccccccccccccccccccccccccccccccccccccccccccccccccccccccccccccccccccccccccccccccccccccccccccccccccccccccccccccccccccccccccccccccccccccccccccccccc"
         inkscape:export-filename="C:\Users\u0076217\Desktop\Experiment logger.png"
         inkscape:export-xdpi="300"
         inkscape:export-ydpi="300" />
      <g
         transform="matrix(0.35153505,0,0,0.35153505,-383.21723,189.35962)"
         id="g3701"
         style="fill:#00407a;fill-opacity:1"
         inkscape:export-xdpi="300"
         inkscape:export-ydpi="300">
        <g
           id="g3570"
           style="fill:#00407a;fill-opacity:1">
          <g
             id="g3568"
             style="fill:#00407a;fill-opacity:1">
            <path
               inkscape:connector-curvature="0"
               id="path3566"
               d="M 15.302,67.686 16.88,66.813 C 17.084,66.7 17.211,66.485 17.211,66.25 L 17.209,65.033 15.631,42.7 c -0.02,-0.282 -0.221,-0.517 -0.497,-0.581 -0.272,-0.063 -0.558,0.062 -0.7,0.306 -5.423,9.434 -0.271,24.285 -0.048,24.912 0.063,0.178 0.2,0.318 0.377,0.387 0.074,0.027 0.151,0.041 0.228,0.041 0.108,0.001 0.216,-0.027 0.311,-0.079 z"
               style="fill:#00407a;fill-opacity:1" />
          </g>
        </g>
        <g
           id="g3576"
           style="fill:#00407a;fill-opacity:1">
          <g
             id="g3574"
             style="fill:#00407a;fill-opacity:1">
            <path
               inkscape:connector-curvature="0"
               id="path3572"
               d="m 22.733,63.322 1.599,-0.836 c 0.207,-0.107 0.339,-0.318 0.345,-0.553 l 0.028,-1.215 -1.023,-22.367 c -0.013,-0.282 -0.209,-0.522 -0.482,-0.592 -0.275,-0.072 -0.561,0.046 -0.708,0.288 -5.655,9.296 -0.873,24.271 -0.667,24.903 0.059,0.18 0.193,0.324 0.368,0.396 0.079,0.031 0.161,0.047 0.243,0.047 0.103,0.002 0.205,-0.022 0.297,-0.071 z"
               style="fill:#00407a;fill-opacity:1" />
          </g>
        </g>
        <g
           id="g3582"
           style="fill:#00407a;fill-opacity:1">
          <g
             id="g3580"
             style="fill:#00407a;fill-opacity:1">
            <path
               inkscape:connector-curvature="0"
               id="path3578"
               d="m 29.709,60.285 1.631,-0.77 c 0.211,-0.1 0.352,-0.307 0.367,-0.539 L 31.783,57.759 31.65,35.372 c -0.002,-0.283 -0.188,-0.53 -0.458,-0.611 -0.27,-0.08 -0.562,0.024 -0.718,0.26 -6.02,9.064 -1.836,24.218 -1.655,24.858 0.051,0.182 0.18,0.332 0.352,0.41 0.084,0.039 0.175,0.059 0.266,0.059 0.091,0 0.186,-0.022 0.272,-0.063 z"
               style="fill:#00407a;fill-opacity:1" />
          </g>
        </g>
        <g
           id="g3588"
           style="fill:#00407a;fill-opacity:1">
          <g
             id="g3586"
             style="fill:#00407a;fill-opacity:1">
            <path
               inkscape:connector-curvature="0"
               id="path3584"
               d="m 37.685,58.301 1.628,-0.723 c 0.218,-0.098 0.365,-0.309 0.38,-0.547 l 0.072,-1.154 -0.211,-21.186 c -0.003,-0.279 -0.186,-0.525 -0.452,-0.607 -0.267,-0.081 -0.555,0.017 -0.716,0.245 -6.003,8.58 -1.76,22.962 -1.576,23.571 0.054,0.176 0.18,0.32 0.347,0.396 0.085,0.039 0.176,0.059 0.268,0.059 0.088,0 0.176,-0.017 0.26,-0.054 z"
               style="fill:#00407a;fill-opacity:1" />
          </g>
        </g>
        <g
           id="g3594"
           style="fill:#00407a;fill-opacity:1">
          <g
             id="g3592"
             style="fill:#00407a;fill-opacity:1">
            <path
               inkscape:connector-curvature="0"
               id="path3590"
               d="m 44.345,56.998 1.659,-0.662 c 0.221,-0.088 0.375,-0.291 0.4,-0.527 l 0.125,-1.164 0.74,-21.443 c 0.01,-0.279 -0.163,-0.533 -0.427,-0.626 -0.263,-0.094 -0.557,-0.006 -0.727,0.217 -6.379,8.418 -2.787,23.142 -2.631,23.765 0.045,0.18 0.165,0.33 0.329,0.416 0.093,0.045 0.193,0.07 0.293,0.07 0.082,-10e-4 0.163,-0.017 0.239,-0.046 z"
               style="fill:#00407a;fill-opacity:1" />
          </g>
        </g>
        <g
           id="g3600"
           style="fill:#00407a;fill-opacity:1">
          <g
             id="g3598"
             style="fill:#00407a;fill-opacity:1">
            <path
               inkscape:connector-curvature="0"
               id="path3596"
               d="m 51.779,54.557 1.667,-0.566 c 0.23,-0.08 0.397,-0.281 0.429,-0.523 l 0.145,-1.09 1.089,-20.039 c 0.016,-0.275 -0.146,-0.53 -0.403,-0.631 -0.252,-0.101 -0.548,-0.03 -0.726,0.181 -6.532,7.699 -3.176,21.625 -3.03,22.213 0.044,0.176 0.158,0.324 0.315,0.41 0.096,0.053 0.201,0.078 0.308,0.078 0.068,0 0.138,-0.012 0.206,-0.033 z"
               style="fill:#00407a;fill-opacity:1" />
          </g>
        </g>
        <g
           id="g3606"
           style="fill:#00407a;fill-opacity:1">
          <g
             id="g3604"
             style="fill:#00407a;fill-opacity:1">
            <path
               inkscape:connector-curvature="0"
               id="path3602"
               d="m 60.09,51.176 1.656,-0.52 c 0.24,-0.075 0.415,-0.285 0.444,-0.537 l 0.119,-1.008 0.647,-18.36 c 0.009,-0.27 -0.152,-0.516 -0.401,-0.617 -0.247,-0.102 -0.535,-0.036 -0.719,0.166 -6.385,7.094 -2.714,19.903 -2.555,20.444 0.049,0.166 0.162,0.305 0.313,0.385 0.094,0.051 0.198,0.076 0.302,0.076 0.066,0 0.131,-0.01 0.194,-0.029 z"
               style="fill:#00407a;fill-opacity:1" />
          </g>
        </g>
        <g
           id="g3610"
           style="fill:#00407a;fill-opacity:1">
          <path
             inkscape:connector-curvature="0"
             id="path3608"
             d="m 67.892,47.394 c -0.093,0 -0.185,-0.02 -0.27,-0.06 -0.157,-0.073 -0.278,-0.206 -0.336,-0.369 -0.163,-0.46 -3.927,-11.363 1.237,-17.818 0.168,-0.211 0.451,-0.293 0.708,-0.207 0.256,0.087 0.43,0.326 0.435,0.596 l 0.313,15.848 -0.057,0.883 c -0.016,0.251 -0.178,0.468 -0.412,0.557 l -1.391,0.528 c -0.073,0.028 -0.151,0.042 -0.227,0.042 z"
             style="fill:#00407a;fill-opacity:1" />
        </g>
        <g
           id="g3616"
           style="fill:#00407a;fill-opacity:1">
          <g
             id="g3614"
             style="fill:#00407a;fill-opacity:1">
            <path
               inkscape:connector-curvature="0"
               id="path3612"
               d="m 76.407,26.854 c -0.011,-0.254 -0.172,-0.479 -0.408,-0.572 -0.241,-0.093 -0.508,-0.034 -0.688,0.145 -4.722,4.741 -1.107,12.857 -0.95,13.2 0.106,0.233 0.339,0.376 0.584,0.376 0.061,0 0.12,-0.008 0.181,-0.026 l 1.253,-0.366 c 0.258,-0.076 0.442,-0.304 0.46,-0.573 l 0.041,-0.67"
               style="fill:#00407a;fill-opacity:1" />
          </g>
        </g>
        <g
           id="g3622"
           style="fill:#00407a;fill-opacity:1">
          <g
             id="g3620"
             style="fill:#00407a;fill-opacity:1">
            <path
               inkscape:connector-curvature="0"
               id="path3618"
               d="m 81.753,34.549 0.94,-0.253 c 0.265,-0.072 0.455,-0.303 0.474,-0.576 l 0.029,-0.497 -0.394,-8.087 c -0.012,-0.25 -0.168,-0.47 -0.4,-0.563 -0.229,-0.095 -0.495,-0.043 -0.679,0.126 -3.647,3.418 -0.834,9.267 -0.714,9.514 0.11,0.224 0.337,0.358 0.577,0.358 0.056,0 0.112,-0.007 0.167,-0.022 z"
               style="fill:#00407a;fill-opacity:1" />
          </g>
        </g>
        <g
           id="g3628"
           style="fill:#00407a;fill-opacity:1">
          <g
             id="g3626"
             style="fill:#00407a;fill-opacity:1">
            <path
               inkscape:connector-curvature="0"
               id="path3624"
               d="m 40.457,78.715 c 0.092,-0.266 -10e-4,-0.563 -0.229,-0.729 L 22.097,64.775 21.103,64.154 c -0.199,-0.125 -0.448,-0.131 -0.651,-0.018 l -1.577,0.873 c -0.166,0.092 -0.281,0.252 -0.318,0.438 -0.037,0.186 0.009,0.377 0.126,0.525 0.415,0.52 10.27,12.768 21.144,13.174 0.008,0 0.016,0 0.024,0 0.272,0 0.515,-0.171 0.606,-0.431 z"
               style="fill:#00407a;fill-opacity:1" />
          </g>
        </g>
        <g
           id="g3634"
           style="fill:#00407a;fill-opacity:1">
          <g
             id="g3632"
             style="fill:#00407a;fill-opacity:1">
            <path
               inkscape:connector-curvature="0"
               id="path3630"
               d="m 47.703,75.594 c 0.085,-0.27 -0.015,-0.563 -0.247,-0.723 L 29.004,62.113 27.996,61.515 c -0.201,-0.117 -0.451,-0.119 -0.652,0 l -1.556,0.912 c -0.163,0.096 -0.275,0.258 -0.308,0.443 -0.032,0.188 0.019,0.377 0.14,0.521 0.427,0.512 10.582,12.51 21.463,12.648 0.003,0 0.006,0 0.009,0 0.278,0.002 0.526,-0.18 0.611,-0.445 z"
               style="fill:#00407a;fill-opacity:1" />
          </g>
        </g>
        <g
           id="g3640"
           style="fill:#00407a;fill-opacity:1">
          <g
             id="g3638"
             style="fill:#00407a;fill-opacity:1">
            <path
               inkscape:connector-curvature="0"
               id="path3636"
               d="m 54.32,72.238 c 0.282,-0.008 0.526,-0.199 0.602,-0.473 0.074,-0.271 -0.037,-0.561 -0.275,-0.711 L 35.704,59.043 34.671,58.484 c -0.207,-0.113 -0.456,-0.102 -0.652,0.025 l -1.518,0.973 c -0.159,0.102 -0.265,0.27 -0.29,0.457 -0.025,0.187 0.034,0.375 0.161,0.516 0.436,0.48 10.804,11.787 21.542,11.787 z"
               style="fill:#00407a;fill-opacity:1" />
          </g>
        </g>
        <g
           id="g3646"
           style="fill:#00407a;fill-opacity:1">
          <g
             id="g3644"
             style="fill:#00407a;fill-opacity:1">
            <path
               inkscape:connector-curvature="0"
               id="path3642"
               d="m 62.805,67.938 c 0.277,-0.035 0.501,-0.244 0.552,-0.52 0.052,-0.273 -0.079,-0.549 -0.324,-0.682 L 44.37,56.605 43.359,56.15 c -0.217,-0.098 -0.473,-0.068 -0.66,0.08 l -1.401,1.1 c -0.146,0.113 -0.234,0.283 -0.245,0.467 -0.011,0.184 0.059,0.363 0.189,0.494 0.402,0.396 9.96,9.754 19.779,9.754 10e-4,0 10e-4,0 10e-4,0 0.603,0 1.203,-0.037 1.783,-0.107 z"
               style="fill:#00407a;fill-opacity:1" />
          </g>
        </g>
        <g
           id="g3652"
           style="fill:#00407a;fill-opacity:1">
          <g
             id="g3650"
             style="fill:#00407a;fill-opacity:1">
            <path
               inkscape:connector-curvature="0"
               id="path3648"
               d="m 69.312,62.576 c 0.27,-0.068 0.465,-0.305 0.481,-0.582 0.017,-0.279 -0.147,-0.537 -0.408,-0.637 L 52.003,54.605 51.073,54.32 c -0.227,-0.07 -0.478,-0.008 -0.645,0.164 l -1.099,1.111 c -0.13,0.131 -0.197,0.313 -0.185,0.494 0.014,0.186 0.104,0.354 0.25,0.467 0.343,0.262 8.48,6.428 16.534,6.428 v 0 c 1.186,0 2.324,-0.136 3.384,-0.408 z"
               style="fill:#00407a;fill-opacity:1" />
          </g>
        </g>
        <g
           id="g3658"
           style="fill:#00407a;fill-opacity:1">
          <g
             id="g3656"
             style="fill:#00407a;fill-opacity:1">
            <path
               inkscape:connector-curvature="0"
               id="path3654"
               d="m 75.25,57.922 c 0.261,-0.088 0.437,-0.332 0.437,-0.607 0,-0.275 -0.174,-0.52 -0.435,-0.607 l -15.312,-5.2 -0.823,-0.207 c -0.229,-0.057 -0.463,0.012 -0.622,0.182 l -1.074,1.131 c -0.126,0.133 -0.189,0.311 -0.175,0.492 0.014,0.182 0.104,0.348 0.248,0.459 0.267,0.205 6.604,5.021 13.555,5.021 v 0 c 1.478,0 2.892,-0.223 4.201,-0.664 z"
               style="fill:#00407a;fill-opacity:1" />
          </g>
        </g>
        <g
           id="g3665"
           style="fill:#00407a;fill-opacity:1">
          <g
             id="g3663"
             style="fill:#00407a;fill-opacity:1">
            <path
               inkscape:connector-curvature="0"
               id="path3661"
               d="m 79.738,52.055 c 0.252,-0.107 0.409,-0.361 0.392,-0.633 -0.017,-0.271 -0.204,-0.503 -0.467,-0.578 l -13.446,-3.8 -0.729,-0.135 c -0.224,-0.038 -0.442,0.035 -0.592,0.197 l -1.052,1.148 c -0.121,0.132 -0.181,0.31 -0.166,0.488 0.016,0.179 0.104,0.343 0.247,0.453 0.202,0.157 5.023,3.839 10.88,3.839 v 0 c 1.734,10e-4 3.394,-0.329 4.933,-0.979 z"
               style="fill:#00407a;fill-opacity:1" />
          </g>
        </g>
        <g
           id="g3671"
           style="fill:#00407a;fill-opacity:1">
          <g
             id="g3669"
             style="fill:#00407a;fill-opacity:1">
            <path
               inkscape:connector-curvature="0"
               id="path3667"
               d="m 85.397,45.613 c 0.241,-0.125 0.376,-0.389 0.339,-0.657 -0.038,-0.269 -0.239,-0.485 -0.505,-0.541 L 73.631,42.004 73,41.941 C 72.782,41.92 72.59,42 72.455,42.154 l -1.031,1.165 c -0.117,0.133 -0.175,0.309 -0.159,0.485 0.017,0.176 0.105,0.338 0.245,0.447 0.144,0.113 3.59,2.759 8.266,2.759 h 0.001 c 1.953,-10e-4 3.845,-0.47 5.62,-1.397 z"
               style="fill:#00407a;fill-opacity:1" />
          </g>
        </g>
        <g
           id="g3677"
           style="fill:#00407a;fill-opacity:1">
          <g
             id="g3675"
             style="fill:#00407a;fill-opacity:1">
            <path
               inkscape:connector-curvature="0"
               id="path3673"
               d="m 89.878,38.592 c 0.232,-0.143 0.348,-0.417 0.29,-0.682 -0.058,-0.267 -0.277,-0.467 -0.547,-0.501 L 79.805,36.176 79.266,36.17 c -0.156,0.015 -0.371,0.08 -0.495,0.224 l -0.984,1.148 c -0.112,0.133 -0.168,0.307 -0.151,0.481 0.018,0.173 0.105,0.333 0.242,0.441 0.101,0.079 2.476,1.918 6.038,1.919 v 0 c 2.032,-0.001 4.038,-0.604 5.962,-1.791 z"
               style="fill:#00407a;fill-opacity:1" />
          </g>
        </g>
        <g
           id="g3683"
           style="fill:#00407a;fill-opacity:1">
          <g
             id="g3681"
             style="fill:#00407a;fill-opacity:1">
            <path
               inkscape:connector-curvature="0"
               id="path3679"
               d="m 93.127,32.72 c 0.248,-0.128 0.384,-0.403 0.337,-0.678 -0.048,-0.275 -0.269,-0.487 -0.544,-0.526 l -6.471,-0.9 -0.371,-0.005 c -0.155,-0.029 -0.306,0.052 -0.424,0.152 l -0.969,0.819 c -0.13,0.111 -0.212,0.269 -0.225,0.44 -0.014,0.17 0.042,0.34 0.153,0.47 0.054,0.061 1.329,1.505 3.928,1.505 h 0.001 c 1.417,-10e-4 2.96,-0.43 4.585,-1.277 z"
               style="fill:#00407a;fill-opacity:1" />
          </g>
        </g>
        <g
           id="g3689"
           style="fill:#00407a;fill-opacity:1">
          <g
             id="g3687"
             style="fill:#00407a;fill-opacity:1">
            <path
               inkscape:connector-curvature="0"
               id="path3685"
               d="m 87.402,29.691 0.72,-0.193 c 0.266,-0.072 0.455,-0.304 0.474,-0.578 l 0.021,-0.396 -0.301,-6.187 c -0.012,-0.25 -0.168,-0.47 -0.4,-0.563 -0.23,-0.093 -0.496,-0.044 -0.679,0.126 -2.87,2.69 -0.673,7.261 -0.578,7.455 0.11,0.224 0.337,0.358 0.576,0.358 0.056,0 0.113,-0.007 0.167,-0.022 z"
               style="fill:#00407a;fill-opacity:1" />
          </g>
        </g>
        <g
           id="g3693"
           style="fill:#00407a;fill-opacity:1">
          <path
             inkscape:connector-curvature="0"
             id="path3691"
             d="m 94.039,28.048 c 0.221,-0.129 0.341,-0.403 0.3,-0.678 -0.043,-0.275 -0.239,-0.488 -0.485,-0.527 l -3.861,-0.601 -0.221,-0.003 c -0.145,-0.002 -0.271,0.052 -0.377,0.152 l -0.575,0.545 c -0.116,0.111 -0.189,0.27 -0.2,0.44 -0.013,0.171 0.037,0.34 0.138,0.469 0.033,0.044 0.847,1.075 2.474,1.075 v 0 c 0.871,10e-4 1.815,-0.293 2.807,-0.872 z"
             style="fill:#00407a;fill-opacity:1" />
        </g>
        <g
           id="g3699"
           style="fill:#00407a;fill-opacity:1">
          <g
             id="g3697"
             style="fill:#00407a;fill-opacity:1">
            <path
               inkscape:connector-curvature="0"
               d="m 9.952,76.727 0.336,-0.359 C 14.573,71.778 22.549,63.233 43.045,57.901 64.64,52.285 70.204,47.333 78.63,39.839 87.737,31.738 90.997,27.904 92.748,25.845 c 1.154,-1.359 1.254,-2.938 1.135,-4.005 -0.004,-0.214 -0.051,-1.281 -0.663,-1.281 -0.242,0 -0.494,0.175 -0.794,0.549 l -3.854,4.816 C 67.89,49.635 47.271,52.908 47.057,52.939 11.513,59.475 4.306,75.164 4.237,75.322 c -0.016,0.037 -0.02,0.08 -0.011,0.119 0.028,0.123 0.724,3.027 2.749,3.027 v 0 c 0.894,10e-4 1.895,-0.585 2.977,-1.741 z"
               id="path3695"
               style="fill:#00407a;fill-opacity:1" />
          </g>
        </g>
      </g>
      <g
         transform="matrix(-0.05868314,-0.15554477,0.15554477,-0.05868314,-385.19841,200.36403)"
         id="g3705"
         style="fill:#00407a;fill-opacity:1"
         inkscape:export-xdpi="300"
         inkscape:export-ydpi="300">
        <path
           inkscape:connector-curvature="0"
           d="m 98.525,30.53 c -1.001,-1.312 -4.911,-1.687 -9.744,0.896 -2.447,1.308 -2.952,3.041 -2.855,4.435 -0.772,0.412 -1.431,0.795 -2.602,1.092 -1.055,0.272 -2.525,-0.127 -3.843,-0.645 -1.751,-0.687 -3.967,-1.462 -6.313,-0.711 -9.666,3.09 -6.407,14.297 -3.787,20.02 1.857,4.057 -0.343,8.558 -3.86,7.061 C 62.918,61.573 62.782,56.92 62.34,51.796 62.144,49.507 61.89,47.15 61.557,44.783 59.987,33.61 53.782,26.524 45.66,27.673 c -1.229,0.176 -2.399,0.345 -3.393,0.748 -9.873,4.001 -8.41,13.728 -7.342,23.915 0.195,1.859 0.395,3.754 0.536,5.656 0.411,5.509 -3.482,10.335 -6.344,11.236 -0.619,0.194 -1.736,0.502 -2.607,-0.049 -2.913,-1.841 -1.133,-4.805 1.08,-7.729 2.769,-3.658 6.711,-8.574 2.862,-16.04 C 27.56,39.8 21.65,40.012 17.302,39.888 14.008,39.796 10.907,39.144 9.709,36.963 8.3,34.398 8.954,32.423 10.538,30.743 c 0,0 3.388,-4.086 9.253,-1.448 2.711,1.219 8.035,1.978 12.353,-2.546 4.055,-4.247 1.611,-13.476 1.497,-13.745 0,0 -0.121,-0.275 -0.283,-0.298 -0.203,-0.028 -0.18,0.356 -0.18,0.356 0.241,4.216 -1.963,11.727 -6.545,12.725 -0.917,0.199 -3.449,0.013 -5.885,-1.392 -5.163,-2.979 -19.025,-2.642 -20.244,9.628 -0.682,6.86 5.374,12.003 9.897,13.832 2.084,0.84 4.128,1.042 5.771,1.204 2.354,0.231 3.786,0.416 4.288,2.014 1.06,3.366 -10.798,5.656 -12.072,15.369 -1.263,9.622 6.989,23.417 22.969,18.389 5.125,-1.614 10.357,-5.68 12.88,-10.517 4.552,-8.736 2.777,-18.047 2.278,-24.544 -0.333,-4.329 -0.574,-7.458 0.843,-7.905 0.654,-0.206 1.098,-0.123 1.474,0.073 2.263,1.178 1.741,12.706 2.441,16.361 1.831,9.573 6.616,13.957 13.512,14.916 6.865,0.954 12.016,-4.201 13.14,-7.586 1.776,-5.354 0.432,-10.115 -1.904,-14.781 -1.794,-3.589 -3.241,-6.875 -1.955,-8.444 1.544,-1.887 3.07,-1.366 5.032,-0.682 1.2,0.421 3.801,0.96 5.786,0.335 1.667,-0.525 3.053,-1.417 4.008,-2.161 1.291,0.456 3.13,0.416 5.461,-1.378 1.813,-1.391 5.813,-5.839 4.172,-7.988 z"
           id="path3703"
           style="fill:#00407a;fill-opacity:1" />
      </g>
      <path
         inkscape:connector-curvature="0"
         style="fill:#00407a;fill-opacity:1;stroke-width:0.17018571"
         d="m -397.33474,152.86361 c -0.64568,-0.074 -1.11863,-0.62287 -1.54222,-1.05635 -0.548,-0.56042 -1.06621,-1.1525 -1.5269,-1.78745 -0.35264,-0.48571 -0.67513,-0.99696 -0.935,-1.53881 -0.2352,-0.49032 -0.47601,-1.03577 -0.49609,-1.58665 -0.016,-0.43687 0.11227,-0.88157 0.24625,-1.30141 -0.27196,0.15299 -0.52911,0.24012 -0.72566,0.24864 -0.73947,0.63275 -1.71379,1.41969 -2.79838,2.25155 -2.45202,1.88124 -4.53698,3.28001 -4.65627,3.1241 -0.11971,-0.15571 1.77146,-1.80685 4.2235,-3.68809 1.08459,-0.83221 2.09685,-1.56963 2.89945,-2.12 0.0592,-0.18754 0.21,-0.41339 0.42835,-0.63616 -0.44044,0.0204 -0.90334,0.0292 -1.32116,-0.0992 -0.52688,-0.16236 -0.99132,-0.53625 -1.40385,-0.89024 -0.4561,-0.39143 -0.86625,-0.83544 -1.24407,-1.30192 -0.49386,-0.60926 -0.93175,-1.2633 -1.331,-1.93756 -0.30891,-0.52162 -0.71649,-1.12052 -0.62051,-1.76331 0.0411,-0.27603 0.17001,-0.63547 0.4161,-0.79323 0.25104,-0.16099 0.61251,-0.0767 0.85757,0.0568 0.26465,0.14414 0.45202,0.38308 0.62936,0.62049 0.37253,0.49865 0.71852,1.01703 1.07591,1.52641 1.05565,1.50375 2.15948,3.03491 3.6025,4.06267 0.0992,-0.059 0.19655,-0.10895 0.29066,-0.15028 -0.0317,-0.0329 -0.0569,-0.0594 -0.0601,-0.063 -0.93976,-0.95932 -1.94369,-1.90285 -2.70441,-3.01722 -0.44605,-0.65368 -0.73487,-1.38821 -0.95305,-2.14535 -0.15128,-0.52503 -0.28811,-1.07474 -0.29968,-1.62444 -0.005,-0.26873 0.052,-0.6038 0.18686,-0.83867 0.21,-0.36505 0.67292,-0.49064 1.04613,-0.30226 0.33934,0.17139 0.50495,0.55125 0.65248,0.87987 0.26159,0.58271 0.40659,1.21138 0.61591,1.81332 0.35347,1.01738 0.69129,2.04104 1.03523,3.062 0.241,0.71477 0.50103,1.42563 0.72108,2.14756 0.0683,-0.0198 0.13362,-0.0337 0.19385,-0.0406 0.0266,-0.17359 0.13274,-0.36385 0.30123,-0.5257 -7e-4,-0.001 -0.002,-0.001 -0.003,-0.003 -0.12527,-0.16355 -0.10637,-0.38854 0.042,-0.50239 0.14873,-0.114 0.37083,-0.074 0.49625,0.0895 0.0236,0.0306 0.04,0.0636 0.0537,0.0973 0.22056,-0.0426 0.41934,0.003 0.52706,0.14296 0.1079,0.14042 0.10028,0.34412 0.002,0.54613 0.0293,0.0218 0.0567,0.0464 0.0801,0.077 0.12542,0.16355 0.10652,0.38836 -0.0422,0.50255 -0.14858,0.114 -0.37068,0.074 -0.4961,-0.0897 -7e-4,-0.001 -0.001,-0.001 -0.002,-0.003 -0.19996,0.12077 -0.41134,0.17393 -0.58578,0.15452 -0.0225,0.0565 -0.0528,0.11573 -0.0894,0.177 0.64024,0.39959 1.25937,0.83493 1.88736,1.25256 0.89688,0.59651 1.79818,1.18841 2.68928,1.79324 0.52723,0.35808 1.09667,0.66102 1.59191,1.0647 0.27944,0.22771 0.60331,0.48571 0.68074,0.8579 0.0853,0.40965 -0.15589,0.82404 -0.56297,0.93228 -0.26192,0.0696 -0.60041,0.0385 -0.85859,-0.0369 -0.52809,-0.15351 -1.02349,-0.42802 -1.4915,-0.71018 -0.67497,-0.40692 -1.30941,-0.87595 -1.82542,-1.47619 -0.87918,-1.02334 -1.53031,-2.23727 -2.2136,-3.3935 -0.003,-0.004 -0.0218,-0.0354 -0.0454,-0.0744 -0.0643,0.0803 -0.13802,0.16115 -0.22056,0.24165 0.61913,1.66016 1.81196,3.12291 2.99101,4.53222 0.39943,0.4772 0.81043,0.94539 1.19555,1.43449 0.1833,0.23282 0.36557,0.47601 0.43602,0.76891 0.0657,0.27127 0.0532,0.64193 -0.16694,0.84276 -0.21563,0.19657 -0.59634,0.22787 -0.87358,0.1964 z"
         id="path3707"
         inkscape:export-xdpi="300"
         inkscape:export-ydpi="300" />
      <g
         style="fill:#00407a;fill-opacity:1;image-rendering:optimizeQuality;shape-rendering:geometricPrecision;text-rendering:geometricPrecision"
         id="g3711"
         transform="matrix(0.07290677,0,0,0.07290677,-379.83764,156.83046)"
         inkscape:export-xdpi="300"
         inkscape:export-ydpi="300">
        <path
           class="fil0"
           d="m 327,17 c -7,39 -36,65 -74,81 -7,3 -22,55 -56,60 -6,1 21,-48 14,-47 -42,10 -89,9 -130,2 -16,-3 -39,55 -50,58 -5,2 4,-46 -2,-49 0,-8 -34,-45 -28,-47 10,-3 65,32 73,21 15,-21 63,-54 89,-70 6,-4 -56,-14 -50,-17 34,-14 74,3 77,2 11,-4 25,-8 42,-10 -1,6 2,41 22,58 C 236,26 237,0 240,0 c 26,-1 62,3 87,17 z m -57,-4 c 4,0 8,3 8,7 0,5 -4,8 -8,8 -4,0 -8,-3 -8,-8 0,-4 4,-7 8,-7 z"
           id="path3709"
           inkscape:connector-curvature="0"
           style="fill:#00407a;fill-opacity:1" />
      </g>
      <path
         inkscape:connector-curvature="0"
         style="clip-rule:evenodd;fill:#00407a;fill-opacity:1;fill-rule:evenodd;stroke-width:0.67895776"
         d="m -380.63491,211.87051 c -0.14939,-0.13113 -0.40602,-0.50515 -0.45355,-0.65111 -0.0611,-0.11346 -0.25598,-0.35985 -0.45897,-0.64296 -0.24376,-0.2594 -0.99469,-1.23506 -0.95054,-1.89977 -0.0537,-0.19349 -0.55539,-1.63086 -2.46259,-2.97519 l 0.003,-0.003 c -0.28527,-0.17577 -0.27305,-0.46578 -0.25879,-0.57712 0.003,-0.0133 0.005,-0.0256 0.007,-0.038 0,-0.003 0.002,-0.0106 0.002,-0.0106 l -0.003,-10e-4 c 0.006,-0.0449 0.0124,-0.0903 0.0124,-0.13703 0,-0.45965 -0.30418,-0.8324 -0.67828,-0.8324 -0.0611,0 -0.11678,0.0133 -0.17314,0.0306 -0.10791,-0.28244 -0.34147,-0.48004 -0.61441,-0.48004 -0.26684,0 -0.49361,0.19016 -0.60495,0.46373 -0.35034,0.58662 -0.6036,0.75299 -0.70136,0.7944 -0.008,0.003 -0.0182,0.005 -0.0265,0.008 -0.0265,0.0298 -2.62417,-0.0429 -4.38403,-0.56083 -0.13646,-0.0529 -0.27294,-0.0957 -0.41009,-0.13369 -0.0107,-0.003 -0.0224,-0.008 -0.0333,-0.0132 v 0.003 c -0.79643,-0.21248 -1.60168,-0.16218 -2.43747,0.20836 -0.8806,0.39039 -1.79652,0.38566 -2.73688,0.19477 -1.29001,-0.26208 -2.58614,-0.53772 -3.89178,-0.68301 -3.04717,-0.33882 -5.90761,0.21862 -8.24324,2.31796 -1.44277,1.29613 -3.2556,1.73609 -4.54289,3.19176 -1.08905,1.2337 -1.24997,3.73091 -1.59149,5.35224 -0.20164,0.95054 -0.41008,1.90245 -0.67895,2.83532 -0.40126,1.39188 -0.47595,2.91342 -1.54394,4.05204 -0.17587,0.64838 0.0971,1.70417 0.11612,1.78227 0.55808,2.35666 1.06935,2.72873 3.47286,2.51214 0.23626,-0.0206 0.50378,-0.018 0.69458,-0.12834 0.17041,-0.0991 0.36528,-0.34492 0.36052,-0.52146 -0.0156,-0.59273 -0.51329,-0.67217 -0.96684,-0.76246 -0.57168,-0.11266 -0.67217,-0.28313 -0.35305,-0.76586 0.22338,-0.33882 0.50921,-0.65316 0.82085,-0.91321 1.29682,-1.08497 2.34784,-2.3526 3.10963,-3.87141 0.18536,-0.36935 0.46034,-0.64368 0.77809,-0.83378 0.77606,-0.92269 1.45705,-1.9676 1.76664,-3.04036 -0.12091,0.50788 -0.42298,1.54193 -1.2547,2.81698 -0.17112,0.52417 0.40601,1.24387 0.5452,1.52903 1.0809,1.45704 2.11224,2.88489 2.8102,4.39966 0.10195,0.21863 0.34899,0.41212 0.5744,0.52549 1.14812,0.57577 2.37159,0.68846 3.6236,0.4617 0.18536,-0.0339 0.44267,-0.2348 0.47663,-0.39855 0.0374,-0.17937 -0.0917,-0.48208 -0.24509,-0.59207 -0.27838,-0.19834 -0.62057,-0.31978 -0.95325,-0.42365 -1.01234,-0.3191 -0.98518,-0.0421 -0.92543,-1.32193 0.003,-0.0507 0.0182,-0.0998 0.0182,-0.15011 0.003,-0.78352 0.45422,-2.06269 0.33812,-2.99626 0.82222,0.42978 2.1455,0.8942 3.91215,0.79098 0.10048,-1.22756 0.37547,-2.12444 0.60089,-2.69613 0.0144,-0.003 0.0292,-0.008 0.0435,-0.0106 -0.1514,0.46712 -0.25054,0.96277 -0.30485,1.47674 -0.0156,0.10855 -0.0278,0.22274 -0.0387,0.34287 -0.001,0.0317 -0.005,0.0631 -0.008,0.0945 -0.0115,0.16218 -0.0156,0.33542 -0.0156,0.51941 -0.002,0.0841 -0.009,0.16782 -0.009,0.25198 0.004,0 0.008,-7e-4 0.0107,-0.001 0.0353,1.08091 0.29467,2.49788 1.03745,4.28219 0.49292,1.18343 1.45161,1.94047 2.67034,2.16587 0.91252,0.16835 1.8841,0.0421 2.82718,0.0132 0.33405,-0.0106 0.62871,-0.13445 0.62871,-0.58322 0,-0.43791 -0.23559,-0.63617 -0.61242,-0.70272 -0.40465,-0.0713 -0.8127,-0.13908 -1.22279,-0.15268 -0.66538,-0.0206 -1.0551,-0.37818 -1.0198,-1.00282 0.095,-1.65801 0.0374,-3.37171 0.46033,-4.95164 0.0401,-0.15141 0.0917,-0.29807 0.13919,-0.44675 0.23898,0.73055 0.63823,1.15084 0.63823,1.15084 v -7e-4 c 0.9967,1.21805 2.05452,2.38518 3.54347,3.02205 0.51669,0.22068 0.70883,0.51124 0.59953,1.04015 -0.055,0.27429 -0.16839,0.56149 -0.13239,0.8263 0.0496,0.37613 0.11203,0.86363 0.36189,1.06188 0.16566,0.13371 0.78894,-0.0387 0.99874,-0.26681 1.45159,-1.59081 1.98322,-3.15648 0.958,-5.00325 -0.56082,-1.00824 -1.32736,-1.90991 -2.06674,-2.80681 -0.45016,-0.54656 -0.68779,-1.08293 -0.47935,-1.77887 0.13308,-0.44743 0.26275,-0.90369 0.39515,-1.36066 l 10e-4,-0.003 c 0.19622,-0.68164 0.57847,-1.1834 0.57847,-1.1834 0,0 0.16702,-0.23147 0.70272,-0.83445 10e-4,0 10e-4,0 10e-4,0 0.13036,0.30352 0.43114,0.88197 0.80999,0.83106 -0.0401,-0.0387 -0.19484,-0.49156 -0.19484,-0.82967 0.093,0.003 0.19146,0.005 0.29263,0.008 0.13444,0.30959 0.55538,1.14469 1.13862,1.05848 -0.055,-0.0441 -0.25599,-0.59748 -0.23358,-1.00419 0.97702,0.0842 2.09119,0.26955 2.94125,0.66606 0.11541,0.0462 0.68982,0.56559 1.08362,0.54996 0.41755,0.057 0.68642,0.20787 0.86838,-0.0231 0.008,-0.0256 0.20845,0.14062 0.35306,0.0154 0.16295,-0.13318 0.46168,-0.38156 0.60291,-0.67894 0.0482,0.008 0.54928,-0.1935 0.54317,-0.38702 -0.0645,-0.16756 0.0427,-0.16987 -0.35646,-0.58256 z"
         id="path3713"
         inkscape:export-xdpi="300"
         inkscape:export-ydpi="300" />
      <g
         transform="matrix(0.35153505,0,0,0.35153505,-379.80129,161.2921)"
         id="g3717"
         style="fill:#00407a;fill-opacity:1"
         inkscape:export-xdpi="300"
         inkscape:export-ydpi="300">
        <path
           inkscape:connector-curvature="0"
           d="m 88.971,77.337 c 0.047,-2.563 -4.815,-3.382 -6.62,-4.405 -1.878,-1.064 -3.047,-2.471 -4.457,-4.021 -0.78,-0.857 -4.803,-2.692 -4.968,-3.046 -1.554,-3.318 -0.116,-7.353 -0.146,-10.85 -0.021,-2.568 -0.289,-5.902 -1.86,-8.04 -0.675,-0.919 -3.324,-2.686 -3.202,-3.706 0.283,-2.362 4.653,-5.155 6.17,-7.057 3.348,-4.202 5.383,-9.051 5.72,-14.424 0.61,-9.763 -6.896,-18.375 -17.016,-16.636 -9.201,1.582 -13.668,11.005 -15.7,19.166 -0.986,3.961 -0.963,8.116 -1.236,12.172 -0.184,2.722 0.852,7.286 -1.931,7.94 -3.87,0.909 -7.846,1.043 -11.614,2.456 -4.288,1.608 -4.412,-0.239 -6.798,-3.158 -4.114,-5.033 -14.586,0.969 -13.218,5.69 -1.238,1.28 -1.638,3.089 -1.029,4.739 0.844,2.284 5.44,0.968 7.317,1.461 1.938,0.51 1.302,4.081 1.87,5.771 0.735,2.19 4.008,5.574 3.095,8.128 0.566,4.696 -0.167,10.388 -0.97,15.009 -0.24,1.384 -0.562,3.976 -1.992,4.783 -0.436,0.246 -7.125,0.589 -5.855,2.323 0.575,0.785 5.626,0.412 6.228,0.349 2.542,-0.271 4.146,-2.097 5.05,-4.46 2.064,-5.396 4.275,-12.844 3.811,-18.604 2.191,1.693 5.478,2.392 6.319,5.086 0.923,2.957 2.438,5.598 3.217,8.646 0.63,2.466 2.356,5.24 2.356,7.737 0,3.011 -4.924,1.189 -4.559,3.042 0.149,0.76 4.861,0.978 5.196,0.978 3.215,0 3.842,-5.263 3.102,-7.794 -0.559,-6.388 -1.063,-13.604 -4.465,-19.068 2.51,0.022 5.037,-0.513 7.359,-1.453 1.991,-0.807 3.843,-1.944 5.443,-3.379 0.833,-0.747 3.384,-5.029 4.364,-4.888 0.391,0.057 -3.903,7.755 -4.39,8.665 -1.67,3.123 1.043,8.448 2.169,11.446 0.902,2.1 5.306,6.383 5.306,8.525 -10e-4,1.581 -3.507,0.873 -4.081,0.611 -1.594,-0.725 -1.903,1.185 -3.005,0.953 -4.084,-0.859 -4.754,1.76 -1.478,2.436 2.912,0.6 8.438,0.499 11.299,-0.51 9.389,-3.312 -7.378,-17.294 0.034,-23.267 2.13,5.128 7.455,7.675 12.002,10.415 3.254,1.962 14.178,2.985 7.647,9.624 -1.072,1.09 -4.289,-0.72 -4.595,1.896 -0.163,1.398 4.644,1.281 5.045,1.086 1.605,-0.804 4.282,1.205 4.08,-1.542 -0.268,-3.625 1.413,-7.196 0.986,-10.825 z M 12.195,49.723 12.199,49.734 Z M 65.605,37.48 c -5.726,2.717 -11.167,4.427 -17.348,5.927 0.519,-3.138 -0.385,-6.565 0,-9.792 1.134,-3.036 1.293,-7.309 1.944,-10.526 1.495,-7.38 5.522,-13.282 13.025,-15.316 8.52,-2.31 12.564,6.377 13.017,13.061 0.445,6.591 -5.592,13.235 -10.638,16.646 z"
           id="path3715"
           style="fill:#00407a;fill-opacity:1" />
      </g>
      <g
         transform="matrix(0.2239096,0,0,0.2239096,-432.50486,159.62894)"
         id="g3723"
         style="fill:#00407a;fill-opacity:1"
         inkscape:export-xdpi="300"
         inkscape:export-ydpi="300">
        <path
           style="fill:#00407a;fill-opacity:1"
           inkscape:connector-curvature="0"
           d="M 49.682,92.458 C 48.839,92.1 47.639,85.84 47.639,81.783 c 0,-3.388 -1.715,-12.197 -1.788,-12.57 -0.014,-0.145 -1.996,-18.653 1.258,-30.702 0.786,-2.909 0.527,-5.889 0.358,-7.149 0.922,0.062 2.792,0.283 4.653,1.073 -0.755,3.272 -5.312,24.177 -1.673,37.011 0.025,0.075 1.749,5.2 1.749,9.739 0,2.809 0.303,4.388 0.523,5.54 0.151,0.788 0.271,1.41 0.247,2.146 -0.053,1.742 -1.943,5.552 -3.284,5.587 z m 8.689,-45.463 c -0.365,-0.444 -0.694,-0.924 -1.002,-1.418 0.345,0.468 0.685,0.938 1.004,1.419 l 0.007,0.01 c -0.003,-0.004 -0.006,-0.007 -0.009,-0.011 z m 2.067,-1.118 c -0.445,-0.553 -0.853,-1.144 -1.237,-1.75 l 1.245,1.759 C 60.443,45.883 60.441,45.88 60.438,45.877 Z m 3.144,-0.659 c -0.504,-0.449 -0.973,-0.943 -1.419,-1.458 0.025,0.026 0.052,0.053 0.078,0.079 0.452,0.457 0.904,0.913 1.343,1.379 0.004,0.004 0.007,0.007 0.011,0.011 -0.004,-0.003 -0.009,-0.007 -0.013,-0.011 z M 34.498,43.131 c 0.528,-0.486 1.071,-0.957 1.616,-1.428 -0.516,0.505 -1.051,0.99 -1.616,1.429 -0.003,0.003 -0.007,0.006 -0.011,0.008 0.003,-0.003 0.007,-0.006 0.011,-0.009 z m 38.356,-0.67 c -0.31,-0.252 -0.777,-0.754 -1.087,-1.086 -0.388,-0.417 -0.789,-0.849 -1.136,-1.136 -2.682,-2.22 -5.288,-4.011 -7.968,-5.477 -4.562,-2.494 -11.387,-5.466 -18,-5.466 -1.93,0 -3.756,0.255 -5.428,0.759 -3.787,1.14 -8.23,5.479 -10.885,8.07 -0.769,0.75 -1.559,1.522 -1.973,1.848 0.065,-0.63 0.627,-2.057 0.95,-2.877 0.255,-0.647 0.5,-1.274 0.661,-1.781 0.461,-1.465 1.136,-3.062 1.788,-4.606 0.189,-0.448 0.375,-0.887 0.549,-1.31 1.496,-3.617 3.441,-7.201 5.782,-10.652 3.43,-5.062 8.098,-10.872 13.789,-10.872 1.561,0 3.146,0.452 4.71,1.345 2.759,1.573 5.062,3.931 7.139,6.246 l 0.464,0.516 c 2.495,2.775 5.324,5.921 7.285,9.126 2.703,4.42 4.401,13.381 3.36,17.353 z M 33.018,41.18 c 0.597,-0.52 1.225,-1.028 1.85,-1.523 -0.599,0.532 -1.215,1.05 -1.852,1.526 -10e-4,10e-4 -0.003,0.002 -0.004,0.003 z"
           id="path3719" />
        <path
           style="fill:#00407a;fill-opacity:1"
           inkscape:connector-curvature="0"
           d="m 49.895,8.375 c 1.473,0 2.975,0.43 4.463,1.279 2.696,1.538 4.964,3.862 7.014,6.146 l 0.464,0.516 c 2.603,2.894 5.294,5.887 7.23,9.053 2.654,4.338 4.026,12.123 3.472,16.097 -0.146,-0.153 -0.289,-0.306 -0.405,-0.431 -0.399,-0.429 -0.812,-0.872 -1.184,-1.18 -2.706,-2.24 -5.338,-4.049 -8.047,-5.531 -4.612,-2.521 -11.521,-5.527 -18.24,-5.527 -1.979,0 -3.853,0.263 -5.572,0.78 -3.904,1.176 -8.229,5.398 -11.09,8.191 -0.209,0.204 -0.425,0.415 -0.636,0.619 0.147,-0.396 0.302,-0.79 0.427,-1.108 0.26,-0.66 0.505,-1.283 0.672,-1.814 0.455,-1.442 1.124,-3.028 1.771,-4.561 0.19,-0.45 0.376,-0.89 0.551,-1.313 1.483,-3.586 3.413,-7.14 5.733,-10.563 3.363,-4.961 7.921,-10.653 13.377,-10.653 m -1.86,23.538 c 0.887,0.097 2.18,0.319 3.504,0.826 -0.98,4.362 -5.113,24.354 -1.572,36.842 0.004,0.017 0.01,0.033 0.015,0.049 0.017,0.051 1.714,5.103 1.714,9.555 0,2.856 0.308,4.462 0.532,5.635 0.151,0.786 0.26,1.354 0.238,2.036 -0.049,1.599 -1.674,4.656 -2.61,5.059 -0.771,-1.133 -1.717,-6.61 -1.717,-10.131 0,-3.351 -1.64,-11.858 -1.789,-12.624 -0.102,-0.969 -1.915,-18.831 1.242,-30.518 0.699,-2.584 0.596,-5.222 0.443,-6.729 m 1.86,-24.538 c -5.984,0 -10.84,6.129 -14.203,11.091 -2.291,3.379 -4.269,6.969 -5.83,10.742 -0.77,1.864 -1.747,4.034 -2.352,5.957 -0.593,1.883 -2.405,5.444 -1.262,5.444 0.851,0 7.713,-8.443 13.131,-10.075 1.702,-0.513 3.478,-0.738 5.284,-0.738 6.162,0 12.671,2.622 17.76,5.404 2.809,1.536 5.426,3.385 7.889,5.424 0.864,0.716 2.176,2.483 2.738,2.483 0.058,0 0.107,-0.019 0.148,-0.06 C 74.509,39.278 72.885,29.693 69.92,24.846 67.815,21.405 64.808,18.128 62.116,15.131 59.983,12.755 57.651,10.381 54.853,8.785 53.127,7.8 51.472,7.375 49.895,7.375 Z M 44.7,30.802 c -2.634,2.274 -5.288,4.524 -7.966,6.734 -1.347,1.097 -2.741,2.132 -4.046,3.268 l -3.91,3.442 0.053,0.085 c 1.623,-0.709 3.08,-1.711 4.484,-2.748 1.403,-1.046 2.663,-2.261 3.944,-3.443 2.572,-2.354 5.072,-4.779 7.51,-7.266 z m 2.185,0.036 c -0.003,0 -0.004,0 -0.004,0 0,0 0.74,3.868 -0.253,7.543 -3.317,12.282 -1.266,30.928 -1.266,30.928 0,0 1.778,9.097 1.778,12.475 0,3.376 1.069,11.175 2.529,11.175 0,0 0.001,0 0.002,0 1.789,-0.01 3.741,-4.281 3.797,-6.071 0.061,-1.934 -0.771,-3.025 -0.771,-7.702 0,-4.679 -1.768,-9.876 -1.768,-9.876 -3.88,-13.688 1.773,-37.162 1.773,-37.162 -2.768,-1.296 -5.692,-1.31 -5.817,-1.31 z m -6.983,0.358 c -2.372,1.038 -4.555,2.454 -6.658,3.957 -1.053,0.751 -2.11,1.507 -3.061,2.385 -0.938,0.894 -1.862,1.8 -2.651,2.841 l 0.052,0.055 c 1.083,-0.727 2.07,-1.544 3.088,-2.326 1.004,-0.795 1.942,-1.669 2.937,-2.478 0.995,-0.808 2.016,-1.583 3.068,-2.317 1.047,-0.738 2.119,-1.454 3.256,-2.048 z m 2.76,0.004 c -2.562,1.776 -5.112,3.569 -7.649,5.378 -1.273,0.899 -2.572,1.764 -3.791,2.734 -1.208,0.986 -2.424,1.961 -3.544,3.065 l 0.045,0.061 c 1.377,-0.759 2.658,-1.647 3.948,-2.524 1.278,-0.892 2.477,-1.891 3.701,-2.854 2.458,-1.917 4.903,-3.85 7.335,-5.799 z m 13.891,1.451 -0.051,0.055 c 2.223,2.229 4.51,4.396 6.869,6.487 1.177,1.049 2.344,2.117 3.624,3.046 1.292,0.907 2.607,1.813 4.079,2.433 l 0.037,-0.064 C 69.873,43.627 68.654,42.655 67.454,41.647 66.247,40.651 64.983,39.72 63.76,38.737 61.323,36.753 58.923,34.72 56.553,32.651 Z m -10.125,0.006 c -1.897,2.591 -3.871,5.125 -5.928,7.58 -1.038,1.221 -2.133,2.385 -3.182,3.585 -1.042,1.21 -2.123,2.371 -3.274,3.498 l 0.044,0.061 c 1.426,-0.794 2.627,-1.917 3.78,-3.047 1.138,-1.153 2.12,-2.441 3.099,-3.72 1.966,-2.553 3.802,-5.198 5.523,-7.914 z m -2.212,0.299 c -2.102,2.327 -4.289,4.575 -6.56,6.715 -1.146,1.062 -2.356,2.043 -3.497,3.092 -1.144,1.052 -2.298,2.073 -3.509,3.093 l 0.05,0.087 c 1.502,-0.556 2.85,-1.45 4.104,-2.415 1.255,-0.975 2.336,-2.141 3.416,-3.289 2.169,-2.29 4.191,-4.704 6.074,-7.22 z m 10.831,0.006 -0.057,0.05 c 2.084,2.505 4.229,4.959 6.453,7.347 1.108,1.196 2.205,2.412 3.433,3.496 1.247,1.05 2.5,2.155 4.024,2.829 l 0.037,-0.065 c -1.265,-1.019 -2.4,-2.167 -3.549,-3.312 -1.146,-1.143 -2.353,-2.23 -3.516,-3.367 -2.31,-2.286 -4.581,-4.618 -6.825,-6.978 z m -1.879,0.754 -0.09,0.045 c 1.324,2.874 2.776,5.688 4.383,8.425 0.798,1.371 1.586,2.761 2.591,4.008 1.008,1.23 2.115,2.442 3.508,3.275 l 0.064,-0.077 c -1.01,-1.226 -1.886,-2.502 -2.77,-3.794 l -2.716,-3.837 c -1.741,-2.618 -3.393,-5.31 -4.97,-8.045 z m 7.49,0.908 -0.043,0.061 c 1.679,1.337 3.371,2.658 5.075,3.96 0.848,0.658 1.67,1.35 2.57,1.935 0.901,0.583 1.819,1.142 2.811,1.599 l 0.043,-0.061 C 70.362,41.326 69.538,40.637 68.697,39.97 67.854,39.305 66.934,38.749 66.039,38.158 64.258,36.962 62.465,35.784 60.658,34.624 Z m -5.382,0.216 -0.084,0.055 c 1.538,2.544 3.226,4.998 5.082,7.336 0.924,1.171 1.851,2.36 2.978,3.363 1.126,0.989 2.364,1.922 3.796,2.446 l 0.051,-0.087 C 65.97,46.971 64.956,45.939 63.949,44.875 62.948,43.813 61.882,42.802 60.886,41.713 58.917,39.519 57.05,37.215 55.276,34.84 Z m -9.355,1.183 c -1.587,2.132 -3.232,4.221 -4.945,6.242 l -2.645,2.951 c -0.856,1.005 -1.741,1.966 -2.691,2.905 l 0.043,0.062 c 1.22,-0.603 2.229,-1.529 3.196,-2.455 0.954,-0.948 1.757,-2.024 2.564,-3.086 1.622,-2.121 3.129,-4.318 4.541,-6.577 z m 6.6,1.179 -0.09,0.045 c 1.044,2.328 2.196,4.607 3.479,6.824 0.636,1.111 1.255,2.245 2.077,3.245 0.824,0.985 1.74,1.955 2.899,2.587 L 60.95,49.827 C 60.173,48.801 59.489,47.766 58.789,46.72 58.097,45.675 57.307,44.689 56.587,43.646 55.17,41.548 53.818,39.392 52.521,37.202 Z m -0.644,2.606 -0.072,0.021 c 0.536,1.978 1.377,3.868 2.392,5.658 0.503,0.897 1.026,1.797 1.696,2.586 0.674,0.782 1.415,1.513 2.274,2.102 L 58.22,50.122 C 57.658,49.25 57.063,48.439 56.486,47.614 55.913,46.789 55.271,46.012 54.708,45.173 54.147,44.335 53.63,43.464 53.159,42.568 52.679,41.676 52.232,40.76 51.877,39.808 Z m -6.297,0.191 c -0.811,1.575 -1.638,3.141 -2.489,4.686 -0.433,0.769 -0.915,1.508 -1.306,2.292 l -1.179,2.362 0.056,0.051 c 0.747,-0.546 1.283,-1.297 1.774,-2.04 0.487,-0.754 0.827,-1.583 1.191,-2.394 0.738,-1.618 1.408,-3.261 2.021,-4.926 z m -0.875,0.773 -3.516,3.764 c -0.589,0.623 -1.214,1.213 -1.746,1.882 -0.539,0.665 -1.03,1.364 -1.533,2.067 l 0.046,0.06 c 0.798,-0.417 1.428,-1.027 2.046,-1.626 0.611,-0.609 1.113,-1.313 1.643,-1.991 1.069,-1.347 2.107,-2.717 3.119,-4.107 z m 6.555,1.912 -0.07,0.023 c 0.388,1.493 0.813,2.974 1.282,4.444 0.228,0.737 0.423,1.489 0.752,2.19 0.334,0.698 0.703,1.389 1.217,2 l 0.068,-0.031 c -0.141,-0.78 -0.353,-1.515 -0.588,-2.245 -0.234,-0.729 -0.583,-1.416 -0.886,-2.122 z m -6.489,2.506 h -0.075 c -0.134,0.799 -0.365,1.574 -0.631,2.321 -0.142,0.373 -0.341,0.72 -0.432,1.105 -0.09,0.387 -0.17,0.779 -0.163,1.232 l 0.067,0.033 c 0.363,-0.276 0.603,-0.63 0.798,-1.002 0.192,-0.375 0.242,-0.802 0.31,-1.212 0.147,-0.821 0.209,-1.654 0.126,-2.477 z m 6.33,0.934 c -0.26,0.93 -0.41,1.894 -0.397,2.885 0.003,0.493 0.007,1.017 0.226,1.499 0.216,0.468 0.594,0.937 1.114,1.079 l 0.047,-0.059 c -0.235,-0.451 -0.351,-0.844 -0.454,-1.271 -0.094,-0.42 -0.254,-0.844 -0.334,-1.301 -0.142,-0.911 -0.172,-1.868 -0.127,-2.82 z"
           id="path3721" />
      </g>
      <g
         transform="matrix(0.03011406,0.01813152,-0.01813152,0.03011406,-428.69049,187.95833)"
         style="fill:#00407a;fill-opacity:1;image-rendering:optimizeQuality;shape-rendering:geometricPrecision;text-rendering:geometricPrecision"
         id="g3729"
         inkscape:export-xdpi="300"
         inkscape:export-ydpi="300">
        <path
           inkscape:connector-curvature="0"
           class="fil0"
           d="m 323,334 c 64,30 62,163 133,223 21,18 -41,-97 -34,-198 0,-1 1,-3 1,-4 1,1 1,2 2,3 5,4 9,4 12,4 2,0 2,-1 6,-2 -1,1 -5,7 -5,8 -19,26 30,151 41,188 -4,-50 -26,-150 8,-181 21,-21 -6,12 -1,102 6,126 21,146 81,255 27,48 2,64 -34,6 -44,-72 -140,-190 -234,-189 -13,-1 -47,19 -46,16 0,-4 44,-49 84,-36 126,42 160,154 55,-33 -56,-101 -17,-111 -83,-161 -3,2 -2,6 -1,16 4,54 -82,33 -106,-18 -7,-15 -19,-59 -24,-93 -71,44 -29,127 -30,131 -10,21 -164,-16 -64,-133 -15,2 -51,-15 -58,-39 -6,-20 1,-30 -16,-48 -32,-35 23,-50 36,-21 9,20 26,11 30,37 4,21 -5,15 30,27 11,4 16,7 17,10 11,-7 21,-11 32,-13 -20,-22 -15,-50 -17,-91 48,-15 111,16 104,60 1,-11 9,-22 20,-31 -18,-40 9,-35 -27,-48 -23,-9 -12,-24 -30,-35 -28,-18 -3,-70 26,-33 16,19 25,15 45,24 24,12 39,60 23,71 65,-26 161,-16 138,87 -50,24 -89,-52 -145,-18 35,18 72,48 82,74 17,49 17,78 -51,83 z M 199,150 c -27,10 -38,44 -32,-32 20,-4 50,25 32,32 z m 30,53 c 67,-1 80,94 63,93 -5,0 -121,-78 -63,-93 z m -80,15 c -35,0 -84,66 -59,97 17,22 13,-20 30,-39 7,-7 71,-59 29,-58 z m 245,-85 c -22,-27 -105,-23 -113,16 -5,28 24,-2 50,-1 9,0 91,18 63,-15 z"
           id="path3725"
           style="fill:#00407a;fill-opacity:1" />
        <path
           inkscape:connector-curvature="0"
           class="fil1"
           d="m 444,269 c -23,36 -32,104 -1,87 28,-16 43,-152 1,-87 z m -15,74 c 1,-44 23,-75 25,-69 -11,21 -18,45 -25,69 z"
           id="path3727"
           style="fill:#00407a;fill-opacity:1" />
      </g>
      <path
         inkscape:connector-curvature="0"
         d="m -391.36058,164.43685 c 0.19905,0.049 0.40769,0.0801 0.61406,0.0902 -0.0214,0.13468 -0.0346,0.27406 -0.0354,0.4206 0.0591,0.70825 0.35186,1.15954 0.77891,1.42488 -0.0111,0.008 -0.0224,0.016 -0.0317,0.0285 -0.18229,0.24318 -0.36459,0.48617 -0.54689,0.72935 -0.10132,0.13503 0.12595,0.26534 0.22591,0.13206 0.18229,-0.24318 0.3646,-0.48617 0.54689,-0.72935 0.0121,-0.0161 0.019,-0.0322 0.0225,-0.0476 0.42879,0.1898 0.95666,0.23324 1.51036,0.18124 -0.009,0.0229 -0.0155,0.0484 -0.009,0.0784 0.0691,0.34802 0.13972,0.69186 0.31696,1.00343 0.0834,0.14671 0.30947,0.0149 0.22591,-0.13207 -0.16572,-0.29134 -0.22607,-0.61615 -0.29063,-0.94096 -0.003,-0.0141 -0.009,-0.0245 -0.0148,-0.0352 0.84083,-0.11546 1.71324,-0.42739 2.36166,-0.75466 0.0725,0.34158 0.12351,0.69536 0.27022,1.01232 0.0709,0.15299 0.29639,0.0201 0.22591,-0.13206 -0.14409,-0.31122 -0.18457,-0.6718 -0.25714,-1.00778 0.077,-0.043 0.1509,-0.0862 0.21842,-0.12862 0.49629,-0.31208 0.96939,-0.69656 1.4254,-1.10844 0.16659,0.20132 0.35046,0.37996 0.56137,0.53993 0.1345,0.10206 0.26464,-0.12543 0.13206,-0.22591 -0.18719,-0.14202 -0.35431,-0.30634 -0.50171,-0.48846 0.29115,-0.27057 0.57567,-0.54985 0.85322,-0.8288 0.0678,0.0536 0.14374,0.0965 0.20689,0.15526 0.12351,0.11466 0.30894,-0.0699 0.18508,-0.18509 -0.0638,-0.0592 -0.14008,-0.10216 -0.20776,-0.15612 0.19433,-0.19644 0.38675,-0.39148 0.57551,-0.58005 0.15002,-0.14984 0.31121,-0.31383 0.4717,-0.48844 0.14392,0.0575 0.27458,0.14147 0.41221,0.21194 0.14986,0.0768 0.28227,-0.14896 0.13206,-0.22591 -0.12194,-0.0625 -0.23881,-0.13207 -0.3618,-0.19049 0.29744,-0.34366 0.57533,-0.72308 0.75606,-1.1217 0.008,0.003 0.0161,0.008 0.0258,0.009 0.38396,0.0517 0.76774,0.0607 1.15466,0.0609 0.1687,0 0.1687,-0.26166 0,-0.26166 -0.3632,0 -0.72342,-0.009 -1.08384,-0.0531 0.0459,-0.13519 0.0806,-0.27197 0.0982,-0.41012 0.0347,-0.27214 -0.009,-0.50294 -0.10851,-0.69675 0.74873,-0.74839 2.28263,-0.71295 3.24698,-0.5277 0.16485,0.0317 0.23516,-0.2205 0.0694,-0.25224 -1.00359,-0.19278 -2.53035,-0.22766 -3.38165,0.48375 0.25103,-0.45323 0.63516,-0.77177 1.06185,-1.04897 0.22068,-0.0195 0.44991,-0.0361 0.67232,-0.0813 0.38292,-0.0781 0.6179,-0.25626 1.06256,-0.0595 0.0929,0.0412 0.17985,0.12915 0.28173,0.1521 0.23778,0.0536 0.36338,0.005 0.57777,-0.11838 0.14619,-0.084 0.0145,-0.31016 -0.13205,-0.22591 -0.28818,0.16556 -0.86159,-0.13467 -1.2035,-0.14967 -0.17934,-0.008 -0.366,0.0186 -0.55492,0.0569 0.53467,-0.3182 1.054,-0.65608 1.39034,-1.18677 0.0907,-0.14303 -0.1359,-0.27405 -0.22591,-0.13207 -0.43908,0.69293 -1.18973,1.05175 -1.88037,1.47269 -0.0941,0.0164 -0.18752,0.0301 -0.27964,0.036 -0.73337,0.0456 -1.11454,0.34924 -1.24223,1.05557 -0.23254,-0.1245 -0.50712,-0.19976 -0.7906,-0.23027 0.1174,-0.20707 0.22853,-0.42565 0.38745,-0.59522 0.11531,-0.12303 -0.0693,-0.30842 -0.18508,-0.18509 -0.20708,0.22086 -0.34053,0.50974 -0.49997,0.76774 -0.63132,0.0151 -1.27609,0.30354 -1.88072,0.66466 -0.0705,-0.23709 -0.1256,-0.48759 -0.13066,-0.73216 -0.003,-0.16852 -0.26515,-0.16886 -0.26167,0 0.006,0.29272 0.0738,0.59433 0.16171,0.87414 -0.46228,0.29326 -0.89596,0.61389 -1.27416,0.86649 -0.14532,0.0971 -0.30301,0.19032 -0.46856,0.28138 -0.0248,-0.0916 -0.0424,-0.18684 -0.0614,-0.27563 -0.0256,-0.11997 -0.0902,-0.3147 -0.0452,-0.43542 0.0591,-0.15839 -0.19399,-0.22608 -0.25225,-0.0695 -0.0583,0.15651 0.006,0.37472 0.0363,0.53085 0.024,0.12383 0.0506,0.25192 0.0893,0.37455 -0.52735,0.27283 -1.12222,0.53084 -1.70469,0.81343 -0.1106,-0.15717 -0.23081,-0.31695 -0.29552,-0.49628 -0.0569,-0.15753 -0.30965,-0.0897 -0.25225,0.0695 0.0713,0.19782 0.19276,0.3707 0.31191,0.54287 -0.45095,0.22643 -0.88672,0.47137 -1.26998,0.75324 -0.26253,-0.2102 -0.58405,-0.34888 -0.82879,-0.57948 -0.12264,-0.11574 -0.30807,0.0691 -0.1851,0.18508 0.23708,0.22328 0.5455,0.36058 0.80264,0.55911 -0.5031,0.41257 -0.89003,0.90346 -1.05575,1.52482 -0.1823,-0.006 -0.36303,-0.0335 -0.54166,-0.0707 -0.14985,-0.0312 -0.37646,-0.0665 -0.47851,-0.19292 -0.10589,-0.13139 -0.28993,0.055 -0.18509,0.18508 0.12228,0.15143 0.35848,0.20306 0.53748,0.24702 z m 8.21315,-3.3494 c 0.243,-0.24317 0.48618,-0.48618 0.72936,-0.72936 0.1195,-0.11944 0.30441,0.0656 0.18509,0.18509 -0.24317,0.24318 -0.48636,0.48619 -0.72937,0.72937 -0.11932,0.11945 -0.30441,-0.0656 -0.18508,-0.1851 z m -0.72344,2.34544 c -0.3215,0.12876 -0.64388,0.25418 -0.97219,0.36478 -0.16031,0.0541 -0.22852,-0.19871 -0.0694,-0.25225 0.32831,-0.11054 0.65069,-0.23621 0.97219,-0.36478 0.15666,-0.0629 0.22416,0.1905 0.0694,0.25225 z m -1.58572,-1.00865 c 0.23498,-0.29062 0.49421,-0.56014 0.72937,-0.85078 0.10606,-0.13114 0.29011,0.0551 0.18508,0.18509 -0.23498,0.29062 -0.4942,0.56015 -0.72936,0.85078 -0.10623,0.13114 -0.29011,-0.0551 -0.18509,-0.18509 z m -2.76376,1.42035 c 0.16869,0 0.16869,0.26167 0,0.26167 -0.16869,0 -0.16869,-0.26167 0,-0.26167 z m 0.60777,1.27607 c 0.16869,0 0.16869,0.26168 0,0.26168 -0.16869,0 -0.16886,-0.26168 0,-0.26168 z m 1.06779,-0.59381 c -0.32238,0.0784 -0.65208,0.11799 -0.98109,0.0611 -0.16607,-0.0289 -0.0954,-0.28085 0.0694,-0.25225 0.28051,0.0485 0.56817,0.005 0.84205,-0.0611 0.16398,-0.04 0.23359,0.21248 0.0696,0.25225 z m -0.27772,-1.28986 c 0.16869,0 0.16869,0.26168 0,0.26168 -0.16868,0 -0.16868,-0.26168 0,-0.26168 z m 6.78512,-4.91958 c -0.299,0.22625 -0.5619,0.49072 -0.75221,0.83194 0.0975,-0.53468 0.38395,-0.73982 0.75221,-0.83194 z"
         id="path3731"
         style="fill:#00407a;fill-opacity:1;stroke-width:0.17444706"
         inkscape:export-xdpi="300"
         inkscape:export-ydpi="300" />
    </g>
  </g>
</svg>
