<?xml version="1.0" encoding="UTF-8" standalone="no"?>
<!-- Created with Inkscape (http://www.inkscape.org/) -->

<svg
   xmlns:dc="http://purl.org/dc/elements/1.1/"
   xmlns:cc="http://creativecommons.org/ns#"
   xmlns:rdf="http://www.w3.org/1999/02/22-rdf-syntax-ns#"
   xmlns:svg="http://www.w3.org/2000/svg"
   xmlns="http://www.w3.org/2000/svg"
   xmlns:sodipodi="http://sodipodi.sourceforge.net/DTD/sodipodi-0.dtd"
   xmlns:inkscape="http://www.inkscape.org/namespaces/inkscape"
   width="10cm"
   height="10cm"
   viewBox="0 0 100 100"
   version="1.1"
   id="svg8"
   inkscape:version="0.92.4 (5da689c313, 2019-01-14)"
   sodipodi:docname="CC.svg">
  <defs
     id="defs2" />
  <sodipodi:namedview
     id="base"
     pagecolor="#ffffff"
     bordercolor="#666666"
     borderopacity="1.0"
     inkscape:pageopacity="0.0"
     inkscape:pageshadow="2"
     inkscape:zoom="0.49497475"
     inkscape:cx="-71.005603"
     inkscape:cy="-157.43689"
     inkscape:document-units="mm"
     inkscape:current-layer="layer1"
     showgrid="false"
     inkscape:window-width="1280"
     inkscape:window-height="1001"
     inkscape:window-x="1272"
     inkscape:window-y="-8"
     inkscape:window-maximized="1"
     units="cm" />
  <metadata
     id="metadata5">
    <rdf:RDF>
      <cc:Work
         rdf:about="">
        <dc:format>image/svg+xml</dc:format>
        <dc:type
           rdf:resource="http://purl.org/dc/dcmitype/StillImage" />
        <dc:title />
      </cc:Work>
    </rdf:RDF>
  </metadata>
  <g
     inkscape:label="Laag 1"
     inkscape:groupmode="layer"
     id="layer1"
     transform="translate(0,-197)">
    <path
       inkscape:export-ydpi="300"
       inkscape:export-xdpi="300"
       style="fill:#00407a;fill-opacity:1;stroke-width:1.2747612"
       id="path2-11"
       d="m 93.051802,271.47819 v -8.68745 c 1.007774,-3.78866 1.548771,-7.76463 1.548771,-11.86677 0,-4.05495 -0.529707,-7.98764 -1.513231,-11.73925 -0.0135,-0.0645 -0.0163,-0.14546 -0.0323,-0.21454 l -0.002,-35.64369 c 0,-3.38436 -2.754695,-6.13914 -6.139077,-6.13914 -3.384549,0 -6.139252,2.75346 -6.139252,6.13914 l -0.0013,14.64584 c -8.353676,-8.22356 -19.806151,-13.3099 -32.428861,-13.3099 -16.740169,0 -31.432994,8.93741 -39.5558321,22.29175 -0.347226,0.57171 -0.6783017,1.15309 -1.0012904,1.73891 -0.03229,0.0646 -0.08072,0.12913 -0.112957,0.19683 -0.04839,0.0809 -0.08072,0.16142 -0.129106,0.23918 -0.8640204,1.48904 -1.5520331,2.85802 -1.8139878,3.77325 -2.3532188,5.54144 -3.6558742,11.63219 -3.6558742,18.0227 0,25.50913 20.7529815,46.2623 46.2622955,46.2623 10.727009,0 20.603898,-3.68027 28.460269,-9.82972 2.035868,3.47626 5.80012,5.82184 10.111356,5.82184 6.463034,0 11.720194,-5.2571 11.720194,-11.72027 -0.002,-4.06008 -2.131498,-7.85624 -5.578377,-9.98257 z m -6.142957,20.5861 c -5.847419,0 -10.603446,-4.75727 -10.603446,-10.60345 0,-3.77202 2.030692,-7.29154 5.299137,-9.18322 l 0.277788,-0.16143 0.0028,-68.78741 c 0,-2.77005 2.252586,-5.02249 5.022621,-5.02249 2.769885,0 5.022473,2.25244 5.022473,5.02249 l 0.002,68.78741 0.277757,0.16143 c 3.268582,1.89168 5.29913,5.4112 5.29913,9.18322 0,5.84739 -4.757293,10.60345 -10.60325,10.60345 z m -8.223588,-31.83205 c 0.04843,-0.0174 0.09686,-0.0174 0.145248,-0.007 0.03229,0 0.04843,0.0139 0.06457,0.0312 0.03229,0.0138 0.04843,0.0312 0.06457,0.0646 0.01632,0.0174 0.03229,0.0482 0.04843,0.0809 0.01631,0.0312 0.03229,0.0646 0.04843,0.11314 0.01354,0.0312 0.03229,0.0809 0.03229,0.11279 0.01354,0.0482 0.01631,0.0968 0.03229,0.16142 0.0083,0.0482 0.01631,0.0968 0.01631,0.16144 0.0055,0.0645 0.01115,0.12913 0.01631,0.20342 0.0028,0.0646 0.0055,0.11315 0.0083,0.18573 0.0013,0.0809 0.0013,0.16142 0,0.23744 -0.0011,0.0646 -0.0023,0.14546 -0.0055,0.21004 -0.0028,0.0809 -0.0083,0.17635 -0.01631,0.26661 -0.0055,0.0809 -0.01115,0.1451 -0.01632,0.22772 -0.0083,0.0968 -0.01631,0.1892 -0.03229,0.28432 -0.0083,0.0809 -0.01632,0.16143 -0.03229,0.2437 -0.01354,0.0968 -0.03229,0.19684 -0.04843,0.29542 -0.01353,0.0809 -0.01632,0.16803 -0.03229,0.25204 -0.01632,0.0968 -0.03229,0.20343 -0.04843,0.30514 -0.01631,0.0809 -0.03229,0.16628 -0.04843,0.25029 -0.01631,0.0968 -0.04843,0.20031 -0.06456,0.30029 -0.01632,0.0809 -0.03229,0.16975 -0.04843,0.25203 -0.01631,0.0968 -0.04843,0.19406 -0.08072,0.28917 -0.01631,0.0809 -0.04843,0.16316 -0.06457,0.24058 -0.03229,0.0968 -0.04843,0.18746 -0.08072,0.28084 -0.01632,0.0809 -0.04843,0.14546 -0.06457,0.22148 -0.03229,0.0968 -0.06457,0.1774 -0.09685,0.26489 -0.01632,0.0645 -0.04843,0.12913 -0.06457,0.19057 -0.03229,0.0968 -0.08068,0.17601 -0.112958,0.26003 -0.01631,0.0482 -0.03229,0.0968 -0.06457,0.14545 -0.06457,0.12913 -0.112969,0.23258 -0.176179,0.3277 -0.112958,0.18261 -0.256856,0.35695 -0.413452,0.51844 -0.0055,0.007 -0.01353,0.0138 -0.01632,0.0174 -0.161389,0.16142 -0.322988,0.2923 -0.499017,0.41505 -0.01353,0.007 -0.03229,0.0174 -0.04843,0.0312 -0.172881,0.11315 -0.348865,0.2069 -0.523281,0.27634 -0.01632,0.007 -0.03229,0.0174 -0.04843,0.0174 -0.169618,0.0645 -0.335937,0.0968 -0.490946,0.0968 -0.03229,0 -0.04843,0.007 -0.08068,0 -0.04843,0 -0.09685,-0.0106 -0.129106,-0.0174 -0.03229,-0.007 -0.08068,-0.0139 -0.112957,-0.0312 -0.04843,-0.0138 -0.08068,-0.0312 -0.112958,-0.0646 -0.03229,-0.0174 -0.06457,-0.0312 -0.09686,-0.0645 -0.03229,-0.0312 -0.06456,-0.0645 -0.09685,-0.0968 -0.03229,-0.0312 -0.04843,-0.0645 -0.08072,-0.0968 -0.03229,-0.0482 -0.04843,-0.0968 -0.06457,-0.16142 -0.01631,-0.0482 -0.03229,-0.0809 -0.04843,-0.12915 -0.01631,-0.0645 -0.01631,-0.14545 -0.03229,-0.21488 -0.0083,-0.0645 -0.01631,-0.11279 -0.01631,-0.17115 -0.0028,-0.0809 0.0028,-0.18885 0.0083,-0.28744 0.0028,-0.0645 0.0011,-0.12914 0.0083,-0.20343 0.01354,-0.11279 0.03229,-0.25862 0.06457,-0.39564 0.01354,-0.0646 0.01631,-0.12915 0.03229,-0.20517 0.04843,-0.21975 0.112958,-0.45866 0.190655,-0.71874 1.262941,-4.08928 2.530393,-4.67444 3.30931,-4.96643 z M 56.589889,218.83951 c -0.01355,0.0174 -0.01632,0.0482 -0.04839,0.0645 -0.06453,0.0646 -0.145247,0.14545 -0.271366,0.20829 -0.163023,0.0968 -0.313338,0.17773 -0.457054,0.26313 -0.11297,0.0646 -0.20843,0.12915 -0.306847,0.18087 -0.04839,0.0312 -0.08072,0.0482 -0.129105,0.0646 -0.06453,0.0312 -0.145247,0.0809 -0.201868,0.0968 -0.03229,0.0174 -0.08072,0.0312 -0.112993,0.0482 -0.06453,0.0174 -0.112957,0.0312 -0.16139,0.0312 -0.03229,0.007 -0.06457,0.0106 -0.09682,0.007 -0.01631,0 -0.04839,-0.0106 -0.06453,-0.0138 -0.03229,-0.0106 -0.06457,-0.0312 -0.09682,-0.0645 -0.01632,-0.0139 -0.03229,-0.0312 -0.04839,-0.0482 -0.03229,-0.0312 -0.04839,-0.0809 -0.08072,-0.14545 -0.0108,-0.0312 -0.01631,-0.0482 -0.03229,-0.0809 -0.03229,-0.0968 -0.04839,-0.21141 -0.06457,-0.35693 -0.0025,-0.11315 0.0083,-0.21975 -0.0108,-0.33431 -0.03229,-0.16628 -0.08072,-0.33431 -0.145248,-0.49903 -0.266437,-0.99482 -0.678271,-1.94786 0.161391,-2.48212 0.04839,-0.0312 0.08072,-0.0312 0.112958,-0.0312 0.0025,0 0.0055,0 0.0083,0 0.04839,0 0.09682,0.0312 0.129106,0.0968 0.0025,0.007 0.0083,0.0106 0.01354,0.0139 0.03229,0.0645 0.06457,0.14546 0.08072,0.23919 0.0025,0.0174 0.008,0.0312 0.01115,0.0482 0.01631,0.0968 0.03229,0.20828 0.04839,0.32945 0.0025,0.0174 0.0055,0.0482 0.0083,0.0646 0.01632,0.12914 0.03229,0.25689 0.04839,0.38766 0.01389,0.14546 0.03229,0.28571 0.04839,0.41989 0,0 0,0 0.0018,0.007 0.01631,0.12914 0.03229,0.23884 0.04839,0.3409 0.0025,0.0138 0.0055,0.0312 0.0083,0.0482 0.01632,0.0968 0.04839,0.17289 0.08072,0.2326 0.0055,0.0106 0.0108,0.0174 0.01631,0.0312 0.03229,0.0482 0.08071,0.0809 0.129105,0.0809 0.0025,0 0.0055,0.007 0.0083,0.007 0.01632,0 0.04839,-0.007 0.06453,-0.0138 0.08072,-0.0312 0.179164,-0.0482 0.284246,-0.0482 0.08072,0 0.145248,0.007 0.23089,0.0174 0.01389,0 0.03229,0 0.03229,0 0.09682,0.0174 0.187392,0.0482 0.276158,0.0809 0.03229,0.0106 0.04839,0.0174 0.08072,0.0312 0.06457,0.0312 0.112993,0.0482 0.171249,0.0968 0.03229,0.0174 0.04839,0.0312 0.06453,0.0482 0.04839,0.0312 0.08072,0.0645 0.112957,0.0968 0.01632,0.0174 0.03229,0.0482 0.04839,0.0645 0.01631,0.0312 0.03229,0.0809 0.03229,0.11315 0.0025,0.0312 0.0083,0.0482 0.0025,0.0809 -0.0055,0.0482 -0.03229,0.0968 -0.06453,0.14546 z m -9.185976,-7.13101 c -0.09685,0.0482 -0.184093,0.11315 -0.274561,0.16802 -0.211448,0.12914 -0.419878,0.26314 -0.62014,0.39561 -0.08072,0.0645 -0.175902,0.11314 -0.261509,0.17462 -0.229223,0.16142 -0.452207,0.3166 -0.668617,0.47479 -0.03229,0.0312 -0.08072,0.0482 -0.112969,0.0809 -0.253593,0.19059 -0.495786,0.37953 -0.729969,0.56682 -0.06453,0.0482 -0.129105,0.11314 -0.203534,0.1649 -0.169618,0.14545 -0.334306,0.27459 -0.494171,0.4086 -0.06453,0.0645 -0.145248,0.11314 -0.20843,0.17773 -0.166319,0.14546 -0.326251,0.27946 -0.481296,0.41506 -0.222939,0.19371 -0.436041,0.37947 -0.639539,0.55714 -0.04839,0.0312 -0.08072,0.0809 -0.129105,0.11314 -0.145248,0.11315 -0.269736,0.23259 -0.40051,0.3409 -0.04839,0.0482 -0.09682,0.0809 -0.161391,0.12915 -0.112958,0.0968 -0.234153,0.18885 -0.345622,0.27632 -0.04839,0.0312 -0.08072,0.0646 -0.129105,0.0968 -0.145248,0.11315 -0.287475,0.20691 -0.421516,0.28745 -0.01631,0.0138 -0.03229,0.0174 -0.06453,0.0312 -0.112958,0.0645 -0.21801,0.11314 -0.321357,0.16315 -0.03229,0.0174 -0.08072,0.0312 -0.112957,0.0482 -0.08072,0.0312 -0.169618,0.0482 -0.250296,0.0646 -0.03229,0.007 -0.06453,0.0139 -0.09682,0.0139 -0.06453,0 -0.12914,-0.0106 -0.198605,-0.0174 -0.04839,-0.0106 -0.09685,-0.0106 -0.145247,-0.0312 -0.06453,-0.0174 -0.129106,-0.0646 -0.184094,-0.11315 -0.04839,-0.0312 -0.08072,-0.0482 -0.112958,-0.0809 -0.06453,-0.0645 -0.129106,-0.14546 -0.189024,-0.226 -0.03229,-0.0482 -0.06453,-0.0645 -0.09685,-0.11314 -0.09685,-0.14546 -0.175901,-0.31175 -0.258522,-0.51195 -1.364672,-3.31323 -3.277331,-5.90217 -1.133743,-6.09712 2.142969,-0.19545 2.923008,-0.6589 3.897021,-0.87698 0.313337,-0.0645 0.650864,-0.12914 0.998083,-0.18572 0.03229,0 0.04839,-0.0106 0.08072,-0.0138 0.347227,-0.0482 0.705742,-0.0968 1.073974,-0.12915 0.0025,0 0.0083,0 0.0108,0 0.369843,-0.0312 0.74453,-0.0645 1.11757,-0.0809 0.03229,0 0.06453,0 0.09685,-0.007 0.368202,-0.0174 0.734819,-0.0312 1.093332,-0.0312 0.0083,0 0.01632,0 0.03229,0 0.187392,0 0.371458,0 0.552333,0.0106 0.04839,0 0.09685,0 0.145248,0.007 0.145248,0.007 0.272999,0.0106 0.40535,0.0174 0.04839,0 0.09685,0.007 0.145281,0.0106 0.167952,0.0106 0.334272,0.0312 0.492554,0.0482 0.01632,0 0.04839,0.007 0.06457,0.0106 0.129106,0.0138 0.264806,0.0312 0.390825,0.0482 0.04839,0.007 0.09686,0.0139 0.129106,0.0174 0.112958,0.0174 0.219676,0.0482 0.321357,0.0646 0.03229,0.007 0.06453,0.0139 0.09685,0.0174 0.129105,0.0312 0.243734,0.0646 0.352059,0.0968 0.03229,0.0106 0.04839,0.0174 0.08072,0.0312 0.08072,0.0312 0.161389,0.0646 0.226237,0.0968 0.03229,0.0138 0.04839,0.0312 0.08072,0.0482 0.08072,0.0482 0.145248,0.0809 0.206797,0.12914 0.0055,0.007 0.01631,0.0106 0.01631,0.0138 0.06453,0.0482 0.112958,0.11315 0.145247,0.16142 0.0108,0.0174 0.01631,0.0312 0.03229,0.0482 0.03229,0.0482 0.04839,0.0968 0.04839,0.14546 0.0025,0.0174 0.0083,0.0312 0.0108,0.0482 0.0055,0.0646 0,0.12913 -0.01632,0.2069 -0.0025,0.0138 -0.01354,0.0312 -0.01631,0.0312 -0.01632,0.0646 -0.06457,0.12913 -0.09686,0.19371 -0.01631,0.0174 -0.03229,0.0482 -0.04839,0.0809 -0.04839,0.0645 -0.112958,0.12914 -0.185725,0.2083 -0.01631,0.0174 -0.03229,0.0312 -0.04839,0.0482 -0.09686,0.0968 -0.208464,0.18087 -0.339166,0.27772 -0.03229,0.0312 -0.06457,0.0482 -0.112957,0.0809 -0.112958,0.0809 -0.227592,0.16142 -0.358513,0.23572 -0.04839,0.0312 -0.09686,0.0646 -0.145247,0.0968 -0.179164,0.11314 -0.373041,0.21488 -0.592683,0.32945 -0.326251,0.16801 -0.636307,0.34402 -0.936724,0.52325 z m 3.362929,0.90599 c 0.03229,0.007 0.04839,0.0139 0.06453,0.0312 0.03229,0.0174 0.06457,0.0482 0.08072,0.0645 0.01354,0.0174 0.03229,0.0312 0.03229,0.0645 0.01632,0.0312 0.01632,0.0968 0.01632,0.14546 8.95e-4,0.0312 0.0055,0.0482 0.0025,0.0809 -0.0083,0.0968 -0.03229,0.21488 -0.06457,0.36014 -0.03229,0.12913 -0.09686,0.23571 -0.163057,0.34726 -0.01631,0.0312 -0.04839,0.0645 -0.06453,0.0968 -0.06453,0.0809 -0.129105,0.16142 -0.208429,0.23432 -0.01631,0.0174 -0.04839,0.0482 -0.06453,0.0645 -0.09686,0.0968 -0.214747,0.17288 -0.334305,0.24543 -0.01632,0.0138 -0.04839,0.0312 -0.08072,0.0312 -0.09685,0.0482 -0.200236,0.11315 -0.303618,0.14545 -0.03229,0.0138 -0.08072,0.0312 -0.112957,0.0482 -0.112958,0.0312 -0.218011,0.0645 -0.322989,0.0968 -0.01631,0 -0.03229,0.0106 -0.04839,0.0138 -0.112957,0.0174 -0.224605,0.0312 -0.327847,0.0174 -0.08072,0 -0.161391,-0.0174 -0.226238,-0.0482 -0.03229,-0.0106 -0.08072,-0.0139 -0.112993,-0.0312 -0.09682,-0.0482 -0.171249,-0.11314 -0.216378,-0.19857 -0.171249,-0.34229 -0.263175,-0.76393 -0.145248,-1.10955 0.129106,-0.34576 0.465119,-0.6137 1.161207,-0.64438 0.259875,-0.0106 0.484482,-0.0312 0.686367,-0.0482 0.190654,-0.0174 0.350447,-0.0312 0.486107,-0.0312 0.03229,0 0.06457,0 0.09682,0 0.04839,0 0.09685,0.007 0.145247,0.0174 z m 0.650833,5.8434 c 0.0055,-0.0312 0.0108,-0.0645 0.01632,-0.0809 0.01631,-0.0645 0.03229,-0.12914 0.06457,-0.18573 0.0108,-0.0174 0.01631,-0.0482 0.03229,-0.0646 0.03229,-0.0645 0.08072,-0.11315 0.129106,-0.16316 0,0 0.0018,0 0.0018,0 0.04839,-0.0482 0.112958,-0.0809 0.169618,-0.0968 0.01631,-0.007 0.03229,-0.0138 0.04839,-0.0174 0.04839,-0.0138 0.08072,-0.0312 0.129105,-0.0312 0.01632,0 0.03229,-0.007 0.04839,-0.0106 0.172882,-0.0174 0.313338,0 0.313338,0 0.536167,0.0809 0.901167,0.49413 1.048119,0.93987 0.03229,0.11314 0.06453,0.22461 0.06453,0.3343 0.01631,0.21975 -0.01632,0.42478 -0.129106,0.57819 -0.04839,0.0809 -0.112958,0.14545 -0.206797,0.18399 -0.09682,0.0482 -0.190655,0.0809 -0.290703,0.11314 -0.03229,0.0106 -0.06453,0.0106 -0.09682,0.0174 -0.06453,0.0138 -0.145248,0.0312 -0.208429,0.0312 -0.03229,0 -0.06457,0 -0.09685,0 -0.09682,0 -0.187392,-0.0174 -0.27779,-0.0482 -0.03229,-0.0106 -0.04839,-0.0138 -0.08072,-0.0174 -0.112958,-0.0482 -0.211448,-0.0968 -0.303617,-0.18399 -0.01632,-0.0138 -0.03229,-0.0312 -0.04839,-0.0482 -0.08072,-0.0809 -0.12914,-0.16489 -0.187392,-0.26973 -0.01631,-0.0312 -0.03229,-0.0645 -0.04839,-0.11314 -0.04839,-0.14546 -0.09682,-0.2923 -0.112957,-0.48126 -0.01631,-0.12914 -0.0083,-0.25029 0.0055,-0.35367 z m -21.169961,-7.96342 c 0.03229,0 0.04839,0 0.08072,0 0.08072,0 0.163056,0.0106 0.250294,0.0174 0.03229,0.007 0.06457,0.0106 0.09685,0.0138 0.129106,0.0174 0.251927,0.0482 0.389208,0.0809 0.0055,0 0.01354,0 0.01631,0.007 0.129106,0.0312 0.276158,0.0809 0.424749,0.12914 0.04839,0.0138 0.09682,0.0312 0.145248,0.0482 0.112957,0.0312 0.235784,0.0809 0.358511,0.12914 0.04839,0.0174 0.09686,0.0312 0.145282,0.0482 0.164688,0.0645 0.332709,0.12914 0.505495,0.19232 0.01631,0.007 0.03229,0.0139 0.04839,0.0174 0.195307,0.0809 0.39405,0.16142 0.597553,0.23571 0.145248,0.0646 0.300389,0.11315 0.452208,0.17774 0.06453,0.0174 0.112958,0.0482 0.179164,0.0645 0.200236,0.0809 0.402125,0.16142 0.607232,0.23085 0.65732,0.24404 1.036849,0.46997 1.212879,0.68312 0.04839,0.0482 0.08072,0.11314 0.09685,0.16143 0.04839,0.0968 0.03229,0.20343 -0.0025,0.30028 -0.179164,0.43929 -1.075582,0.82369 -1.793605,1.19669 -0.09685,0.0482 -0.221309,0.11315 -0.35693,0.17463 -0.03229,0.0174 -0.08072,0.0312 -0.12914,0.0482 -0.145247,0.0645 -0.295528,0.12914 -0.466735,0.1826 -0.03229,0.0106 -0.04839,0.0174 -0.08072,0.0312 -0.190655,0.0646 -0.40535,0.11315 -0.629855,0.16142 -0.06453,0.0106 -0.112958,0.0174 -0.177533,0.0312 -0.198604,0.0312 -0.408577,0.0482 -0.626595,0.0482 -0.04839,0 -0.112958,0.007 -0.163021,0.007 -0.145248,0 -0.287475,-0.0174 -0.434462,-0.0312 -0.08072,-0.007 -0.145247,-0.0106 -0.23252,-0.0174 -0.229224,-0.0312 -0.466737,-0.0968 -0.708992,-0.16975 -0.57815,-0.18885 -0.691214,-0.30515 -0.547493,-0.40853 0.06453,-0.0482 0.16139,-0.0809 0.281018,-0.11315 0.313302,-0.0968 0.796201,-0.21488 1.240314,-0.39564 0.353701,-0.14546 0.683146,-0.33431 0.878571,-0.59755 0.145247,-0.19718 0.145247,-0.33917 0.04839,-0.44737 -0.398896,-0.47161 -2.571072,-0.33743 -2.492124,-1.55847 0.0083,-0.11314 0.03229,-0.20516 0.06457,-0.28917 0.0083,-0.0174 0.01631,-0.0482 0.03229,-0.0646 0.01115,-0.0174 0.01631,-0.0312 0.03229,-0.0482 0.209818,-0.0968 0.421489,-0.18884 0.633059,-0.28257 z m -10.521926,27.57687 c 0.01631,0 0.04839,0.007 0.06453,0.007 0.145248,0.0174 0.287475,0.0482 0.444112,0.0809 0.01631,0 0.03229,0.007 0.06457,0.0139 0.161389,0.0312 0.322988,0.0646 0.484482,0.11279 0.01353,0 0.03229,0.007 0.04839,0.0106 0.166319,0.0482 0.332708,0.0809 0.484516,0.12914 0,0 0.991606,0.14511 1.459957,0.57012 l -0.06453,0.0809 c -0.258523,0.28604 -0.326252,0.6686 -0.311707,1.16121 -0.0055,0 -0.0083,0 -0.01353,0 -0.01631,-0.007 -0.03229,-0.0138 -0.04839,-0.0174 -0.08072,-0.0312 -0.166319,-0.0645 -0.276192,-0.12913 -0.0055,0 -0.01115,-0.007 -0.01631,-0.007 -0.112958,-0.0645 -0.253594,-0.1451 -0.413428,-0.23259 -0.164688,-0.0968 -0.353698,-0.20343 -0.576564,-0.33118 -0.04839,-0.0174 -0.08072,-0.0482 -0.129105,-0.0645 -0.227592,-0.12913 -0.479647,-0.26973 -0.773583,-0.42792 -0.163056,-0.0809 -0.305213,-0.16803 -0.429586,-0.24232 -0.03229,-0.0312 -0.06453,-0.0482 -0.09682,-0.0645 -0.08072,-0.0482 -0.145247,-0.0968 -0.213081,-0.12913 -0.03229,-0.0174 -0.06457,-0.0482 -0.09685,-0.0645 -0.04839,-0.0312 -0.09686,-0.0646 -0.129105,-0.0968 -0.03229,-0.0174 -0.03229,-0.0312 -0.06457,-0.0645 -0.01631,-0.0174 -0.04839,-0.0482 -0.06453,-0.0646 -0.0108,-0.0174 -0.01631,-0.0312 -0.01631,-0.0482 -0.0083,-0.0174 -0.01631,-0.0312 -0.01631,-0.0482 0,-0.0138 0.0055,-0.0174 0.01115,-0.0312 0.0055,-0.0139 0.0108,-0.0174 0.01631,-0.0312 0.01115,-0.007 0.03229,-0.0138 0.04839,-0.0174 0.01631,-0.007 0.03229,-0.0138 0.06453,-0.0174 0.01631,0 0.04839,-0.007 0.06453,-0.007 0.03229,0 0.04839,-0.007 0.08072,-0.007 0.01631,0 0.04839,0 0.06453,0 0.09682,0 0.221308,0.0138 0.356929,0.0312 z m 4.921901,3.18704 c -0.161389,0 -0.321391,-0.0138 -0.469965,-0.0482 -0.445754,-0.0809 -0.796201,-0.30028 -0.831735,-0.66382 -0.0108,-0.1128 -0.01632,-0.20967 -0.01632,-0.29716 -0.0016,-0.0312 -0.0016,-0.0482 -0.0025,-0.0809 -0.0016,-0.0482 -0.0025,-0.0968 -0.0016,-0.14546 0,-0.0174 0.0016,-0.0482 0.0025,-0.0645 0.0025,-0.0312 0.0055,-0.0646 0.0083,-0.0968 0.0025,-0.0174 0.0025,-0.0312 0.0055,-0.0482 0.0025,-0.0174 0.0083,-0.0482 0.01631,-0.0646 0.0025,-0.007 0.0055,-0.0174 0.0083,-0.0174 0.01631,-0.0482 0.03229,-0.0645 0.04839,-0.0645 0.0025,0 0.0055,0 0.0083,0 0.0025,0 0.0083,0 0.0108,0 0.0055,0 0.01115,0 0.01115,0 0.17288,-0.0482 0.348834,-0.0809 0.523255,-0.0968 0.06453,-0.007 0.112958,-0.007 0.17125,-0.0106 0.112958,-0.007 0.235818,-0.0174 0.350475,-0.0138 0.04839,0 0.09686,0.007 0.145248,0.007 0.112958,0.007 0.221307,0.0174 0.327848,0.0312 0.04839,0.007 0.09685,0.0174 0.145247,0.0312 0.112958,0.0174 0.221309,0.0482 0.321392,0.0809 0.03229,0.007 0.06457,0.0174 0.08072,0.0312 0.129104,0.0482 0.234153,0.0968 0.329445,0.16143 0.01631,0.0139 0.03229,0.0312 0.06453,0.0482 0.06453,0.0482 0.129106,0.0968 0.172881,0.14546 0.01631,0.0174 0.03229,0.0482 0.04839,0.0645 0.03229,0.0482 0.06457,0.11315 0.06457,0.16455 0.0055,0.0312 0.01631,0.0482 0.01631,0.0809 0.0055,0.0809 -0.0055,0.16802 -0.04839,0.25689 -0.145248,0.2923 -0.566857,0.48771 -1.040079,0.56843 -0.161389,0.0312 -0.321355,0.0312 -0.482878,0.0312 z m 54.684712,-7.61553 c -0.04843,-0.0174 -0.08068,-0.0312 -0.112958,-0.0482 -0.08068,-0.0312 -0.16139,-0.0646 -0.226237,-0.0809 -0.04843,-0.0138 -0.08072,-0.0174 -0.112958,-0.0312 -0.06457,-0.0174 -0.11297,-0.0312 -0.161391,-0.0482 -0.03229,-0.007 -0.06457,-0.0139 -0.09682,-0.0174 -0.04843,-0.007 -0.08068,-0.0139 -0.112958,-0.0139 -0.01353,0 -0.03229,-0.007 -0.04843,-0.007 -0.0083,0 -0.01115,0 -0.01632,0 -0.04843,0 -0.09685,0.0106 -0.129104,0.0312 0,0 -0.0013,0 -0.0013,0 -0.03229,0.0174 -0.04843,0.0482 -0.04843,0.0968 -0.0013,0.0106 -0.0013,0.0174 0,0.0312 0.0013,0.0312 0.0083,0.0809 0.03229,0.12914 0.0028,0.0106 0.0028,0.0174 0.0083,0.0312 0.01631,0.0645 0.04843,0.12914 0.09685,0.19683 0.0083,0.0174 0.01631,0.0312 0.03229,0.0482 0.03229,0.0646 0.08068,0.12914 0.112958,0.19545 0.01353,0.0174 0.01631,0.0312 0.03229,0.0645 0.04843,0.0809 0.112958,0.176 0.184093,0.27147 0.01115,0.0174 0.03229,0.0312 0.03229,0.0482 0.06456,0.0809 0.129105,0.17774 0.192321,0.26974 0.08072,0.12913 0.177532,0.24855 0.271367,0.37793 0.353677,0.49747 0.917333,0.73325 1.497102,0.92381 v 4.77286 c -0.08072,0.0645 -0.161391,0.12914 -0.237451,0.19683 -0.09682,0.0809 -0.208464,0.16455 -0.311707,0.24543 -0.08072,0.0646 -0.171248,0.12915 -0.258522,0.19511 -0.112958,0.0809 -0.218009,0.16142 -0.327813,0.23432 -0.08068,0.0645 -0.169618,0.11279 -0.255224,0.17739 -0.112958,0.0809 -0.226239,0.14511 -0.337535,0.21975 -0.08068,0.0482 -0.164687,0.11279 -0.245366,0.16143 -0.112957,0.0646 -0.234152,0.12914 -0.348837,0.20204 -0.08068,0.0482 -0.145247,0.0809 -0.221307,0.12913 -0.129106,0.0646 -0.251927,0.12914 -0.376272,0.18747 -0.04843,0.0312 -0.112958,0.0645 -0.166321,0.0809 -0.174512,0.0809 -0.342393,0.14511 -0.499044,0.20205 -0.01632,0.007 -0.04843,0.0106 -0.06457,0.0174 -0.129105,0.0482 -0.261508,0.0809 -0.377911,0.0968 -0.04843,0.007 -0.08068,0.007 -0.129104,0.0174 -0.08072,0.0106 -0.164688,0.0174 -0.237451,0.0174 -0.129106,0 -0.237451,-0.0174 -0.323024,-0.0645 -1.267784,-0.66699 -4.091921,-9.85642 -5.260868,-9.95328 -0.0055,0 -0.01115,0 -0.01632,0 -0.03229,0 -0.04843,0.0312 -0.06457,0.0482 -0.01632,0.0174 -0.04843,0.0174 -0.06457,0.0482 -0.01353,0.0312 -0.01115,0.0968 -0.01353,0.14512 -0.0026,0.0482 -0.01353,0.0809 -0.0055,0.1451 0.0055,0.0646 0.03229,0.14511 0.04843,0.2326 0.01631,0.0809 0.01631,0.14544 0.04843,0.2246 0.01632,0.0968 0.06457,0.20204 0.09686,0.3034 0.03229,0.0968 0.04843,0.18885 0.09685,0.2989 0.03229,0.11314 0.09685,0.23919 0.129104,0.36025 0.04843,0.12913 0.08072,0.23397 0.145248,0.36328 0.04843,0.12915 0.112958,0.26315 0.164688,0.39409 0.06457,0.14545 0.112958,0.27772 0.179164,0.42797 0.06457,0.12914 0.112958,0.27459 0.182463,0.41189 0.06457,0.16143 0.145247,0.31487 0.213079,0.48122 0.04843,0.12914 0.112958,0.25341 0.175902,0.37957 0.08068,0.18885 0.17288,0.37464 0.263174,0.56686 0.03229,0.0809 0.08068,0.16455 0.112969,0.24683 0.112958,0.23918 0.226237,0.47805 0.343991,0.71873 0.03229,0.0809 0.08072,0.16143 0.112993,0.24093 0.112957,0.23884 0.234152,0.47959 0.35209,0.71699 0.06457,0.12915 0.112958,0.24232 0.182462,0.36504 0.09686,0.19371 0.193952,0.39082 0.289106,0.57811 0.03229,0.0482 0.04843,0.11315 0.08072,0.16142 0.739658,1.46324 1.405052,2.73054 1.725957,3.34374 0.06457,0.12915 0.129105,0.23572 0.206797,0.32633 0.01631,0.0312 0.04843,0.0482 0.06457,0.0645 0.04843,0.0482 0.09686,0.11315 0.145248,0.14546 0.03229,0.0174 0.06457,0.0312 0.09682,0.0482 0.04843,0.0312 0.08072,0.0482 0.129106,0.0646 0.03229,0.0106 0.06457,0.0106 0.09685,0.0174 0.04843,0.007 0.08072,0.0174 0.129106,0.0174 0.0013,0 0.0028,0 0.0055,0 0.01632,0 0.03229,-0.007 0.04843,-0.007 0.06457,0 0.145247,-0.0138 0.208429,-0.0312 0.03229,-0.007 0.06457,-0.0174 0.09686,-0.0312 0.06457,-0.0174 0.112957,-0.0312 0.17288,-0.0646 0.03229,-0.0174 0.06457,-0.0312 0.112958,-0.0482 0.06457,-0.0312 0.112957,-0.0645 0.171248,-0.0968 0.03229,-0.0174 0.08068,-0.0482 0.112958,-0.0645 0.08068,-0.0482 0.145247,-0.0968 0.226237,-0.12915 0.06457,-0.0482 0.145248,-0.0809 0.208464,-0.12913 0.03229,-0.0174 0.06457,-0.0312 0.09685,-0.0645 0.09682,-0.0482 0.189024,-0.0968 0.282615,-0.14546 0.01631,-0.007 0.03229,-0.0138 0.06457,-0.0174 0.08068,-0.0312 0.145247,-0.0646 0.224571,-0.0809 0.03229,-0.007 0.06457,-0.0139 0.09685,-0.0174 0.06457,-0.0139 0.129104,-0.0174 0.185724,-0.0312 0.03229,0 0.06457,0 0.09686,0 0.06457,0 0.145247,0.0174 0.219676,0.0312 0.03229,0.007 0.06457,0.0174 0.09685,0.0312 0.09685,0.0482 0.203534,0.0968 0.305215,0.18399 1.364702,1.16927 -3.410065,6.52802 -4.482119,8.86593 -1.072356,2.33785 1.364674,8.37899 -0.876956,9.74297 -0.419878,0.2569 -0.775196,0.62824 -1.085267,1.08369 -0.411838,0.60725 -0.742917,1.36465 -1.038464,2.19272 -0.145247,0.41508 -0.285843,0.84464 -0.421492,1.28549 -0.406992,1.31945 -0.783291,2.71144 -1.285566,3.91477 -0.08072,0.20031 -0.171249,0.39572 -0.263174,0.58464 -0.112957,0.21801 -0.22294,0.42477 -0.34399,0.6234 -0.03229,0.0646 -0.08068,0.11315 -0.112958,0.17914 -0.09682,0.12914 -0.180831,0.26488 -0.276158,0.38919 -0.04843,0.0645 -0.09685,0.11279 -0.145248,0.17739 -0.09686,0.12914 -0.210095,0.24058 -0.318128,0.35215 -0.04843,0.0482 -0.08072,0.0809 -0.129104,0.12914 -0.145248,0.14511 -0.305215,0.28085 -0.461895,0.40217 -0.03229,0.0174 -0.06457,0.0482 -0.09685,0.0646 -0.129105,0.0968 -0.264807,0.18572 -0.400538,0.26314 -0.04843,0.0312 -0.112958,0.0646 -0.16632,0.0968 -0.112958,0.0646 -0.23252,0.1128 -0.350451,0.16316 -0.04843,0.0174 -0.112958,0.0482 -0.169617,0.0646 -0.129106,0.0482 -0.271368,0.0809 -0.406967,0.11279 -0.03229,0.007 -0.06457,0.0174 -0.112958,0.0312 -0.17125,0.0312 -0.342395,0.0482 -0.511957,0.0482 -0.03229,0 -0.06457,-0.007 -0.112958,-0.007 -0.161389,0 -0.318127,-0.0174 -0.473192,-0.0482 -0.04839,-0.0106 -0.09685,-0.0174 -0.145248,-0.0312 -0.182462,-0.0482 -0.363393,-0.1128 -0.53619,-0.20031 -0.01631,-0.0106 -0.03229,-0.0312 -0.06457,-0.0312 -0.161389,-0.0809 -0.305213,-0.18746 -0.448962,-0.30515 -0.04839,-0.0312 -0.08072,-0.0646 -0.129104,-0.11315 -0.16139,-0.14546 -0.313338,-0.3034 -0.455441,-0.4926 -1.75422,-2.33781 -2.923162,-11.20499 -1.75422,-13.63993 1.169287,-2.43609 -2.337864,-4.28707 -1.836903,-7.79393 0.04839,-0.3003 0.06453,-0.56847 0.08072,-0.82358 0.0025,-0.0646 0.0055,-0.11315 0.0083,-0.17914 0.0055,-0.24057 0.0025,-0.46838 -0.01631,-0.66861 -0.0025,-0.0174 -0.0083,-0.0312 -0.0108,-0.0646 -0.01631,-0.18086 -0.06453,-0.34228 -0.112958,-0.49257 -0.01353,-0.0312 -0.01632,-0.0809 -0.03229,-0.11279 -0.06457,-0.1451 -0.129104,-0.28917 -0.218009,-0.40859 -0.01632,-0.0174 -0.03229,-0.0312 -0.04839,-0.0482 -0.08072,-0.0968 -0.177533,-0.18746 -0.282649,-0.26315 -0.03229,-0.0174 -0.04839,-0.0312 -0.08072,-0.0645 -0.129106,-0.0809 -0.264806,-0.14511 -0.419899,-0.19683 -0.03229,-0.0106 -0.06457,-0.0174 -0.09686,-0.0312 -0.145247,-0.0482 -0.295563,-0.0809 -0.461893,-0.0968 -0.03229,-0.007 -0.06453,-0.0106 -0.112958,-0.0174 -0.193674,-0.0174 -0.403743,-0.0312 -0.628244,-0.0312 -0.01631,0 -0.03229,0 -0.04839,0 -0.03229,0 -0.06453,0 -0.08072,0 -0.279386,0 -0.578157,0.0174 -0.902777,0.0482 -0.03229,0 -0.08072,0.007 -0.112957,0.0106 -0.345623,0.0312 -0.708996,0.0645 -1.104666,0.12914 -0.211449,0.0312 -0.419899,0.0312 -0.625016,0.0312 -0.09682,0 -0.190654,-0.0138 -0.287475,-0.0174 -0.112957,-0.0106 -0.244011,-0.0174 -0.363386,-0.0312 -0.09685,-0.0174 -0.190655,-0.0482 -0.284211,-0.0645 -0.112993,-0.0312 -0.23089,-0.0482 -0.343992,-0.0968 -0.09685,-0.0312 -0.184092,-0.0646 -0.277788,-0.1128 -0.112958,-0.0482 -0.218011,-0.0968 -0.32462,-0.1451 -0.09682,-0.0482 -0.179165,-0.0968 -0.268069,-0.14546 -0.09686,-0.0645 -0.208464,-0.12914 -0.308443,-0.19232 -0.08072,-0.0646 -0.172881,-0.12914 -0.256857,-0.18919 -0.09685,-0.0809 -0.196973,-0.16142 -0.292334,-0.23746 -0.08072,-0.0645 -0.163023,-0.14546 -0.244012,-0.2246 -0.09685,-0.0968 -0.184094,-0.1826 -0.274526,-0.27946 -0.08072,-0.0809 -0.145247,-0.16801 -0.227591,-0.25689 -0.08072,-0.0968 -0.172882,-0.21002 -0.256857,-0.31973 -0.06453,-0.0968 -0.145248,-0.19057 -0.21308,-0.28744 -0.08072,-0.11315 -0.161391,-0.23432 -0.234154,-0.35534 -0.06453,-0.0968 -0.129104,-0.20829 -0.195306,-0.31833 -0.08072,-0.12915 -0.145248,-0.26001 -0.214747,-0.39235 -0.06456,-0.11315 -0.112957,-0.22288 -0.174511,-0.33917 -0.06457,-0.14546 -0.129106,-0.28258 -0.195308,-0.42804 -0.04839,-0.11279 -0.112958,-0.23744 -0.161389,-0.36013 -0.06453,-0.14545 -0.112958,-0.30687 -0.172881,-0.46191 -0.04839,-0.12914 -0.09682,-0.24543 -0.129105,-0.37305 -0.04839,-0.16456 -0.09686,-0.33569 -0.145248,-0.50545 -0.03229,-0.12914 -0.08072,-0.24857 -0.112958,-0.37794 -0.04839,-0.17913 -0.08072,-0.36503 -0.129104,-0.54905 -0.03229,-0.12915 -0.06453,-0.24544 -0.08072,-0.37312 -0.04839,-0.20829 -0.08072,-0.41988 -0.112958,-0.63314 -0.01632,-0.11279 -0.03229,-0.21314 -0.04839,-0.32284 -0.04839,-0.32285 -0.08072,-0.6524 -0.112958,-0.98512 -0.436048,-5.45601 5.527356,-11.47152 8.133014,-11.98402 0.290703,-0.0646 0.562012,-0.0968 0.82848,-0.1128 0.08072,-0.007 0.145248,-0.007 0.221308,-0.0139 0.190655,-0.007 0.374687,0 0.555559,0.007 0.09685,0.007 0.179164,0.007 0.269734,0.0174 0.203534,0.0174 0.402126,0.0645 0.599172,0.11279 0.04839,0.0138 0.09682,0.0174 0.161389,0.0312 0.247032,0.0646 0.494168,0.16143 0.746112,0.27148 0.06453,0.0312 0.145283,0.0646 0.210095,0.0968 0.184094,0.0968 0.371458,0.18572 0.563654,0.2989 0.09685,0.0482 0.190655,0.11279 0.287474,0.17912 0.177533,0.11314 0.356929,0.23259 0.542648,0.36177 0.09682,0.0809 0.206797,0.14546 0.311671,0.2246 0.201868,0.14511 0.410223,0.31001 0.625015,0.4797 0.09682,0.0809 0.190655,0.1451 0.293932,0.22912 0.311672,0.25029 0.636316,0.51839 0.983536,0.81232 0.0055,0.007 0.0108,0.007 0.01631,0.0138 0.0018,0 0.0018,0 0.0025,0 0.244012,0.20518 0.474811,0.37149 0.702541,0.52163 0.06453,0.0482 0.129106,0.0809 0.190655,0.11315 0.177533,0.11279 0.348837,0.19857 0.516791,0.27598 0.04839,0.0174 0.09685,0.0482 0.145283,0.0646 0.208428,0.0809 0.408574,0.14544 0.605616,0.19057 0.04843,0.0106 0.08072,0.0138 0.129106,0.0174 0.161389,0.0312 0.310074,0.0482 0.460279,0.0482 0.03229,0 0.06457,0.007 0.08072,0.007 0.03229,0 0.04843,-0.007 0.08068,-0.007 0.145247,0 0.277754,-0.0174 0.413421,-0.0312 0.03229,-0.007 0.06457,-0.007 0.09686,-0.0139 0.16795,-0.0312 0.332673,-0.0809 0.494174,-0.12913 0.04843,-0.0138 0.08072,-0.0312 0.129105,-0.0482 0.112958,-0.0482 0.24238,-0.0968 0.361772,-0.1451 0.04843,-0.0312 0.09686,-0.0482 0.16139,-0.0809 0.112958,-0.0646 0.235819,-0.1128 0.353676,-0.18399 0.04843,-0.0174 0.08072,-0.0482 0.129106,-0.0646 0.161389,-0.0809 0.311671,-0.18087 0.466739,-0.27634 0.04843,-0.0312 0.09685,-0.0645 0.145248,-0.0968 0.145247,-0.0968 0.287474,-0.17773 0.431226,-0.268 0.112958,-0.0809 0.234153,-0.14545 0.35368,-0.21627 0.04843,-0.0312 0.112957,-0.0645 0.164688,-0.0968 0.163021,-0.0968 0.329444,-0.19059 0.4974,-0.27772 2.241168,-1.16928 -0.584612,-1.65591 -1.94915,-1.68896 -1.022297,-0.0174 -1.224152,-1.25487 -1.630323,-2.15576 -0.129106,-0.30028 -0.292336,-0.56524 -0.511957,-0.73481 -0.0026,0 -0.0028,0 -0.0055,0 -0.04843,-0.0482 -0.09686,-0.0646 -0.145248,-0.0968 -0.01631,-0.007 -0.03229,-0.007 -0.04843,-0.0138 -0.03229,-0.007 -0.04843,-0.0174 -0.08072,-0.0174 -0.0013,0 -0.0028,0 -0.0055,0 -0.0028,0 -0.0055,0 -0.0083,0 -0.04843,0 -0.08072,0.0312 -0.112958,0.0646 -0.0028,0.007 -0.0083,0.007 -0.01115,0.0138 -0.03229,0.0482 -0.04843,0.11279 -0.06457,0.17774 -0.0028,0.0138 -0.0083,0.0312 -0.01115,0.0482 -0.01631,0.0809 -0.03229,0.16144 -0.04843,0.2503 -0.01355,0.11279 -0.03229,0.21975 -0.04843,0.33604 -0.0013,0.007 -0.0013,0.0106 -0.0026,0.0174 -0.01354,0.0968 -0.03229,0.20343 -0.04843,0.30202 -0.0028,0.0174 -0.0055,0.0312 -0.01115,0.0482 -0.01631,0.0968 -0.04843,0.19233 -0.09682,0.27946 -0.0055,0.0174 -0.01354,0.0312 -0.01631,0.0482 -0.03229,0.0809 -0.08072,0.16142 -0.145247,0.22634 -0.0083,0.0106 -0.01631,0.0174 -0.03229,0.0312 -0.06457,0.0645 -0.145248,0.11279 -0.242345,0.14512 -0.04839,0.0174 -0.09686,0.0174 -0.145248,0.0138 -0.01631,0 -0.04839,-0.007 -0.06453,-0.0174 -0.03229,-0.007 -0.04839,-0.0174 -0.08072,-0.0312 -0.01632,-0.0138 -0.03229,-0.0312 -0.06453,-0.0482 -0.01631,-0.0174 -0.04839,-0.0482 -0.06457,-0.0646 -0.01631,-0.0174 -0.03229,-0.0482 -0.04839,-0.0809 -0.01631,-0.0312 -0.03229,-0.0645 -0.06453,-0.0968 -0.01631,-0.0312 -0.03229,-0.0645 -0.04839,-0.0968 -0.01632,-0.0312 -0.03229,-0.0809 -0.04839,-0.12914 -0.01631,-0.0482 -0.03229,-0.0809 -0.04839,-0.12914 -0.01632,-0.0482 -0.04839,-0.0968 -0.06457,-0.16143 -0.03229,-0.0646 -0.04839,-0.1451 -0.08072,-0.22147 -0.01631,-0.0482 -0.04839,-0.1128 -0.06453,-0.17115 -0.01632,-0.0646 -0.04839,-0.1128 -0.06453,-0.176 -0.01631,-0.0482 -0.04839,-0.1128 -0.06457,-0.16317 -0.03229,-0.0645 -0.04839,-0.11315 -0.08072,-0.18086 -0.03229,-0.0482 -0.04839,-0.11314 -0.08071,-0.16803 -0.03229,-0.0646 -0.06453,-0.12913 -0.09686,-0.18572 -0.03229,-0.0482 -0.06453,-0.11315 -0.09685,-0.16802 -0.03229,-0.0645 -0.08072,-0.12914 -0.129106,-0.19059 -0.03229,-0.0482 -0.06453,-0.11279 -0.112958,-0.16142 -0.04839,-0.0645 -0.09682,-0.12914 -0.145247,-0.18885 -0.04839,-0.0482 -0.08072,-0.0968 -0.12914,-0.16143 -0.06453,-0.0645 -0.129105,-0.12913 -0.185759,-0.18398 -0.04839,-0.0482 -0.09682,-0.0968 -0.145248,-0.14512 -0.06453,-0.0645 -0.145248,-0.11314 -0.23089,-0.17911 -0.04839,-0.0482 -0.112958,-0.0809 -0.166319,-0.12915 -0.09686,-0.0645 -0.198605,-0.11279 -0.301986,-0.17774 -0.04839,-0.0312 -0.09685,-0.0646 -0.16139,-0.0968 -0.166319,-0.0809 -0.345623,-0.16142 -0.537784,-0.23085 -0.08072,-0.0312 -0.145247,-0.0482 -0.208428,-0.0646 -0.01632,-0.007 -0.03229,-0.007 -0.04839,-0.007 -0.03229,-0.007 -0.06457,-0.0139 -0.08072,-0.0139 -0.0025,0 -0.0083,0 -0.0108,0 -0.0025,0 -0.0018,0 -0.0055,0 -0.03229,0 -0.04839,0.0174 -0.04839,0.0482 0,0 -0.0018,0 -0.0018,0.007 0.0108,0.0312 0.04839,0.0809 0.09685,0.12915 0.0083,0.007 0.01632,0.0174 0.01632,0.0312 0.04839,0.0482 0.129104,0.12914 0.206797,0.19544 0.01631,0.0139 0.03229,0.0312 0.04839,0.0482 0.09685,0.0809 0.190654,0.16456 0.303616,0.25863 0.0025,0 0.0083,0.007 0.0108,0.007 0.12914,0.11315 0.271367,0.2246 0.421524,0.34722 0.129105,0.0968 0.250295,0.20516 0.377914,0.31174 0.03229,0.0312 0.06453,0.0482 0.09682,0.0809 0.129105,0.11314 0.274561,0.23085 0.410223,0.34886 0.01632,0.0174 0.04839,0.0312 0.06453,0.0645 0.145247,0.12914 0.285878,0.25029 0.419899,0.37628 0.09685,0.0809 0.164688,0.16802 0.221308,0.24717 0.01631,0.0312 0.03229,0.0482 0.04839,0.0809 0.03229,0.0482 0.06457,0.0968 0.08072,0.14546 0.01115,0.0312 0.01631,0.0482 0.01631,0.0809 0.0083,0.0482 0.01631,0.0809 0.01355,0.11279 -0.0018,0.0174 -0.0025,0.0482 -0.008,0.0645 -0.0083,0.0312 -0.01631,0.0646 -0.03229,0.0968 -0.0108,0.0174 -0.01632,0.0312 -0.03229,0.0645 -0.01631,0.0312 -0.04839,0.0645 -0.08072,0.0809 -0.01631,0.0138 -0.03229,0.0312 -0.04839,0.0482 -0.04839,0.0312 -0.09682,0.0645 -0.161391,0.0809 -0.0108,0 -0.01631,0.0106 -0.03229,0.0138 -0.06453,0.0312 -0.145247,0.0482 -0.226238,0.0645 -0.01631,0 -0.04839,0.007 -0.08072,0.007 -0.06453,0.007 -0.112958,0.0139 -0.17781,0.0139 -0.03229,0 -0.04839,0 -0.08072,0 -0.129104,0 -0.246997,-0.0139 -0.374658,-0.0482 -0.0055,0 -0.0083,0 -0.01354,0 -0.129104,-0.0312 -0.256855,-0.0809 -0.379528,-0.12914 -0.01632,-0.0106 -0.04839,-0.0174 -0.06453,-0.0312 -0.112958,-0.0646 -0.232522,-0.12915 -0.335903,-0.22114 -0.01632,-0.0174 -0.03229,-0.0312 -0.04839,-0.0482 -0.09686,-0.0968 -0.203534,-0.20516 -0.279386,-0.33604 -0.09685,-0.14545 -0.208464,-0.29057 -0.335903,-0.42314 -0.03229,-0.0312 -0.06457,-0.0645 -0.09685,-0.0968 -0.129106,-0.12914 -0.276193,-0.24231 -0.432841,-0.34402 -0.01115,-0.007 -0.01631,-0.0106 -0.03229,-0.0174 -0.145248,-0.0968 -0.314935,-0.17739 -0.481293,-0.25203 -0.04839,-0.0174 -0.08072,-0.0312 -0.129105,-0.0482 -0.177532,-0.0645 -0.356904,-0.12914 -0.539395,-0.17462 -0.01631,0 -0.03229,-0.007 -0.04839,-0.0106 -0.167952,-0.0312 -0.335902,-0.0646 -0.49901,-0.0809 -0.04839,0 -0.08072,-0.007 -0.129106,-0.007 -0.03229,0 -0.06453,-0.007 -0.112958,-0.007 -0.145247,0 -0.277754,0.0106 -0.41022,0.0312 -0.01631,0 -0.03229,0.007 -0.04839,0.0139 -0.145248,0.0312 -0.280984,0.0646 -0.406967,0.12914 -0.03229,0.0174 -0.08072,0.0312 -0.112958,0.0482 -0.129106,0.0646 -0.256857,0.16142 -0.355288,0.26314 -0.04839,0.0645 -0.129104,0.1451 -0.214746,0.24405 -0.04839,0.0645 -0.112993,0.12913 -0.184094,0.21002 -0.03229,0.0312 -0.06453,0.0646 -0.08072,0.0968 -0.09682,0.0968 -0.189024,0.21141 -0.292335,0.32633 -0.01631,0.0312 -0.04839,0.0482 -0.08072,0.0809 -0.08071,0.0968 -0.174512,0.1892 -0.266437,0.28744 -0.03229,0.0312 -0.06457,0.0645 -0.09682,0.11279 -0.112957,0.12914 -0.245365,0.25517 -0.374689,0.38437 -0.0055,0.007 -0.0108,0.0106 -0.01631,0.0174 -0.129106,0.12914 -0.250296,0.2437 -0.379526,0.3634 -0.03229,0.0312 -0.08072,0.0646 -0.112958,0.0968 -0.112957,0.0968 -0.221307,0.19683 -0.334305,0.29057 -0.03229,0.0312 -0.06453,0.0482 -0.09682,0.0809 -0.145282,0.11279 -0.277789,0.22113 -0.415069,0.31973 -0.03229,0.0174 -0.06453,0.0482 -0.09686,0.0645 -0.112958,0.0809 -0.221307,0.14511 -0.331076,0.21142 -0.03229,0.0174 -0.08072,0.0482 -0.112958,0.0645 -0.145247,0.0809 -0.274561,0.14546 -0.406999,0.19371 -0.0025,0 -0.0083,0 -0.0108,0 -0.129104,0.0482 -0.250294,0.0809 -0.36985,0.0968 -0.03229,0.007 -0.06453,0.007 -0.09685,0.0106 -0.112958,0.0106 -0.232521,0.0138 -0.340763,-0.0106 -0.0025,0 -0.0055,0 -0.0055,0 -0.112958,-0.0312 -0.214748,-0.0809 -0.311707,-0.1451 -0.01353,-0.0106 -0.03229,-0.0174 -0.04839,-0.0312 -0.09682,-0.0646 -0.177533,-0.16456 -0.255225,-0.27946 -0.01631,-0.0174 -0.03229,-0.0482 -0.04839,-0.0646 -0.08072,-0.12914 -0.145248,-0.268 -0.196938,-0.44091 -0.0083,-0.0312 -0.01632,-0.0646 -0.01632,-0.0809 -0.04839,-0.19058 -0.09685,-0.4021 -0.145247,-0.65083 -0.584607,-4.38391 3.409932,-2.14296 3.800125,-3.70191 0.250295,-1.00135 -0.541036,-1.83947 -0.676689,-2.36471 0.379528,-0.0809 0.736433,-0.27945 1.135354,-0.51836 0.145247,-0.0968 0.311671,-0.18573 0.482875,-0.2812 0.655707,-0.3585 0.836582,-0.81879 0.868892,-1.16601 0.04839,-0.0482 0.08072,-0.11314 0.129105,-0.16628 0.03229,-0.0482 0.08072,-0.0968 0.112957,-0.16143 0.04839,-0.0645 0.09685,-0.14544 0.161391,-0.20516 0.04839,-0.0646 0.09682,-0.12913 0.145248,-0.18399 0.01631,-0.0312 0.04839,-0.0646 0.08072,-0.0968 0.06453,-0.0809 0.112958,-0.14545 0.167951,-0.20343 0.01115,-0.0106 0.01631,-0.0174 0.03229,-0.0312 0.06453,-0.0646 0.129105,-0.12913 0.18576,-0.19231 0.01631,-0.0138 0.03229,-0.0312 0.04839,-0.0482 0.04839,-0.0312 0.08072,-0.0646 0.129104,-0.0968 0.01631,-0.0138 0.04839,-0.0174 0.06453,-0.0312 0.03229,-0.0174 0.08072,-0.0312 0.112957,-0.0482 0.01631,-0.007 0.04839,-0.0106 0.06453,-0.0138 0.03229,0 0.04839,0 0.08072,0.007 0.04839,0.007 0.09682,0.0312 0.145248,0.0482 0.01631,0.0138 0.04839,0.0174 0.06457,0.0312 0.06453,0.0482 0.129105,0.12913 0.195307,0.24231 0.06453,0.11315 0.129104,0.2003 0.214746,0.28257 0.03229,0.0174 0.04839,0.0482 0.08072,0.0645 0.06453,0.0482 0.129106,0.0968 0.189024,0.12914 0.03229,0.0174 0.06453,0.0312 0.09685,0.0482 0.08072,0.0312 0.16139,0.0645 0.239082,0.0809 0.01631,0.007 0.04839,0.0139 0.06453,0.0174 0.112957,0.0174 0.221307,0.0312 0.340763,0.0312 0.0055,0 0.0108,0 0.01631,0 0.01632,0 0.04839,-0.007 0.06457,-0.007 0.09685,0 0.203534,-0.0106 0.308478,-0.0312 0.03229,-0.007 0.08072,-0.0106 0.112957,-0.0174 0.112958,-0.0174 0.219642,-0.0482 0.332709,-0.0809 0.03229,-0.007 0.04839,-0.0106 0.08072,-0.0174 0.145248,-0.0312 0.281018,-0.0809 0.421524,-0.12913 0.03229,-0.0138 0.08072,-0.0312 0.112957,-0.0482 0.112958,-0.0482 0.221308,-0.0809 0.331077,-0.12913 0.04839,-0.0174 0.08072,-0.0312 0.129105,-0.0482 0.129105,-0.0482 0.247032,-0.11315 0.369815,-0.16316 0.01631,-0.007 0.03229,-0.0138 0.04839,-0.0174 0.145248,-0.0645 0.287474,-0.12913 0.426386,-0.20343 0.04839,-0.0174 0.08072,-0.0482 0.129106,-0.0645 0.112957,-0.0645 0.232521,-0.11314 0.345588,-0.16941 0.145247,-0.0646 0.280982,-0.14546 0.411813,-0.20204 0.129105,-0.0646 0.224572,-0.16142 0.305249,-0.25689 0.01631,-0.0312 0.03229,-0.0482 0.06453,-0.0809 0.06453,-0.0968 0.112958,-0.2149 0.145248,-0.34091 0.0025,-0.0106 0.0055,-0.0174 0.0083,-0.0312 0.03229,-0.12914 0.03229,-0.28084 0.01632,-0.43112 -0.0025,-0.0312 -0.0055,-0.0809 -0.01115,-0.11315 -0.01389,-0.12914 -0.03229,-0.268 -0.08072,-0.40054 -0.0055,-0.0174 -0.0083,-0.0312 -0.01354,-0.0482 -0.04839,-0.14544 -0.112958,-0.28743 -0.176178,-0.42313 -0.01631,-0.0312 -0.03229,-0.0646 -0.04839,-0.0968 -0.06453,-0.11315 -0.129105,-0.21802 -0.214747,-0.31175 -0.01353,-0.0174 -0.03229,-0.0312 -0.04839,-0.0482 -0.09685,-0.0968 -0.193953,-0.1826 -0.300388,-0.24544 -0.03229,-0.0138 -0.04839,-0.0312 -0.08072,-0.0312 -0.09686,-0.0482 -0.187392,-0.0646 -0.284247,-0.0809 -0.01631,0 -0.03229,-0.0139 -0.04839,-0.0139 -0.0083,0 -0.01631,0 -0.01631,0.007 -0.04839,0 -0.09682,0.0174 -0.16139,0.0312 -0.03229,0.0106 -0.08072,0.0138 -0.112958,0.0312 -0.04839,0.0312 -0.112957,0.0645 -0.163056,0.11314 -0.03229,0.0312 -0.08072,0.0482 -0.112958,0.0809 -0.06453,0.0646 -0.112957,0.14546 -0.175901,0.21801 -0.03229,0.0482 -0.06453,0.0645 -0.09686,0.11314 -0.08072,0.14546 -0.171248,0.3003 -0.251927,0.49261 -0.08072,0.18885 -0.145246,0.36014 -0.213115,0.51354 -0.06453,0.14546 -0.112958,0.28259 -0.166319,0.40381 -0.01631,0.0312 -0.03229,0.0645 -0.04839,0.0968 -0.03229,0.0809 -0.06453,0.16142 -0.09682,0.22912 -0.01631,0.0312 -0.03229,0.0645 -0.04839,0.0968 -0.03229,0.0482 -0.04839,0.11314 -0.06453,0.14546 -0.01631,0.0312 -0.03229,0.0482 -0.04839,0.0809 -0.01631,0.0312 -0.03229,0.0809 -0.04839,0.0968 -0.01354,0.0174 -0.03229,0.0312 -0.03229,0.0482 -0.01631,0.0174 -0.03229,0.0482 -0.04839,0.0646 -0.01354,0.0138 -0.03229,0.0174 -0.03229,0.0312 -0.01631,0.0106 -0.03229,0.0174 -0.04839,0.0312 -0.01353,0.007 -0.03229,0.007 -0.04839,0.0106 -0.01631,0 -0.03229,0.007 -0.04839,0.007 -0.01632,0 -0.04839,-0.007 -0.06453,-0.0106 -0.01631,0 -0.03229,-0.007 -0.04839,-0.0139 -0.01632,-0.007 -0.04839,-0.0174 -0.08072,-0.0312 -0.01631,-0.0106 -0.04839,-0.0174 -0.06453,-0.0312 -0.03229,-0.0174 -0.08072,-0.0312 -0.129106,-0.0645 -0.04839,-0.0174 -0.09686,-0.0482 -0.145248,-0.0646 -0.03229,-0.0139 -0.06453,-0.0312 -0.09682,-0.0482 -0.04839,-0.0174 -0.09685,-0.0312 -0.161391,-0.0645 -0.03229,-0.0138 -0.08072,-0.0312 -0.112958,-0.0482 -0.06453,-0.0174 -0.129139,-0.0312 -0.195341,-0.0645 -0.04839,-0.0138 -0.08072,-0.0312 -0.129105,-0.0312 -0.08072,-0.0174 -0.171248,-0.0312 -0.260153,-0.0646 -0.04839,-0.0106 -0.09685,-0.0174 -0.145248,-0.0312 -0.145248,-0.0312 -0.303617,-0.0482 -0.476423,-0.0645 -0.852724,-0.0968 -1.400211,-0.60081 -1.552002,-1.2678 -0.03229,-0.12914 -0.04839,-0.27286 -0.04839,-0.41668 0.0025,-0.14545 0.01632,-0.2923 0.06453,-0.44247 0.180831,-0.75096 0.796203,-1.55368 1.935086,-2.14803 0.457058,-0.23745 0.994865,-0.44085 1.626658,-0.59592 0.629831,-0.16143 1.350122,-0.25689 2.165723,-0.2923 0.53133,-0.0174 1.020686,-0.0312 1.490651,-0.0312 0.166319,0 0.331042,0 0.49095,0 0.145247,0 0.281017,0 0.415051,0.007 0.185761,0 0.365005,0.0106 0.539423,0.0174 0.129105,0.007 0.248664,0.0106 0.366587,0.0174 0.174547,0.0106 0.340763,0.0174 0.503888,0.0312 0.09682,0.007 0.210095,0.0138 0.310074,0.0174 0.172882,0.0138 0.331078,0.0312 0.490974,0.0482 0.01115,0 0.01632,0 0.03229,0 4.72807,2.38527 8.97296,5.58985 12.547455,9.43068 l -0.0013,13.42841 c -0.30688,-0.0968 -0.633086,-0.2069 -1.011001,-0.37787 -0.166319,-0.0645 -0.306846,-0.12914 -0.436041,-0.17775 z m -54.443762,-20.2866 c 0.04839,-0.0106 0.09685,-0.0174 0.145247,-0.0312 0.03229,-0.007 0.08072,-0.0138 0.112958,-0.0174 0.112958,-0.0174 0.214748,-0.0312 0.319795,-0.0482 0.04839,-0.007 0.09685,-0.0139 0.145247,-0.0174 0.09685,-0.0106 0.180831,-0.0174 0.269736,-0.0312 0.04839,0 0.09685,-0.007 0.16139,-0.007 0.06453,0 0.129105,0 0.196973,0 0.112958,0 0.229223,0.0138 0.337534,0.0312 0.04839,0.007 0.09685,0.0106 0.145248,0.0174 0.145246,0.0312 0.290703,0.0646 0.419908,0.12915 0.767115,0.34055 -0.145281,0.96091 -1.363067,1.65844 -1.044921,0.59751 -2.314952,1.24997 -2.949805,1.82934 -0.318128,0.28918 -0.474807,0.56192 -0.365,0.79934 0.04839,0.0968 0.09682,0.18399 0.16139,0.2812 0.01631,0.0312 0.03229,0.0645 0.06453,0.0968 0.04839,0.0645 0.09685,0.12913 0.145282,0.20516 0.03229,0.0312 0.04839,0.0646 0.08072,0.0968 0.06453,0.0646 0.129106,0.14546 0.189023,0.20517 0.03229,0.0312 0.04839,0.0482 0.08072,0.0809 0.09686,0.0968 0.196973,0.1826 0.305249,0.26662 0.01115,0.0106 0.01631,0.0138 0.03229,0.0174 0.09682,0.0809 0.200236,0.14544 0.30688,0.2069 0.03229,0.0174 0.08072,0.0482 0.112958,0.0645 0.08072,0.0482 0.171249,0.0968 0.261508,0.12915 0.04839,0.0174 0.08072,0.0312 0.129105,0.0482 0.09682,0.0312 0.193675,0.0645 0.293898,0.0809 0.03229,0.0106 0.08072,0.0174 0.112957,0.0312 0.145248,0.0312 0.277789,0.0482 0.419898,0.0482 0.0025,0 0.0083,0 0.01353,0 0.01355,0 0.03229,-0.007 0.04839,-0.007 0.145248,0 0.297161,-0.0174 0.447344,-0.0645 0.04839,-0.0106 0.08072,-0.0174 0.12914,-0.0312 0.167952,-0.0482 0.335902,-0.11315 0.503881,-0.21142 0.0108,-0.007 0.01631,-0.0138 0.03229,-0.0174 0.16139,-0.0968 0.314934,-0.21489 0.471586,-0.35531 0.04839,-0.0312 0.08071,-0.0809 0.129104,-0.11314 0.16632,-0.1649 0.332709,-0.34726 0.494203,-0.5734 0.216379,-0.30028 0.423107,-0.57008 0.626606,-0.82521 0.04839,-0.0645 0.09682,-0.11314 0.145247,-0.176 0.200236,-0.24231 0.395672,-0.46515 0.584607,-0.65896 0.01631,-0.0174 0.04839,-0.0482 0.06453,-0.0646 0.172881,-0.16975 0.339165,-0.31659 0.505498,-0.4441 0.03229,-0.0312 0.08072,-0.0646 0.112958,-0.0968 0.145247,-0.0968 0.276157,-0.17115 0.415038,-0.23919 0.52328,0.16144 1.061057,0.24544 1.60048,0.24544 0.145246,0 0.297159,-0.0106 0.44088,-0.0174 0.185759,0.12914 0.374686,0.28744 0.570117,0.48615 1.754047,1.78602 4.482114,4.12515 -1.461598,7.24201 -5.943054,3.11809 -9.548046,7.98888 -9.548046,9.06098 0,0.0646 0.0025,0.14512 0.0055,0.22774 0.0016,0.0312 0.0025,0.0645 0.0055,0.0968 0.0025,0.0645 0.0055,0.12914 0.0108,0.19058 0.0025,0.0482 0.0055,0.0968 0.0083,0.14546 0.0055,0.0646 0.0083,0.14511 0.01389,0.21141 0.0055,0.0809 0.0108,0.16143 0.01631,0.23259 0.0055,0.0809 0.0108,0.16976 0.01631,0.25689 0.0055,0.0809 0.0108,0.16142 0.01631,0.23433 0.0025,0.0646 0.0083,0.12914 0.0108,0.18398 0.0055,0.0809 0.0083,0.16144 0.01388,0.23919 0.0025,0.0646 0.0055,0.12915 0.0108,0.18399 0.0025,0.0809 0.0083,0.16142 0.0108,0.23919 0.0025,0.0646 0.0055,0.11315 0.0083,0.18086 0.0025,0.0809 0.0055,0.17115 0.0055,0.25517 0.0016,0.0482 0.0025,0.0968 0.0025,0.14544 0.0016,0.11315 0,0.22635 -0.0016,0.33431 0,0.0174 0,0.0312 0,0.0482 -0.0025,0.11279 -0.0083,0.23744 -0.01631,0.34575 -0.0025,0.0312 -0.0083,0.0645 -0.01115,0.0968 -0.0055,0.0646 -0.01353,0.14512 -0.01631,0.20344 -0.0055,0.0312 -0.01353,0.0646 -0.01631,0.0968 -0.01115,0.0482 -0.01631,0.0968 -0.03229,0.14546 -0.0083,0.0312 -0.01631,0.0482 -0.03229,0.0809 -0.01631,0.0312 -0.03229,0.0645 -0.04839,0.0968 -0.01354,0.0174 -0.03229,0.0312 -0.04839,0.0482 -0.01631,0.0174 -0.04839,0.0312 -0.06457,0.0482 -0.01631,0.007 -0.03229,0.0174 -0.04839,0.0174 -0.03229,0.007 -0.06453,0 -0.09682,-0.007 -0.01631,0 -0.03229,-0.007 -0.04839,-0.0138 -0.04839,-0.0174 -0.112957,-0.0482 -0.166319,-0.11315 -0.09685,-0.0809 -0.174513,-0.19858 -0.245366,-0.32147 -0.01631,-0.0312 -0.03229,-0.0482 -0.04839,-0.0809 -0.06453,-0.12914 -0.129106,-0.25342 -0.180831,-0.39565 -0.01389,-0.0312 -0.01631,-0.0646 -0.03229,-0.0968 -0.04839,-0.14545 -0.09682,-0.28257 -0.16139,-0.42959 -0.04839,-0.16144 -0.112957,-0.31348 -0.177532,-0.46835 -0.01353,-0.0312 -0.03229,-0.0645 -0.04839,-0.0968 -0.06457,-0.1451 -0.12914,-0.27147 -0.203534,-0.39728 -0.0108,-0.0174 -0.01631,-0.0312 -0.03229,-0.0482 -0.08072,-0.12914 -0.184094,-0.24683 -0.297161,-0.35211 -0.03229,-0.0174 -0.04839,-0.0482 -0.08072,-0.0645 -0.129106,-0.0968 -0.258523,-0.18746 -0.41991,-0.24717 -0.0083,0 -0.01631,0 -0.03229,-0.007 -0.16139,-0.0482 -0.340762,-0.0809 -0.541005,-0.0809 -0.03229,0 -0.04839,-0.0138 -0.08072,-0.0138 -0.03229,0 -0.06453,0.007 -0.112958,0.007 -0.06453,0 -0.112957,0.007 -0.179164,0.0139 -0.09685,0.0106 -0.208464,0.0312 -0.321392,0.0482 -0.06453,0.0138 -0.129104,0.0312 -0.203534,0.0482 -0.129105,0.0312 -0.263174,0.0809 -0.405356,0.11279 -0.06456,0.0174 -0.129105,0.0312 -0.201902,0.0645 -0.218011,0.0809 -0.447335,0.16977 -0.69767,0.28259 -0.26314,0.11314 -0.505497,0.25203 -0.733234,0.39571 -0.08072,0.0482 -0.145248,0.0968 -0.211448,0.14511 -0.145248,0.0968 -0.289072,0.2003 -0.418261,0.30861 -0.08072,0.0646 -0.145248,0.14546 -0.218009,0.2083 -0.112958,0.0968 -0.218011,0.20031 -0.313303,0.30688 -0.06457,0.0809 -0.129106,0.16142 -0.195308,0.24057 -0.08072,0.0968 -0.171248,0.20691 -0.245365,0.31348 -0.06453,0.0809 -0.112957,0.17289 -0.164687,0.26141 -0.06457,0.11279 -0.129106,0.21141 -0.190655,0.31972 -0.04839,0.0968 -0.08072,0.18086 -0.129105,0.27286 -0.04839,0.11314 -0.09685,0.21488 -0.145248,0.32145 -0.03229,0.0968 -0.06456,0.18399 -0.09685,0.27773 -0.03229,0.11279 -0.08072,0.21142 -0.09685,0.31661 -0.03229,0.0968 -0.04839,0.18259 -0.06453,0.27285 -0.03229,0.0968 -0.04839,0.2083 -0.06457,0.31001 -0.01631,0.0968 -0.03229,0.176 -0.03229,0.26313 -0.01388,0.0968 -0.03229,0.19683 -0.03229,0.29404 -0.0083,0.0809 -0.0108,0.16628 -0.01353,0.24717 -0.0025,0.0968 -0.0055,0.18399 -0.0055,0.27147 0.0016,0.0809 0.0025,0.14546 0.0083,0.22461 0.0055,0.0809 0.0108,0.16316 0.01631,0.24058 0.0083,0.0645 0.01632,0.12913 0.03229,0.19683 0.01354,0.0645 0.03229,0.14546 0.04839,0.20342 0.01355,0.0646 0.03229,0.11315 0.04839,0.16316 0.01631,0.0646 0.04839,0.1128 0.06457,0.16143 0.01631,0.0482 0.03229,0.0809 0.06453,0.12915 0.03229,0.0482 0.04839,0.0809 0.08072,0.11279 0.01631,0.0312 0.04839,0.0482 0.08072,0.0809 0.03229,0.0312 0.06457,0.0312 0.09686,0.0482 0.03229,0.0106 0.04839,0.0174 0.08072,0.0312 0.01115,0 0.01631,0.0106 0.03229,0.0106 0.04839,0 0.08071,-0.0106 0.129104,-0.0312 0.112958,-0.0482 0.221309,-0.11314 0.339165,-0.19857 0.01632,-0.0106 0.03229,-0.0174 0.04839,-0.0312 0.112957,-0.0809 0.229223,-0.16801 0.347225,-0.26487 0.01631,-0.0174 0.04839,-0.0312 0.08072,-0.0646 0.112958,-0.0968 0.239082,-0.20169 0.360162,-0.30862 0.09685,-0.0809 0.182461,-0.16142 0.274526,-0.24231 0.04839,-0.0482 0.112957,-0.0968 0.161389,-0.1451 0.129106,-0.1128 0.244012,-0.21003 0.363383,-0.30862 0.01631,-0.0174 0.04839,-0.0312 0.06453,-0.0482 0.112958,-0.0968 0.232522,-0.18087 0.342395,-0.25689 0.01631,-0.0138 0.04839,-0.0312 0.06453,-0.0482 0.112958,-0.0809 0.219676,-0.12913 0.321357,-0.17912 0.01355,-0.007 0.01631,-0.007 0.03229,-0.0138 0.09685,-0.0312 0.195306,-0.0645 0.281019,-0.0645 0.0083,0 0.01631,0 0.01631,0 0.03229,0 0.06457,0.0106 0.112958,0.0174 0.01631,0.007 0.03229,0 0.04839,0.0106 0.04839,0.0174 0.09682,0.0482 0.145248,0.0968 0.681528,0.6816 -1.072356,3.02011 0,3.21506 0.402152,0.0809 0.707383,0.33743 0.938312,0.73808 0.161389,0.26662 0.274561,0.59433 0.366614,0.96411 0.04839,0.18399 0.08072,0.3812 0.112957,0.58626 0.06453,0.40863 0.112958,0.85437 0.129106,1.31626 0,0 0,0 0,0 0.0083,0.1451 0.03229,0.25341 0.08072,0.3569 0.01115,0.0312 0.03229,0.0646 0.04839,0.0809 0.03229,0.0645 0.08072,0.12913 0.129106,0.17773 0.01631,0.0174 0.03229,0.0482 0.06453,0.0646 0.145248,0.11279 0.342395,0.176 0.573339,0.18085 0.01353,0 0.01631,0.007 0.03229,0.007 0.01631,0 0.04839,-0.007 0.08072,-0.007 0.09685,0 0.180831,-0.0139 0.27779,-0.0312 0.03229,-0.007 0.08072,-0.0106 0.112958,-0.0174 0.268069,-0.0645 0.558786,-0.16142 0.860797,-0.2923 0.04839,-0.0174 0.09685,-0.0482 0.129104,-0.0645 0.112993,-0.0482 0.224606,-0.11279 0.337534,-0.17114 0.04839,-0.0312 0.09685,-0.0482 0.129105,-0.0809 0.305214,-0.17287 0.610463,-0.37148 0.899552,-0.58463 0.04839,-0.0312 0.08072,-0.0646 0.12914,-0.0968 0.112958,-0.0809 0.208429,-0.16142 0.306846,-0.24543 0.03229,-0.0312 0.08072,-0.0645 0.112958,-0.0968 0.129105,-0.11279 0.258487,-0.23086 0.376296,-0.34722 0.09682,-0.0968 0.235819,-0.17601 0.389215,-0.226 0.04839,-0.0174 0.112957,-0.0174 0.171248,-0.0312 0.112958,-0.0174 0.224606,-0.0482 0.353684,-0.0482 0.129105,0 0.261785,0.007 0.402149,0.0174 0.04839,0.007 0.09685,0 0.145247,0.0106 0.198605,0.0312 0.408606,0.0809 0.629862,0.12914 0.04839,0.0138 0.112958,0.0312 0.167951,0.0482 0.17125,0.0482 0.343991,0.0968 0.524863,0.16803 0.08072,0.0312 0.17781,0.0645 0.266437,0.0968 0.161391,0.0645 0.311671,0.12913 0.469965,0.19057 0.09682,0.0482 0.198604,0.0968 0.300388,0.12915 0.161391,0.0645 0.311707,0.1451 0.468351,0.22634 0.09685,0.0482 0.205166,0.0968 0.308443,0.16143 0.161389,0.0809 0.323023,0.17287 0.482902,0.26313 0.09685,0.0482 0.196973,0.11279 0.293898,0.16629 0.179163,0.0968 0.358544,0.21453 0.53619,0.32458 0.08072,0.0482 0.16139,0.0968 0.23089,0.14512 0.250295,0.16142 0.499011,0.32631 0.739655,0.49583 0.04839,0.0312 0.08072,0.0645 0.112993,0.0809 0.196973,0.14512 0.390821,0.28432 0.578154,0.42793 0.08072,0.0646 0.16139,0.12915 0.232521,0.18573 0.145283,0.11279 0.280983,0.22634 0.415035,0.34055 0.08072,0.0646 0.16139,0.14546 0.232521,0.20517 0.112958,0.11314 0.235784,0.21488 0.345622,0.32319 0.06453,0.0645 0.145248,0.14512 0.206798,0.2069 0.09685,0.11315 0.198605,0.21142 0.289106,0.31661 0.04839,0.0645 0.112958,0.12914 0.164688,0.19232 0.09682,0.1128 0.164689,0.21801 0.23745,0.32458 0.03229,0.0482 0.08072,0.11279 0.112958,0.16143 0.09685,0.16142 0.17125,0.30202 0.221309,0.44258 0,0 0.0018,0 0.0018,0 0.426353,1.19187 1.206423,1.96823 2.07788,2.58012 0.174512,0.12914 0.352065,0.23919 0.531327,0.34889 0.360161,0.22148 0.723522,0.42641 1.078838,0.62657 1.417958,0.8059 2.662962,1.56981 2.659102,3.31698 -0.0025,1.58588 -0.145248,3.07224 -0.424749,4.45786 -0.377914,1.84833 -1.015833,3.51697 -1.942855,5.00714 -0.232521,0.37313 -0.481261,0.73482 -0.750986,1.0837 -1.545546,2.01539 -2.240974,6.59811 -4.773939,7.86525 -2.53297,1.26778 -1.69672,5.74903 -1.411515,6.81479 0.01631,0.0809 0.04839,0.16143 0.08071,0.25029 0.0083,0.0312 0.01631,0.0482 0.03229,0.0809 0.01631,0.0645 0.04839,0.12914 0.06457,0.19405 0.01631,0.0312 0.03229,0.0809 0.04839,0.11279 0.01631,0.0645 0.04839,0.11315 0.06453,0.17775 0.01632,0.0482 0.04839,0.11279 0.06457,0.16142 0.01631,0.0482 0.04839,0.0968 0.06453,0.16142 0.03229,0.0968 0.08072,0.18399 0.112957,0.27598 0.01631,0.0482 0.04839,0.1128 0.06453,0.16629 0.01631,0.0482 0.04839,0.1128 0.06457,0.16142 0.01631,0.0482 0.04839,0.1128 0.06453,0.16142 0.01631,0.0482 0.04839,0.0968 0.06453,0.16144 0.01631,0.0482 0.03229,0.0968 0.06457,0.16142 0.01631,0.0482 0.03229,0.0968 0.04839,0.14545 0.01631,0.0482 0.03229,0.0968 0.04839,0.14511 0.01631,0.0482 0.03229,0.0968 0.04839,0.14546 0.01354,0.0482 0.01631,0.0968 0.03229,0.12914 0.01115,0.0482 0.01631,0.0968 0.03229,0.12914 0.0083,0.0482 0.0108,0.0809 0.01631,0.1128 0.0055,0.0482 0.0083,0.0809 0.0083,0.11314 0.0018,0.0312 -0.0018,0.0646 -0.0025,0.0968 -0.0025,0.0312 -0.0055,0.0646 -0.01355,0.0968 -0.0055,0.0312 -0.01631,0.0646 -0.03229,0.0809 -0.0108,0.0312 -0.01631,0.0482 -0.03229,0.0809 -0.01355,0.0174 -0.03229,0.0482 -0.04839,0.0646 -0.01631,0.0174 -0.04839,0.0482 -0.06457,0.0645 -0.01631,0.0174 -0.04839,0.0312 -0.08072,0.0312 -0.03229,0.0138 -0.06453,0.0174 -0.09682,0.0312 -0.03229,0.007 -0.06457,0.0106 -0.112993,0.0138 -0.06453,0 -0.129104,0.007 -0.214746,0 v 0 c -0.516793,-0.0645 -1.154719,-0.35208 -1.816553,-1.04981 -0.12914,-0.14512 -0.264805,-0.29544 -0.398903,-0.46991 -0.266438,-0.34725 -0.534573,-0.76557 -0.796202,-1.26616 -1.04976,-2.00268 -2.012772,-5.31955 -2.499705,-10.6786 -0.973849,-10.71697 -1.282305,-7.27123 -3.70191,-9.83993 -1.764395,-1.87382 -3.313198,-5.35906 -2.532968,-7.69704 0.145248,-0.43932 0.334305,-0.95287 0.528099,-1.50039 0.389203,-1.09657 0.80588,-2.32903 0.97707,-3.37052 0.201867,-1.21446 0.06457,-2.16832 -0.823641,-2.33912 -2.046042,-0.38926 -3.019892,-3.40992 -4.969041,-4.09199 -1.94915,-0.68153 -5.0659577,-1.1692 -5.5541714,-3.11811 C 8.9697106,240.0053 8.4595149,238.15305 7.9346422,236.53401 7.6777865,235.74264 7.4194645,235.00783 7.1884968,234.45617 10.701637,225.67186 16.94927,218.2667 24.8796,213.29895 Z"
       inkscape:connector-curvature="0" />
    <path
       style="fill:#00407a;fill-opacity:1;stroke-width:1.2747612"
       id="path4-6"
       d="m 90.256247,273.18896 v -45.97179 h -6.697561 v 45.97179 c -3.268436,1.32913 -5.580784,4.53318 -5.580784,8.27188 0,4.92318 4.005204,8.92967 8.929663,8.92967 4.924263,0 8.929629,-4.00518 8.929629,-8.92967 0,-3.7387 -2.312525,-6.94355 -5.580947,-8.27188 z"
       inkscape:connector-curvature="0" />
  </g>
</svg>
