<?xml version="1.0" encoding="UTF-8" standalone="no"?>
<!-- Created with Inkscape (http://www.inkscape.org/) -->

<svg
   xmlns:dc="http://purl.org/dc/elements/1.1/"
   xmlns:cc="http://creativecommons.org/ns#"
   xmlns:rdf="http://www.w3.org/1999/02/22-rdf-syntax-ns#"
   xmlns:svg="http://www.w3.org/2000/svg"
   xmlns="http://www.w3.org/2000/svg"
   xmlns:sodipodi="http://sodipodi.sourceforge.net/DTD/sodipodi-0.dtd"
   xmlns:inkscape="http://www.inkscape.org/namespaces/inkscape"
   width="4cm"
   height="3cm"
   viewBox="0 0 39.999999 30"
   version="1.1"
   id="svg8"
   inkscape:version="0.92.4 (5da689c313, 2019-01-14)"
   sodipodi:docname="CC.svg">
  <defs
     id="defs2" />
  <sodipodi:namedview
     id="base"
     pagecolor="#ffffff"
     bordercolor="#666666"
     borderopacity="1.0"
     inkscape:pageopacity="0.0"
     inkscape:pageshadow="2"
     inkscape:zoom="1.4"
     inkscape:cx="0.47655679"
     inkscape:cy="-12.983621"
     inkscape:document-units="mm"
     inkscape:current-layer="layer1"
     showgrid="false"
     inkscape:window-width="1280"
     inkscape:window-height="1001"
     inkscape:window-x="1272"
     inkscape:window-y="-8"
     inkscape:window-maximized="1"
     units="cm" />
  <metadata
     id="metadata5">
    <rdf:RDF>
      <cc:Work
         rdf:about="">
        <dc:format>image/svg+xml</dc:format>
        <dc:type
           rdf:resource="http://purl.org/dc/dcmitype/StillImage" />
        <dc:title></dc:title>
      </cc:Work>
    </rdf:RDF>
  </metadata>
  <g
     inkscape:label="Laag 1"
     inkscape:groupmode="layer"
     id="layer1"
     transform="translate(0,-267)">
    <path
       inkscape:export-ydpi="300"
       inkscape:export-xdpi="300"
       style="fill:#57b1a0;fill-opacity:1;stroke-width:0.36720771"
       id="path2-11"
       d="m 33.57351,289.2524 v -2.50251 c 0.290299,-1.09136 0.446141,-2.23668 0.446141,-3.41834 0,-1.16807 -0.152589,-2.30092 -0.435903,-3.38161 -0.0039,-0.0186 -0.0047,-0.0419 -0.0093,-0.0618 l -7.05e-4,-10.26752 c 0,-0.9749 -0.793523,-1.76844 -1.768432,-1.76844 -0.97496,0 -1.768481,0.79316 -1.768481,1.76844 l -3.76e-4,4.21888 c -2.40636,-2.36888 -5.70536,-3.83405 -9.341458,-3.83405 -4.822173,0 -9.054588,2.57451 -11.3944528,6.42136 -0.100022,0.16469 -0.195392,0.33216 -0.288432,0.50091 -0.0093,0.0186 -0.02325,0.0372 -0.03254,0.0567 -0.01394,0.0233 -0.02325,0.0465 -0.03719,0.0689 -0.24889,0.42893 -0.447079,0.82328 -0.522538,1.08692 -0.677868,1.59627 -1.053111,3.35077 -1.053111,5.19162 0,7.34816 5.9781048,13.32632 13.3263178,13.32632 3.090022,0 5.935159,-1.06014 8.198265,-2.83155 0.586452,1.00137 1.670784,1.67704 2.912684,1.67704 1.861754,0 3.376136,-1.51436 3.376136,-3.37614 -7.05e-4,-1.16955 -0.613998,-2.26307 -1.606914,-2.87558 z m -1.769551,5.93003 c -1.684415,0 -3.054436,-1.37038 -3.054436,-3.05443 0,-1.08657 0.584961,-2.1004 1.526469,-2.64532 l 0.08002,-0.0465 7.99e-4,-19.8149 c 0,-0.79794 0.648884,-1.44678 1.446826,-1.44678 0.797896,0 1.44678,0.64884 1.44678,1.44678 l 7.05e-4,19.8149 0.08001,0.0465 c 0.941553,0.54492 1.526477,1.55875 1.526477,2.64532 0,1.6844 -1.370393,3.05443 -3.054391,3.05443 z m -2.368894,-9.16954 c 0.01395,-0.005 0.0279,-0.005 0.04184,-0.002 0.0093,0 0.01395,0.004 0.0186,0.009 0.0093,0.004 0.01395,0.009 0.0186,0.0186 0.0047,0.005 0.0093,0.0139 0.01395,0.0233 0.0047,0.009 0.0093,0.0186 0.01395,0.0326 0.0039,0.009 0.0093,0.0233 0.0093,0.0325 0.0039,0.0139 0.0047,0.0279 0.0093,0.0465 0.0024,0.0139 0.0047,0.0279 0.0047,0.0465 0.0016,0.0186 0.0032,0.0372 0.0047,0.0586 8e-4,0.0186 0.0016,0.0326 0.0024,0.0535 3.76e-4,0.0233 3.76e-4,0.0465 0,0.0684 -3.06e-4,0.0186 -6.82e-4,0.0419 -0.0016,0.0605 -7.99e-4,0.0233 -0.0024,0.0508 -0.0047,0.0768 -0.0016,0.0233 -0.0032,0.0418 -0.0047,0.0656 -0.0024,0.0279 -0.0047,0.0545 -0.0093,0.0819 -0.0024,0.0233 -0.0047,0.0465 -0.0093,0.0702 -0.0039,0.0279 -0.0093,0.0567 -0.01395,0.0851 -0.0039,0.0233 -0.0047,0.0484 -0.0093,0.0726 -0.0047,0.0279 -0.0093,0.0586 -0.01395,0.0879 -0.0047,0.0233 -0.0093,0.0479 -0.01395,0.0721 -0.0047,0.0279 -0.01395,0.0577 -0.0186,0.0865 -0.0047,0.0233 -0.0093,0.0489 -0.01395,0.0726 -0.0047,0.0279 -0.01395,0.0559 -0.02325,0.0833 -0.0047,0.0233 -0.01395,0.047 -0.0186,0.0693 -0.0093,0.0279 -0.01395,0.054 -0.02325,0.0809 -0.0047,0.0233 -0.01395,0.0419 -0.0186,0.0638 -0.0093,0.0279 -0.0186,0.0511 -0.0279,0.0763 -0.0047,0.0186 -0.01395,0.0372 -0.0186,0.0549 -0.0093,0.0279 -0.02324,0.0507 -0.03254,0.0749 -0.0047,0.0139 -0.0093,0.0279 -0.0186,0.0419 -0.0186,0.0372 -0.03254,0.067 -0.05075,0.0944 -0.03254,0.0526 -0.07399,0.10282 -0.119099,0.14934 -0.0016,0.002 -0.0039,0.004 -0.0047,0.005 -0.04649,0.0465 -0.09304,0.0842 -0.143747,0.11956 -0.0039,0.002 -0.0093,0.005 -0.01395,0.009 -0.0498,0.0326 -0.100494,0.0596 -0.150736,0.0796 -0.0047,0.002 -0.0093,0.005 -0.01395,0.005 -0.04886,0.0186 -0.09677,0.0279 -0.141422,0.0279 -0.0093,0 -0.01395,0.002 -0.02324,0 -0.01395,0 -0.0279,-0.003 -0.03719,-0.005 -0.0093,-0.002 -0.02324,-0.004 -0.03254,-0.009 -0.01395,-0.004 -0.02324,-0.009 -0.03254,-0.0186 -0.0093,-0.005 -0.0186,-0.009 -0.0279,-0.0186 -0.0093,-0.009 -0.0186,-0.0186 -0.0279,-0.0279 -0.0093,-0.009 -0.01395,-0.0186 -0.02325,-0.0279 -0.0093,-0.0139 -0.01395,-0.0279 -0.0186,-0.0465 -0.0047,-0.0139 -0.0093,-0.0233 -0.01395,-0.0372 -0.0047,-0.0186 -0.0047,-0.0419 -0.0093,-0.0619 -0.0024,-0.0186 -0.0047,-0.0325 -0.0047,-0.0493 -7.99e-4,-0.0233 7.99e-4,-0.0544 0.0024,-0.0828 7.99e-4,-0.0186 3.05e-4,-0.0372 0.0024,-0.0586 0.0039,-0.0325 0.0093,-0.0745 0.0186,-0.11397 0.0039,-0.0186 0.0047,-0.0372 0.0093,-0.0591 0.01395,-0.0633 0.03254,-0.13212 0.05492,-0.20704 0.363803,-1.17796 0.728905,-1.34652 0.95328,-1.43063 z M 23.070273,274.0893 c -0.0039,0.005 -0.0047,0.0139 -0.01394,0.0186 -0.01859,0.0186 -0.04184,0.0419 -0.07817,0.06 -0.04696,0.0279 -0.09026,0.0512 -0.131659,0.0758 -0.03254,0.0186 -0.06004,0.0372 -0.08839,0.0521 -0.01394,0.009 -0.02325,0.0139 -0.03719,0.0186 -0.01859,0.009 -0.04184,0.0233 -0.05815,0.0279 -0.0093,0.005 -0.02325,0.009 -0.03255,0.0139 -0.01859,0.005 -0.03254,0.009 -0.04649,0.009 -0.0093,0.002 -0.0186,0.003 -0.02789,0.002 -0.0047,0 -0.01394,-0.003 -0.01859,-0.004 -0.0093,-0.003 -0.0186,-0.009 -0.02789,-0.0186 -0.0047,-0.004 -0.0093,-0.009 -0.01394,-0.0139 -0.0093,-0.009 -0.01394,-0.0233 -0.02325,-0.0419 -0.0031,-0.009 -0.0047,-0.0139 -0.0093,-0.0233 -0.0093,-0.0279 -0.01394,-0.0609 -0.0186,-0.10282 -7.05e-4,-0.0326 0.0024,-0.0633 -0.0031,-0.0963 -0.0093,-0.0479 -0.02325,-0.0963 -0.04184,-0.14375 -0.07675,-0.28657 -0.195383,-0.5611 0.04649,-0.715 0.01394,-0.009 0.02325,-0.009 0.03254,-0.009 7.05e-4,0 0.0016,0 0.0024,0 0.01394,0 0.02789,0.009 0.03719,0.0279 7.05e-4,0.002 0.0024,0.003 0.0039,0.004 0.0093,0.0186 0.0186,0.0419 0.02325,0.0689 7.05e-4,0.005 0.0023,0.009 0.0032,0.0139 0.0047,0.0279 0.0093,0.06 0.01394,0.0949 7.06e-4,0.005 0.0016,0.0139 0.0024,0.0186 0.0047,0.0372 0.0093,0.074 0.01394,0.11167 0.004,0.0419 0.0093,0.0823 0.01394,0.12095 0,0 0,0 4.93e-4,0.002 0.0047,0.0372 0.0093,0.0688 0.01394,0.0982 7.05e-4,0.004 0.0016,0.009 0.0024,0.0139 0.0047,0.0279 0.01394,0.0498 0.02325,0.067 0.0016,0.003 0.0031,0.005 0.0047,0.009 0.0093,0.0139 0.02325,0.0233 0.03719,0.0233 7.05e-4,0 0.0016,0.002 0.0024,0.002 0.0047,0 0.01394,-0.002 0.01859,-0.004 0.02325,-0.009 0.05161,-0.0139 0.08188,-0.0139 0.02325,0 0.04184,0.002 0.06651,0.005 0.004,0 0.0093,0 0.0093,0 0.02789,0.005 0.05398,0.0139 0.07955,0.0233 0.0093,0.003 0.01394,0.005 0.02325,0.009 0.0186,0.009 0.03255,0.0139 0.04933,0.0279 0.0093,0.005 0.01394,0.009 0.01859,0.0139 0.01394,0.009 0.02325,0.0186 0.03254,0.0279 0.0047,0.005 0.0093,0.0139 0.01394,0.0186 0.0047,0.009 0.0093,0.0233 0.0093,0.0326 7.05e-4,0.009 0.0024,0.0139 7.05e-4,0.0233 -0.0016,0.0139 -0.0093,0.0279 -0.01859,0.0419 z m -2.646112,-2.05416 c -0.0279,0.0139 -0.05303,0.0326 -0.07909,0.0484 -0.06091,0.0372 -0.12095,0.0758 -0.178638,0.11396 -0.02325,0.0186 -0.05067,0.0326 -0.07533,0.0503 -0.06603,0.0465 -0.130263,0.0912 -0.192602,0.13677 -0.0093,0.009 -0.02325,0.0139 -0.03254,0.0233 -0.07305,0.0549 -0.142816,0.10933 -0.210275,0.16328 -0.01859,0.0139 -0.03719,0.0326 -0.05863,0.0475 -0.04886,0.0419 -0.0963,0.0791 -0.142351,0.1177 -0.01859,0.0186 -0.04184,0.0326 -0.06004,0.0512 -0.04791,0.0419 -0.09398,0.0805 -0.138642,0.11956 -0.06422,0.0558 -0.125606,0.10931 -0.184226,0.16049 -0.01394,0.009 -0.02325,0.0233 -0.03719,0.0326 -0.04184,0.0326 -0.0777,0.067 -0.115371,0.0982 -0.01394,0.0139 -0.02789,0.0233 -0.04649,0.0372 -0.03254,0.0279 -0.06745,0.0544 -0.09956,0.0796 -0.01394,0.009 -0.02325,0.0186 -0.03719,0.0279 -0.04184,0.0326 -0.08281,0.0596 -0.121422,0.0828 -0.0047,0.004 -0.0093,0.005 -0.01859,0.009 -0.03254,0.0186 -0.0628,0.0326 -0.09257,0.047 -0.0093,0.005 -0.02325,0.009 -0.03254,0.0139 -0.02325,0.009 -0.04886,0.0139 -0.0721,0.0186 -0.0093,0.002 -0.01859,0.004 -0.02789,0.004 -0.01859,0 -0.0372,-0.003 -0.05721,-0.005 -0.01394,-0.003 -0.0279,-0.003 -0.04184,-0.009 -0.01859,-0.005 -0.03719,-0.0186 -0.05303,-0.0326 -0.01394,-0.009 -0.02325,-0.0139 -0.03254,-0.0233 -0.01859,-0.0186 -0.03719,-0.0419 -0.05445,-0.0651 -0.0093,-0.0139 -0.01859,-0.0186 -0.0279,-0.0326 -0.0279,-0.0419 -0.05067,-0.0898 -0.07447,-0.14747 -0.393107,-0.95441 -0.944068,-1.70018 -0.326586,-1.75634 0.617304,-0.0563 0.842002,-0.1898 1.122576,-0.25262 0.09026,-0.0186 0.187488,-0.0372 0.287508,-0.0535 0.0093,0 0.01394,-0.003 0.02325,-0.004 0.100022,-0.0139 0.203296,-0.0279 0.309369,-0.0372 7.06e-4,0 0.0024,0 0.0031,0 0.106537,-0.009 0.214469,-0.0186 0.321927,-0.0233 0.0093,0 0.01859,0 0.0279,-0.002 0.106064,-0.005 0.211672,-0.009 0.314945,-0.009 0.0024,0 0.0047,0 0.0093,0 0.05398,0 0.107002,0 0.159105,0.003 0.01394,0 0.0279,0 0.04184,0.002 0.04184,0.002 0.07864,0.003 0.116765,0.005 0.01394,0 0.0279,0.002 0.04185,0.003 0.04838,0.003 0.09629,0.009 0.141885,0.0139 0.0047,0 0.01394,0.002 0.0186,0.003 0.03719,0.004 0.07628,0.009 0.112581,0.0139 0.01394,0.002 0.0279,0.004 0.03719,0.005 0.03254,0.005 0.06328,0.0139 0.09257,0.0186 0.0093,0.002 0.01859,0.004 0.0279,0.005 0.03719,0.009 0.07021,0.0186 0.101414,0.0279 0.0093,0.003 0.01394,0.005 0.02325,0.009 0.02325,0.009 0.04649,0.0186 0.06517,0.0279 0.0093,0.004 0.01394,0.009 0.02325,0.0139 0.02325,0.0139 0.04184,0.0233 0.05957,0.0372 0.0016,0.002 0.0047,0.003 0.0047,0.004 0.01859,0.0139 0.03254,0.0326 0.04184,0.0465 0.0031,0.005 0.0047,0.009 0.0093,0.0139 0.0093,0.0139 0.01394,0.0279 0.01394,0.0419 7.05e-4,0.005 0.0024,0.009 0.0031,0.0139 0.0016,0.0186 0,0.0372 -0.0047,0.0596 -7.06e-4,0.004 -0.0039,0.009 -0.0047,0.009 -0.0047,0.0186 -0.0186,0.0372 -0.0279,0.0558 -0.0047,0.005 -0.0093,0.0139 -0.01394,0.0233 -0.01394,0.0186 -0.03254,0.0372 -0.0535,0.06 -0.0047,0.005 -0.0093,0.009 -0.01394,0.0139 -0.0279,0.0279 -0.06005,0.0521 -0.0977,0.08 -0.0093,0.009 -0.0186,0.0139 -0.03254,0.0233 -0.03254,0.0233 -0.06556,0.0465 -0.103273,0.0679 -0.01394,0.009 -0.0279,0.0186 -0.04184,0.0279 -0.05161,0.0326 -0.107458,0.0619 -0.170728,0.0949 -0.09398,0.0484 -0.183295,0.0991 -0.269833,0.15073 z m 0.968725,0.26098 c 0.0093,0.002 0.01394,0.004 0.01859,0.009 0.0093,0.005 0.0186,0.0139 0.02325,0.0186 0.0039,0.005 0.0093,0.009 0.0093,0.0186 0.0047,0.009 0.0047,0.0279 0.0047,0.0419 2.58e-4,0.009 0.0016,0.0139 7.05e-4,0.0233 -0.0024,0.0279 -0.0093,0.0619 -0.0186,0.10374 -0.0093,0.0372 -0.0279,0.0679 -0.04697,0.10003 -0.0047,0.009 -0.01394,0.0186 -0.01859,0.0279 -0.01859,0.0233 -0.03719,0.0465 -0.06004,0.0675 -0.0047,0.005 -0.01394,0.0139 -0.01859,0.0186 -0.0279,0.0279 -0.06186,0.0498 -0.0963,0.0707 -0.0047,0.004 -0.01394,0.009 -0.02325,0.009 -0.0279,0.0139 -0.05768,0.0326 -0.08746,0.0419 -0.0093,0.004 -0.02325,0.009 -0.03254,0.0139 -0.03254,0.009 -0.0628,0.0186 -0.09304,0.0279 -0.0047,0 -0.0093,0.003 -0.01394,0.004 -0.03254,0.005 -0.0647,0.009 -0.09444,0.005 -0.02325,0 -0.04649,-0.005 -0.06517,-0.0139 -0.0093,-0.003 -0.02325,-0.004 -0.03255,-0.009 -0.02789,-0.0139 -0.04933,-0.0326 -0.06233,-0.0572 -0.04933,-0.0986 -0.07581,-0.22006 -0.04184,-0.31962 0.03719,-0.0996 0.133982,-0.17678 0.334497,-0.18562 0.07486,-0.003 0.13956,-0.009 0.197715,-0.0139 0.05492,-0.005 0.10095,-0.009 0.140028,-0.009 0.0093,0 0.0186,0 0.02789,0 0.01394,0 0.0279,0.002 0.04184,0.005 z m 0.187479,1.68325 c 0.0016,-0.009 0.0031,-0.0186 0.0047,-0.0233 0.0047,-0.0186 0.0093,-0.0372 0.0186,-0.0535 0.0031,-0.005 0.0047,-0.0139 0.0093,-0.0186 0.0093,-0.0186 0.02325,-0.0326 0.03719,-0.047 0,0 4.94e-4,0 4.94e-4,0 0.01394,-0.0139 0.03254,-0.0233 0.04886,-0.0279 0.0047,-0.002 0.0093,-0.004 0.01394,-0.005 0.01394,-0.004 0.02325,-0.009 0.03719,-0.009 0.0047,0 0.0093,-0.002 0.01394,-0.003 0.0498,-0.005 0.09026,0 0.09026,0 0.154448,0.0233 0.25959,0.14234 0.301921,0.27074 0.0093,0.0326 0.01859,0.0647 0.01859,0.0963 0.0047,0.0633 -0.0047,0.12236 -0.03719,0.16655 -0.01394,0.0233 -0.03254,0.0419 -0.05957,0.053 -0.02789,0.0139 -0.05492,0.0233 -0.08374,0.0326 -0.0093,0.003 -0.01859,0.003 -0.02789,0.005 -0.01859,0.004 -0.04184,0.009 -0.06004,0.009 -0.0093,0 -0.0186,0 -0.0279,0 -0.02789,0 -0.05398,-0.005 -0.08002,-0.0139 -0.0093,-0.003 -0.01394,-0.004 -0.02325,-0.005 -0.03254,-0.0139 -0.06091,-0.0279 -0.08746,-0.053 -0.0047,-0.004 -0.0093,-0.009 -0.01394,-0.0139 -0.02325,-0.0233 -0.0372,-0.0475 -0.05398,-0.0777 -0.0047,-0.009 -0.0093,-0.0186 -0.01394,-0.0326 -0.01394,-0.0419 -0.02789,-0.0842 -0.03254,-0.13863 -0.0047,-0.0372 -0.0024,-0.0721 0.0016,-0.10188 z m -6.098219,-2.29394 c 0.0093,0 0.01394,0 0.02325,0 0.02325,0 0.04697,0.003 0.0721,0.005 0.0093,0.002 0.0186,0.003 0.0279,0.004 0.03719,0.005 0.07257,0.0139 0.112115,0.0233 0.0016,0 0.0039,0 0.0047,0.002 0.03719,0.009 0.07955,0.0233 0.122353,0.0372 0.01394,0.004 0.02789,0.009 0.04184,0.0139 0.03254,0.009 0.06792,0.0233 0.103273,0.0372 0.01394,0.005 0.0279,0.009 0.04185,0.0139 0.04744,0.0186 0.09584,0.0372 0.145613,0.0554 0.0047,0.002 0.0093,0.004 0.01394,0.005 0.05626,0.0233 0.11351,0.0465 0.172131,0.0679 0.04184,0.0186 0.08653,0.0326 0.130263,0.0512 0.01859,0.005 0.03254,0.0139 0.05161,0.0186 0.05768,0.0233 0.115836,0.0465 0.174919,0.0665 0.189348,0.0703 0.298675,0.13538 0.349382,0.19678 0.01394,0.0139 0.02325,0.0326 0.0279,0.0465 0.01394,0.0279 0.0093,0.0586 -7.05e-4,0.0865 -0.05161,0.12654 -0.309832,0.23727 -0.516666,0.34472 -0.0279,0.0139 -0.06375,0.0326 -0.102817,0.0503 -0.0093,0.005 -0.02325,0.009 -0.0372,0.0139 -0.04184,0.0186 -0.08513,0.0372 -0.134448,0.0526 -0.0093,0.003 -0.01394,0.005 -0.02325,0.009 -0.05492,0.0186 -0.116765,0.0326 -0.181436,0.0465 -0.01859,0.003 -0.03254,0.005 -0.05114,0.009 -0.05721,0.009 -0.117695,0.0139 -0.180497,0.0139 -0.01394,0 -0.03254,0.002 -0.04696,0.002 -0.04184,0 -0.08281,-0.005 -0.125151,-0.009 -0.02325,-0.002 -0.04184,-0.003 -0.06698,-0.005 -0.06603,-0.009 -0.134448,-0.0279 -0.204232,-0.0489 -0.166542,-0.0544 -0.199111,-0.0879 -0.157711,-0.11768 0.01859,-0.0139 0.04649,-0.0233 0.08095,-0.0326 0.09025,-0.0279 0.229354,-0.0619 0.357285,-0.11397 0.101887,-0.0419 0.196787,-0.0963 0.253081,-0.17213 0.04184,-0.0568 0.04184,-0.0977 0.01394,-0.12887 -0.114906,-0.13585 -0.740623,-0.0972 -0.717881,-0.44893 0.0024,-0.0326 0.0093,-0.0591 0.0186,-0.0833 0.0024,-0.005 0.0047,-0.0139 0.0093,-0.0186 0.0032,-0.005 0.0047,-0.009 0.0093,-0.0139 0.06044,-0.0279 0.121414,-0.0544 0.182359,-0.0814 z m -3.030946,7.94379 c 0.0047,0 0.01394,0.002 0.01859,0.002 0.04184,0.005 0.08281,0.0139 0.127931,0.0233 0.0047,0 0.0093,0.002 0.0186,0.004 0.04649,0.009 0.09304,0.0186 0.13956,0.0325 0.0039,0 0.0093,0.002 0.01394,0.003 0.04791,0.0139 0.09584,0.0233 0.13957,0.0372 0,0 0.285642,0.0418 0.420555,0.16423 l -0.01859,0.0233 c -0.07447,0.0824 -0.09398,0.1926 -0.08979,0.3345 -0.0016,0 -0.0024,0 -0.0039,0 -0.0047,-0.002 -0.0093,-0.004 -0.01394,-0.005 -0.02325,-0.009 -0.04791,-0.0186 -0.07956,-0.0372 -0.0016,0 -0.0032,-0.002 -0.0047,-0.002 -0.03254,-0.0186 -0.07305,-0.0418 -0.119092,-0.067 -0.04744,-0.0279 -0.101886,-0.0586 -0.166085,-0.0954 -0.01394,-0.005 -0.02325,-0.0139 -0.03719,-0.0186 -0.06556,-0.0372 -0.138167,-0.0777 -0.222838,-0.12327 -0.04697,-0.0233 -0.08792,-0.0484 -0.123747,-0.0698 -0.0093,-0.009 -0.01859,-0.0139 -0.02789,-0.0186 -0.02325,-0.0139 -0.04184,-0.0279 -0.06138,-0.0372 -0.0093,-0.005 -0.0186,-0.0139 -0.0279,-0.0186 -0.01394,-0.009 -0.0279,-0.0186 -0.03719,-0.0279 -0.0093,-0.005 -0.0093,-0.009 -0.0186,-0.0186 -0.0047,-0.005 -0.01394,-0.0139 -0.01859,-0.0186 -0.0031,-0.005 -0.0047,-0.009 -0.0047,-0.0139 -0.0024,-0.005 -0.0047,-0.009 -0.0047,-0.0139 0,-0.004 0.0016,-0.005 0.0032,-0.009 0.0016,-0.004 0.0031,-0.005 0.0047,-0.009 0.0032,-0.002 0.0093,-0.004 0.01394,-0.005 0.0047,-0.002 0.0093,-0.004 0.01859,-0.005 0.0047,0 0.01394,-0.002 0.01859,-0.002 0.0093,0 0.01394,-0.002 0.02325,-0.002 0.0047,0 0.01394,0 0.01859,0 0.02789,0 0.06375,0.004 0.102817,0.009 z m 1.417803,0.91806 c -0.04649,0 -0.09258,-0.004 -0.135378,-0.0139 -0.128404,-0.0233 -0.229354,-0.0865 -0.23959,-0.19122 -0.0031,-0.0325 -0.0047,-0.0604 -0.0047,-0.0856 -4.7e-4,-0.009 -4.7e-4,-0.0139 -7.05e-4,-0.0233 -4.7e-4,-0.0139 -7.05e-4,-0.0279 -4.7e-4,-0.0419 0,-0.005 4.7e-4,-0.0139 7.05e-4,-0.0186 7.05e-4,-0.009 0.0016,-0.0186 0.0024,-0.0279 7.06e-4,-0.005 7.06e-4,-0.009 0.0016,-0.0139 7.05e-4,-0.005 0.0024,-0.0139 0.0047,-0.0186 7.05e-4,-0.002 0.0016,-0.005 0.0024,-0.005 0.0047,-0.0139 0.0093,-0.0186 0.01394,-0.0186 7.05e-4,0 0.0016,0 0.0024,0 7.05e-4,0 0.0024,0 0.0031,0 0.0016,0 0.0032,0 0.0032,0 0.0498,-0.0139 0.100485,-0.0233 0.150729,-0.0279 0.01859,-0.002 0.03254,-0.002 0.04933,-0.003 0.03254,-0.002 0.06793,-0.005 0.100958,-0.004 0.01394,0 0.0279,0.002 0.04184,0.002 0.03254,0.002 0.06375,0.005 0.09444,0.009 0.01394,0.002 0.0279,0.005 0.04184,0.009 0.03254,0.005 0.06375,0.0139 0.09258,0.0233 0.0093,0.002 0.0186,0.005 0.02325,0.009 0.03719,0.0139 0.06745,0.0279 0.0949,0.0465 0.0047,0.004 0.0093,0.009 0.01859,0.0139 0.01859,0.0139 0.03719,0.0279 0.0498,0.0419 0.0047,0.005 0.0093,0.0139 0.01394,0.0186 0.0093,0.0139 0.0186,0.0326 0.0186,0.0474 0.0016,0.009 0.0047,0.0139 0.0047,0.0233 0.0016,0.0233 -0.0016,0.0484 -0.01394,0.074 -0.04184,0.0842 -0.163289,0.14049 -0.299605,0.16374 -0.04649,0.009 -0.09257,0.009 -0.139098,0.009 z m 15.752478,-2.19373 c -0.01395,-0.005 -0.02324,-0.009 -0.03254,-0.0139 -0.02324,-0.009 -0.04649,-0.0186 -0.06517,-0.0233 -0.01395,-0.004 -0.02325,-0.005 -0.03254,-0.009 -0.0186,-0.005 -0.03254,-0.009 -0.04649,-0.0139 -0.0093,-0.002 -0.0186,-0.004 -0.02789,-0.005 -0.01395,-0.002 -0.02324,-0.004 -0.03254,-0.004 -0.0039,0 -0.0093,-0.002 -0.01395,-0.002 -0.0024,0 -0.0032,0 -0.0047,0 -0.01395,0 -0.0279,0.003 -0.03719,0.009 0,0 -3.76e-4,0 -3.76e-4,0 -0.0093,0.005 -0.01395,0.0139 -0.01395,0.0279 -3.76e-4,0.003 -3.76e-4,0.005 0,0.009 3.76e-4,0.009 0.0024,0.0233 0.0093,0.0372 8e-4,0.003 8e-4,0.005 0.0024,0.009 0.0047,0.0186 0.01395,0.0372 0.0279,0.0567 0.0024,0.005 0.0047,0.009 0.0093,0.0139 0.0093,0.0186 0.02324,0.0372 0.03254,0.0563 0.0039,0.005 0.0047,0.009 0.0093,0.0186 0.01395,0.0233 0.03254,0.0507 0.05303,0.0782 0.0032,0.005 0.0093,0.009 0.0093,0.0139 0.0186,0.0233 0.03719,0.0512 0.0554,0.0777 0.02325,0.0372 0.05114,0.0716 0.07817,0.10887 0.10188,0.1433 0.264247,0.21122 0.431255,0.26611 v 1.37487 c -0.02325,0.0186 -0.04649,0.0372 -0.0684,0.0567 -0.02789,0.0233 -0.06005,0.0474 -0.08979,0.0707 -0.02325,0.0186 -0.04933,0.0372 -0.07447,0.0562 -0.03254,0.0233 -0.0628,0.0465 -0.09443,0.0675 -0.02324,0.0186 -0.04886,0.0325 -0.07352,0.0511 -0.03254,0.0233 -0.06517,0.0418 -0.09723,0.0633 -0.02324,0.0139 -0.04744,0.0325 -0.07068,0.0465 -0.03254,0.0186 -0.06745,0.0372 -0.100486,0.0582 -0.02324,0.0139 -0.04184,0.0233 -0.06375,0.0372 -0.03719,0.0186 -0.07257,0.0372 -0.108389,0.054 -0.01395,0.009 -0.03254,0.0186 -0.04791,0.0233 -0.05027,0.0233 -0.09863,0.0418 -0.143755,0.0582 -0.0047,0.002 -0.01395,0.003 -0.0186,0.005 -0.03719,0.0139 -0.07533,0.0233 -0.108861,0.0279 -0.01395,0.002 -0.02324,0.002 -0.03719,0.005 -0.02325,0.003 -0.04744,0.005 -0.0684,0.005 -0.03719,0 -0.0684,-0.005 -0.09305,-0.0186 -0.365198,-0.19213 -1.178719,-2.83924 -1.515446,-2.86714 -0.0016,0 -0.0032,0 -0.0047,0 -0.0093,0 -0.01395,0.009 -0.0186,0.0139 -0.0047,0.005 -0.01395,0.005 -0.0186,0.0139 -0.0039,0.009 -0.0032,0.0279 -0.0039,0.0418 -7.53e-4,0.0139 -0.0039,0.0233 -0.0016,0.0418 0.0016,0.0186 0.0093,0.0418 0.01395,0.067 0.0047,0.0233 0.0047,0.0419 0.01395,0.0647 0.0047,0.0279 0.0186,0.0582 0.0279,0.0874 0.0093,0.0279 0.01395,0.0544 0.0279,0.0861 0.0093,0.0326 0.0279,0.0689 0.03719,0.10377 0.01395,0.0372 0.02325,0.0674 0.04184,0.10465 0.01395,0.0372 0.03254,0.0758 0.04744,0.11352 0.0186,0.0419 0.03254,0.08 0.05161,0.12328 0.0186,0.0372 0.03254,0.0791 0.05256,0.11865 0.0186,0.0465 0.04184,0.0907 0.06138,0.13862 0.01395,0.0372 0.03254,0.073 0.05067,0.10934 0.02324,0.0544 0.0498,0.10792 0.07581,0.16329 0.0093,0.0233 0.02324,0.0474 0.03254,0.0711 0.03254,0.0689 0.06517,0.13771 0.09909,0.20704 0.0093,0.0233 0.02325,0.0465 0.03255,0.0694 0.03254,0.0688 0.06745,0.13815 0.101423,0.20654 0.0186,0.0372 0.03254,0.0698 0.05256,0.10515 0.0279,0.0558 0.05587,0.11258 0.08328,0.16653 0.0093,0.0139 0.01395,0.0326 0.02325,0.0465 0.213066,0.4215 0.404739,0.78656 0.497179,0.9632 0.0186,0.0372 0.03719,0.0679 0.05957,0.094 0.0047,0.009 0.01395,0.0139 0.0186,0.0186 0.01395,0.0139 0.0279,0.0326 0.04184,0.0419 0.0093,0.005 0.0186,0.009 0.02789,0.0139 0.01395,0.009 0.02325,0.0139 0.03719,0.0186 0.0093,0.003 0.0186,0.003 0.0279,0.005 0.01395,0.002 0.02325,0.005 0.03719,0.005 3.76e-4,0 8e-4,0 0.0016,0 0.0047,0 0.0093,-0.002 0.01395,-0.002 0.0186,0 0.04184,-0.004 0.06004,-0.009 0.0093,-0.002 0.0186,-0.005 0.0279,-0.009 0.0186,-0.005 0.03254,-0.009 0.0498,-0.0186 0.0093,-0.005 0.0186,-0.009 0.03254,-0.0139 0.0186,-0.009 0.03254,-0.0186 0.04933,-0.0279 0.0093,-0.005 0.02324,-0.0139 0.03254,-0.0186 0.02324,-0.0139 0.04184,-0.0279 0.06517,-0.0372 0.0186,-0.0139 0.04184,-0.0233 0.06005,-0.0372 0.0093,-0.005 0.0186,-0.009 0.0279,-0.0186 0.02789,-0.0139 0.05445,-0.0279 0.08141,-0.0419 0.0047,-0.002 0.0093,-0.004 0.0186,-0.005 0.02324,-0.009 0.04184,-0.0186 0.06469,-0.0233 0.0093,-0.002 0.0186,-0.004 0.0279,-0.005 0.0186,-0.004 0.03719,-0.005 0.0535,-0.009 0.0093,0 0.0186,0 0.0279,0 0.0186,0 0.04184,0.005 0.06328,0.009 0.0093,0.002 0.0186,0.005 0.0279,0.009 0.0279,0.0139 0.05863,0.0279 0.08792,0.053 0.393116,0.33682 -0.982303,1.88046 -1.291119,2.55392 -0.308903,0.67344 0.393108,2.41365 -0.252616,2.80656 -0.12095,0.074 -0.223303,0.18097 -0.312622,0.31217 -0.118634,0.17492 -0.214005,0.3931 -0.29914,0.63163 -0.04184,0.11957 -0.08234,0.24331 -0.121415,0.3703 -0.117238,0.38008 -0.225635,0.78106 -0.37032,1.12769 -0.02325,0.0577 -0.04933,0.11399 -0.07581,0.16841 -0.03254,0.0628 -0.06422,0.12236 -0.09909,0.17958 -0.0093,0.0186 -0.02324,0.0326 -0.03254,0.0516 -0.02789,0.0372 -0.05209,0.0763 -0.07955,0.11211 -0.01395,0.0186 -0.0279,0.0325 -0.04184,0.0511 -0.0279,0.0372 -0.06052,0.0693 -0.09164,0.10144 -0.01395,0.0139 -0.02325,0.0233 -0.03719,0.0372 -0.04184,0.0418 -0.08792,0.0809 -0.133053,0.11585 -0.0093,0.005 -0.0186,0.0139 -0.0279,0.0186 -0.03719,0.0279 -0.07628,0.0535 -0.115379,0.0758 -0.01395,0.009 -0.03254,0.0186 -0.04791,0.0279 -0.03254,0.0186 -0.06698,0.0325 -0.100951,0.047 -0.01395,0.005 -0.03254,0.0139 -0.04886,0.0186 -0.03719,0.0139 -0.07817,0.0233 -0.117231,0.0325 -0.0093,0.002 -0.0186,0.005 -0.03254,0.009 -0.04933,0.009 -0.09863,0.0139 -0.147474,0.0139 -0.0093,0 -0.0186,-0.002 -0.03254,-0.002 -0.04649,0 -0.09164,-0.005 -0.136308,-0.0139 -0.01394,-0.003 -0.0279,-0.005 -0.04184,-0.009 -0.05256,-0.0139 -0.104679,-0.0325 -0.154455,-0.0577 -0.0047,-0.003 -0.0093,-0.009 -0.0186,-0.009 -0.04649,-0.0233 -0.08792,-0.054 -0.129328,-0.0879 -0.01394,-0.009 -0.02325,-0.0186 -0.03719,-0.0326 -0.04649,-0.0419 -0.09026,-0.0874 -0.131194,-0.1419 -0.505321,-0.67343 -0.842046,-3.22771 -0.505321,-3.92912 0.336825,-0.70174 -0.673445,-1.23493 -0.529138,-2.24512 0.01394,-0.0865 0.01859,-0.16375 0.02325,-0.23724 7.05e-4,-0.0186 0.0016,-0.0326 0.0024,-0.0516 0.0016,-0.0693 7.05e-4,-0.13492 -0.0047,-0.1926 -7.05e-4,-0.005 -0.0024,-0.009 -0.0031,-0.0186 -0.0047,-0.0521 -0.01859,-0.0986 -0.03254,-0.14189 -0.0039,-0.009 -0.0047,-0.0233 -0.0093,-0.0325 -0.0186,-0.0418 -0.03719,-0.0833 -0.0628,-0.1177 -0.0047,-0.005 -0.0093,-0.009 -0.01394,-0.0139 -0.02325,-0.0279 -0.05114,-0.054 -0.08142,-0.0758 -0.0093,-0.005 -0.01394,-0.009 -0.02325,-0.0186 -0.03719,-0.0233 -0.07628,-0.0418 -0.120956,-0.0567 -0.0093,-0.003 -0.0186,-0.005 -0.0279,-0.009 -0.04184,-0.0139 -0.08514,-0.0233 -0.133053,-0.0279 -0.0093,-0.002 -0.01859,-0.003 -0.03254,-0.005 -0.05579,-0.005 -0.116302,-0.009 -0.180972,-0.009 -0.0047,0 -0.0093,0 -0.01394,0 -0.0093,0 -0.01859,0 -0.02325,0 -0.08048,0 -0.166544,0.005 -0.260054,0.0139 -0.0093,0 -0.02325,0.002 -0.03254,0.003 -0.09956,0.009 -0.204233,0.0186 -0.31821,0.0372 -0.06091,0.009 -0.120956,0.009 -0.180042,0.009 -0.02789,0 -0.05492,-0.004 -0.08281,-0.005 -0.03254,-0.003 -0.07029,-0.005 -0.104677,-0.009 -0.0279,-0.005 -0.05492,-0.0139 -0.08187,-0.0186 -0.03255,-0.009 -0.06651,-0.0139 -0.09909,-0.0279 -0.0279,-0.009 -0.05303,-0.0186 -0.08002,-0.0325 -0.03254,-0.0139 -0.0628,-0.0279 -0.09351,-0.0418 -0.02789,-0.0139 -0.05161,-0.0279 -0.07722,-0.0419 -0.0279,-0.0186 -0.06005,-0.0372 -0.08885,-0.0554 -0.02325,-0.0186 -0.0498,-0.0372 -0.07399,-0.0545 -0.0279,-0.0233 -0.05674,-0.0465 -0.08421,-0.0684 -0.02325,-0.0186 -0.04696,-0.0419 -0.07029,-0.0647 -0.0279,-0.0279 -0.05303,-0.0526 -0.07908,-0.0805 -0.02325,-0.0233 -0.04184,-0.0484 -0.06556,-0.074 -0.02325,-0.0279 -0.0498,-0.0605 -0.07399,-0.0921 -0.01859,-0.0279 -0.04184,-0.0549 -0.06138,-0.0828 -0.02325,-0.0326 -0.04649,-0.0675 -0.06745,-0.10236 -0.01859,-0.0279 -0.03719,-0.06 -0.05626,-0.0917 -0.02325,-0.0372 -0.04184,-0.0749 -0.06186,-0.11302 -0.0186,-0.0326 -0.03254,-0.0642 -0.05027,-0.0977 -0.0186,-0.0419 -0.03719,-0.0814 -0.05626,-0.1233 -0.01394,-0.0325 -0.03254,-0.0684 -0.04649,-0.10374 -0.01859,-0.0419 -0.03254,-0.0884 -0.0498,-0.13306 -0.01394,-0.0372 -0.02789,-0.0707 -0.03719,-0.10746 -0.01394,-0.0474 -0.0279,-0.0967 -0.04184,-0.1456 -0.0093,-0.0372 -0.02325,-0.0716 -0.03254,-0.10887 -0.01394,-0.0516 -0.02325,-0.10515 -0.03719,-0.15816 -0.0093,-0.0372 -0.01859,-0.0707 -0.02325,-0.10748 -0.01394,-0.06 -0.02325,-0.12095 -0.03254,-0.18238 -0.0047,-0.0325 -0.0093,-0.0614 -0.01394,-0.093 -0.01394,-0.093 -0.02325,-0.18793 -0.03254,-0.28377 -0.125608,-1.57166 1.59221,-3.30449 2.342796,-3.45212 0.08374,-0.0186 0.161893,-0.0279 0.238652,-0.0325 0.02325,-0.002 0.04184,-0.002 0.06375,-0.004 0.05492,-0.002 0.107932,0 0.160034,0.002 0.0279,0.002 0.05161,0.002 0.0777,0.005 0.05863,0.005 0.115836,0.0186 0.172597,0.0325 0.01394,0.004 0.02789,0.005 0.04649,0.009 0.07116,0.0186 0.14235,0.0465 0.214925,0.0782 0.01859,0.009 0.04185,0.0186 0.06052,0.0279 0.05303,0.0279 0.107002,0.0535 0.162366,0.0861 0.0279,0.0139 0.05492,0.0325 0.08281,0.0516 0.05114,0.0326 0.102817,0.067 0.156315,0.10421 0.02789,0.0233 0.05957,0.0419 0.08978,0.0647 0.05815,0.0418 0.118169,0.0893 0.180042,0.13818 0.02789,0.0233 0.05492,0.0418 0.08467,0.066 0.08978,0.0721 0.183297,0.14933 0.283317,0.234 0.0016,0.002 0.0031,0.002 0.0047,0.004 4.94e-4,0 4.94e-4,0 7.06e-4,0 0.07029,0.0591 0.136774,0.10701 0.202374,0.15026 0.01859,0.0139 0.03719,0.0233 0.05492,0.0326 0.05114,0.0325 0.100486,0.0572 0.148867,0.0795 0.01394,0.005 0.0279,0.0139 0.04185,0.0186 0.06004,0.0233 0.117694,0.0419 0.174454,0.0549 0.01395,0.003 0.02325,0.004 0.03719,0.005 0.04649,0.009 0.08932,0.0139 0.132588,0.0139 0.0093,0 0.0186,0.002 0.02325,0.002 0.0093,0 0.01395,-0.002 0.02324,-0.002 0.04184,0 0.08001,-0.005 0.11909,-0.009 0.0093,-0.002 0.0186,-0.002 0.0279,-0.004 0.04838,-0.009 0.09583,-0.0233 0.142352,-0.0372 0.01395,-0.004 0.02325,-0.009 0.03719,-0.0139 0.03254,-0.0139 0.06982,-0.0279 0.104212,-0.0418 0.01395,-0.009 0.0279,-0.0139 0.04649,-0.0233 0.03254,-0.0186 0.06793,-0.0325 0.10188,-0.053 0.01395,-0.005 0.02325,-0.0139 0.03719,-0.0186 0.04649,-0.0233 0.08978,-0.0521 0.134449,-0.0796 0.01395,-0.009 0.0279,-0.0186 0.04184,-0.0279 0.04184,-0.0279 0.08281,-0.0512 0.124219,-0.0772 0.03254,-0.0233 0.06745,-0.0419 0.101881,-0.0623 0.01395,-0.009 0.03254,-0.0186 0.04744,-0.0279 0.04696,-0.0279 0.0949,-0.0549 0.143281,-0.08 0.645591,-0.33682 -0.168403,-0.477 -0.561472,-0.48652 -0.294483,-0.005 -0.352629,-0.36148 -0.469631,-0.62099 -0.03719,-0.0865 -0.08421,-0.16282 -0.147474,-0.21167 -7.52e-4,0 -7.99e-4,0 -0.0016,0 -0.01395,-0.0139 -0.0279,-0.0186 -0.04184,-0.0279 -0.0047,-0.002 -0.0093,-0.002 -0.01395,-0.004 -0.0093,-0.002 -0.01395,-0.005 -0.02325,-0.005 -3.76e-4,0 -7.99e-4,0 -0.0016,0 -8e-4,0 -0.0016,0 -0.0024,0 -0.01395,0 -0.02325,0.009 -0.03254,0.0186 -7.99e-4,0.002 -0.0024,0.002 -0.0032,0.004 -0.0093,0.0139 -0.01395,0.0325 -0.0186,0.0512 -7.99e-4,0.004 -0.0024,0.009 -0.0032,0.0139 -0.0047,0.0233 -0.0093,0.0465 -0.01395,0.0721 -0.0039,0.0325 -0.0093,0.0633 -0.01395,0.0968 -3.76e-4,0.002 -3.76e-4,0.003 -7.52e-4,0.005 -0.0039,0.0279 -0.0093,0.0586 -0.01395,0.087 -7.99e-4,0.005 -0.0016,0.009 -0.0032,0.0139 -0.0047,0.0279 -0.01395,0.0554 -0.02789,0.0805 -0.0016,0.005 -0.0039,0.009 -0.0047,0.0139 -0.0093,0.0233 -0.02325,0.0465 -0.04184,0.0652 -0.0024,0.003 -0.0047,0.005 -0.0093,0.009 -0.0186,0.0186 -0.04184,0.0325 -0.06981,0.0418 -0.01394,0.005 -0.0279,0.005 -0.04184,0.004 -0.0047,0 -0.01394,-0.002 -0.01859,-0.005 -0.0093,-0.002 -0.01394,-0.005 -0.02325,-0.009 -0.0047,-0.004 -0.0093,-0.009 -0.01859,-0.0139 -0.0047,-0.005 -0.01394,-0.0139 -0.0186,-0.0186 -0.0047,-0.005 -0.0093,-0.0139 -0.01394,-0.0233 -0.0047,-0.009 -0.0093,-0.0186 -0.01859,-0.0279 -0.0047,-0.009 -0.0093,-0.0186 -0.01394,-0.0279 -0.0047,-0.009 -0.0093,-0.0233 -0.01394,-0.0372 -0.0047,-0.0139 -0.0093,-0.0233 -0.01394,-0.0372 -0.0047,-0.0139 -0.01394,-0.0279 -0.0186,-0.0465 -0.0093,-0.0186 -0.01394,-0.0418 -0.02325,-0.0638 -0.0047,-0.0139 -0.01394,-0.0325 -0.01859,-0.0493 -0.0047,-0.0186 -0.01394,-0.0325 -0.01859,-0.0507 -0.0047,-0.0139 -0.01394,-0.0325 -0.0186,-0.047 -0.0093,-0.0186 -0.01394,-0.0326 -0.02325,-0.0521 -0.0093,-0.0139 -0.01394,-0.0326 -0.02325,-0.0484 -0.0093,-0.0186 -0.01859,-0.0372 -0.0279,-0.0535 -0.0093,-0.0139 -0.01859,-0.0326 -0.0279,-0.0484 -0.0093,-0.0186 -0.02325,-0.0372 -0.03719,-0.0549 -0.0093,-0.0139 -0.01859,-0.0325 -0.03254,-0.0465 -0.01394,-0.0186 -0.02789,-0.0372 -0.04184,-0.0544 -0.01394,-0.0139 -0.02325,-0.0279 -0.0372,-0.0465 -0.01859,-0.0186 -0.03719,-0.0372 -0.05351,-0.053 -0.01394,-0.0139 -0.02789,-0.0279 -0.04184,-0.0418 -0.01859,-0.0186 -0.04184,-0.0326 -0.06651,-0.0516 -0.01394,-0.0139 -0.03254,-0.0233 -0.04791,-0.0372 -0.0279,-0.0186 -0.05721,-0.0325 -0.08699,-0.0512 -0.01394,-0.009 -0.0279,-0.0186 -0.04649,-0.0279 -0.04791,-0.0233 -0.09956,-0.0465 -0.154914,-0.0665 -0.02325,-0.009 -0.04184,-0.0139 -0.06004,-0.0186 -0.0047,-0.002 -0.0093,-0.002 -0.01394,-0.002 -0.0093,-0.002 -0.0186,-0.004 -0.02325,-0.004 -7.05e-4,0 -0.0024,0 -0.0031,0 -7.06e-4,0 -4.94e-4,0 -0.0016,0 -0.0093,0 -0.01394,0.005 -0.01394,0.0139 0,0 -4.94e-4,0 -4.94e-4,0.002 0.0031,0.009 0.01394,0.0233 0.0279,0.0372 0.0024,0.002 0.0047,0.005 0.0047,0.009 0.01394,0.0139 0.03719,0.0372 0.05957,0.0563 0.0047,0.004 0.0093,0.009 0.01394,0.0139 0.0279,0.0233 0.05492,0.0474 0.08746,0.0745 7.06e-4,0 0.0024,0.002 0.0031,0.002 0.0372,0.0326 0.07817,0.0647 0.121424,0.10002 0.03719,0.0279 0.0721,0.0591 0.108862,0.0898 0.0093,0.009 0.01859,0.0139 0.02789,0.0233 0.03719,0.0326 0.07909,0.0665 0.118169,0.10049 0.0047,0.005 0.01394,0.009 0.01859,0.0186 0.04184,0.0372 0.08235,0.0721 0.120956,0.10839 0.0279,0.0233 0.04744,0.0484 0.06375,0.0712 0.0047,0.009 0.0093,0.0139 0.01394,0.0233 0.0093,0.0139 0.0186,0.0279 0.02325,0.0419 0.0032,0.009 0.0047,0.0139 0.0047,0.0233 0.0024,0.0139 0.0047,0.0233 0.0039,0.0325 -4.93e-4,0.005 -7.05e-4,0.0139 -0.0023,0.0186 -0.0024,0.009 -0.0047,0.0186 -0.0093,0.0279 -0.0031,0.005 -0.0047,0.009 -0.0093,0.0186 -0.0047,0.009 -0.01394,0.0186 -0.02325,0.0233 -0.0047,0.004 -0.0093,0.009 -0.01394,0.0139 -0.01394,0.009 -0.02789,0.0186 -0.04649,0.0233 -0.0031,0 -0.0047,0.003 -0.0093,0.004 -0.01859,0.009 -0.04184,0.0139 -0.06517,0.0186 -0.0047,0 -0.01394,0.002 -0.02325,0.002 -0.01859,0.002 -0.03254,0.004 -0.05122,0.004 -0.0093,0 -0.01394,0 -0.02325,0 -0.03719,0 -0.07115,-0.004 -0.107924,-0.0139 -0.0016,0 -0.0024,0 -0.0039,0 -0.03719,-0.009 -0.07399,-0.0233 -0.109327,-0.0372 -0.0047,-0.003 -0.01394,-0.005 -0.01859,-0.009 -0.03254,-0.0186 -0.06698,-0.0372 -0.09676,-0.0637 -0.0047,-0.005 -0.0093,-0.009 -0.01394,-0.0139 -0.0279,-0.0279 -0.05863,-0.0591 -0.08048,-0.0968 -0.0279,-0.0419 -0.06005,-0.0837 -0.09676,-0.12189 -0.0093,-0.009 -0.0186,-0.0186 -0.0279,-0.0279 -0.03719,-0.0372 -0.07956,-0.0698 -0.124684,-0.0991 -0.0032,-0.002 -0.0047,-0.003 -0.0093,-0.005 -0.04184,-0.0279 -0.09072,-0.0511 -0.138641,-0.0726 -0.01394,-0.005 -0.02325,-0.009 -0.03719,-0.0139 -0.05114,-0.0186 -0.10281,-0.0372 -0.155378,-0.0503 -0.0047,0 -0.0093,-0.002 -0.01394,-0.003 -0.04838,-0.009 -0.09676,-0.0186 -0.143745,-0.0233 -0.01394,0 -0.02325,-0.002 -0.03719,-0.002 -0.0093,0 -0.01859,-0.002 -0.03254,-0.002 -0.04184,0 -0.08001,0.003 -0.118168,0.009 -0.0047,0 -0.0093,0.002 -0.01394,0.004 -0.04184,0.009 -0.08094,0.0186 -0.117231,0.0372 -0.0093,0.005 -0.02325,0.009 -0.03254,0.0139 -0.03719,0.0186 -0.07399,0.0465 -0.102344,0.0758 -0.01394,0.0186 -0.03719,0.0418 -0.06186,0.0703 -0.01394,0.0186 -0.03255,0.0372 -0.05303,0.0605 -0.0093,0.009 -0.01859,0.0186 -0.02325,0.0279 -0.02789,0.0279 -0.05445,0.0609 -0.08421,0.094 -0.0047,0.009 -0.01394,0.0139 -0.02325,0.0233 -0.02325,0.0279 -0.05027,0.0545 -0.07675,0.0828 -0.0093,0.009 -0.0186,0.0186 -0.02789,0.0325 -0.03254,0.0372 -0.07068,0.0735 -0.107933,0.11072 -0.0016,0.002 -0.0031,0.003 -0.0047,0.005 -0.03719,0.0372 -0.0721,0.0702 -0.109326,0.10468 -0.0093,0.009 -0.02325,0.0186 -0.03254,0.0279 -0.03254,0.0279 -0.06375,0.0567 -0.0963,0.0837 -0.0093,0.009 -0.01859,0.0139 -0.02789,0.0233 -0.04185,0.0325 -0.08002,0.0637 -0.119565,0.0921 -0.0093,0.005 -0.01859,0.0139 -0.0279,0.0186 -0.03254,0.0233 -0.06375,0.0418 -0.09537,0.0609 -0.0093,0.005 -0.02325,0.0139 -0.03254,0.0186 -0.04184,0.0233 -0.07909,0.0419 -0.11724,0.0558 -7.05e-4,0 -0.0024,0 -0.0031,0 -0.03719,0.0139 -0.0721,0.0233 -0.106539,0.0279 -0.0093,0.002 -0.01859,0.002 -0.0279,0.003 -0.03254,0.003 -0.06698,0.004 -0.09816,-0.003 -7.06e-4,0 -0.0016,0 -0.0016,0 -0.03254,-0.009 -0.06186,-0.0233 -0.08979,-0.0418 -0.0039,-0.003 -0.0093,-0.005 -0.01394,-0.009 -0.02789,-0.0186 -0.05114,-0.0474 -0.07352,-0.0805 -0.0047,-0.005 -0.0093,-0.0139 -0.01394,-0.0186 -0.02325,-0.0372 -0.04184,-0.0772 -0.05673,-0.12701 -0.0024,-0.009 -0.0047,-0.0186 -0.0047,-0.0233 -0.01394,-0.0549 -0.0279,-0.11583 -0.04184,-0.18748 -0.168402,-1.26283 0.982265,-0.6173 1.094664,-1.06637 0.0721,-0.28845 -0.155851,-0.52988 -0.194927,-0.68118 0.109327,-0.0233 0.212137,-0.0805 0.32705,-0.14932 0.04184,-0.0279 0.08978,-0.0535 0.139097,-0.081 0.188883,-0.10327 0.240986,-0.23586 0.250293,-0.33588 0.01394,-0.0139 0.02325,-0.0326 0.03719,-0.0479 0.0093,-0.0139 0.02325,-0.0279 0.03254,-0.0465 0.01394,-0.0186 0.0279,-0.0419 0.04649,-0.0591 0.01394,-0.0186 0.02789,-0.0372 0.04184,-0.053 0.0047,-0.009 0.01394,-0.0186 0.02325,-0.0279 0.01859,-0.0233 0.03254,-0.0419 0.04838,-0.0586 0.0032,-0.003 0.0047,-0.005 0.0093,-0.009 0.01859,-0.0186 0.03719,-0.0372 0.05351,-0.0554 0.0047,-0.004 0.0093,-0.009 0.01394,-0.0139 0.01394,-0.009 0.02325,-0.0186 0.03719,-0.0279 0.0047,-0.004 0.01394,-0.005 0.01859,-0.009 0.0093,-0.005 0.02325,-0.009 0.03254,-0.0139 0.0047,-0.002 0.01394,-0.003 0.01859,-0.004 0.0093,0 0.01394,0 0.02325,0.002 0.01394,0.002 0.02789,0.009 0.04184,0.0139 0.0047,0.004 0.01394,0.005 0.0186,0.009 0.01859,0.0139 0.03719,0.0372 0.05626,0.0698 0.01859,0.0326 0.03719,0.0577 0.06186,0.0814 0.0093,0.005 0.01394,0.0139 0.02325,0.0186 0.01859,0.0139 0.03719,0.0279 0.05445,0.0372 0.0093,0.005 0.01859,0.009 0.0279,0.0139 0.02325,0.009 0.04649,0.0186 0.06887,0.0233 0.0047,0.002 0.01394,0.004 0.01859,0.005 0.03254,0.005 0.06375,0.009 0.09816,0.009 0.0016,0 0.0031,0 0.0047,0 0.0047,0 0.01394,-0.002 0.0186,-0.002 0.0279,0 0.05863,-0.003 0.08886,-0.009 0.0093,-0.002 0.02325,-0.003 0.03254,-0.005 0.03254,-0.005 0.06327,-0.0139 0.09584,-0.0233 0.0093,-0.002 0.01394,-0.003 0.02325,-0.005 0.04184,-0.009 0.08095,-0.0233 0.121424,-0.0372 0.0093,-0.004 0.02325,-0.009 0.03254,-0.0139 0.03254,-0.0139 0.06375,-0.0233 0.09537,-0.0372 0.01394,-0.005 0.02325,-0.009 0.03719,-0.0139 0.03719,-0.0139 0.07116,-0.0326 0.106529,-0.047 0.0047,-0.002 0.0093,-0.004 0.01394,-0.005 0.04184,-0.0186 0.08281,-0.0372 0.122825,-0.0586 0.01394,-0.005 0.02325,-0.0139 0.03719,-0.0186 0.03254,-0.0186 0.06698,-0.0326 0.09955,-0.0488 0.04184,-0.0186 0.08094,-0.0419 0.118627,-0.0582 0.03719,-0.0186 0.06469,-0.0465 0.08793,-0.074 0.0047,-0.009 0.0093,-0.0139 0.01859,-0.0233 0.01859,-0.0279 0.03254,-0.0619 0.04184,-0.0982 7.05e-4,-0.003 0.0016,-0.005 0.0024,-0.009 0.0093,-0.0372 0.0093,-0.0809 0.0047,-0.12419 -7.05e-4,-0.009 -0.0016,-0.0233 -0.0032,-0.0326 -0.004,-0.0372 -0.0093,-0.0772 -0.02325,-0.11538 -0.0016,-0.005 -0.0024,-0.009 -0.0039,-0.0139 -0.01394,-0.0419 -0.03254,-0.0828 -0.05075,-0.12189 -0.0047,-0.009 -0.0093,-0.0186 -0.01394,-0.0279 -0.01859,-0.0326 -0.03719,-0.0628 -0.06186,-0.0898 -0.0039,-0.005 -0.0093,-0.009 -0.01394,-0.0139 -0.0279,-0.0279 -0.05587,-0.0526 -0.08653,-0.0707 -0.0093,-0.004 -0.01394,-0.009 -0.02325,-0.009 -0.0279,-0.0139 -0.05398,-0.0186 -0.08188,-0.0233 -0.0047,0 -0.0093,-0.004 -0.01394,-0.004 -0.0024,0 -0.0047,0 -0.0047,0.002 -0.01394,0 -0.02789,0.005 -0.04649,0.009 -0.0093,0.003 -0.02325,0.004 -0.03254,0.009 -0.01394,0.009 -0.03254,0.0186 -0.04697,0.0326 -0.0093,0.009 -0.02325,0.0139 -0.03254,0.0233 -0.01859,0.0186 -0.03254,0.0419 -0.05067,0.0628 -0.0093,0.0139 -0.01859,0.0186 -0.0279,0.0326 -0.02325,0.0419 -0.04933,0.0865 -0.07257,0.1419 -0.02325,0.0544 -0.04184,0.10374 -0.06139,0.14793 -0.01859,0.0419 -0.03254,0.0814 -0.04791,0.11632 -0.0047,0.009 -0.0093,0.0186 -0.01394,0.0279 -0.0093,0.0233 -0.01859,0.0465 -0.02789,0.066 -0.0047,0.009 -0.0093,0.0186 -0.01394,0.0279 -0.0093,0.0139 -0.01394,0.0326 -0.01859,0.0419 -0.0047,0.009 -0.0093,0.0139 -0.01394,0.0233 -0.0047,0.009 -0.0093,0.0233 -0.01394,0.0279 -0.0039,0.005 -0.0093,0.009 -0.0093,0.0139 -0.0047,0.005 -0.0093,0.0139 -0.01394,0.0186 -0.0039,0.004 -0.0093,0.005 -0.0093,0.009 -0.0047,0.003 -0.0093,0.005 -0.01394,0.009 -0.0039,0.002 -0.0093,0.002 -0.01394,0.003 -0.0047,0 -0.0093,0.002 -0.01394,0.002 -0.0047,0 -0.01394,-0.002 -0.01859,-0.003 -0.0047,0 -0.0093,-0.002 -0.01394,-0.004 -0.0047,-0.002 -0.01394,-0.005 -0.02325,-0.009 -0.0047,-0.003 -0.01394,-0.005 -0.01859,-0.009 -0.0093,-0.005 -0.02325,-0.009 -0.03719,-0.0186 -0.01394,-0.005 -0.0279,-0.0139 -0.04184,-0.0186 -0.0093,-0.004 -0.01859,-0.009 -0.02789,-0.0139 -0.01394,-0.005 -0.0279,-0.009 -0.04649,-0.0186 -0.0093,-0.004 -0.02325,-0.009 -0.03254,-0.0139 -0.01859,-0.005 -0.0372,-0.009 -0.05627,-0.0186 -0.01394,-0.004 -0.02325,-0.009 -0.03719,-0.009 -0.02325,-0.005 -0.04933,-0.009 -0.07494,-0.0186 -0.01394,-0.003 -0.0279,-0.005 -0.04184,-0.009 -0.04184,-0.009 -0.08746,-0.0139 -0.137238,-0.0186 -0.245636,-0.0279 -0.403345,-0.17307 -0.44707,-0.3652 -0.0093,-0.0372 -0.01394,-0.0786 -0.01394,-0.12003 7.05e-4,-0.0419 0.0047,-0.0842 0.01859,-0.12746 0.05209,-0.21632 0.229354,-0.44755 0.557421,-0.61876 0.13166,-0.0684 0.286581,-0.12699 0.468575,-0.17166 0.181429,-0.0465 0.388916,-0.074 0.623858,-0.0842 0.153055,-0.005 0.294019,-0.009 0.429397,-0.009 0.04791,0 0.09536,0 0.141423,0 0.04184,0 0.08095,0 0.11956,0.002 0.05351,0 0.105143,0.003 0.155386,0.005 0.03719,0.002 0.07163,0.003 0.105599,0.005 0.05028,0.003 0.09816,0.005 0.14515,0.009 0.02789,0.002 0.06052,0.004 0.08932,0.005 0.0498,0.004 0.09537,0.009 0.14143,0.0139 0.0032,0 0.0047,0 0.0093,0 1.361968,0.6871 2.584751,1.61021 3.61442,2.7166 l -3.76e-4,3.86819 c -0.0884,-0.0279 -0.182367,-0.0596 -0.291229,-0.10885 -0.04791,-0.0186 -0.08839,-0.0372 -0.125606,-0.0512 z m -15.68307,-5.84376 c 0.01394,-0.003 0.0279,-0.005 0.04184,-0.009 0.0093,-0.002 0.02325,-0.004 0.03254,-0.005 0.03254,-0.005 0.06186,-0.009 0.09212,-0.0139 0.01394,-0.002 0.0279,-0.004 0.04184,-0.005 0.0279,-0.003 0.05209,-0.005 0.0777,-0.009 0.01394,0 0.0279,-0.002 0.04649,-0.002 0.01859,0 0.03719,0 0.05674,0 0.03254,0 0.06603,0.004 0.09723,0.009 0.01394,0.002 0.0279,0.003 0.04184,0.005 0.04184,0.009 0.08374,0.0186 0.120959,0.0372 0.220975,0.0981 -0.04185,0.2768 -0.392645,0.47773 -0.301,0.17212 -0.666845,0.36007 -0.849721,0.52696 -0.09164,0.0833 -0.136773,0.16187 -0.105142,0.23026 0.01394,0.0279 0.02789,0.053 0.04649,0.081 0.0047,0.009 0.0093,0.0186 0.01859,0.0279 0.01394,0.0186 0.0279,0.0372 0.04185,0.0591 0.0093,0.009 0.01394,0.0186 0.02325,0.0279 0.01859,0.0186 0.03719,0.0419 0.05445,0.0591 0.0093,0.009 0.01394,0.0139 0.02325,0.0233 0.0279,0.0279 0.05674,0.0526 0.08793,0.0768 0.0032,0.003 0.0047,0.004 0.0093,0.005 0.02789,0.0233 0.05768,0.0419 0.0884,0.0596 0.0093,0.005 0.02325,0.0139 0.03254,0.0186 0.02325,0.0139 0.04933,0.0279 0.07533,0.0372 0.01394,0.005 0.02325,0.009 0.03719,0.0139 0.02789,0.009 0.05579,0.0186 0.08466,0.0233 0.0093,0.003 0.02325,0.005 0.03254,0.009 0.04184,0.009 0.08002,0.0139 0.120956,0.0139 7.05e-4,0 0.0024,0 0.0039,0 0.0039,0 0.0093,-0.002 0.01394,-0.002 0.04184,0 0.0856,-0.005 0.128862,-0.0186 0.01394,-0.003 0.02325,-0.005 0.0372,-0.009 0.04838,-0.0139 0.09676,-0.0326 0.145148,-0.0609 0.0031,-0.002 0.0047,-0.004 0.0093,-0.005 0.04649,-0.0279 0.09072,-0.0619 0.135845,-0.10235 0.01394,-0.009 0.02325,-0.0233 0.03719,-0.0326 0.04791,-0.0475 0.09584,-0.10003 0.14236,-0.16517 0.06233,-0.0865 0.12188,-0.16422 0.1805,-0.23771 0.01394,-0.0186 0.02789,-0.0326 0.04184,-0.0507 0.05768,-0.0698 0.113977,-0.13399 0.168402,-0.18982 0.0047,-0.005 0.01394,-0.0139 0.01859,-0.0186 0.0498,-0.0489 0.0977,-0.0912 0.145614,-0.12793 0.0093,-0.009 0.02325,-0.0186 0.03254,-0.0279 0.04184,-0.0279 0.07955,-0.0493 0.119556,-0.0689 0.150736,0.0465 0.305648,0.0707 0.461034,0.0707 0.04184,0 0.0856,-0.003 0.127,-0.005 0.05351,0.0372 0.107932,0.0828 0.164228,0.14004 0.505271,0.51448 1.291118,1.18829 -0.421028,2.08613 -1.711956,0.8982 -2.75041,2.30128 -2.75041,2.61011 0,0.0186 7.05e-4,0.0418 0.0016,0.0656 4.71e-4,0.009 7.06e-4,0.0186 0.0016,0.0279 7.05e-4,0.0186 0.0016,0.0372 0.0031,0.0549 7.05e-4,0.0139 0.0016,0.0279 0.0024,0.0419 0.0016,0.0186 0.0024,0.0418 0.004,0.0609 0.0016,0.0233 0.0031,0.0465 0.0047,0.067 0.0016,0.0233 0.0031,0.0489 0.0047,0.074 0.0016,0.0233 0.0031,0.0465 0.0047,0.0675 7.05e-4,0.0186 0.0024,0.0372 0.0031,0.053 0.0016,0.0233 0.0024,0.0465 0.004,0.0689 7.05e-4,0.0186 0.0016,0.0372 0.0031,0.053 7.05e-4,0.0233 0.0024,0.0465 0.0031,0.0689 7.05e-4,0.0186 0.0016,0.0326 0.0024,0.0521 7.05e-4,0.0233 0.0016,0.0493 0.0016,0.0735 4.7e-4,0.0139 7.05e-4,0.0279 7.05e-4,0.0419 4.7e-4,0.0326 0,0.0652 -4.7e-4,0.0963 0,0.005 0,0.009 0,0.0139 -7.06e-4,0.0325 -0.0024,0.0684 -0.0047,0.0996 -7.06e-4,0.009 -0.0024,0.0186 -0.0032,0.0279 -0.0016,0.0186 -0.0039,0.0418 -0.0047,0.0586 -0.0016,0.009 -0.0039,0.0186 -0.0047,0.0279 -0.0032,0.0139 -0.0047,0.0279 -0.0093,0.0419 -0.0024,0.009 -0.0047,0.0139 -0.0093,0.0233 -0.0047,0.009 -0.0093,0.0186 -0.01394,0.0279 -0.0039,0.005 -0.0093,0.009 -0.01394,0.0139 -0.0047,0.005 -0.01394,0.009 -0.0186,0.0139 -0.0047,0.002 -0.0093,0.005 -0.01394,0.005 -0.0093,0.002 -0.01859,0 -0.02789,-0.002 -0.0047,0 -0.0093,-0.002 -0.01394,-0.004 -0.01394,-0.005 -0.03254,-0.0139 -0.04791,-0.0326 -0.0279,-0.0233 -0.05027,-0.0572 -0.07068,-0.0926 -0.0047,-0.009 -0.0093,-0.0139 -0.01394,-0.0233 -0.01859,-0.0372 -0.03719,-0.073 -0.05209,-0.11397 -0.004,-0.009 -0.0047,-0.0186 -0.0093,-0.0279 -0.01394,-0.0419 -0.02789,-0.0814 -0.04649,-0.12375 -0.01394,-0.0465 -0.03254,-0.0903 -0.05114,-0.13491 -0.0039,-0.009 -0.0093,-0.0186 -0.01394,-0.0279 -0.0186,-0.0418 -0.0372,-0.0782 -0.05863,-0.11444 -0.0031,-0.005 -0.0047,-0.009 -0.0093,-0.0139 -0.02325,-0.0372 -0.05303,-0.0711 -0.0856,-0.10143 -0.0093,-0.005 -0.01394,-0.0139 -0.02325,-0.0186 -0.03719,-0.0279 -0.07447,-0.054 -0.120959,-0.0712 -0.0024,0 -0.0047,0 -0.0093,-0.002 -0.04649,-0.0139 -0.09816,-0.0233 -0.155842,-0.0233 -0.0093,0 -0.01394,-0.004 -0.02325,-0.004 -0.0093,0 -0.01859,0.002 -0.03254,0.002 -0.01859,0 -0.03254,0.002 -0.05161,0.004 -0.0279,0.003 -0.06005,0.009 -0.09258,0.0139 -0.01859,0.004 -0.03719,0.009 -0.05863,0.0139 -0.03719,0.009 -0.07581,0.0233 -0.116767,0.0325 -0.0186,0.005 -0.03719,0.009 -0.05816,0.0186 -0.0628,0.0233 -0.128859,0.0489 -0.200971,0.0814 -0.0758,0.0326 -0.145613,0.0726 -0.211215,0.11399 -0.02325,0.0139 -0.04184,0.0279 -0.06091,0.0418 -0.04184,0.0279 -0.08327,0.0577 -0.120484,0.0889 -0.02325,0.0186 -0.04184,0.0419 -0.0628,0.06 -0.03254,0.0279 -0.0628,0.0577 -0.09025,0.0884 -0.0186,0.0233 -0.03719,0.0465 -0.05626,0.0693 -0.02325,0.0279 -0.04933,0.0596 -0.07068,0.0903 -0.01859,0.0233 -0.03254,0.0498 -0.04744,0.0753 -0.0186,0.0325 -0.03719,0.0609 -0.05492,0.0921 -0.01394,0.0279 -0.02325,0.0521 -0.03719,0.0786 -0.01394,0.0326 -0.0279,0.0619 -0.04184,0.0926 -0.0093,0.0279 -0.0186,0.053 -0.0279,0.08 -0.0093,0.0325 -0.02325,0.0609 -0.0279,0.0912 -0.0093,0.0279 -0.01394,0.0526 -0.01859,0.0786 -0.0093,0.0279 -0.01394,0.06 -0.0186,0.0893 -0.0047,0.0279 -0.0093,0.0507 -0.0093,0.0758 -0.004,0.0279 -0.0093,0.0567 -0.0093,0.0847 -0.0024,0.0233 -0.0031,0.0479 -0.0039,0.0712 -7.05e-4,0.0279 -0.0016,0.053 -0.0016,0.0782 4.7e-4,0.0233 7.05e-4,0.0419 0.0024,0.0647 0.0016,0.0233 0.0031,0.047 0.0047,0.0693 0.0024,0.0186 0.0047,0.0372 0.0093,0.0567 0.0039,0.0186 0.0093,0.0419 0.01394,0.0586 0.0039,0.0186 0.0093,0.0326 0.01394,0.047 0.0047,0.0186 0.01394,0.0325 0.0186,0.0465 0.0047,0.0139 0.0093,0.0233 0.01859,0.0372 0.0093,0.0139 0.01394,0.0233 0.02325,0.0325 0.0047,0.009 0.01394,0.0139 0.02325,0.0233 0.0093,0.009 0.0186,0.009 0.0279,0.0139 0.0093,0.003 0.01394,0.005 0.02325,0.009 0.0032,0 0.0047,0.003 0.0093,0.003 0.01394,0 0.02325,-0.003 0.03719,-0.009 0.03254,-0.0139 0.06375,-0.0326 0.0977,-0.0572 0.0047,-0.003 0.0093,-0.005 0.01394,-0.009 0.03254,-0.0233 0.06603,-0.0484 0.100022,-0.0763 0.0047,-0.005 0.01394,-0.009 0.02325,-0.0186 0.03254,-0.0279 0.06887,-0.0581 0.103748,-0.0889 0.0279,-0.0233 0.05256,-0.0465 0.07908,-0.0698 0.01394,-0.0139 0.03254,-0.0279 0.04649,-0.0418 0.03719,-0.0325 0.07029,-0.0605 0.104676,-0.0889 0.0047,-0.005 0.01394,-0.009 0.01859,-0.0139 0.03254,-0.0279 0.06698,-0.0521 0.09863,-0.074 0.0047,-0.004 0.01394,-0.009 0.01859,-0.0139 0.03254,-0.0233 0.06328,-0.0372 0.09257,-0.0516 0.0039,-0.002 0.0047,-0.002 0.0093,-0.004 0.0279,-0.009 0.05626,-0.0186 0.08095,-0.0186 0.0024,0 0.0047,0 0.0047,0 0.0093,0 0.0186,0.003 0.03254,0.005 0.0047,0.002 0.0093,0 0.01394,0.003 0.01394,0.005 0.02789,0.0139 0.04184,0.0279 0.196321,0.19634 -0.308903,0.86997 0,0.92613 0.115844,0.0233 0.203769,0.0972 0.27029,0.21261 0.04649,0.0768 0.07909,0.1712 0.105607,0.27772 0.01394,0.053 0.02325,0.10981 0.03254,0.16888 0.01859,0.11771 0.03254,0.24611 0.03719,0.37916 0,0 0,0 0,0 0.0024,0.0418 0.0093,0.073 0.02325,0.10281 0.0032,0.009 0.0093,0.0186 0.01394,0.0233 0.0093,0.0186 0.02325,0.0372 0.03719,0.0512 0.0047,0.005 0.0093,0.0139 0.01859,0.0186 0.04184,0.0325 0.09863,0.0507 0.165156,0.0521 0.0039,0 0.0047,0.002 0.0093,0.002 0.0047,0 0.01394,-0.002 0.02325,-0.002 0.0279,0 0.05209,-0.004 0.08002,-0.009 0.0093,-0.002 0.02325,-0.003 0.03254,-0.005 0.07722,-0.0186 0.160964,-0.0465 0.247961,-0.0842 0.01394,-0.005 0.0279,-0.0139 0.03719,-0.0186 0.03255,-0.0139 0.0647,-0.0325 0.09723,-0.0493 0.01394,-0.009 0.0279,-0.0139 0.03719,-0.0233 0.08792,-0.0498 0.17585,-0.10701 0.259125,-0.16841 0.01394,-0.009 0.02325,-0.0186 0.0372,-0.0279 0.03254,-0.0233 0.06004,-0.0465 0.08839,-0.0707 0.0093,-0.009 0.02325,-0.0186 0.03254,-0.0279 0.03719,-0.0325 0.07446,-0.0665 0.108396,-0.10002 0.02789,-0.0279 0.06793,-0.0507 0.112117,-0.0651 0.01394,-0.005 0.03254,-0.005 0.04933,-0.009 0.03254,-0.005 0.0647,-0.0139 0.101882,-0.0139 0.03719,0 0.07541,0.002 0.115843,0.005 0.01394,0.002 0.0279,0 0.04184,0.003 0.05721,0.009 0.117703,0.0233 0.181438,0.0372 0.01394,0.004 0.03254,0.009 0.04838,0.0139 0.04933,0.0139 0.09909,0.0279 0.151192,0.0484 0.02325,0.009 0.05122,0.0186 0.07675,0.0279 0.04649,0.0186 0.08978,0.0372 0.135378,0.0549 0.02789,0.0139 0.05721,0.0279 0.08653,0.0372 0.04649,0.0186 0.08979,0.0418 0.134913,0.0652 0.0279,0.0139 0.0591,0.0279 0.08885,0.0465 0.04649,0.0233 0.09305,0.0498 0.139105,0.0758 0.0279,0.0139 0.05674,0.0325 0.08466,0.0479 0.05161,0.0279 0.103282,0.0618 0.154455,0.0935 0.02325,0.0139 0.04649,0.0279 0.06651,0.0418 0.0721,0.0465 0.143745,0.094 0.213065,0.14283 0.01394,0.009 0.02325,0.0186 0.03255,0.0233 0.05674,0.0418 0.11258,0.0819 0.166543,0.12327 0.02325,0.0186 0.04649,0.0372 0.06698,0.0535 0.04185,0.0325 0.08094,0.0652 0.119555,0.0981 0.02325,0.0186 0.04649,0.0419 0.06698,0.0591 0.03254,0.0326 0.06792,0.0619 0.09956,0.0931 0.01859,0.0186 0.04184,0.0418 0.05957,0.0596 0.0279,0.0326 0.05721,0.0609 0.08328,0.0912 0.01394,0.0186 0.03254,0.0372 0.04744,0.0554 0.02789,0.0325 0.04744,0.0628 0.0684,0.0935 0.0093,0.0139 0.02325,0.0325 0.03254,0.0465 0.0279,0.0465 0.04933,0.087 0.06375,0.12749 0,0 4.94e-4,0 4.94e-4,0 0.122815,0.34333 0.347522,0.56697 0.598554,0.74323 0.05027,0.0372 0.101416,0.0689 0.153054,0.1005 0.103748,0.0638 0.208418,0.12283 0.31077,0.18049 0.408457,0.23215 0.767093,0.4522 0.765981,0.95549 -7.05e-4,0.45683 -0.04184,0.88499 -0.122353,1.28413 -0.108862,0.53243 -0.292621,1.0131 -0.559659,1.44236 -0.06698,0.10748 -0.138632,0.21167 -0.216329,0.31217 -0.44521,0.58055 -0.645535,1.90065 -1.375181,2.26566 -0.729647,0.3652 -0.488757,1.65607 -0.406601,1.96307 0.0047,0.0233 0.01394,0.0465 0.02325,0.0721 0.0024,0.009 0.0047,0.0139 0.0093,0.0233 0.0047,0.0186 0.01394,0.0372 0.0186,0.0559 0.0047,0.009 0.0093,0.0233 0.01394,0.0325 0.0047,0.0186 0.01394,0.0326 0.01859,0.0512 0.0047,0.0139 0.01394,0.0325 0.0186,0.0465 0.0047,0.0139 0.01394,0.0279 0.01859,0.0465 0.0093,0.0279 0.02325,0.053 0.03254,0.0795 0.0047,0.0139 0.01394,0.0325 0.01859,0.0479 0.0047,0.0139 0.01394,0.0325 0.0186,0.0465 0.0047,0.0139 0.01394,0.0325 0.01859,0.0465 0.0047,0.0139 0.01394,0.0279 0.01859,0.0465 0.0047,0.0139 0.0093,0.0279 0.0186,0.0465 0.0047,0.0139 0.0093,0.0279 0.01394,0.0419 0.0047,0.0139 0.0093,0.0279 0.01394,0.0418 0.0047,0.0139 0.0093,0.0279 0.01394,0.0419 0.0039,0.0139 0.0047,0.0279 0.0093,0.0372 0.0032,0.0139 0.0047,0.0279 0.0093,0.0372 0.0024,0.0139 0.0031,0.0233 0.0047,0.0325 0.0016,0.0139 0.0024,0.0233 0.0024,0.0326 4.94e-4,0.009 -4.93e-4,0.0186 -7.05e-4,0.0279 -7.05e-4,0.009 -0.0016,0.0186 -0.0039,0.0279 -0.0016,0.009 -0.0047,0.0186 -0.0093,0.0233 -0.0031,0.009 -0.0047,0.0139 -0.0093,0.0233 -0.0039,0.005 -0.0093,0.0139 -0.01394,0.0186 -0.0047,0.005 -0.01394,0.0139 -0.0186,0.0186 -0.0047,0.005 -0.01394,0.009 -0.02325,0.009 -0.0093,0.004 -0.01859,0.005 -0.02789,0.009 -0.0093,0.002 -0.0186,0.003 -0.03255,0.004 -0.01859,0 -0.03719,0.002 -0.06186,0 v 0 c -0.148867,-0.0186 -0.332628,-0.10142 -0.523276,-0.30241 -0.0372,-0.0418 -0.07628,-0.0851 -0.114908,-0.13536 -0.07675,-0.10003 -0.153989,-0.22053 -0.229354,-0.36473 -0.302394,-0.57689 -0.579799,-1.53235 -0.720065,-3.07608 -0.280527,-3.08713 -0.369381,-2.09455 -1.066372,-2.83449 -0.508252,-0.53977 -0.9544,-1.54373 -0.729647,-2.21721 0.04184,-0.12655 0.0963,-0.27448 0.152124,-0.4322 0.112114,-0.31588 0.232142,-0.6709 0.281455,-0.97091 0.05815,-0.34984 0.0186,-0.62461 -0.237258,-0.67381 -0.589383,-0.11213 -0.86991,-0.98226 -1.431382,-1.17874 -0.561472,-0.19632 -1.4592998,-0.3368 -1.5999348,-0.8982 -0.07029,-0.28052 -0.217257,-0.81408 -0.368452,-1.28046 -0.07399,-0.22796 -0.148402,-0.43963 -0.214935,-0.59854 1.011996,-2.53041 2.8116888,-4.66354 5.0960998,-6.09455 z"
       inkscape:connector-curvature="0" />
    <path
       style="fill:#57b1a0;fill-opacity:1;stroke-width:0.36720771"
       id="path4-6"
       d="m 32.768216,289.7452 v -13.24263 h -1.929309 v 13.24263 c -0.941508,0.38287 -1.607603,1.30583 -1.607603,2.3828 0,1.41817 1.153739,2.57228 2.572286,2.57228 1.41849,0 2.572284,-1.15373 2.572284,-2.57228 0,-1.07697 -0.666149,-2.00016 -1.607658,-2.3828 z"
       inkscape:connector-curvature="0" />
  </g>
</svg>
