<?xml version="1.0" encoding="UTF-8" standalone="no"?>
<!-- Created with Inkscape (http://www.inkscape.org/) -->

<svg
   xmlns:dc="http://purl.org/dc/elements/1.1/"
   xmlns:cc="http://creativecommons.org/ns#"
   xmlns:rdf="http://www.w3.org/1999/02/22-rdf-syntax-ns#"
   xmlns:svg="http://www.w3.org/2000/svg"
   xmlns="http://www.w3.org/2000/svg"
   xmlns:sodipodi="http://sodipodi.sourceforge.net/DTD/sodipodi-0.dtd"
   xmlns:inkscape="http://www.inkscape.org/namespaces/inkscape"
   width="12cm"
   height="9cm"
   viewBox="0 0 120 90"
   version="1.1"
   id="svg8"
   inkscape:version="0.92.4 (5da689c313, 2019-01-14)"
   sodipodi:docname="CC.svg">
  <defs
     id="defs2" />
  <sodipodi:namedview
     id="base"
     pagecolor="#ffffff"
     bordercolor="#666666"
     borderopacity="1.0"
     inkscape:pageopacity="0.0"
     inkscape:pageshadow="2"
     inkscape:zoom="0.49497475"
     inkscape:cx="-102.97981"
     inkscape:cy="-157.43689"
     inkscape:document-units="mm"
     inkscape:current-layer="layer1"
     showgrid="false"
     inkscape:window-width="1280"
     inkscape:window-height="961"
     inkscape:window-x="-8"
     inkscape:window-y="-8"
     inkscape:window-maximized="1"
     units="cm" />
  <metadata
     id="metadata5">
    <rdf:RDF>
      <cc:Work
         rdf:about="">
        <dc:format>image/svg+xml</dc:format>
        <dc:type
           rdf:resource="http://purl.org/dc/dcmitype/StillImage" />
        <dc:title></dc:title>
      </cc:Work>
    </rdf:RDF>
  </metadata>
  <g
     inkscape:label="Laag 1"
     inkscape:groupmode="layer"
     id="layer1"
     transform="translate(0,-207)">
    <path
       inkscape:export-ydpi="300"
       inkscape:export-xdpi="300"
       style="fill:#57b1a0;fill-opacity:1;stroke-width:1.08609653"
       id="path2-11"
       d="m 97.578976,272.6373 v -7.40171 c 0.858622,-3.22794 1.319559,-6.61547 1.319559,-10.11049 0,-3.45482 -0.451315,-6.80547 -1.289278,-10.00184 -0.01154,-0.055 -0.0139,-0.12393 -0.02751,-0.18279 l -0.0021,-30.36842 c 0,-2.88348 -2.347016,-5.23055 -5.230521,-5.23055 -2.883656,0 -5.230667,2.34595 -5.230667,5.23055 l -0.0011,12.47825 c -7.117332,-7.00647 -16.874841,-11.34003 -27.62939,-11.34003 -14.262624,0 -26.780911,7.61467 -33.701569,18.99257 -0.295837,0.4871 -0.577914,0.98243 -0.8531,1.48155 -0.02751,0.055 -0.06877,0.11002 -0.09624,0.1677 -0.04123,0.0689 -0.06877,0.13753 -0.109998,0.20378 -0.736146,1.26866 -1.322333,2.43503 -1.545519,3.21481 -2.004943,4.72131 -3.114806,9.91063 -3.114806,15.35534 0,21.73378 17.681544,39.41548 39.41548,39.41548 9.139411,0 17.554521,-3.13559 24.248149,-8.37492 1.734559,2.96177 4.941706,4.96021 8.614895,4.96021 5.506542,0 9.985669,-4.47905 9.985669,-9.98567 -0.002,-3.45919 -1.81605,-6.69352 -4.752811,-8.50515 z m -5.233831,17.53935 c -4.982023,0 -9.034158,-4.05319 -9.034158,-9.03414 0,-3.21376 1.730149,-6.21239 4.514864,-7.8241 l 0.236676,-0.13754 0.0024,-58.60687 c 0,-2.36008 1.919216,-4.27916 4.279302,-4.27916 2.359951,0 4.279166,1.91908 4.279166,4.27916 l 0.0021,58.60687 0.236647,0.13754 c 2.784847,1.61171 4.514888,4.61034 4.514888,7.8241 0,4.98198 -4.053236,9.03414 -9.034026,9.03414 z m -7.006519,-27.1209 c 0.04126,-0.0148 0.08252,-0.0148 0.123751,-0.006 0.02751,0 0.04126,0.0118 0.05501,0.0266 0.02751,0.0118 0.04126,0.0266 0.05501,0.055 0.0139,0.0148 0.02751,0.0411 0.04126,0.0689 0.0139,0.0266 0.02751,0.055 0.04126,0.0964 0.01154,0.0266 0.02751,0.0689 0.02751,0.0961 0.01154,0.0411 0.0139,0.0825 0.02751,0.13753 0.0071,0.0411 0.0139,0.0825 0.0139,0.13754 0.0047,0.055 0.0095,0.11002 0.0139,0.17332 0.0024,0.055 0.0047,0.0964 0.0071,0.15824 0.0011,0.0689 0.0011,0.13753 0,0.2023 -9.05e-4,0.055 -0.002,0.12393 -0.0047,0.17895 -0.0024,0.0689 -0.0071,0.15025 -0.0139,0.22715 -0.0047,0.0689 -0.0095,0.12363 -0.0139,0.19402 -0.0071,0.0825 -0.0139,0.1612 -0.02751,0.24224 -0.0071,0.0689 -0.0139,0.13754 -0.02751,0.20763 -0.01154,0.0825 -0.02751,0.16771 -0.04126,0.2517 -0.01153,0.0689 -0.0139,0.14316 -0.02751,0.21474 -0.0139,0.0825 -0.02751,0.17332 -0.04126,0.25998 -0.0139,0.0689 -0.02751,0.14167 -0.04126,0.21325 -0.0139,0.0825 -0.04126,0.17066 -0.05501,0.25584 -0.0139,0.0689 -0.02751,0.14463 -0.04126,0.21473 -0.0139,0.0825 -0.04126,0.16534 -0.06877,0.24638 -0.0139,0.0689 -0.04126,0.13901 -0.05501,0.20497 -0.02751,0.0825 -0.04126,0.15972 -0.06877,0.23928 -0.0139,0.0689 -0.04126,0.12393 -0.05501,0.1887 -0.02751,0.0825 -0.05501,0.15114 -0.08252,0.22568 -0.0139,0.055 -0.04126,0.11002 -0.05501,0.16237 -0.02751,0.0825 -0.06874,0.14996 -0.09624,0.22154 -0.0139,0.0411 -0.02751,0.0825 -0.05501,0.12393 -0.05501,0.11002 -0.09625,0.19816 -0.150105,0.2792 -0.09624,0.15558 -0.218841,0.30412 -0.352261,0.44171 -0.0047,0.006 -0.01153,0.0118 -0.0139,0.0148 -0.137504,0.13753 -0.275186,0.24904 -0.425163,0.35362 -0.01153,0.006 -0.02751,0.0148 -0.04126,0.0266 -0.147294,0.0964 -0.297233,0.17628 -0.445835,0.23544 -0.0139,0.006 -0.02751,0.0148 -0.04126,0.0148 -0.144514,0.055 -0.286218,0.0825 -0.418286,0.0825 -0.02751,0 -0.04126,0.006 -0.06874,0 -0.04126,0 -0.08252,-0.009 -0.109998,-0.0148 -0.02751,-0.006 -0.06874,-0.0118 -0.09624,-0.0266 -0.04126,-0.0118 -0.06874,-0.0266 -0.09624,-0.055 -0.02751,-0.0148 -0.05501,-0.0266 -0.08252,-0.055 -0.02751,-0.0266 -0.05501,-0.055 -0.08252,-0.0825 -0.02751,-0.0266 -0.04126,-0.055 -0.06877,-0.0825 -0.02751,-0.0411 -0.04126,-0.0825 -0.05501,-0.13753 -0.0139,-0.0411 -0.02751,-0.0689 -0.04126,-0.11003 -0.0139,-0.055 -0.0139,-0.12393 -0.02751,-0.18308 -0.0071,-0.055 -0.0139,-0.0961 -0.0139,-0.14582 -0.0024,-0.0689 0.0024,-0.1609 0.0071,-0.2449 0.0024,-0.055 9.02e-4,-0.11003 0.0071,-0.17332 0.01154,-0.0961 0.02751,-0.22035 0.05501,-0.33709 0.01154,-0.055 0.0139,-0.11003 0.02751,-0.1748 0.04126,-0.18723 0.09624,-0.39078 0.162438,-0.61237 1.076026,-3.48407 2.155895,-3.98262 2.819532,-4.2314 z M 66.513372,227.78914 c -0.01154,0.0148 -0.0139,0.0411 -0.04123,0.055 -0.05498,0.055 -0.12375,0.12392 -0.231204,0.17746 -0.138895,0.0825 -0.266964,0.15143 -0.38941,0.22419 -0.09625,0.055 -0.177582,0.11003 -0.261433,0.1541 -0.04123,0.0266 -0.06877,0.0411 -0.109998,0.055 -0.05498,0.0266 -0.12375,0.0689 -0.171991,0.0825 -0.02751,0.0148 -0.06877,0.0266 -0.09627,0.0411 -0.05498,0.0148 -0.09624,0.0266 -0.137505,0.0266 -0.02751,0.006 -0.05501,0.009 -0.08249,0.006 -0.0139,0 -0.04123,-0.009 -0.05498,-0.0118 -0.02751,-0.009 -0.05501,-0.0266 -0.08249,-0.055 -0.0139,-0.0118 -0.02751,-0.0266 -0.04123,-0.0411 -0.02751,-0.0266 -0.04123,-0.0689 -0.06877,-0.12392 -0.0092,-0.0266 -0.0139,-0.0411 -0.02751,-0.0689 -0.02751,-0.0825 -0.04123,-0.18012 -0.05501,-0.30411 -0.0021,-0.0964 0.0071,-0.18722 -0.0092,-0.28483 -0.02751,-0.14167 -0.06877,-0.28483 -0.123751,-0.42517 -0.227005,-0.84759 -0.577887,-1.65958 0.137505,-2.11477 0.04123,-0.0266 0.06877,-0.0266 0.09624,-0.0266 0.0021,0 0.0047,0 0.0071,0 0.04123,0 0.08249,0.0266 0.109998,0.0825 0.0021,0.006 0.0071,0.009 0.01154,0.0118 0.02751,0.055 0.05501,0.12393 0.06877,0.20379 0.0021,0.0148 0.0068,0.0266 0.0095,0.0411 0.0139,0.0825 0.02751,0.17746 0.04123,0.28069 0.0021,0.0148 0.0047,0.0411 0.0071,0.055 0.0139,0.11003 0.02751,0.21887 0.04123,0.33029 0.01183,0.12393 0.02751,0.24342 0.04123,0.35774 0,0 0,0 0.0015,0.006 0.0139,0.11003 0.02751,0.20349 0.04123,0.29045 0.0021,0.0118 0.0047,0.0266 0.0071,0.0411 0.0139,0.0825 0.04123,0.1473 0.06877,0.19817 0.0047,0.009 0.0092,0.0148 0.0139,0.0266 0.02751,0.0411 0.06877,0.0689 0.109998,0.0689 0.0021,0 0.0047,0.006 0.0071,0.006 0.0139,0 0.04123,-0.006 0.05498,-0.0118 0.06877,-0.0266 0.152648,-0.0411 0.242178,-0.0411 0.06877,0 0.123751,0.006 0.196718,0.0148 0.01183,0 0.02751,0 0.02751,0 0.08249,0.0148 0.159658,0.0411 0.235287,0.0689 0.02751,0.009 0.04123,0.0148 0.06877,0.0266 0.05501,0.0266 0.09627,0.0411 0.145904,0.0825 0.02751,0.0148 0.04123,0.0266 0.05498,0.0411 0.04123,0.0266 0.06877,0.055 0.09624,0.0825 0.0139,0.0148 0.02751,0.0411 0.04123,0.055 0.0139,0.0266 0.02751,0.0689 0.02751,0.0964 0.0021,0.0266 0.0071,0.0411 0.0021,0.0689 -0.0047,0.0411 -0.02751,0.0825 -0.05498,0.12393 z m -7.826451,-6.07562 c -0.08252,0.0411 -0.156848,0.0964 -0.233926,0.14315 -0.180154,0.11003 -0.357736,0.2242 -0.52836,0.33706 -0.06877,0.055 -0.149868,0.0964 -0.222805,0.14878 -0.195298,0.13753 -0.385281,0.26974 -0.569662,0.40452 -0.02751,0.0266 -0.06877,0.0411 -0.09625,0.0689 -0.216061,0.16238 -0.422409,0.32336 -0.621933,0.48293 -0.05498,0.0411 -0.109998,0.0964 -0.173411,0.1405 -0.144515,0.12392 -0.284829,0.23395 -0.421034,0.34812 -0.05498,0.055 -0.123751,0.0964 -0.177582,0.15143 -0.141704,0.12393 -0.277966,0.2381 -0.410064,0.35363 -0.189944,0.16504 -0.371507,0.32331 -0.544888,0.47468 -0.04123,0.0266 -0.06877,0.0689 -0.109997,0.0964 -0.123751,0.0964 -0.229815,0.19817 -0.341235,0.29045 -0.04123,0.0411 -0.08249,0.0689 -0.137505,0.11003 -0.09624,0.0825 -0.199498,0.1609 -0.29447,0.23543 -0.04123,0.0266 -0.06877,0.055 -0.109997,0.0825 -0.123751,0.0964 -0.244929,0.17628 -0.359132,0.2449 -0.0139,0.0118 -0.02751,0.0148 -0.05498,0.0266 -0.09624,0.055 -0.185745,0.0964 -0.273796,0.13901 -0.02751,0.0148 -0.06877,0.0266 -0.09624,0.0411 -0.06877,0.0266 -0.144514,0.0411 -0.213252,0.055 -0.02751,0.006 -0.05498,0.0118 -0.08249,0.0118 -0.05498,0 -0.110027,-0.009 -0.169211,-0.0148 -0.04123,-0.009 -0.08252,-0.009 -0.123751,-0.0266 -0.05498,-0.0148 -0.109998,-0.055 -0.156848,-0.0964 -0.04123,-0.0266 -0.06877,-0.0411 -0.09624,-0.0689 -0.05498,-0.055 -0.109998,-0.12393 -0.161048,-0.19255 -0.02751,-0.0411 -0.05498,-0.055 -0.08252,-0.0964 -0.08252,-0.12393 -0.149868,-0.26561 -0.220261,-0.43618 -1.1627,-2.82287 -2.792286,-5.02865 -0.965949,-5.19475 1.82581,-0.16652 2.490403,-0.56138 3.320262,-0.74718 0.266963,-0.055 0.554536,-0.11003 0.850367,-0.15824 0.02751,0 0.04123,-0.009 0.06877,-0.0118 0.295837,-0.0411 0.601292,-0.0825 0.915026,-0.11003 0.0021,0 0.0071,0 0.0092,0 0.315106,-0.0266 0.634339,-0.055 0.952169,-0.0689 0.02751,0 0.05498,0 0.08252,-0.006 0.313708,-0.0148 0.626066,-0.0266 0.931519,-0.0266 0.0071,0 0.0139,0 0.02751,0 0.159658,0 0.316482,0 0.470588,0.009 0.04123,0 0.08252,0 0.123751,0.006 0.123751,0.006 0.232595,0.009 0.345358,0.0148 0.04123,0 0.08252,0.006 0.12378,0.009 0.143095,0.009 0.284799,0.0266 0.419656,0.0411 0.0139,0 0.04123,0.006 0.05501,0.009 0.109998,0.0118 0.225615,0.0266 0.332983,0.0411 0.04123,0.006 0.08252,0.0118 0.109998,0.0148 0.09624,0.0148 0.187164,0.0411 0.273796,0.055 0.02751,0.006 0.05498,0.0118 0.08252,0.0148 0.109997,0.0266 0.207661,0.055 0.299954,0.0825 0.02751,0.009 0.04123,0.0148 0.06877,0.0266 0.06877,0.0266 0.137504,0.055 0.192754,0.0825 0.02751,0.0118 0.04123,0.0266 0.06877,0.0411 0.06877,0.0411 0.123751,0.0689 0.176191,0.11003 0.0047,0.006 0.0139,0.009 0.0139,0.0118 0.05498,0.0411 0.09624,0.0964 0.12375,0.13753 0.0092,0.0148 0.0139,0.0266 0.02751,0.0411 0.02751,0.0411 0.04123,0.0825 0.04123,0.12393 0.0021,0.0148 0.0071,0.0266 0.0092,0.0411 0.0047,0.055 0,0.11002 -0.0139,0.17628 -0.0021,0.0118 -0.01154,0.0266 -0.0139,0.0266 -0.0139,0.055 -0.05501,0.11002 -0.08252,0.16504 -0.0139,0.0148 -0.02751,0.0411 -0.04123,0.0689 -0.04123,0.055 -0.09624,0.11003 -0.158238,0.17747 -0.0139,0.0148 -0.02751,0.0266 -0.04123,0.0411 -0.08252,0.0825 -0.177611,0.1541 -0.288969,0.23662 -0.02751,0.0266 -0.05501,0.0411 -0.09624,0.0689 -0.09624,0.0689 -0.193908,0.13753 -0.305453,0.20083 -0.04123,0.0266 -0.08252,0.055 -0.12375,0.0825 -0.152648,0.0964 -0.317831,0.18308 -0.504966,0.28069 -0.277966,0.14315 -0.542134,0.29311 -0.798089,0.44581 z m 2.865215,0.7719 c 0.02751,0.006 0.04123,0.0118 0.05498,0.0266 0.02751,0.0148 0.05501,0.0411 0.06877,0.055 0.01154,0.0148 0.02751,0.0266 0.02751,0.055 0.0139,0.0266 0.0139,0.0825 0.0139,0.12393 7.63e-4,0.0266 0.0047,0.0411 0.0021,0.0689 -0.0071,0.0825 -0.02751,0.18308 -0.05501,0.30684 -0.02751,0.11002 -0.08252,0.20082 -0.138924,0.29586 -0.0139,0.0266 -0.04123,0.055 -0.05498,0.0825 -0.05498,0.0689 -0.109997,0.13753 -0.177581,0.19964 -0.0139,0.0148 -0.04123,0.0411 -0.05498,0.055 -0.08252,0.0825 -0.182964,0.14729 -0.284828,0.20911 -0.0139,0.0118 -0.04123,0.0266 -0.06877,0.0266 -0.08252,0.0411 -0.170601,0.0964 -0.258682,0.12392 -0.02751,0.0118 -0.06877,0.0266 -0.09624,0.0411 -0.09624,0.0266 -0.185745,0.055 -0.275186,0.0825 -0.0139,0 -0.02751,0.009 -0.04123,0.0118 -0.09624,0.0148 -0.191364,0.0266 -0.279326,0.0148 -0.06877,0 -0.137505,-0.0148 -0.192755,-0.0411 -0.02751,-0.009 -0.06877,-0.0118 -0.09627,-0.0266 -0.08249,-0.0411 -0.145904,-0.0964 -0.184354,-0.16918 -0.145904,-0.29163 -0.224225,-0.65087 -0.123751,-0.94534 0.109998,-0.29459 0.396281,-0.52287 0.989348,-0.54901 0.221414,-0.009 0.412779,-0.0266 0.584785,-0.0411 0.162437,-0.0148 0.298581,-0.0266 0.414163,-0.0266 0.02751,0 0.05501,0 0.08249,0 0.04123,0 0.08252,0.006 0.12375,0.0148 z m 0.55451,4.97858 c 0.0047,-0.0266 0.0092,-0.055 0.0139,-0.0689 0.0139,-0.055 0.02751,-0.11003 0.05501,-0.15824 0.0092,-0.0148 0.0139,-0.0411 0.02751,-0.055 0.02751,-0.055 0.06877,-0.0964 0.109998,-0.13901 0,0 0.0015,0 0.0015,0 0.04123,-0.0411 0.09624,-0.0689 0.144514,-0.0825 0.0139,-0.006 0.02751,-0.0118 0.04123,-0.0148 0.04123,-0.0118 0.06877,-0.0266 0.109998,-0.0266 0.0139,0 0.02751,-0.006 0.04123,-0.009 0.147295,-0.0148 0.266964,0 0.266964,0 0.456814,0.0689 0.767794,0.421 0.892997,0.80077 0.02751,0.0964 0.05498,0.19137 0.05498,0.28483 0.0139,0.18722 -0.0139,0.36191 -0.109998,0.49261 -0.04123,0.0689 -0.09624,0.12393 -0.176191,0.15676 -0.08249,0.0411 -0.162438,0.0689 -0.247679,0.0964 -0.02751,0.009 -0.05498,0.009 -0.08249,0.0148 -0.05498,0.0118 -0.123751,0.0266 -0.177581,0.0266 -0.02751,0 -0.05501,0 -0.08252,0 -0.08249,0 -0.159658,-0.0148 -0.236677,-0.0411 -0.02751,-0.009 -0.04123,-0.0118 -0.06877,-0.0148 -0.09624,-0.0411 -0.180154,-0.0825 -0.258682,-0.15676 -0.0139,-0.0118 -0.02751,-0.0266 -0.04123,-0.0411 -0.06877,-0.0689 -0.110027,-0.14049 -0.159658,-0.22981 -0.0139,-0.0266 -0.02751,-0.055 -0.04123,-0.0964 -0.04123,-0.12393 -0.08249,-0.24904 -0.09624,-0.41003 -0.0139,-0.11003 -0.0071,-0.21325 0.0047,-0.30133 z m -18.036807,-6.78483 c 0.02751,0 0.04123,0 0.06877,0 0.06877,0 0.138924,0.009 0.213251,0.0148 0.02751,0.006 0.05501,0.009 0.08252,0.0118 0.109998,0.0148 0.214642,0.0411 0.331605,0.0689 0.0047,0 0.01154,0 0.0139,0.006 0.109998,0.0266 0.235286,0.0689 0.361886,0.11003 0.04123,0.0118 0.08249,0.0266 0.123751,0.0411 0.09624,0.0266 0.200888,0.0689 0.305452,0.11003 0.04123,0.0148 0.08252,0.0266 0.12378,0.0411 0.140314,0.055 0.283468,0.11003 0.430682,0.16386 0.0139,0.006 0.02751,0.0118 0.04123,0.0148 0.166401,0.0689 0.33573,0.13753 0.509115,0.20083 0.123751,0.055 0.255931,0.0964 0.385281,0.15143 0.05498,0.0148 0.09624,0.0411 0.152648,0.055 0.170601,0.0689 0.34261,0.13753 0.517361,0.19668 0.560037,0.20793 0.883396,0.40042 1.033373,0.58202 0.04123,0.0411 0.06877,0.0964 0.08252,0.13754 0.04123,0.0825 0.02751,0.17332 -0.0021,0.25584 -0.152648,0.37427 -0.916396,0.70178 -1.528152,1.01958 -0.08252,0.0411 -0.188555,0.0964 -0.304104,0.14878 -0.02751,0.0148 -0.06877,0.0266 -0.110027,0.0411 -0.123751,0.055 -0.25179,0.11003 -0.397659,0.15558 -0.02751,0.009 -0.04123,0.0148 -0.06877,0.0266 -0.162438,0.055 -0.345358,0.0964 -0.536636,0.13753 -0.05498,0.009 -0.09624,0.0148 -0.151258,0.0266 -0.169211,0.0266 -0.348108,0.0411 -0.533859,0.0411 -0.04123,0 -0.09624,0.006 -0.138894,0.006 -0.123751,0 -0.244929,-0.0148 -0.370162,-0.0266 -0.06877,-0.006 -0.12375,-0.009 -0.198107,-0.0148 -0.195299,-0.0266 -0.39766,-0.0825 -0.604061,-0.14463 -0.492584,-0.1609 -0.588914,-0.25999 -0.466464,-0.34807 0.05498,-0.0411 0.137504,-0.0689 0.239427,-0.0964 0.266934,-0.0825 0.678364,-0.18308 1.056748,-0.33709 0.301353,-0.12393 0.58204,-0.28483 0.748542,-0.50911 0.123751,-0.168 0.123751,-0.28897 0.04123,-0.38116 -0.339859,-0.40181 -2.190553,-0.28749 -2.123289,-1.32781 0.0071,-0.0964 0.02751,-0.1748 0.05501,-0.24638 0.0071,-0.0148 0.0139,-0.0411 0.02751,-0.055 0.0095,-0.0148 0.0139,-0.0266 0.02751,-0.0411 0.178765,-0.0825 0.359109,-0.16089 0.539367,-0.24075 z m -8.964681,23.49549 c 0.0139,0 0.04123,0.006 0.05498,0.006 0.123751,0.0148 0.244928,0.0411 0.378383,0.0689 0.0139,0 0.02751,0.006 0.05501,0.0118 0.137504,0.0266 0.275186,0.055 0.412779,0.0961 0.01153,0 0.02751,0.006 0.04123,0.009 0.141704,0.0411 0.283467,0.0689 0.412808,0.11003 0,0 0.844848,0.12363 1.243883,0.48574 l -0.05498,0.0689 c -0.220261,0.24371 -0.277966,0.56965 -0.265574,0.98935 -0.0047,0 -0.0071,0 -0.01153,0 -0.0139,-0.006 -0.02751,-0.0118 -0.04123,-0.0148 -0.06877,-0.0266 -0.141704,-0.055 -0.235316,-0.11002 -0.0047,0 -0.0095,-0.006 -0.0139,-0.006 -0.09624,-0.055 -0.216062,-0.12363 -0.352241,-0.19817 -0.140314,-0.0825 -0.30135,-0.17332 -0.491232,-0.28216 -0.04123,-0.0148 -0.06877,-0.0411 -0.109998,-0.055 -0.193908,-0.11002 -0.408659,-0.22981 -0.659092,-0.36459 -0.138924,-0.0689 -0.260042,-0.14316 -0.366008,-0.20645 -0.02751,-0.0266 -0.05498,-0.0411 -0.08249,-0.055 -0.06877,-0.0411 -0.123751,-0.0825 -0.181545,-0.11002 -0.02751,-0.0148 -0.05501,-0.0411 -0.08252,-0.055 -0.04123,-0.0266 -0.08252,-0.055 -0.109997,-0.0825 -0.02751,-0.0148 -0.02751,-0.0266 -0.05501,-0.055 -0.0139,-0.0148 -0.04123,-0.0411 -0.05498,-0.055 -0.0092,-0.0148 -0.0139,-0.0266 -0.0139,-0.0411 -0.0071,-0.0148 -0.0139,-0.0266 -0.0139,-0.0411 0,-0.0118 0.0047,-0.0148 0.0095,-0.0266 0.0047,-0.0118 0.0092,-0.0148 0.0139,-0.0266 0.0095,-0.006 0.02751,-0.0118 0.04123,-0.0148 0.0139,-0.006 0.02751,-0.0118 0.05498,-0.0148 0.0139,0 0.04123,-0.006 0.05498,-0.006 0.02751,0 0.04123,-0.006 0.06877,-0.006 0.0139,0 0.04123,0 0.05498,0 0.08249,0 0.188554,0.0118 0.304103,0.0266 z m 4.19346,2.71536 c -0.137504,0 -0.273825,-0.0118 -0.40041,-0.0411 -0.379783,-0.0689 -0.678364,-0.25584 -0.708639,-0.56558 -0.0092,-0.0961 -0.0139,-0.17864 -0.0139,-0.25318 -0.0014,-0.0266 -0.0014,-0.0411 -0.0021,-0.0689 -0.0014,-0.0411 -0.0021,-0.0825 -0.0014,-0.12393 0,-0.0148 0.0014,-0.0411 0.0021,-0.055 0.0021,-0.0266 0.0047,-0.055 0.0071,-0.0825 0.0021,-0.0148 0.0021,-0.0266 0.0047,-0.0411 0.0021,-0.0148 0.0071,-0.0411 0.0139,-0.055 0.0021,-0.006 0.0047,-0.0148 0.0071,-0.0148 0.0139,-0.0411 0.02751,-0.055 0.04123,-0.055 0.0021,0 0.0047,0 0.0071,0 0.0021,0 0.0071,0 0.0092,0 0.0047,0 0.0095,0 0.0095,0 0.147294,-0.0411 0.297206,-0.0689 0.445813,-0.0825 0.05498,-0.006 0.09624,-0.006 0.145905,-0.009 0.09624,-0.006 0.200917,-0.0148 0.298605,-0.0118 0.04123,0 0.08252,0.006 0.123751,0.006 0.09624,0.006 0.188554,0.0148 0.279327,0.0266 0.04123,0.006 0.08252,0.0148 0.12375,0.0266 0.09624,0.0148 0.188555,0.0411 0.273826,0.0689 0.02751,0.006 0.05501,0.0148 0.06877,0.0266 0.109997,0.0411 0.199498,0.0825 0.280687,0.13754 0.0139,0.0118 0.02751,0.0266 0.05498,0.0411 0.05498,0.0411 0.109998,0.0825 0.147294,0.12393 0.0139,0.0148 0.02751,0.0411 0.04123,0.055 0.02751,0.0411 0.05501,0.0964 0.05501,0.1402 0.0047,0.0266 0.0139,0.0411 0.0139,0.0689 0.0047,0.0689 -0.0047,0.14315 -0.04123,0.21887 -0.123751,0.24904 -0.482962,0.41553 -0.886147,0.4843 -0.137504,0.0266 -0.273795,0.0266 -0.411412,0.0266 z m 46.591374,-6.48843 c -0.04126,-0.0148 -0.06874,-0.0266 -0.09624,-0.0411 -0.06874,-0.0266 -0.137504,-0.055 -0.192754,-0.0689 -0.04126,-0.0118 -0.06877,-0.0148 -0.09624,-0.0266 -0.05501,-0.0148 -0.09625,-0.0266 -0.137505,-0.0411 -0.02751,-0.006 -0.05501,-0.0118 -0.08249,-0.0148 -0.04126,-0.006 -0.06874,-0.0118 -0.09624,-0.0118 -0.01153,0 -0.02751,-0.006 -0.04126,-0.006 -0.0071,0 -0.0095,0 -0.0139,0 -0.04126,0 -0.08252,0.009 -0.109997,0.0266 0,0 -0.0011,0 -0.0011,0 -0.02751,0.0148 -0.04126,0.0411 -0.04126,0.0825 -0.0011,0.009 -0.0011,0.0148 0,0.0266 0.0011,0.0266 0.0071,0.0689 0.02751,0.11003 0.0024,0.009 0.0024,0.0148 0.0071,0.0266 0.0139,0.055 0.04126,0.11003 0.08252,0.1677 0.0071,0.0148 0.0139,0.0266 0.02751,0.0411 0.02751,0.055 0.06874,0.11003 0.09624,0.16652 0.01153,0.0148 0.0139,0.0266 0.02751,0.055 0.04126,0.0689 0.09624,0.14995 0.156847,0.23129 0.0095,0.0148 0.02751,0.0266 0.02751,0.0411 0.05501,0.0689 0.109998,0.15144 0.163858,0.22982 0.06877,0.11002 0.151257,0.21177 0.231204,0.322 0.301333,0.42384 0.781568,0.62473 1.275531,0.78708 v 4.06648 c -0.06877,0.055 -0.137505,0.11003 -0.202308,0.1677 -0.08249,0.0689 -0.177611,0.1402 -0.265574,0.20911 -0.06877,0.055 -0.145904,0.11003 -0.220261,0.16623 -0.09624,0.0689 -0.185744,0.13753 -0.279297,0.19964 -0.06874,0.055 -0.144514,0.0961 -0.217451,0.15114 -0.09624,0.0689 -0.192755,0.12363 -0.287579,0.18722 -0.06874,0.0411 -0.140314,0.0961 -0.209052,0.13754 -0.09624,0.055 -0.199498,0.11003 -0.297209,0.17214 -0.06874,0.0411 -0.123751,0.0689 -0.188554,0.11002 -0.109998,0.055 -0.214642,0.11003 -0.320584,0.15972 -0.04126,0.0266 -0.09624,0.055 -0.141705,0.0689 -0.148684,0.0689 -0.291719,0.12363 -0.425186,0.17214 -0.0139,0.006 -0.04126,0.009 -0.05501,0.0148 -0.109997,0.0411 -0.222805,0.0689 -0.32198,0.0825 -0.04126,0.006 -0.06874,0.006 -0.109997,0.0148 -0.06877,0.009 -0.140314,0.0148 -0.202308,0.0148 -0.109998,0 -0.202308,-0.0148 -0.275216,-0.055 -1.080152,-0.56827 -3.486317,-8.39767 -4.48226,-8.48019 -0.0047,0 -0.0095,0 -0.0139,0 -0.02751,0 -0.04126,0.0266 -0.05501,0.0411 -0.0139,0.0148 -0.04126,0.0148 -0.05501,0.0411 -0.01153,0.0266 -0.0095,0.0825 -0.01153,0.12364 -0.0022,0.0411 -0.01153,0.0689 -0.0047,0.12363 0.0047,0.055 0.02751,0.12363 0.04126,0.19817 0.0139,0.0689 0.0139,0.12392 0.04126,0.19136 0.0139,0.0825 0.05501,0.17214 0.08252,0.2585 0.02751,0.0825 0.04126,0.1609 0.08252,0.25466 0.02751,0.0964 0.08252,0.20379 0.109997,0.30693 0.04126,0.11002 0.06877,0.19935 0.123751,0.30952 0.04126,0.11003 0.09624,0.2242 0.140314,0.33576 0.05501,0.12393 0.09624,0.23662 0.152648,0.36463 0.05501,0.11003 0.09624,0.23395 0.155458,0.35093 0.05501,0.13754 0.123751,0.26827 0.181544,0.41 0.04126,0.11003 0.09624,0.21591 0.149868,0.3234 0.06874,0.1609 0.147294,0.31919 0.224224,0.48296 0.02751,0.0689 0.06874,0.1402 0.09625,0.2103 0.09624,0.20378 0.192754,0.4073 0.29308,0.61236 0.02751,0.0689 0.06877,0.13754 0.09627,0.20527 0.09624,0.20349 0.199498,0.40861 0.299981,0.61088 0.05501,0.11003 0.09624,0.20645 0.155458,0.31101 0.08252,0.16504 0.165247,0.33298 0.246318,0.49255 0.02751,0.0411 0.04126,0.0964 0.06877,0.13753 0.630189,1.24668 1.197104,2.32642 1.470515,2.84887 0.05501,0.11003 0.109998,0.20083 0.176191,0.27803 0.0139,0.0266 0.04126,0.0411 0.05501,0.055 0.04126,0.0411 0.08252,0.0964 0.123751,0.12393 0.02751,0.0148 0.05501,0.0266 0.08249,0.0411 0.04126,0.0266 0.06877,0.0411 0.109998,0.055 0.02751,0.009 0.05501,0.009 0.08252,0.0148 0.04126,0.006 0.06877,0.0148 0.109998,0.0148 0.0011,0 0.0024,0 0.0047,0 0.0139,0 0.02751,-0.006 0.04126,-0.006 0.05501,0 0.123751,-0.0118 0.177582,-0.0266 0.02751,-0.006 0.05501,-0.0148 0.08252,-0.0266 0.05501,-0.0148 0.09624,-0.0266 0.147294,-0.055 0.02751,-0.0148 0.05501,-0.0266 0.09624,-0.0411 0.05501,-0.0266 0.09624,-0.055 0.145904,-0.0825 0.02751,-0.0148 0.06874,-0.0411 0.09624,-0.055 0.06874,-0.0411 0.12375,-0.0825 0.192754,-0.11003 0.05501,-0.0411 0.123751,-0.0689 0.177611,-0.11002 0.02751,-0.0148 0.05501,-0.0266 0.08252,-0.055 0.08249,-0.0411 0.161048,-0.0825 0.240788,-0.12393 0.0139,-0.006 0.02751,-0.0118 0.05501,-0.0148 0.06874,-0.0266 0.12375,-0.055 0.191334,-0.0689 0.02751,-0.006 0.05501,-0.0118 0.08252,-0.0148 0.05501,-0.0118 0.109997,-0.0148 0.158237,-0.0266 0.02751,0 0.05501,0 0.08252,0 0.05501,0 0.123751,0.0148 0.187164,0.0266 0.02751,0.006 0.05501,0.0148 0.08252,0.0266 0.08252,0.0411 0.173411,0.0825 0.260043,0.15676 1.162726,0.99622 -2.905375,5.56187 -3.818765,7.55377 -0.913648,1.99185 1.162702,7.1389 -0.747167,8.30101 -0.357736,0.21888 -0.660467,0.53526 -0.924647,0.92331 -0.350886,0.51737 -0.632966,1.16268 -0.884772,1.86819 -0.12375,0.35365 -0.243538,0.71964 -0.359111,1.09524 -0.346757,1.12417 -0.667364,2.31015 -1.095302,3.33539 -0.06877,0.17066 -0.145904,0.33715 -0.224224,0.49811 -0.09624,0.18574 -0.189945,0.3619 -0.29308,0.53114 -0.02751,0.055 -0.06874,0.0964 -0.09624,0.15262 -0.08249,0.11003 -0.154068,0.22568 -0.235287,0.33159 -0.04126,0.055 -0.08252,0.0961 -0.123751,0.15114 -0.08252,0.11003 -0.179001,0.20497 -0.271045,0.30003 -0.04126,0.0411 -0.06877,0.0689 -0.109997,0.11003 -0.123751,0.12363 -0.260043,0.23928 -0.393534,0.34265 -0.02751,0.0148 -0.05501,0.0411 -0.08252,0.055 -0.109997,0.0825 -0.225615,0.15824 -0.341258,0.2242 -0.04126,0.0266 -0.09624,0.055 -0.141705,0.0825 -0.09624,0.055 -0.198107,0.0961 -0.298584,0.13901 -0.04126,0.0148 -0.09624,0.0411 -0.144514,0.055 -0.109998,0.0411 -0.231205,0.0689 -0.346736,0.0961 -0.02751,0.006 -0.05501,0.0148 -0.09624,0.0266 -0.145905,0.0266 -0.29172,0.0411 -0.436187,0.0411 -0.02751,0 -0.05501,-0.006 -0.09624,-0.006 -0.137504,0 -0.271045,-0.0148 -0.40316,-0.0411 -0.04123,-0.009 -0.08252,-0.0148 -0.123751,-0.0266 -0.155458,-0.0411 -0.309611,-0.0961 -0.456834,-0.17066 -0.0139,-0.009 -0.02751,-0.0266 -0.05501,-0.0266 -0.137504,-0.0689 -0.260042,-0.15972 -0.382516,-0.25999 -0.04123,-0.0266 -0.06877,-0.055 -0.109997,-0.0964 -0.137504,-0.12393 -0.266964,-0.2585 -0.388035,-0.4197 -1.494596,-1.99181 -2.490534,-9.54665 -1.494596,-11.62122 0.996233,-2.07555 -1.99186,-3.65258 -1.565041,-6.64043 0.04123,-0.25585 0.05498,-0.48433 0.06877,-0.70169 0.0021,-0.055 0.0047,-0.0964 0.0071,-0.15262 0.0047,-0.20497 0.0021,-0.39906 -0.0139,-0.56966 -0.0021,-0.0148 -0.0071,-0.0266 -0.0092,-0.055 -0.0139,-0.1541 -0.05498,-0.29163 -0.09624,-0.41967 -0.01153,-0.0266 -0.0139,-0.0689 -0.02751,-0.0961 -0.05501,-0.12363 -0.109997,-0.24637 -0.185744,-0.34812 -0.0139,-0.0148 -0.02751,-0.0266 -0.04123,-0.0411 -0.06877,-0.0825 -0.151258,-0.15972 -0.240817,-0.2242 -0.02751,-0.0148 -0.04123,-0.0266 -0.06877,-0.055 -0.109998,-0.0689 -0.225615,-0.12363 -0.357754,-0.1677 -0.02751,-0.009 -0.05501,-0.0148 -0.08252,-0.0266 -0.123751,-0.0411 -0.25182,-0.0689 -0.393533,-0.0825 -0.02751,-0.006 -0.05498,-0.009 -0.09624,-0.0148 -0.165011,-0.0148 -0.343989,-0.0266 -0.535264,-0.0266 -0.0139,0 -0.02751,0 -0.04123,0 -0.02751,0 -0.05498,0 -0.06877,0 -0.238037,0 -0.49259,0.0148 -0.769166,0.0411 -0.02751,0 -0.06877,0.006 -0.09624,0.009 -0.29447,0.0266 -0.604064,0.055 -0.941175,0.11003 -0.180155,0.0266 -0.357754,0.0266 -0.532514,0.0266 -0.08249,0 -0.162437,-0.0118 -0.244928,-0.0148 -0.09624,-0.009 -0.207898,-0.0148 -0.309605,-0.0266 -0.08252,-0.0148 -0.162438,-0.0411 -0.242148,-0.055 -0.09627,-0.0266 -0.196718,-0.0411 -0.293081,-0.0825 -0.08252,-0.0266 -0.156847,-0.055 -0.236676,-0.0961 -0.09624,-0.0411 -0.185745,-0.0825 -0.276576,-0.12363 -0.08249,-0.0411 -0.152648,-0.0825 -0.228395,-0.12393 -0.08252,-0.055 -0.177611,-0.11003 -0.262793,-0.16386 -0.06877,-0.055 -0.147295,-0.11002 -0.218842,-0.16119 -0.08252,-0.0689 -0.167821,-0.13753 -0.249069,-0.20231 -0.06877,-0.055 -0.138895,-0.12393 -0.207898,-0.19136 -0.08252,-0.0825 -0.156848,-0.15558 -0.233896,-0.2381 -0.06877,-0.0689 -0.123751,-0.14315 -0.193908,-0.21887 -0.06877,-0.0825 -0.147295,-0.17894 -0.218842,-0.27241 -0.05498,-0.0825 -0.123751,-0.16237 -0.181544,-0.2449 -0.06877,-0.0964 -0.137505,-0.19964 -0.199499,-0.30275 -0.05498,-0.0825 -0.109997,-0.17746 -0.166401,-0.27122 -0.06877,-0.11003 -0.123751,-0.22153 -0.182964,-0.33428 -0.05501,-0.0964 -0.09624,-0.18989 -0.148684,-0.28897 -0.05501,-0.12393 -0.109998,-0.24076 -0.166402,-0.36469 -0.04123,-0.0961 -0.09624,-0.2023 -0.137504,-0.30683 -0.05498,-0.12393 -0.09624,-0.26146 -0.147294,-0.39355 -0.04123,-0.11003 -0.08249,-0.20911 -0.109998,-0.31784 -0.04123,-0.1402 -0.08252,-0.28601 -0.123751,-0.43064 -0.02751,-0.11003 -0.06877,-0.21178 -0.09624,-0.32201 -0.04123,-0.15262 -0.06877,-0.311 -0.109997,-0.46779 -0.02751,-0.11003 -0.05498,-0.20911 -0.06877,-0.3179 -0.04123,-0.17746 -0.06877,-0.35773 -0.09624,-0.53943 -0.0139,-0.0961 -0.02751,-0.1816 -0.04123,-0.27506 -0.04123,-0.27507 -0.06877,-0.55585 -0.09624,-0.83932 -0.371513,-4.64852 4.709307,-9.77374 6.929328,-10.21039 0.247679,-0.055 0.478834,-0.0825 0.705865,-0.0961 0.06877,-0.006 0.123751,-0.006 0.188554,-0.0118 0.162438,-0.006 0.319233,0 0.473336,0.006 0.08252,0.006 0.152648,0.006 0.229814,0.0148 0.173411,0.0148 0.342611,0.055 0.510494,0.0961 0.04123,0.0118 0.08249,0.0148 0.137504,0.0266 0.210471,0.055 0.421031,0.13754 0.635687,0.2313 0.05498,0.0266 0.123781,0.055 0.179001,0.0825 0.156848,0.0825 0.316482,0.15823 0.480233,0.25466 0.08252,0.0411 0.162438,0.0961 0.244928,0.15261 0.151258,0.0964 0.304104,0.19817 0.462336,0.30823 0.08249,0.0689 0.176191,0.12393 0.265544,0.19136 0.171991,0.12363 0.34951,0.26413 0.532513,0.4087 0.08249,0.0689 0.162438,0.12363 0.25043,0.19521 0.265544,0.21325 0.542141,0.44167 0.837972,0.6921 0.0047,0.006 0.0092,0.006 0.0139,0.0118 0.0015,0 0.0015,0 0.0021,0 0.207898,0.17481 0.404539,0.31651 0.598565,0.44443 0.05498,0.0411 0.109998,0.0689 0.162438,0.0964 0.151258,0.0961 0.297209,0.16918 0.440306,0.23514 0.04123,0.0148 0.08252,0.0411 0.123781,0.055 0.177581,0.0689 0.348105,0.12392 0.515985,0.16237 0.04126,0.009 0.06877,0.0118 0.109998,0.0148 0.137504,0.0266 0.264183,0.0411 0.392158,0.0411 0.02751,0 0.05501,0.006 0.06877,0.006 0.02751,0 0.04126,-0.006 0.06874,-0.006 0.123751,0 0.236647,-0.0148 0.352235,-0.0266 0.02751,-0.006 0.05501,-0.006 0.08252,-0.0118 0.143094,-0.0266 0.283438,-0.0689 0.421037,-0.11002 0.04126,-0.0118 0.06877,-0.0266 0.109997,-0.0411 0.09624,-0.0411 0.206508,-0.0825 0.30823,-0.12363 0.04126,-0.0266 0.08252,-0.0411 0.137504,-0.0689 0.09624,-0.055 0.200918,-0.0961 0.301332,-0.15676 0.04126,-0.0148 0.06877,-0.0411 0.109998,-0.055 0.137504,-0.0689 0.265544,-0.1541 0.397662,-0.23544 0.04126,-0.0266 0.08252,-0.055 0.123751,-0.0825 0.123751,-0.0825 0.244928,-0.15143 0.367405,-0.22834 0.09624,-0.0689 0.199498,-0.12392 0.301335,-0.18426 0.04126,-0.0266 0.09624,-0.055 0.140314,-0.0825 0.138894,-0.0825 0.280687,-0.16238 0.423785,-0.23662 1.909475,-0.99622 -0.498089,-1.41083 -1.660676,-1.43899 -0.870997,-0.0148 -1.042977,-1.06915 -1.389035,-1.83671 -0.109998,-0.25584 -0.24907,-0.48158 -0.436187,-0.62606 -0.0022,0 -0.0024,0 -0.0047,0 -0.04126,-0.0411 -0.08252,-0.055 -0.123751,-0.0825 -0.0139,-0.006 -0.02751,-0.006 -0.04126,-0.0118 -0.02751,-0.006 -0.04126,-0.0148 -0.06877,-0.0148 -0.0011,0 -0.0024,0 -0.0047,0 -0.0024,0 -0.0047,0 -0.0071,0 -0.04126,0 -0.06877,0.0266 -0.09624,0.055 -0.0024,0.006 -0.0071,0.006 -0.0095,0.0118 -0.02751,0.0411 -0.04126,0.0961 -0.05501,0.15144 -0.0024,0.0118 -0.0071,0.0266 -0.0095,0.0411 -0.0139,0.0689 -0.02751,0.13754 -0.04126,0.21325 -0.01154,0.0961 -0.02751,0.18723 -0.04126,0.28631 -0.0011,0.006 -0.0011,0.009 -0.0022,0.0148 -0.01154,0.0825 -0.02751,0.17332 -0.04126,0.25732 -0.0024,0.0148 -0.0047,0.0266 -0.0095,0.0411 -0.0139,0.0825 -0.04126,0.16386 -0.08249,0.2381 -0.0047,0.0148 -0.01154,0.0266 -0.0139,0.0411 -0.02751,0.0689 -0.06877,0.13753 -0.123751,0.19284 -0.0071,0.009 -0.0139,0.0148 -0.02751,0.0266 -0.05501,0.055 -0.123751,0.0961 -0.206478,0.12364 -0.04123,0.0148 -0.08252,0.0148 -0.123751,0.0118 -0.0139,0 -0.04123,-0.006 -0.05498,-0.0148 -0.02751,-0.006 -0.04123,-0.0148 -0.06877,-0.0266 -0.0139,-0.0118 -0.02751,-0.0266 -0.05498,-0.0411 -0.0139,-0.0148 -0.04123,-0.0411 -0.05501,-0.055 -0.0139,-0.0148 -0.02751,-0.0411 -0.04123,-0.0689 -0.0139,-0.0266 -0.02751,-0.055 -0.05498,-0.0825 -0.0139,-0.0266 -0.02751,-0.055 -0.04123,-0.0825 -0.0139,-0.0266 -0.02751,-0.0689 -0.04123,-0.11003 -0.0139,-0.0411 -0.02751,-0.0689 -0.04123,-0.11003 -0.0139,-0.0411 -0.04123,-0.0825 -0.05501,-0.13753 -0.02751,-0.055 -0.04123,-0.12363 -0.06877,-0.1887 -0.0139,-0.0411 -0.04123,-0.0961 -0.05498,-0.14582 -0.0139,-0.055 -0.04123,-0.0961 -0.05498,-0.14995 -0.0139,-0.0411 -0.04123,-0.0961 -0.05501,-0.13902 -0.02751,-0.055 -0.04123,-0.0964 -0.06877,-0.15409 -0.02751,-0.0411 -0.04123,-0.0964 -0.06877,-0.14316 -0.02751,-0.055 -0.05498,-0.11002 -0.08252,-0.15824 -0.02751,-0.0411 -0.05498,-0.0964 -0.08252,-0.14315 -0.02751,-0.055 -0.06877,-0.11003 -0.109998,-0.16238 -0.02751,-0.0411 -0.05498,-0.0961 -0.09624,-0.13753 -0.04123,-0.055 -0.08249,-0.11003 -0.123751,-0.1609 -0.04123,-0.0411 -0.06877,-0.0825 -0.110027,-0.13754 -0.05498,-0.055 -0.109997,-0.11002 -0.158267,-0.15675 -0.04123,-0.0411 -0.08249,-0.0825 -0.123751,-0.12364 -0.05498,-0.055 -0.123751,-0.0964 -0.196718,-0.15261 -0.04123,-0.0411 -0.09624,-0.0689 -0.141704,-0.11003 -0.08252,-0.055 -0.169211,-0.0961 -0.257292,-0.15144 -0.04123,-0.0266 -0.08252,-0.055 -0.137504,-0.0825 -0.141704,-0.0689 -0.294471,-0.13753 -0.458192,-0.19669 -0.06877,-0.0266 -0.123751,-0.0411 -0.177581,-0.055 -0.0139,-0.006 -0.02751,-0.006 -0.04123,-0.006 -0.02751,-0.006 -0.05501,-0.0118 -0.06877,-0.0118 -0.0021,0 -0.0071,0 -0.0092,0 -0.0021,0 -0.0015,0 -0.0047,0 -0.02751,0 -0.04123,0.0148 -0.04123,0.0411 0,0 -0.0015,0 -0.0015,0.006 0.0092,0.0266 0.04123,0.0689 0.08252,0.11003 0.0071,0.006 0.0139,0.0148 0.0139,0.0266 0.04123,0.0411 0.109997,0.11003 0.176191,0.16652 0.0139,0.0118 0.02751,0.0266 0.04123,0.0411 0.08252,0.0689 0.162437,0.1402 0.258681,0.22035 0.0021,0 0.0071,0.006 0.0092,0.006 0.110027,0.0964 0.231205,0.19136 0.359138,0.29583 0.109998,0.0825 0.213252,0.1748 0.321983,0.2656 0.02751,0.0266 0.05498,0.0411 0.08249,0.0689 0.109997,0.0964 0.233926,0.19669 0.34951,0.29723 0.0139,0.0148 0.04123,0.0266 0.05498,0.055 0.123751,0.11003 0.243568,0.21325 0.357754,0.32059 0.08252,0.0689 0.140314,0.14315 0.188555,0.21059 0.0139,0.0266 0.02751,0.0411 0.04123,0.0689 0.02751,0.0411 0.05501,0.0825 0.06877,0.12393 0.0095,0.0266 0.0139,0.0411 0.0139,0.0689 0.0071,0.0411 0.0139,0.0689 0.01154,0.0961 -0.0015,0.0148 -0.0021,0.0411 -0.0068,0.055 -0.0071,0.0266 -0.0139,0.055 -0.02751,0.0825 -0.0092,0.0148 -0.0139,0.0266 -0.02751,0.055 -0.0139,0.0266 -0.04123,0.055 -0.06877,0.0689 -0.0139,0.0118 -0.02751,0.0266 -0.04123,0.0411 -0.04123,0.0266 -0.08249,0.055 -0.137505,0.0689 -0.0092,0 -0.0139,0.009 -0.02751,0.0118 -0.05498,0.0266 -0.123751,0.0411 -0.192755,0.055 -0.0139,0 -0.04123,0.006 -0.06877,0.006 -0.05498,0.006 -0.09624,0.0118 -0.151494,0.0118 -0.02751,0 -0.04123,0 -0.06877,0 -0.109997,0 -0.210442,-0.0118 -0.319209,-0.0411 -0.0047,0 -0.0071,0 -0.01154,0 -0.109997,-0.0266 -0.218841,-0.0689 -0.323358,-0.11003 -0.0139,-0.009 -0.04123,-0.0148 -0.05498,-0.0266 -0.09624,-0.055 -0.198108,-0.11003 -0.286189,-0.18841 -0.0139,-0.0148 -0.02751,-0.0266 -0.04123,-0.0411 -0.08252,-0.0825 -0.173411,-0.1748 -0.238037,-0.28631 -0.08252,-0.12392 -0.177611,-0.24756 -0.286189,-0.36051 -0.02751,-0.0266 -0.05501,-0.055 -0.08252,-0.0825 -0.109998,-0.11003 -0.235316,-0.20645 -0.36878,-0.29311 -0.0095,-0.006 -0.0139,-0.009 -0.02751,-0.0148 -0.123751,-0.0825 -0.268324,-0.15114 -0.410061,-0.21473 -0.04123,-0.0148 -0.06877,-0.0266 -0.109998,-0.0411 -0.151257,-0.055 -0.304082,-0.11003 -0.459564,-0.14878 -0.0139,0 -0.02751,-0.006 -0.04123,-0.009 -0.143095,-0.0266 -0.286189,-0.055 -0.425157,-0.0689 -0.04123,0 -0.06877,-0.006 -0.109998,-0.006 -0.02751,0 -0.05498,-0.006 -0.09624,-0.006 -0.123751,0 -0.236647,0.009 -0.349508,0.0266 -0.0139,0 -0.02751,0.006 -0.04123,0.0118 -0.123751,0.0266 -0.239398,0.055 -0.346736,0.11002 -0.02751,0.0148 -0.06877,0.0266 -0.09624,0.0411 -0.109998,0.055 -0.218842,0.13753 -0.302705,0.22419 -0.04123,0.055 -0.109997,0.12363 -0.182964,0.20793 -0.04123,0.055 -0.09627,0.11002 -0.156848,0.17894 -0.02751,0.0266 -0.05498,0.055 -0.06877,0.0825 -0.08249,0.0825 -0.161048,0.18012 -0.249069,0.27803 -0.0139,0.0266 -0.04123,0.0411 -0.06877,0.0689 -0.06877,0.0825 -0.148685,0.1612 -0.227005,0.2449 -0.02751,0.0266 -0.05501,0.055 -0.08249,0.0961 -0.09624,0.11003 -0.209051,0.2174 -0.319235,0.32748 -0.0047,0.006 -0.0092,0.009 -0.0139,0.0148 -0.109998,0.11003 -0.213252,0.20763 -0.323356,0.30962 -0.02751,0.0266 -0.06877,0.055 -0.09624,0.0825 -0.09624,0.0825 -0.188554,0.1677 -0.284828,0.24756 -0.02751,0.0266 -0.05498,0.0411 -0.08249,0.0689 -0.12378,0.0961 -0.236676,0.18841 -0.353639,0.27241 -0.02751,0.0148 -0.05498,0.0411 -0.08252,0.055 -0.09624,0.0689 -0.188554,0.12363 -0.282077,0.18013 -0.02751,0.0148 -0.06877,0.0411 -0.09624,0.055 -0.123751,0.0689 -0.233926,0.12393 -0.346763,0.16504 -0.0021,0 -0.0071,0 -0.0092,0 -0.109997,0.0411 -0.213251,0.0689 -0.315112,0.0825 -0.02751,0.006 -0.05498,0.006 -0.08252,0.009 -0.09624,0.009 -0.198108,0.0118 -0.29033,-0.009 -0.0021,0 -0.0047,0 -0.0047,0 -0.09624,-0.0266 -0.182965,-0.0689 -0.265574,-0.12363 -0.01153,-0.009 -0.02751,-0.0148 -0.04123,-0.0266 -0.08249,-0.055 -0.151258,-0.1402 -0.217452,-0.2381 -0.0139,-0.0148 -0.02751,-0.0411 -0.04123,-0.055 -0.06877,-0.11003 -0.123751,-0.22834 -0.167791,-0.37566 -0.0071,-0.0266 -0.0139,-0.055 -0.0139,-0.0689 -0.04123,-0.16237 -0.08252,-0.34259 -0.123751,-0.55451 -0.498085,-3.73509 2.905262,-1.8258 3.237707,-3.15402 0.213251,-0.85315 -0.460963,-1.56723 -0.576539,-2.01474 0.323358,-0.0689 0.627441,-0.23809 0.967321,-0.44164 0.123751,-0.0825 0.265544,-0.15824 0.41141,-0.23958 0.558662,-0.30544 0.712768,-0.69761 0.740296,-0.99344 0.04123,-0.0411 0.06877,-0.0964 0.109997,-0.14167 0.02751,-0.0411 0.06877,-0.0825 0.09624,-0.13754 0.04123,-0.055 0.08252,-0.12392 0.137505,-0.1748 0.04123,-0.055 0.08249,-0.11002 0.123751,-0.15676 0.0139,-0.0266 0.04123,-0.055 0.06877,-0.0825 0.05498,-0.0689 0.09624,-0.12392 0.143094,-0.17332 0.0095,-0.009 0.0139,-0.0148 0.02751,-0.0266 0.05498,-0.055 0.109997,-0.11002 0.158267,-0.16385 0.0139,-0.0118 0.02751,-0.0266 0.04123,-0.0411 0.04123,-0.0266 0.06877,-0.055 0.109997,-0.0825 0.0139,-0.0118 0.04123,-0.0148 0.05498,-0.0266 0.02751,-0.0148 0.06877,-0.0266 0.09624,-0.0411 0.0139,-0.006 0.04123,-0.009 0.05498,-0.0118 0.02751,0 0.04123,0 0.06877,0.006 0.04123,0.006 0.08249,0.0266 0.123751,0.0411 0.0139,0.0118 0.04123,0.0148 0.05501,0.0266 0.05498,0.0411 0.109997,0.11002 0.166401,0.20645 0.05498,0.0964 0.109997,0.17066 0.182964,0.24075 0.02751,0.0148 0.04123,0.0411 0.06877,0.055 0.05498,0.0411 0.109998,0.0825 0.161048,0.11002 0.02751,0.0148 0.05498,0.0266 0.08252,0.0411 0.06877,0.0266 0.137504,0.055 0.203698,0.0689 0.0139,0.006 0.04123,0.0118 0.05498,0.0148 0.09624,0.0148 0.188554,0.0266 0.29033,0.0266 0.0047,0 0.0092,0 0.0139,0 0.0139,0 0.04123,-0.006 0.05501,-0.006 0.08252,0 0.173411,-0.009 0.262823,-0.0266 0.02751,-0.006 0.06877,-0.009 0.09624,-0.0148 0.09624,-0.0148 0.187135,-0.0411 0.283468,-0.0689 0.02751,-0.006 0.04123,-0.009 0.06877,-0.0148 0.123751,-0.0266 0.239427,-0.0689 0.359138,-0.11002 0.02751,-0.0118 0.06877,-0.0266 0.09624,-0.0411 0.09624,-0.0411 0.188554,-0.0689 0.282077,-0.11002 0.04123,-0.0148 0.06877,-0.0266 0.109998,-0.0411 0.109997,-0.0411 0.210471,-0.0964 0.315082,-0.13901 0.0139,-0.006 0.02751,-0.0118 0.04123,-0.0148 0.123751,-0.055 0.244928,-0.11002 0.363281,-0.17332 0.04123,-0.0148 0.06877,-0.0411 0.109998,-0.055 0.09624,-0.055 0.198108,-0.0964 0.294441,-0.14434 0.123751,-0.055 0.239397,-0.12393 0.350865,-0.17214 0.109997,-0.055 0.191335,-0.13753 0.260072,-0.21887 0.0139,-0.0266 0.02751,-0.0411 0.05498,-0.0689 0.05498,-0.0825 0.09624,-0.18309 0.123751,-0.29045 0.0021,-0.009 0.0047,-0.0148 0.0071,-0.0266 0.02751,-0.11003 0.02751,-0.23928 0.0139,-0.36732 -0.0021,-0.0266 -0.0047,-0.0689 -0.0095,-0.0964 -0.01183,-0.11003 -0.02751,-0.22834 -0.06877,-0.34126 -0.0047,-0.0148 -0.0071,-0.0266 -0.01154,-0.0411 -0.04123,-0.12392 -0.09624,-0.24489 -0.150104,-0.36051 -0.0139,-0.0266 -0.02751,-0.055 -0.04123,-0.0825 -0.05498,-0.0964 -0.109997,-0.18575 -0.182964,-0.26561 -0.01153,-0.0148 -0.02751,-0.0266 -0.04123,-0.0411 -0.08252,-0.0825 -0.165248,-0.15557 -0.255931,-0.20911 -0.02751,-0.0118 -0.04123,-0.0266 -0.06877,-0.0266 -0.08252,-0.0411 -0.159658,-0.055 -0.242178,-0.0689 -0.0139,0 -0.02751,-0.0118 -0.04123,-0.0118 -0.0071,0 -0.0139,0 -0.0139,0.006 -0.04123,0 -0.08249,0.0148 -0.137504,0.0266 -0.02751,0.009 -0.06877,0.0118 -0.09624,0.0266 -0.04123,0.0266 -0.09624,0.055 -0.138924,0.0964 -0.02751,0.0266 -0.06877,0.0411 -0.09624,0.0689 -0.05498,0.055 -0.09624,0.12393 -0.149868,0.18574 -0.02751,0.0411 -0.05498,0.055 -0.08252,0.0964 -0.06877,0.12393 -0.145904,0.25585 -0.214642,0.4197 -0.06877,0.1609 -0.12375,0.30684 -0.181574,0.43754 -0.05498,0.12393 -0.09624,0.24076 -0.141704,0.34404 -0.0139,0.0266 -0.02751,0.055 -0.04123,0.0825 -0.02751,0.0689 -0.05498,0.13753 -0.08249,0.19521 -0.0139,0.0266 -0.02751,0.055 -0.04123,0.0825 -0.02751,0.0411 -0.04123,0.0964 -0.05498,0.12393 -0.0139,0.0266 -0.02751,0.0411 -0.04123,0.0689 -0.0139,0.0266 -0.02751,0.0689 -0.04123,0.0825 -0.01154,0.0148 -0.02751,0.0266 -0.02751,0.0411 -0.0139,0.0148 -0.02751,0.0411 -0.04123,0.055 -0.01154,0.0118 -0.02751,0.0148 -0.02751,0.0266 -0.0139,0.009 -0.02751,0.0148 -0.04123,0.0266 -0.01153,0.006 -0.02751,0.006 -0.04123,0.009 -0.0139,0 -0.02751,0.006 -0.04123,0.006 -0.0139,0 -0.04123,-0.006 -0.05498,-0.009 -0.0139,0 -0.02751,-0.006 -0.04123,-0.0118 -0.0139,-0.006 -0.04123,-0.0148 -0.06877,-0.0266 -0.0139,-0.009 -0.04123,-0.0148 -0.05498,-0.0266 -0.02751,-0.0148 -0.06877,-0.0266 -0.109998,-0.055 -0.04123,-0.0148 -0.08252,-0.0411 -0.123751,-0.055 -0.02751,-0.0118 -0.05498,-0.0266 -0.08249,-0.0411 -0.04123,-0.0148 -0.08252,-0.0266 -0.137505,-0.055 -0.02751,-0.0118 -0.06877,-0.0266 -0.09624,-0.0411 -0.05498,-0.0148 -0.110027,-0.0266 -0.166431,-0.055 -0.04123,-0.0118 -0.06877,-0.0266 -0.109997,-0.0266 -0.06877,-0.0148 -0.145904,-0.0266 -0.221651,-0.055 -0.04123,-0.009 -0.08252,-0.0148 -0.123751,-0.0266 -0.123751,-0.0266 -0.258682,-0.0411 -0.405912,-0.055 -0.726521,-0.0825 -1.19298,-0.51189 -1.322306,-1.08016 -0.02751,-0.11003 -0.04123,-0.23248 -0.04123,-0.35501 0.0021,-0.12393 0.0139,-0.24904 0.05498,-0.37699 0.154068,-0.63982 0.678365,-1.32373 1.648694,-1.83012 0.389413,-0.20231 0.847625,-0.3756 1.385912,-0.50772 0.536616,-0.13754 1.150304,-0.21887 1.845196,-0.24904 0.452693,-0.0148 0.869625,-0.0266 1.270035,-0.0266 0.141704,0 0.282048,0 0.418289,0 0.123751,0 0.239427,0 0.353624,0.006 0.158268,0 0.310984,0.009 0.459588,0.0148 0.109998,0.006 0.211862,0.009 0.312332,0.0148 0.148714,0.009 0.29033,0.0148 0.429313,0.0266 0.08249,0.006 0.179001,0.0118 0.264183,0.0148 0.147295,0.0118 0.282078,0.0266 0.41831,0.0411 0.0095,0 0.0139,0 0.02751,0 4.028316,2.03225 7.644962,4.76255 10.690432,8.03494 l -0.0011,11.44101 c -0.261462,-0.0825 -0.53939,-0.17628 -0.861373,-0.32195 -0.141704,-0.055 -0.261433,-0.11003 -0.371507,-0.15144 z M 39.503907,223.1174 c 0.04123,-0.009 0.08252,-0.0148 0.123751,-0.0266 0.02751,-0.006 0.06877,-0.0118 0.09624,-0.0148 0.09624,-0.0148 0.182965,-0.0266 0.272465,-0.0411 0.04123,-0.006 0.08252,-0.0118 0.123751,-0.0148 0.08252,-0.009 0.154068,-0.0148 0.229815,-0.0266 0.04123,0 0.08252,-0.006 0.137504,-0.006 0.05498,0 0.109997,0 0.167821,0 0.09624,0 0.195298,0.0118 0.287579,0.0266 0.04123,0.006 0.08252,0.009 0.123751,0.0148 0.12375,0.0266 0.247679,0.055 0.357762,0.11003 0.653582,0.29015 -0.12378,0.8187 -1.161333,1.41299 -0.890273,0.50908 -1.972339,1.06498 -2.513234,1.5586 -0.271045,0.24638 -0.404536,0.47876 -0.31098,0.68104 0.04123,0.0825 0.08249,0.15676 0.137504,0.23958 0.0139,0.0266 0.02751,0.055 0.05498,0.0825 0.04123,0.055 0.08252,0.11002 0.12378,0.1748 0.02751,0.0266 0.04123,0.055 0.06877,0.0825 0.05498,0.055 0.109998,0.12393 0.161048,0.1748 0.02751,0.0266 0.04123,0.0411 0.06877,0.0689 0.08252,0.0825 0.167821,0.15558 0.260072,0.22716 0.0095,0.009 0.0139,0.0118 0.02751,0.0148 0.08249,0.0689 0.170601,0.12392 0.261462,0.17628 0.02751,0.0148 0.06877,0.0411 0.09624,0.055 0.06877,0.0411 0.145904,0.0825 0.222805,0.11003 0.04123,0.0148 0.06877,0.0266 0.109997,0.0411 0.08249,0.0266 0.165011,0.055 0.250401,0.0689 0.02751,0.009 0.06877,0.0148 0.09624,0.0266 0.123751,0.0266 0.236676,0.0411 0.357753,0.0411 0.0021,0 0.0071,0 0.01153,0 0.01154,0 0.02751,-0.006 0.04123,-0.006 0.123751,0 0.253181,-0.0148 0.381137,-0.055 0.04123,-0.009 0.06877,-0.0148 0.110027,-0.0266 0.143095,-0.0411 0.286189,-0.0964 0.429307,-0.18013 0.0092,-0.006 0.0139,-0.0118 0.02751,-0.0148 0.137504,-0.0825 0.268324,-0.18308 0.401791,-0.30272 0.04123,-0.0266 0.06877,-0.0689 0.109997,-0.0964 0.141705,-0.14049 0.283468,-0.29586 0.421061,-0.48853 0.184355,-0.25584 0.360487,-0.48571 0.533868,-0.70308 0.04123,-0.055 0.08249,-0.0964 0.123751,-0.14995 0.170601,-0.20645 0.337112,-0.39631 0.498085,-0.56144 0.0139,-0.0148 0.04123,-0.0411 0.05498,-0.055 0.147295,-0.14463 0.288969,-0.26974 0.430685,-0.37838 0.02751,-0.0266 0.06877,-0.055 0.09624,-0.0825 0.12375,-0.0825 0.235286,-0.14582 0.353612,-0.20379 0.445835,0.13754 0.904021,0.20911 1.363609,0.20911 0.12375,0 0.25318,-0.009 0.37563,-0.0148 0.158267,0.11003 0.319232,0.2449 0.48574,0.4142 1.494448,1.52169 3.818761,3.51463 -1.245282,6.17019 -5.063482,2.65662 -8.134935,6.80653 -8.134935,7.71996 0,0.055 0.0021,0.12364 0.0047,0.19403 0.0014,0.0266 0.0021,0.055 0.0047,0.0825 0.0021,0.055 0.0047,0.11003 0.0092,0.16238 0.0021,0.0411 0.0047,0.0825 0.0071,0.12393 0.0047,0.055 0.0071,0.12363 0.01183,0.18012 0.0047,0.0689 0.0092,0.13754 0.0139,0.19817 0.0047,0.0689 0.0092,0.14463 0.0139,0.21887 0.0047,0.0689 0.0092,0.13753 0.0139,0.19965 0.0021,0.055 0.0071,0.11002 0.0092,0.15675 0.0047,0.0689 0.0071,0.13754 0.01183,0.20379 0.0021,0.055 0.0047,0.11003 0.0092,0.15676 0.0021,0.0689 0.0071,0.13753 0.0092,0.20379 0.0021,0.055 0.0047,0.0964 0.0071,0.15409 0.0021,0.0689 0.0047,0.14582 0.0047,0.2174 0.0014,0.0411 0.0021,0.0825 0.0021,0.12392 0.0014,0.0964 0,0.19285 -0.0014,0.28483 0,0.0148 0,0.0266 0,0.0411 -0.0021,0.0961 -0.0071,0.2023 -0.0139,0.29458 -0.0021,0.0266 -0.0071,0.055 -0.0095,0.0825 -0.0047,0.055 -0.01153,0.12364 -0.0139,0.17333 -0.0047,0.0266 -0.01153,0.055 -0.0139,0.0825 -0.0095,0.0411 -0.0139,0.0825 -0.02751,0.12393 -0.0071,0.0266 -0.0139,0.0411 -0.02751,0.0689 -0.0139,0.0266 -0.02751,0.055 -0.04123,0.0825 -0.01154,0.0148 -0.02751,0.0266 -0.04123,0.0411 -0.0139,0.0148 -0.04123,0.0266 -0.05501,0.0411 -0.0139,0.006 -0.02751,0.0148 -0.04123,0.0148 -0.02751,0.006 -0.05498,0 -0.08249,-0.006 -0.0139,0 -0.02751,-0.006 -0.04123,-0.0118 -0.04123,-0.0148 -0.09624,-0.0411 -0.141704,-0.0964 -0.08252,-0.0689 -0.148685,-0.16919 -0.209052,-0.27389 -0.0139,-0.0266 -0.02751,-0.0411 -0.04123,-0.0689 -0.05498,-0.11003 -0.109998,-0.21592 -0.154068,-0.3371 -0.01183,-0.0266 -0.0139,-0.055 -0.02751,-0.0825 -0.04123,-0.12392 -0.08249,-0.24075 -0.137504,-0.36601 -0.04123,-0.13754 -0.09624,-0.26708 -0.151258,-0.39903 -0.01153,-0.0266 -0.02751,-0.055 -0.04123,-0.0825 -0.05501,-0.12363 -0.110027,-0.23129 -0.173411,-0.33848 -0.0092,-0.0148 -0.0139,-0.0266 -0.02751,-0.0411 -0.06877,-0.11003 -0.156848,-0.2103 -0.253181,-0.3 -0.02751,-0.0148 -0.04123,-0.0411 -0.06877,-0.055 -0.109998,-0.0825 -0.220262,-0.15971 -0.357763,-0.21059 -0.0071,0 -0.0139,0 -0.02751,-0.006 -0.137504,-0.0411 -0.290329,-0.0689 -0.460936,-0.0689 -0.02751,0 -0.04123,-0.0118 -0.06877,-0.0118 -0.02751,0 -0.05498,0.006 -0.09624,0.006 -0.05498,0 -0.09624,0.006 -0.152648,0.0118 -0.08252,0.009 -0.177611,0.0266 -0.273826,0.0411 -0.05498,0.0118 -0.109997,0.0266 -0.173411,0.0411 -0.109997,0.0266 -0.224224,0.0689 -0.345363,0.0961 -0.05501,0.0148 -0.109998,0.0266 -0.172021,0.055 -0.185745,0.0689 -0.381129,0.14464 -0.594415,0.24076 -0.224195,0.0964 -0.430683,0.21473 -0.624715,0.33715 -0.06877,0.0411 -0.123751,0.0825 -0.180154,0.12363 -0.123751,0.0825 -0.246289,0.17066 -0.356358,0.26294 -0.06877,0.055 -0.123751,0.12393 -0.185744,0.17747 -0.09624,0.0825 -0.185745,0.17066 -0.266934,0.26146 -0.05501,0.0689 -0.109998,0.13753 -0.166402,0.20497 -0.06877,0.0825 -0.145904,0.17628 -0.209051,0.26708 -0.05498,0.0689 -0.09624,0.1473 -0.140314,0.22272 -0.05501,0.0961 -0.109998,0.18012 -0.162438,0.2724 -0.04123,0.0825 -0.06877,0.1541 -0.109997,0.23248 -0.04123,0.0964 -0.08252,0.18308 -0.123751,0.27388 -0.02751,0.0825 -0.05501,0.15676 -0.08252,0.23662 -0.02751,0.0961 -0.06877,0.18013 -0.08252,0.26975 -0.02751,0.0825 -0.04123,0.15557 -0.05498,0.23247 -0.02751,0.0825 -0.04123,0.17747 -0.05501,0.26413 -0.0139,0.0825 -0.02751,0.14995 -0.02751,0.22419 -0.01183,0.0825 -0.02751,0.1677 -0.02751,0.25052 -0.0071,0.0689 -0.0092,0.14167 -0.01153,0.21059 -0.0021,0.0825 -0.0047,0.15676 -0.0047,0.23129 0.0014,0.0689 0.0021,0.12393 0.0071,0.19137 0.0047,0.0689 0.0092,0.13901 0.0139,0.20497 0.0071,0.055 0.0139,0.11002 0.02751,0.1677 0.01154,0.055 0.02751,0.12393 0.04123,0.17332 0.01154,0.055 0.02751,0.0964 0.04123,0.13901 0.0139,0.055 0.04123,0.0961 0.05501,0.13754 0.0139,0.0411 0.02751,0.0689 0.05498,0.11003 0.02751,0.0411 0.04123,0.0689 0.06877,0.0961 0.0139,0.0266 0.04123,0.0411 0.06877,0.0689 0.02751,0.0266 0.05501,0.0266 0.08252,0.0411 0.02751,0.009 0.04123,0.0148 0.06877,0.0266 0.0095,0 0.0139,0.009 0.02751,0.009 0.04123,0 0.06877,-0.009 0.109997,-0.0266 0.09624,-0.0411 0.188555,-0.0964 0.288969,-0.16918 0.0139,-0.009 0.02751,-0.0148 0.04123,-0.0266 0.09624,-0.0689 0.195298,-0.14315 0.295836,-0.22567 0.0139,-0.0148 0.04123,-0.0266 0.06877,-0.055 0.09624,-0.0825 0.203698,-0.17184 0.306858,-0.26294 0.08252,-0.0689 0.155457,-0.13753 0.233896,-0.20645 0.04123,-0.0411 0.09624,-0.0825 0.137504,-0.12363 0.109998,-0.0961 0.207898,-0.17894 0.309602,-0.26294 0.0139,-0.0148 0.04123,-0.0266 0.05498,-0.0411 0.09624,-0.0825 0.198108,-0.1541 0.29172,-0.21887 0.0139,-0.0118 0.04123,-0.0266 0.05498,-0.0411 0.09624,-0.0689 0.187164,-0.11002 0.273796,-0.15261 0.01154,-0.006 0.0139,-0.006 0.02751,-0.0118 0.08252,-0.0266 0.166401,-0.055 0.239428,-0.055 0.0071,0 0.0139,0 0.0139,0 0.02751,0 0.05501,0.009 0.09624,0.0148 0.0139,0.006 0.02751,0 0.04123,0.009 0.04123,0.0148 0.08249,0.0411 0.123751,0.0825 0.580662,0.58072 -0.913647,2.57313 0,2.73923 0.342634,0.0689 0.602691,0.28749 0.799442,0.62884 0.137504,0.22716 0.233926,0.50637 0.312355,0.82142 0.04123,0.15676 0.06877,0.32479 0.09624,0.4995 0.05498,0.34815 0.09624,0.72792 0.109998,1.12145 0,0 0,0 0,0 0.0071,0.12363 0.02751,0.21591 0.06877,0.30408 0.0095,0.0266 0.02751,0.055 0.04123,0.0689 0.02751,0.055 0.06877,0.11002 0.109998,0.15143 0.0139,0.0148 0.02751,0.0411 0.05498,0.055 0.123751,0.0961 0.29172,0.14995 0.488485,0.15409 0.01153,0 0.0139,0.006 0.02751,0.006 0.0139,0 0.04123,-0.006 0.06877,-0.006 0.08252,0 0.154068,-0.0118 0.236677,-0.0266 0.02751,-0.006 0.06877,-0.009 0.09624,-0.0148 0.228395,-0.055 0.476086,-0.13753 0.733399,-0.24904 0.04123,-0.0148 0.08252,-0.0411 0.109997,-0.055 0.09627,-0.0411 0.191364,-0.0961 0.287579,-0.14581 0.04123,-0.0266 0.08252,-0.0411 0.109997,-0.0689 0.260043,-0.14729 0.520115,-0.3165 0.766419,-0.49811 0.04123,-0.0266 0.06877,-0.055 0.110027,-0.0825 0.09624,-0.0689 0.177581,-0.13753 0.261433,-0.20911 0.02751,-0.0266 0.06877,-0.055 0.09624,-0.0825 0.109997,-0.0961 0.220231,-0.19669 0.320604,-0.29583 0.08249,-0.0825 0.200918,-0.14996 0.331611,-0.19255 0.04123,-0.0148 0.09624,-0.0148 0.145904,-0.0266 0.09624,-0.0148 0.191364,-0.0411 0.301338,-0.0411 0.109998,0 0.223041,0.006 0.342631,0.0148 0.04123,0.006 0.08252,0 0.123751,0.009 0.169211,0.0266 0.348132,0.0689 0.536642,0.11003 0.04123,0.0118 0.09624,0.0266 0.143094,0.0411 0.145905,0.0411 0.293081,0.0825 0.447184,0.14316 0.06877,0.0266 0.151494,0.055 0.227004,0.0825 0.137505,0.055 0.265544,0.11002 0.40041,0.16237 0.08249,0.0411 0.169211,0.0825 0.255931,0.11003 0.137505,0.055 0.265574,0.12363 0.399035,0.19284 0.08252,0.0411 0.174801,0.0825 0.262793,0.13754 0.137504,0.0689 0.275216,0.14729 0.411433,0.22419 0.08252,0.0411 0.167821,0.0961 0.250401,0.14168 0.152647,0.0825 0.305479,0.18278 0.456834,0.27654 0.06877,0.0411 0.137504,0.0825 0.196718,0.12364 0.213251,0.13753 0.425157,0.27802 0.630186,0.42245 0.04123,0.0266 0.06877,0.055 0.09627,0.0689 0.167821,0.12364 0.33298,0.24224 0.492587,0.3646 0.06877,0.055 0.137505,0.11003 0.198108,0.15824 0.123781,0.0961 0.239398,0.19284 0.35361,0.29015 0.06877,0.055 0.137504,0.12393 0.198108,0.1748 0.09624,0.0964 0.200888,0.18308 0.29447,0.27536 0.05498,0.055 0.123751,0.12364 0.176192,0.17628 0.08252,0.0964 0.169211,0.18013 0.246318,0.26975 0.04123,0.055 0.09624,0.11003 0.140314,0.16386 0.08249,0.0961 0.140315,0.18574 0.202308,0.27654 0.02751,0.0411 0.06877,0.0961 0.09624,0.13754 0.08252,0.13753 0.145905,0.25732 0.188555,0.37708 0,0 0.0015,0 0.0015,0 0.363252,1.01547 1.027872,1.67693 1.770353,2.19826 0.148685,0.11003 0.29996,0.20379 0.452691,0.29725 0.306857,0.1887 0.616441,0.3633 0.91917,0.53384 1.2081,0.68663 2.268844,1.33748 2.265555,2.82607 -0.0021,1.35117 -0.123751,2.61755 -0.361886,3.79809 -0.321983,1.57478 -0.86549,2.99646 -1.655313,4.26609 -0.198108,0.3179 -0.410034,0.62606 -0.63984,0.92331 -1.316805,1.71711 -1.90931,5.62159 -4.067396,6.70119 -2.15809,1.08015 -1.445605,4.89818 -1.202611,5.8062 0.0139,0.0689 0.04123,0.13754 0.06877,0.21325 0.0071,0.0266 0.0139,0.0411 0.02751,0.0689 0.0139,0.055 0.04123,0.11003 0.05501,0.16533 0.0139,0.0266 0.02751,0.0689 0.04123,0.0961 0.0139,0.055 0.04123,0.0964 0.05498,0.15144 0.0139,0.0411 0.04123,0.0961 0.05501,0.13753 0.0139,0.0411 0.04123,0.0825 0.05498,0.13753 0.02751,0.0825 0.06877,0.15676 0.09624,0.23514 0.0139,0.0411 0.04123,0.0961 0.05498,0.14168 0.0139,0.0411 0.04123,0.0961 0.05501,0.13753 0.0139,0.0411 0.04123,0.0961 0.05498,0.13753 0.0139,0.0411 0.04123,0.0825 0.05498,0.13754 0.0139,0.0411 0.02751,0.0825 0.05501,0.13753 0.0139,0.0411 0.02751,0.0825 0.04123,0.12393 0.0139,0.0411 0.02751,0.0825 0.04123,0.12363 0.0139,0.0411 0.02751,0.0825 0.04123,0.12393 0.01154,0.0411 0.0139,0.0825 0.02751,0.11003 0.0095,0.0411 0.0139,0.0825 0.02751,0.11003 0.0071,0.0411 0.0092,0.0689 0.0139,0.0961 0.0047,0.0411 0.0071,0.0689 0.0071,0.0964 0.0015,0.0266 -0.0015,0.055 -0.0021,0.0825 -0.0021,0.0266 -0.0047,0.055 -0.01154,0.0825 -0.0047,0.0266 -0.0139,0.055 -0.02751,0.0689 -0.0092,0.0266 -0.0139,0.0411 -0.02751,0.0689 -0.01154,0.0148 -0.02751,0.0411 -0.04123,0.055 -0.0139,0.0148 -0.04123,0.0411 -0.05501,0.055 -0.0139,0.0148 -0.04123,0.0266 -0.06877,0.0266 -0.02751,0.0118 -0.05498,0.0148 -0.08249,0.0266 -0.02751,0.006 -0.05501,0.009 -0.09627,0.0118 -0.05498,0 -0.109997,0.006 -0.182964,0 v 0 c -0.440307,-0.055 -0.98382,-0.29997 -1.547703,-0.89444 -0.110027,-0.12364 -0.225614,-0.25171 -0.339865,-0.40036 -0.227005,-0.29586 -0.455456,-0.65227 -0.678364,-1.07877 -0.894396,-1.70628 -1.714882,-4.53226 -2.129749,-9.09817 -0.829719,-9.13086 -1.092524,-6.19509 -3.154027,-8.38362 -1.503265,-1.59649 -2.822845,-4.56592 -2.158089,-6.55788 0.123751,-0.3743 0.284828,-0.81184 0.44994,-1.27833 0.331601,-0.93428 0.68661,-1.98433 0.832464,-2.87168 0.171991,-1.03472 0.05501,-1.84741 -0.701742,-1.99293 -1.743228,-0.33165 -2.572948,-2.90525 -4.233623,-3.48638 -1.660676,-0.58066 -4.316196,-0.99616 -4.732155,-2.65663 -0.207898,-0.82969 -0.642585,-2.40781 -1.089777,-3.78723 -0.218841,-0.67425 -0.438931,-1.30031 -0.635716,-1.77032 2.993197,-7.48423 8.31618,-13.79343 15.072821,-18.02595 z"
       inkscape:connector-curvature="0" />
    <path
       style="fill:#57b1a0;fill-opacity:1;stroke-width:1.08609653"
       id="path4-6"
       d="m 95.197144,274.09487 v -39.16796 h -5.70635 v 39.16796 c -2.784714,1.13242 -4.754835,3.86227 -4.754835,7.04764 0,4.19455 3.412434,7.60808 7.608094,7.60808 4.195493,0 7.608089,-3.41241 7.608089,-7.60808 0,-3.18537 -1.97028,-5.9159 -4.754998,-7.04764 z"
       inkscape:connector-curvature="0" />
  </g>
</svg>
