<?xml version="1.0" encoding="UTF-8" standalone="no"?>
<svg
   xmlns:dc="http://purl.org/dc/elements/1.1/"
   xmlns:cc="http://creativecommons.org/ns#"
   xmlns:rdf="http://www.w3.org/1999/02/22-rdf-syntax-ns#"
   xmlns:svg="http://www.w3.org/2000/svg"
   xmlns="http://www.w3.org/2000/svg"
   xmlns:sodipodi="http://sodipodi.sourceforge.net/DTD/sodipodi-0.dtd"
   xmlns:inkscape="http://www.inkscape.org/namespaces/inkscape"
   version="1.1"
   x="0px"
   y="0px"
   viewBox="0 0 377.95274 377.95277"
   xml:space="preserve"
   id="svg32"
   sodipodi:docname="Field work.svg"
   inkscape:version="0.92.4 (5da689c313, 2019-01-14)"
   width="10cm"
   height="10cm"><metadata
     id="metadata38"><rdf:RDF><cc:Work
         rdf:about=""><dc:format>image/svg+xml</dc:format><dc:type
           rdf:resource="http://purl.org/dc/dcmitype/StillImage" /><dc:title></dc:title></cc:Work></rdf:RDF></metadata><defs
     id="defs36" /><sodipodi:namedview
     pagecolor="#ffffff"
     bordercolor="#666666"
     borderopacity="1"
     objecttolerance="10"
     gridtolerance="10"
     guidetolerance="10"
     inkscape:pageopacity="0"
     inkscape:pageshadow="2"
     inkscape:window-width="1280"
     inkscape:window-height="961"
     id="namedview34"
     showgrid="false"
     inkscape:zoom="1"
     inkscape:cx="162.1353"
     inkscape:cy="295.81083"
     inkscape:window-x="-8"
     inkscape:window-y="-8"
     inkscape:window-maximized="1"
     inkscape:current-layer="svg32"
     units="cm" /><path
     d="m 327.29686,113.75465 c 15.91935,0 28.8002,-12.94714 28.8002,-28.80036 0,-15.853211 -12.94688,-28.799978 -28.8002,-28.799978 -15.91943,0 -28.80025,12.946767 -28.80025,28.799978 0,15.85322 12.88082,28.80036 28.80025,28.80036 z m 0,-50.070032 c 11.69178,0 21.26986,9.511942 21.26986,21.269672 0,11.69197 -9.51202,21.27006 -21.26986,21.27006 -11.69186,0 -21.2699,-9.51195 -21.2699,-21.27006 0,-11.75773 9.51201,-21.269672 21.2699,-21.269672 z"
     id="path4"
     inkscape:connector-curvature="0"
     style="stroke-width:0.66055524;fill:#57b1a0;fill-opacity:1" /><path
     d="m 248.90993,292.10318 h -59.31787 c 0.13229,-0.85795 0.39647,-1.78393 0.7268,-2.8422 0.66066,-1.9805 -0.46223,-4.09552 -2.44421,-4.7558 -1.9816,-0.66141 -4.09544,0.4611 -4.75599,2.44535 -0.66066,1.91625 -0.99099,3.70018 -1.18903,5.21841 h -5.8129 c 0.19654,-7.53034 -0.52838,-14.73032 -2.11388,-21.40196 -0.46224,-2.04849 -2.50998,-3.30329 -4.55783,-2.77416 -2.04774,0.4611 -3.30292,2.5096 -2.77417,4.55772 1.71742,7.13387 2.31193,14.92874 1.78356,23.18551 -0.0643,1.05826 0.32881,2.0485 0.99099,2.84219 0.72642,0.7937 1.71741,1.19055 2.7742,1.19055 h 137.92391 c 1.8497,0 3.43483,-1.31905 3.76516,-3.17101 3.23677,-20.08098 -7.13399,-33.82031 -7.59637,-34.34869 -1.25522,-1.65168 -3.63291,-1.9805 -5.28445,-0.66141 -1.65127,1.2548 -1.9816,3.63211 -0.7268,5.28451 0.0643,0.11339 7.72851,10.37065 6.53951,25.36516 h -2.24583 c -1.84969,-7.79453 -8.91746,-11.55968 -9.24775,-11.75773 -1.8497,-0.92598 -4.09549,-0.26457 -5.08632,1.58362 -0.99061,1.84818 -0.26457,4.09548 1.5855,5.08647 0.19654,0.0756 3.23682,1.78397 4.75603,5.01999 h -11.95608 z"
     id="path10"
     inkscape:connector-curvature="0"
     sodipodi:nodetypes="cccsccccccccsscccccccscccc"
     style="stroke-width:0.66055524;fill:#57b1a0;fill-opacity:1" /><path
     d="m 72.2114,299.63349 h 86.46669 c 2.11388,0 3.76515,-1.7159 3.76515,-3.7644 0,-6.40741 -2.24579,-12.0223 -6.80373,-16.64616 -1.45323,-1.51936 -3.83122,-1.58739 -5.35047,-0.15118 -1.51937,1.45134 -1.51937,3.8313 -0.13229,5.35066 2.18003,2.24503 3.56711,4.82194 4.22754,7.59649 H 72.21125 c -2.11389,0 -3.76516,1.7159 -3.76516,3.76439 0,2.0485 1.65127,3.8313 3.76516,3.8313 z"
     id="path12"
     inkscape:connector-curvature="0"
     style="stroke-width:0.66055524;fill:#57b1a0;fill-opacity:1" /><path
     d="m 374.61361,292.10318 h -47.16366 c 0.85871,-8.0591 4.49177,-12.35263 4.68993,-12.55067 1.38712,-1.51937 1.25521,-3.9632 -0.26457,-5.3507 -1.51936,-1.38708 -3.96331,-1.2548 -5.35047,0.26456 -0.26457,0.34016 -6.86976,7.79491 -6.80369,21.4681 0,2.0485 1.71741,3.7644 3.76515,3.7644 h 51.12697 c 2.11389,0 3.76516,-1.7159 3.76516,-3.7644 0,-2.04849 -1.65127,-3.83091 -3.76516,-3.83091 z"
     id="path14"
     inkscape:connector-curvature="0"
     style="stroke-width:0.66055524;fill:#57b1a0;fill-opacity:1" /><path
     d="m 93.61339,322.9509 c 0.0643,0.0756 8.58721,4.09548 9.51199,14.46613 0.19653,1.98047 1.84973,3.43558 3.76519,3.43558 0.13228,0 0.19653,0 0.32881,0 2.11389,-0.18897 3.63325,-2.0485 3.43483,-4.09548 -1.32094,-14.66418 -13.34324,-20.41093 -13.87169,-20.67512 -1.91546,-0.85795 -4.16148,-0.0756 -5.02018,1.84818 -0.85871,1.84819 0,4.09549 1.84969,5.02033 z"
     id="path16"
     inkscape:connector-curvature="0"
     style="stroke-width:0.66055524;fill:#57b1a0;fill-opacity:1" /><path
     d="m 119.30899,340.85186 c 0.13229,0 0.19654,0 0.32882,0 1.91546,0 3.56711,-1.51937 3.76515,-3.43558 0.85871,-9.97418 -3.36868,-16.51388 -3.5671,-16.77806 -1.1229,-1.7159 -3.501,-2.24504 -5.21842,-1.05827 -1.71741,1.12252 -2.24578,3.49983 -1.05675,5.21838 0,0.0756 2.97259,4.68966 2.31193,11.95578 -0.19653,2.04849 1.32098,3.89743 3.43486,4.09548 z"
     id="path18"
     inkscape:connector-curvature="0"
     style="stroke-width:0.66055524;fill:#57b1a0;fill-opacity:1" /><path
     d="m 231.93367,310.46637 c -0.52838,0.26457 -12.55056,5.94521 -13.87169,20.67553 -0.19654,2.11275 1.32094,3.89706 3.43482,4.09549 0.13228,0 0.19654,0 0.32882,0 1.91546,0 3.56714,-1.45512 3.76519,-3.43558 0.92485,-10.23875 9.11562,-14.26809 9.51194,-14.46651 1.91546,-0.85795 2.7084,-3.10302 1.8497,-5.01999 -0.85871,-1.91622 -3.1045,-2.70991 -5.02018,-1.84819 z"
     id="path20"
     inkscape:connector-curvature="0"
     style="stroke-width:0.66055524;fill:#57b1a0;fill-opacity:1" /><path
     d="m 214.16473,313.96733 c -1.71741,-1.19054 -4.09548,-0.66141 -5.21841,1.05827 -0.19654,0.26456 -4.4257,6.80392 -3.56711,16.77847 0.19654,1.98047 1.8497,3.43558 3.76515,3.43558 0.13229,0 0.19654,0 0.32882,0 2.11388,-0.18897 3.63291,-2.04849 3.43486,-4.09548 -0.59451,-7.20001 2.18003,-11.69197 2.31193,-11.95615 1.1229,-1.7159 0.66066,-4.02935 -1.05675,-5.21842 z"
     id="path22"
     inkscape:connector-curvature="0"
     style="stroke-width:0.66055524;fill:#57b1a0;fill-opacity:1" /><path
     d="m 315.7581,316.08125 c -1.91546,-0.85795 -4.16148,-0.0756 -5.02018,1.84819 -0.85871,1.91621 -0.0642,4.16162 1.84969,5.02033 0.0643,0.0756 8.58721,4.09548 9.51202,14.46613 0.19654,1.98046 1.8497,3.43558 3.76516,3.43558 0.13228,0 0.19653,0 0.32881,0 2.11389,-0.18898 3.63325,-2.0485 3.43483,-4.09548 -1.32094,-14.73032 -13.34324,-20.47708 -13.87169,-20.67512 z"
     id="path24"
     inkscape:connector-curvature="0"
     style="stroke-width:0.66055524;fill:#57b1a0;fill-opacity:1" /><path
     d="m 338.217,340.85186 c 0.13228,0 0.19653,0 0.32881,0 1.91546,0 3.56711,-1.51937 3.76516,-3.43558 0.8587,-9.97418 -3.36868,-16.51388 -3.56711,-16.77806 -1.12289,-1.7159 -3.50096,-2.24504 -5.21838,-1.05827 -1.71745,1.12252 -2.24582,3.49983 -1.05679,5.21838 0,0.0756 2.97263,4.68966 2.31197,11.95578 -0.19653,2.04849 1.32094,3.89743 3.43482,4.09548 z"
     id="path26"
     inkscape:connector-curvature="0"
     style="stroke-width:0.66055524;fill:#57b1a0;fill-opacity:1" /><g
     id="g867"
     transform="matrix(0.66055526,0,0,0.66055526,208.88025,39.04427)"
     style="fill:#57b1a0;fill-opacity:1"><g
       id="g18"
       transform="matrix(3.099324,0,0,3.099324,-67.826773,150.27341)"
       style="fill:#57b1a0;fill-opacity:1"><g
         id="g16"
         style="fill:#57b1a0;fill-opacity:1"><path
           id="path12-5"
           d="m 73.604,24.426 0.011,-0.006 -0.002,-0.004 1.776,-0.873 c 3.145,-1.357 6.829,-0.034 8.339,3.08 1.502,3.095 0.281,6.778 -2.692,8.425 l 2.285,4.707 -1.832,0.889 z"
           inkscape:connector-curvature="0"
           style="fill:#57b1a0;fill-opacity:1" /><path
           id="path14-1"
           d="m 77.703,36.694 c -3.167,1.457 -6.931,0.131 -8.458,-3.02 -1.518,-3.125 -0.258,-6.867 2.798,-8.476 h -0.001 l 0.012,-0.006 c 0.019,-0.011 0.035,-0.021 0.054,-0.031 z"
           inkscape:connector-curvature="0"
           style="fill:#57b1a0;fill-opacity:1" /></g></g><g
       id="g30"
       transform="matrix(3.099324,0,0,3.099324,-67.826773,150.27341)"
       style="fill:#57b1a0;fill-opacity:1"><path
         id="path26-8"
         d="M 66.523,54.691 59.545,47.575 66.59,37.263 c 1.228,-1.866 1.495,-5.441 -0.333,-7.63 -1.49,-1.785 -9.822,-8.021 -20.608,-3.049 -7.565,3.487 -11.657,10.348 -11.657,17.513 v 27.1 c 0,1.438 0.5,2.639 1.5,3.613 0.999,0.965 2.185,1.449 3.562,1.449 1.437,0 2.656,-0.484 3.655,-1.449 0.999,-0.975 1.5,-2.176 1.5,-3.613 V 48.189 c 0,0 -0.21,-6.39 7.721,-8.823 2.615,-0.802 5.21,0.063 5.709,0.319 l -4.967,7.268 c -0.594,1.272 -0.305,2.78 0.718,3.741 l 8.692,8.725 c 0.626,0.59 1.424,0.881 2.22,0.881 0.865,0 1.727,-0.342 2.365,-1.023 1.228,-1.304 1.163,-3.359 -0.144,-4.586 z"
         inkscape:connector-curvature="0"
         style="fill:#57b1a0;fill-opacity:1" /></g></g><path
     inkscape:connector-curvature="0"
     d="m 231.73237,178.56734 c 0.10583,-0.45354 0.1663,-0.92598 0.1663,-1.4022 0,-4.4432 -4.85751,-8.04054 -10.85171,-8.04054 -2.1649,0 -4.17802,0.47244 -5.87295,1.28125 -2.79381,-0.7748 -5.73405,-1.35684 -8.78295,-1.72345 -2.64717,-2.99342 -7.25466,-4.97388 -12.49613,-4.97388 -6.65853,0 -12.29658,3.1975 -14.18857,7.60102 -10.48037,3.55652 -18.54589,9.93222 -22.0419,17.67418 h 34.79319 c -0.008,0.008 -0.0113,0.008 -0.0189,0.0151 -2.50582,2.0296 -9.15932,5.4312 -25.57833,5.4312 -10.104,0 -18.51304,3.40912 -24.99986,10.13175 -2.8645,2.97073 -5.11766,6.3757 -6.89596,9.93714 -2.3414,-11.95049 -3.26096,-28.95797 4.8196,-32.24955 23.31251,-9.49758 39.44609,-27.8362 41.3431,-46.49348 h 69.74543 c -6.27456,-13.89542 -20.32419,-25.46985 -38.68572,-32.3633 0.67692,-1.19055 1.05071,-2.46425 1.05071,-3.79123 0,-6.43656 -8.63642,-11.65267 -19.2911,-11.65267 -1.99029,0 -3.91025,0.18898 -5.71636,0.52158 -3.42273,-5.80462 -11.84191,-9.265521 -21.11993,-8.0882 -11.45035,1.45133 -19.87205,9.41178 -18.8111,17.78039 0.0416,0.30236 0.0945,0.60472 0.15874,0.9033 -13.38531,2.85735 -25.2853,8.00505 -34.71489,14.76437 -0.034,-0.008 -0.068,-0.0151 -0.10205,-0.0265 -1.12402,-1.52696 -3.17025,-2.54743 -5.51423,-2.54743 -1.43735,0 -2.75829,0.38929 -3.82941,1.03559 -3.04368,-0.30236 -6.16095,-0.49134 -9.33612,-0.49134 -7.88871,0 -15.42125,1.03185 -22.3324,2.89893 -1.51823,-0.65764 -3.25114,-1.03181 -5.08991,-1.03181 -5.36018,0 -9.80848,3.16723 -10.68752,7.3281 -4.51648,2.49448 -8.49242,5.42327 -11.79897,8.69444 -3.08673,-1.48913 -6.81261,-2.35842 -10.82899,-2.35842 -10.65464,0 -19.29106,6.11525 -19.29106,13.66298 0,1.78772 0.4902,3.49606 1.37423,5.06229 -7.30776,4.70058 -12.8523099,10.65978 -15.8809899,17.37106 H 39.21244 c 0.37417,2.25637 1.71023,6.37571 6.411,10.18508 6.7495,5.46102 18.01801,8.23484 33.49736,8.23484 6.6307,0 11.83936,2.04472 15.91886,6.25926 10.50819,10.85443 9.94742,32.02958 9.94235,32.23178 h 0.034 l -4.78679,70.83666 h 0.0113 c 0,0.008 -0.002,0.008 -0.002,0.0113 0,2.53984 10.01311,4.6027 22.36524,4.6027 12.34965,0 22.36275,-2.05984 22.36275,-4.6027 0,-0.008 -0.002,-0.008 -0.002,-0.0113 h 0.002 l -3.40009,-54.6905 c 0.91427,-7.13576 3.28368,-16.91151 9.38412,-23.21121 4.0795,-4.2134 9.28812,-6.26231 15.9214,-6.26231 15.47685,0 26.74532,-2.76661 33.49232,-8.23443 4.44573,-3.5981 5.88554,-7.47479 6.34279,-9.79352 h 33.45188 c -1.75562,-3.87476 -4.65546,-7.40596 -8.42428,-10.41714 z M 100.57466,148.45473 c -3.85719,-2.92912 -8.33829,-5.47387 -13.30193,-7.52728 h 12.17533 c 0.21921,2.63432 0.59603,5.14543 1.12667,7.52728 z m 15.5905,33.09582 c -1.43471,4.07205 -2.2885,8.74504 -2.55647,13.94871 -2.0005,-5.70635 -4.99894,-11.44289 -9.4927,-16.10081 -6.48679,-6.72413 -14.89587,-10.13439 -24.99734,-10.13439 -13.94603,0 -20.86731,-2.434 -24.21932,-4.47876 -0.78047,-0.47622 -1.37159,-0.93354 -1.82626,-1.35307 h 54.04638 c 1.07339,1.47401 2.2507,2.84598 3.53876,4.12765 2.93253,2.91023 6.11798,5.00408 9.21994,6.51437 -1.49555,2.22992 -2.74321,4.72629 -3.71341,7.47705 z m 11.11442,-14.95637 c -3.14758,-1.0885 -6.67875,-2.90645 -9.74783,-5.95123 -4.67817,-4.64805 -7.45426,-11.2611 -8.29036,-19.71285 h 43.61651 c -0.80088,-1.78019 -1.78091,-3.50365 -2.91514,-5.16853 h 11.14976 c -0.88895,4.17565 -3.21826,8.61393 -6.7899,12.82696 -5.37281,6.34546 -12.97863,11.64019 -21.99391,15.31274 -1.79342,0.72567 -3.47076,1.63275 -5.02929,2.6948 z"
     id="path2"
     style="stroke-width:2.5260036;fill:#57b1a0;fill-opacity:1" /></svg>