<?xml version="1.0" encoding="UTF-8" standalone="no"?>
<!-- Created with Inkscape (http://www.inkscape.org/) -->

<svg
   xmlns:dc="http://purl.org/dc/elements/1.1/"
   xmlns:cc="http://creativecommons.org/ns#"
   xmlns:rdf="http://www.w3.org/1999/02/22-rdf-syntax-ns#"
   xmlns:svg="http://www.w3.org/2000/svg"
   xmlns="http://www.w3.org/2000/svg"
   xmlns:sodipodi="http://sodipodi.sourceforge.net/DTD/sodipodi-0.dtd"
   xmlns:inkscape="http://www.inkscape.org/namespaces/inkscape"
   width="4cm"
   height="3cm"
   viewBox="0 0 39.999999 30"
   version="1.1"
   id="svg8"
   inkscape:version="0.92.4 (5da689c313, 2019-01-14)"
   sodipodi:docname="MCE.svg">
  <defs
     id="defs2" />
  <sodipodi:namedview
     id="base"
     pagecolor="#ffffff"
     bordercolor="#666666"
     borderopacity="1.0"
     inkscape:pageopacity="0.0"
     inkscape:pageshadow="2"
     inkscape:zoom="1.4"
     inkscape:cx="108.05766"
     inkscape:cy="-53.719453"
     inkscape:document-units="mm"
     inkscape:current-layer="layer1"
     showgrid="false"
     inkscape:window-width="1280"
     inkscape:window-height="1001"
     inkscape:window-x="1272"
     inkscape:window-y="-8"
     inkscape:window-maximized="1"
     units="cm" />
  <metadata
     id="metadata5">
    <rdf:RDF>
      <cc:Work
         rdf:about="">
        <dc:format>image/svg+xml</dc:format>
        <dc:type
           rdf:resource="http://purl.org/dc/dcmitype/StillImage" />
        <dc:title></dc:title>
      </cc:Work>
    </rdf:RDF>
  </metadata>
  <g
     inkscape:label="Laag 1"
     inkscape:groupmode="layer"
     id="layer1"
     transform="translate(0,-267)">
    <path
       id="path1672"
       style="fill:#57b1a0;fill-opacity:1;stroke:#000000;stroke-width:0.0021567"
       d="m 25.567014,267.47248 c 0.35796,0.15503 -0.130931,0.81164 0.446294,0.52451 -0.395954,0.53791 0.652942,-0.16108 0.135728,0.43019 0.235446,0.39495 0.20849,-0.54791 0.674041,-0.24845 0.438955,-0.18307 0.285603,0.17512 0.494603,0.5015 0.356208,0.0424 -0.287211,-0.79441 0.349671,-0.39568 -0.359952,0.62816 0.249769,-0.0747 0.156716,-0.40143 0.292607,0.0856 -0.249384,0.44018 0.27117,0.35542 0.03864,-0.48893 0.38875,-0.55219 1.049022,-0.56132 0.496922,0.35492 -0.555143,-0.18991 -0.04142,0.34507 -0.41464,0.10847 0.409825,0.30105 0.441696,0.26456 0.528057,-0.2423 0.194624,0.20577 -0.225449,0.42788 0.408439,0.24466 0.588914,-0.0518 0.816388,0.20762 -0.317195,0.0265 -0.42939,0.73591 0.225731,0.48253 -0.494493,0.0608 -0.6168,0.0435 -0.210205,0.22947 0.146843,0.12866 0.636978,-0.40521 0.267716,0.21222 0.07099,0.42166 0.0838,0.63561 0.703949,0.5199 -0.468969,0.34746 0.941751,-0.0853 0.296757,0.57052 0.502086,-0.13721 1.44548,-0.22339 1.049021,0.69244 -0.284787,-0.23018 -0.216856,0.13611 -0.485401,0.0161 0.106002,0.40044 -0.21151,0.81321 -0.0095,0.99696 0.02918,0.69393 0.228722,-0.50081 0.621989,0.0751 0.266233,0.29777 0.551249,0.40572 0.719481,-0.11503 0.628862,-0.27891 1.365001,0.41207 0.874176,0.76376 0.07038,-0.44455 -0.335473,0.24895 -0.345067,-0.17944 -0.235956,0.26004 -0.881822,-0.0812 -0.651901,-0.09 -0.334028,0.21872 -0.627714,0.38038 0.123579,0.32343 0.960572,-0.2705 1.556786,1.43073 0.794813,1.03416 -0.42398,0.0751 -0.748822,-0.10937 -0.688998,-0.25363 -0.458659,-0.42229 -0.794381,-0.2804 -0.4483,0.10841 -0.41861,0.19038 0.358377,1.05183 -0.415527,0.98748 0.239204,0.12263 1.18863,0.37346 0.461532,0.48885 -0.373137,0.20985 0.02419,0.0884 0.03998,0.17828 0.369344,-0.0435 0.199352,0.37598 0.0024,0.18634 0.09691,0.45458 -0.908409,0.21473 -0.554053,0.5357 0.166617,-0.46111 0.252215,0.47098 0.280659,-0.24385 -0.650869,-0.49673 1.182593,0.05 1.637579,0.0417 -0.864145,-0.1153 -1.404441,0.76377 -1.111053,0.0865 0.122941,0.23121 0.581138,-0.36823 0.596108,0.21452 0.498669,0.0478 -0.296336,0.0426 0.301361,0.28755 0.238269,-0.27017 0.56671,0.32165 0.324372,-0.37037 -0.132618,0.30454 -0.0645,-0.55461 -0.0048,-0.15183 0.264917,-0.3179 0.371774,0.16788 0.619363,-0.023 -0.01968,0.55632 0.470178,0.0205 0.109886,0.76139 0.07416,-0.59091 -0.01262,0.30269 0,0 -0.426894,-0.25841 0.137479,0.94188 -0.600423,0.55441 0.626058,0.19801 0.286198,0.2276 0.08454,0.38735 0.952283,0.74489 -1.146364,0.1038 -0.825295,0.45923 -0.194975,0.0504 0.302882,0.2983 0.406158,0.22775 -0.571356,0.0272 -0.224863,0.76516 -0.891335,0.7328 0.186676,0.39214 0.46351,0.58652 0.217294,0.92584 1.331173,-0.30524 0.269758,-0.13732 0.72379,-0.17426 0.329824,0.14215 -0.823155,0.23689 -0.336284,0.15557 0.251199,-0.0898 0.524986,-0.12969 0.528538,0.34305 0.445448,0.16044 -0.269731,-0.74391 0.296182,-0.31114 0.470316,0.46372 -0.678496,0.51387 0.06096,0.63781 0.216976,0.526 -0.553708,0.0307 -0.436512,0.58029 -0.647572,-0.195 -0.103454,0.77607 -0.605651,0.54002 -0.355032,-0.024 -0.839306,-0.0453 -0.298774,0.36117 -0.07326,0.24254 -0.235672,0.30123 -0.432778,0.4394 0.627417,0.006 -0.576521,0.29062 0.278356,0.25075 0.01252,0.41795 0.450522,0.40636 -0.262205,0.74307 0.257847,0.76171 -0.488906,0.15104 -0.301361,-0.23925 -0.440563,-0.0465 0.116729,1.12843 0.317464,0.74535 0.684203,-0.27635 1.704521,0.26423 0.98432,0.7997 -0.618978,0.1518 -1.384661,-0.0299 -1.444414,-0.10496 -0.314982,0.14505 -0.48963,0.29871 -0.867278,0.0276 0.20912,0.27611 -0.237702,0.34045 0.147226,0.79367 -0.655303,0.007 -0.612003,0.50629 0.195542,0.47619 -0.437467,-0.0192 -1.676592,0.095 -0.814482,-0.17915 0.0348,-1.0161 -0.355472,0.3873 -0.97989,0.0112 -0.02208,0.39519 1.075323,0.22751 0.328965,0.37268 -0.186609,-0.0353 -1.295168,-0.0424 -0.754553,0.0989 -0.716246,0.3512 -0.238874,-0.21165 -0.649889,-0.46728 -0.462292,0.18617 -0.324257,0.005 -0.815519,0.22113 -0.09611,0.19544 -0.564046,0.4185 0.0024,0.20934 -0.148815,0.42587 -0.993531,-0.14751 -0.372675,-0.0897 -0.526234,-0.21044 -0.667793,-0.15363 -0.982305,-0.54062 0.436075,-0.0777 -0.34621,-0.60809 -0.294464,0.0115 -0.04589,-0.65602 -0.01109,4.92141 0.146306,5.1063 -0.789865,0.21817 -0.691091,-0.21622 -0.974807,-0.0225 -0.406015,-0.67122 0.289288,-4.84003 -0.213613,-5.14826 -0.311335,0.096 -0.558489,0.32109 -0.844274,-0.0184 -0.10762,0.44845 -0.255687,-0.055 -0.420131,0.30971 -0.346108,-0.57419 -0.420367,0.87139 -0.605886,0.0169 -0.42274,0.0726 -0.850551,-0.26314 -0.230046,-0.30366 -0.103295,-0.15926 0.04176,-0.23999 0.133424,-0.42789 0.02093,-0.24614 0.302353,0.32956 0.287566,-0.28525 -0.114613,-0.33994 0.850499,-0.31609 0.579716,0.28985 0.192558,0.59104 0.856773,-0.51003 0.239249,-0.10122 -0.235956,-0.6928 0.957212,-0.73278 0.722356,-0.16103 0.269591,-0.16416 0.24073,-1.11392 -0.195542,-0.62573 -0.197481,-0.06 -0.178675,-0.57681 -0.487702,-0.20014 -0.0616,-0.36724 -0.379855,0.22882 -0.335876,-0.38418 -0.34823,-0.36718 1.212881,-0.17961 0.4578,-0.89718 -0.213205,-0.44471 -0.347487,-0.22123 -0.630335,-0.63033 0.105939,0.42201 0.247085,1.02638 -0.204738,0.50611 0.0059,0.21223 -0.356735,-0.63787 -0.236949,-0.18174 -0.286405,0.13752 -0.509717,-0.0656 0.06671,-0.27146 -0.443198,-0.12739 -0.412677,0.20857 -0.689282,-0.16132 -0.248399,0.0238 -1.430052,-0.12845 -0.702508,-0.14464 0.109531,-0.3903 -0.309894,-0.0601 -0.496902,-0.60962 0.263568,0.56454 -0.891364,0.3618 -0.246154,0.0253 -0.630729,-0.22982 -0.777626,-0.34503 -1.582729,-0.34047 0.80374,0.16453 0.0092,-0.52208 0.31804,-0.38274 0.3177,0.23269 1.180102,-0.82084 0.273183,-0.46383 0.252412,0.42369 -0.607301,-0.13457 -0.517609,0.31516 -0.448253,-0.48394 1.111829,-0.37441 0.246155,-0.43249 -0.07952,-0.33951 0.171186,-0.73011 -0.308263,-0.5015 0.321322,0.14673 -0.316165,0.37239 -0.05521,-0.12653 0.08666,-0.0937 -0.658135,0.51639 -0.560456,0.27462 -0.326161,-0.1932 -0.883785,0.0463 -0.881947,-0.41035 -0.627167,0.2048 0.04008,-0.5174 0.395686,-0.0414 -0.32286,-0.26635 0.652414,-0.0308 0.414083,0.11043 0.171571,-0.52922 -0.332334,-0.17582 -0.388779,-0.60503 -0.112794,-0.0817 -0.28378,-0.28914 -0.3957,0.20245 0.02131,-0.35841 0.06097,-0.48937 -0.299058,-0.55902 -0.164472,0.15425 -0.120559,0.005 -0.404886,-0.0483 0.421191,-0.51366 0.05919,-0.26693 -0.110423,-0.76749 0.322211,-0.085 0.908437,0.25821 1.39179,-0.006 0.533904,0.0717 -0.493697,0.0358 0.0024,0.22803 -0.610713,0.43183 0.156391,0.12886 0.166211,0.0267 -0.331643,0.69393 0.303809,0.54857 0.664265,1.04297 0.663289,-0.0527 0.843365,-0.48522 0.451467,-0.80056 -0.185121,-0.37016 -0.423683,-0.021 -0.209917,-0.44399 -0.24026,-0.30594 -0.348873,0.34783 -0.547515,-0.10812 -0.272692,0.36795 -0.03288,-0.55388 -0.345931,-0.11043 -0.150361,-0.27569 -0.02779,-0.58052 -0.295904,-0.11733 0.07936,-0.4393 0.08863,-0.87016 -0.540609,-0.56361 -0.458068,-0.11726 0.261773,-0.34356 -0.197269,-0.61901 0.266644,-0.0739 0.799814,-0.44413 0.747079,0.17272 0.112737,-0.0347 0.100247,-0.0176 0.356578,-0.18404 -0.129497,0.4499 0.314948,0.005 0.186334,-0.11962 -0.160584,-0.23341 -0.08068,-0.31409 -0.332702,-0.17858 0.432067,0.22313 -0.469703,0.35182 -0.143493,-0.2056 0.792465,0.0838 1.640799,-0.0799 0.864691,-0.1734 -0.202213,0.057 0.106742,-0.28103 0.0601,-0.3074 -0.208467,-0.13475 0.109372,-0.81111 -0.126531,-0.73385 0.389797,0.4757 0.711159,-0.24351 0.968507,-0.40028 -0.01186,-0.32379 -0.353391,-0.10265 -0.09461,-0.44773 0.350641,-0.25543 0.424255,-0.43136 0.04171,-0.54608 -0.245199,0.44291 -0.317225,-0.39687 -0.471599,-0.16103 -0.008,-0.46922 -0.642502,-0.94366 0.04831,-0.85347 -0.37126,0.43902 0.178295,0.11512 0.206758,0.021 0.194154,-0.43935 -0.583441,-0.74014 0.0877,-0.88827 -0.450172,-0.26949 0.3709,-0.10439 0.485398,0.15183 0.170064,-0.34673 0.653201,0.1659 0.07132,0.18404 0.183089,0.19235 1.154129,-0.16906 0.632628,-0.14723 0.08391,-0.29992 0.24196,-0.52162 0.342774,-0.0437 0.251656,-0.41003 0.931668,-0.14147 0.69949,0.25553 0.317704,0.18166 0.538885,-0.20936 0.160891,-0.22563 0.607326,-0.43425 -0.189224,-0.28172 -0.24155,-0.81436 -0.0168,-0.0527 -0.56085,-0.18348 -0.216248,-0.40259 -0.290389,0.0254 -0.676446,-0.91361 -0.453197,-0.72925 0.271412,-0.21041 0.453384,0.11659 0.483104,-0.41178 0.493441,-0.15701 0.05466,0.73113 0.392517,0.33472 0.344665,-0.46351 0.508369,0.16479 0.942333,0.17512 0.460175,0.4924 -0.257616,-1.29784 0.06384,-0.39712 0.389975,-0.0476 0.420847,0.40224 0.722337,0.0598 0.250157,0.0207 0.140546,-0.40643 -0.09893,-0.41869 0.114838,-0.5057 -0.66873,-0.72556 -0.03705,-0.86958 -0.767436,-0.31789 0.423533,-0.002 0.24385,-0.20934 0.174811,-0.50748 -0.305845,-0.53269 0.308263,-0.73385 z m 4.520441,4.95062 c 0.167137,0.99128 0.655343,-0.20137 0,0 z m -3.314991,0.24384 c -0.08729,0.52402 -0.754005,-0.17061 -0.867279,0.44169 0.504721,0.0821 0.852678,0.10124 1.138733,0.0552 0.596636,-0.0558 0.141996,-0.42824 -0.271454,-0.49691 z m -1.587331,0.0897 c 0.213208,0.51787 0.682547,-0.0809 0,0 z m -0.966202,1.02373 c -0.854526,0.1484 -0.123655,0.40123 -0.08828,0.43623 0.0095,0.59663 0.247147,-0.37421 0.25679,0.10208 -0.0053,0.15333 -0.292443,0.23637 0.01781,0.42559 -0.07546,0.60289 0.852775,-0.21026 0.259954,0.007 -0.505561,-0.68334 0.231016,-0.60114 0.519331,-0.40833 0.554894,-0.0203 -0.210199,-0.60665 -0.35542,-0.24328 -0.241954,-0.0362 -0.336433,-0.33108 -0.6102,-0.31919 z m 2.544332,0.70625 c 0.213694,0.29389 -0.971841,-0.0799 -0.656211,0.34449 0.217822,-0.0606 0.625752,0.46576 0.823856,0.0241 0.0038,-1.7e-4 0.331911,-0.53143 -0.167645,-0.36864 z m 2.144047,0.34967 c 0.142121,0.0729 -0.38717,-0.21023 -0.393957,0.13372 -0.0053,0.33489 0.550391,0.26111 0.670014,0.004 0.193549,0.0893 0.800337,-0.32753 0.273758,-0.24845 -0.19569,0.0587 -0.408688,-0.3546 -0.549815,0.11042 z m 0.44399,0.45089 c -0.156812,0.63152 -0.542144,0.25732 -0.545211,0.51761 0.120507,0.49555 0.512756,0.16622 0.747256,-0.0419 0.676705,10e-4 -0.04229,-0.57612 -0.105426,-0.14676 -0.06674,-0.17014 -0.04329,-0.20216 -0.09662,-0.32897 z m -1.566624,0.94319 c 0.214966,0.34853 0.141904,0.14616 0.135726,0.42214 0.789951,0.28612 0.665105,-0.32332 0.250753,-0.37842 -0.258302,0.0711 -0.149171,-0.028 -0.386479,-0.0437 z m -7.471959,0.57972 c -0.02429,0.30816 -1.172902,0.21855 -0.14263,0.44859 0.355024,0.17792 0.971137,-0.24113 0.924796,0.0115 -0.411875,0.57064 0.976876,0.18267 0.325407,0.0807 0.321141,-0.47085 -0.599622,-0.49108 -1.107573,-0.54075 z m 6.222798,0.82127 c -0.169119,0.65208 0.969245,0.23141 0,0 z m -1.741465,0.39569 c -0.02506,0.32655 -0.475764,0.37139 0.104673,0.54895 0.410594,0.0529 -0.0014,-0.18246 0.521347,-0.24012 -0.168807,-0.18784 -0.433963,-0.0576 -0.62602,-0.30883 z m 3.395513,0.10352 c -0.480166,0.0746 -0.591779,0.53195 -0.596978,0.53544 0.428439,0.23865 0.86631,0.0369 0.364626,-0.25939 0.232457,0.0111 0.753858,-0.53944 0.232352,-0.27605 z m -3.386307,1.30437 c -0.236148,0.17314 -0.793551,0.43179 -0.09892,0.57511 0.673927,-0.11408 0.468311,-0.26806 0.09892,-0.57511 z m 4.506637,0.18863 c -0.327985,0.69944 0.657415,0.55512 0.929393,0.15184 -0.667433,-0.22571 -1.02089,0.32506 -0.775081,-0.22915 -0.05253,0.0243 -0.08718,0.0894 -0.154312,0.0773 z m -8.774031,0.40719 0.0086,0.009 z m 7.152195,0.35657 c 0.286875,0.3836 -0.917672,0.61595 -0.128829,0.66484 -0.05295,-0.24145 0.808399,-0.48493 0.739605,-0.25852 0.275275,-0.49102 -0.407238,-0.30752 -0.610776,-0.40632 z m -0.823573,0.21624 c -0.395479,-0.0373 -0.744214,0.5564 -0.193242,0.15874 0.514278,0.3736 0.117574,0.0734 0.317464,-0.17944 z m -1.113433,0.65334 c -0.723868,0.10146 0.290307,0.51176 0.119623,-0.0828 l -0.07102,0.0233 z m -4.683776,0.4785 0.01036,0.009 z m 4.552651,0.0828 c 0.326195,0.32442 -0.471415,0.19857 -0.223149,0.60733 0.403663,-0.0878 0.786769,-0.0967 0.328394,-0.53342 l -0.04531,-0.0496 z m 4.437622,0.18864 c -0.04065,0.17902 -0.661629,-0.0127 -0.08512,0.37728 0.35472,0.40429 0.915367,0.75082 0.823001,0.35801 -0.792383,0.19752 -0.03187,-1.01844 -0.737883,-0.73529 z m -1.090428,1.70005 c -0.02126,0.2619 -0.843833,0.0335 -0.464696,0.30597 0.153736,0.69602 1.228022,-0.0319 0.528825,-0.35572 z m 1.33198,1.73456 c 0.275788,0.53883 -0.219987,0.26136 -0.619694,0.26139 -0.366662,0.63967 0.556813,0.24147 0.631199,0.29762 0.326195,9.6e-4 1.25147,-0.28293 0.437089,-0.31746 -0.218322,-0.20774 -0.199977,-0.001 -0.448594,-0.24155 z"
       inkscape:connector-curvature="0"
       sodipodi:nodetypes="cccccccccccccccccccccccccccccccccccccccccccccccccccccccccccccccccccccccccccccccccccccccccccccccccccccccccccccccccccccccccccccccccccccccccccccccccccccccccccccccccccccccccccccccccccccccccccccccccccccccccccccccccccccccccccccccccccccccccccccccccccccccccccccccccccccc"
       inkscape:export-filename="C:\Users\u0076217\Box Sync\01. Research\00. Running projects\02. SEM Fundiv\Species diversity.png"
       inkscape:export-xdpi="300"
       inkscape:export-ydpi="300" />
    <g
       inkscape:export-ydpi="300"
       inkscape:export-xdpi="300"
       inkscape:export-filename="C:\Users\u0076217\Box Sync\01. Research\00. Running projects\02. SEM Fundiv\Species diversity.png"
       transform="matrix(0.30358172,0,0,0.30358172,1.9038819,267.37067)"
       id="g1586"
       style="fill:#57b1a0;fill-opacity:1">
      <path
         sodipodi:nodetypes="ccccccccccccccccccccccccccccccccccccccccccccccccccccccccccccccccccccccccccccccccccccccccccccccccccccccccccccccccccccccccccccccccccccccccccccccccccccccccccccccccccccccccccccccccccccccccccccccccccccccccccccccccccccccccccccccccccccccccccccccccccccccccccccccccccccccccccccccccccccccccccccccccccccccccccccccccccccccccccccccccccccccccccccccccccccccccccccccccccccccccccccccccc"
         inkscape:connector-curvature="0"
         d="m 35.000516,3.5225191 c 0.45956,-0.9109214 0.48218,-1.4340771 0.9784,-0.2890732 0.18715,-1.5775161 0.31034,0.1436222 0.45029,0.6170601 -0.35544,0.5928264 -0.0918,2.4184662 1.13961,1.284152 0.37364,1.1390317 -1.17584,2.0573882 0.47809,1.7233208 -1.50748,1.9175558 0.27509,0.7355834 0.6115,0.111182 1.19358,-0.8863873 -1.03012,1.5434273 -0.2446,1.6024104 -0.3977,0.9088361 -0.54212,2.7553438 0.82274,1.1507331 0.81897,-0.5554769 -0.32526,1.0092327 0.21681,1.2716447 0.0231,0.942306 -1.49905,3.696243 0.36134,2.390412 0.78089,-1.725422 -0.084,3.545782 0.74492,1.952634 -1.00285,-0.292185 1.53533,-2.607587 0.29237,-0.587006 -0.11398,0.507998 1.08889,3.04402 0.76855,1.397233 0.77402,0.868495 1.73829,-1.575566 0.68464,0.572599 0.31557,0.455495 -0.43004,0.880908 -0.0556,1.967921 -0.75732,0.317773 -1.43277,2.441249 -0.0334,0.811629 -0.17038,1.17818 -0.92936,3.283999 -0.58927,3.168686 1.48937,-0.0021 1.14123,-2.60451 2.21391,-1.839715 1.53367,-1.030104 0.73651,-0.228915 1.29527,0.377672 0.99976,-0.2856 -2.05508,3.662622 0.27101,1.995717 0.22581,0.860235 -0.84776,2.779191 0.81163,1.534312 -0.17607,1.348096 -3.87919,2.603212 -1.21189,2.568303 0.82746,-1.369167 1.58908,-1.592495 0.85472,0.04586 0.0106,1.471773 -1.7881,3.16148 -0.48781,4.179053 0.38735,-0.333984 1.39349,-2.780286 1.36753,-0.744919 0.22757,-0.891331 1.8928,-1.719542 0.65598,-0.255719 1.04559,0.870696 -0.92982,3.417479 -2.30147,4.892008 -0.71511,-0.765307 -2.34963,-0.14957 -0.23626,0.04308 2.34436,-0.178855 -1.90118,1.433664 0.59621,0.879727 1.07071,-1.449854 2.39998,0.09875 2.95605,-0.478082 0.26185,0.754088 2.85769,-0.967323 3.35492,-0.222364 -0.88583,0.731278 -1.37251,3.735929 -2.95744,4.169324 1.14014,0.417942 0.0254,1.962177 0.96919,2.556318 0.15251,1.295989 -1.43573,1.994624 -0.27923,2.757546 0.59802,0.488066 0.4916,5.559489 1.85679,3.076294 0.54223,0.556349 2.93758,-2.276781 1.97505,0.520211 -0.53013,2.211881 -2.10503,1.454924 -2.59418,3.739362 -1.66343,1.546276 0.18018,2.348949 1.06317,0.503099 1.70227,0.835918 -1.6976,2.063745 -0.14453,2.824022 -1.79546,-0.180457 1.67314,1.213332 1.42313,0.562859 1.31739,-0.765547 1.88322,1.696811 -0.0556,1.949854 -0.84923,0.549563 -2.40822,1.487406 -0.0667,1.867858 -1.07392,-0.667402 1.19586,-0.879538 1.0319,-1.041124 1.06787,-0.428671 1.3198,1.128804 2.28827,1.652625 -0.0299,2.37041 -1.70397,2.68808 -2.09995,4.477854 -0.39577,1.034549 -3.70949,1.248722 -1.78864,1.573225 1.01183,-0.525332 -1.04571,1.692433 0.20152,0.775495 0.93377,0.745845 -0.12584,-1.43115 1.4134,-0.714344 0.6789,-0.283525 1.16457,-0.700524 2.03637,-0.368117 2.07957,-1.68705 -0.29317,2.318716 1.91683,1.440475 0.89069,0.77777 -2.17994,-0.669213 -1.77543,1.120706 -1.72215,0.532963 0.66558,0.703603 -0.83386,1.400893 -0.47947,1.015408 -3.74228,1.296302 -3.96364,2.156931 -0.1067,0.296462 -2.78205,-0.539572 -3.04083,1.54543 -0.49406,-0.803319 -3.01516,-0.723936 -2.54606,0.111182 -1.03845,-1.14497 -0.0396,1.633465 -0.8561,-0.211246 -0.92479,1.319972 0.16521,-1.481517 -0.97841,0.211246 0.65237,0.439903 0.0541,0.937769 -0.32242,0.655973 -0.66627,-1.219669 -0.34786,2.053116 -0.75604,0.03336 -0.95508,0.898935 -2.35092,0.631872 -2.14303,0.101454 -0.48488,0.163736 -1.18513,-1.602137 -1.20355,0.209856 -2.22956,0.05411 0.930448,5.02941 -2.373442,3.669258 -3.856098,1.672466 1.081025,-5.774343 -2.329558,-6.204208 0.28945,-1.884668 -2.16156,-0.616223 -0.26683,-0.422491 -1.0844,0.158059 -1.48278,3.104963 -1.64202,1.492444 -1.12706,1.250164 -2.2259,0.218764 -0.89293,-1.036598 -1.72397,0.351475 -1.25773,0.511679 -2.89074,0.1223 0.85529,1.187042 0.58932,2.656879 -0.0111,1.134056 -0.851254,1.747302 -2.000434,-0.04083 -3.802419,1.067347 -1.203343,0.251868 -0.749339,-2.766765 -0.98952,-0.856101 -1.495304,1.002119 0.69017,-1.803089 -1.067347,-0.567028 -0.85034,-0.85956 -1.29373,0.839253 -1.923448,-0.578146 -1.149945,0.551048 -3.00175,-0.16686 -2.830971,-1.246629 1.578583,-0.39685 -2.281027,-1.00847 -0.104234,-0.979791 2.527445,-0.04404 -2.616202,-1.313967 0.282125,-1.228561 1.31428,0.290597 -2.963662,-2.958061 -0.0042,-2.03741 -1.097702,-1.360098 1.937876,-2.071189 2.112458,-0.411373 1.009753,0.01331 2.350038,1.053197 2.490477,-0.31131 -0.619927,-0.166438 -4.603051,-0.672751 -2.312586,-1.645493 -1.451724,-0.276473 -1.044139,-1.486178 0.255937,-1.142559 0.4344,-0.414644 -0.794709,-0.402811 -2.22e-4,-1.047726 -1.786849,0.739872 -0.388556,-1.023307 -1.356421,-0.67821 -2.128679,-1.280506 1.021517,-0.901563 -0.844983,-2.187506 -1.233305,-1.639083 1.447889,-0.333225 0.189009,-1.67051 0.203958,-1.093747 2.470027,1.193376 1.134057,-0.700446 2.257935,0.167875 -0.806063,-0.621393 0.544792,-0.533674 -1.707758,0.0079 -2.965523,-3.417215 -2.35011,-3.864964 1.201375,0.90488 3.775484,3.041602 6.208125,2.197235 -1.27268,0.441949 -0.959114,-1.802991 -1.901212,-0.466965 -5.56e-4,-0.781941 -0.03232,-1.171656 -1.367539,-1.367538 1.342147,-1.177852 -1.578015,0.251227 -0.567028,-1.156293 -1.088117,0.934965 -3.585732,-2.790204 -0.933929,-1.367538 -1.407646,-2.956892 2.70368,1.311552 2.090222,-1.011757 1.258051,0.63546 2.134031,1.297028 1.334184,-0.311309 0.03493,-1.080333 3.13603,0.835767 1.168279,-0.736059 -1.493814,-0.804216 0.738475,-1.540588 -1.251666,-1.698827 -0.865944,-0.403287 0.837945,-1.766118 -1.006197,-0.711564 -0.112703,-1.224019 -2.45827,-2.274591 -2.379295,-4.536226 0.640889,0.186351 1.830277,2.07779 1.412012,0.422492 1.210292,0.770116 2.049457,2.46063 3.557823,1.311947 -2.149755,-1.069762 -1.294635,-2.858356 -0.825526,-2.943543 -0.973015,-1.561585 1.334688,0.18491 1.370318,-0.947826 1.541624,0.990798 -0.813278,-1.909599 0.244601,-2.47241 -0.425814,-1.324679 1.88236,0.535454 0.544791,-1.152123 1.659401,-1.615138 -2.271484,-0.766543 -1.933177,-2.760093 -1.058355,-1.332212 -2.221769,-4.795676 0.03752,-2.262554 1.395136,1.369718 2.959809,0.939955 3.490941,2.353411 2.545039,0.770717 -1.744547,-1.920032 -1.039378,-2.345072 -1.783649,-0.734728 -2.162712,-3.745561 -1.588512,-3.399389 0.63322,1.007006 0.754924,0.275173 1.249407,0.542012 1.244475,0.189444 -1.679982,-3.818391 0.05003,-3.669006 0.805413,1.739535 0.825923,-2.108309 -0.06254,-2.575253 0.817043,-0.800244 0.920501,-1.587386 0.129249,-2.739246 0.928862,1.237365 2.701193,0.735263 1.223002,-0.689328 -0.144756,-2.097406 -0.100068,-2.492262 0.810591,-0.54566 0.99218,1.616726 3.24635,1.554536 1.57982,-0.399387 0.25547,-1.096765 -0.0999,-2.13474 -0.7338,-3.58006 0.79334,-0.226926 1.52587,-0.0248 2.13469,1.278593 1.07296,-0.818333 -0.83416,-2.558379 -0.56146,-2.993575 -0.83431,-1.297178 1.55993,0.807022 0.44629,-1.151776 -0.80175,-1.252808 -0.73216,-1.5788427 0.69332,-0.857839 0.33328,-0.8624927 -1.15005,-1.3623392 0.77832,-1.2341186 -0.12065,-1.5284878 1.55453,0.9478506 0.31461,-0.9836126 -0.35917,-0.8796675 2.53961,0.7313073 0.48329,-0.7468306 0.0222,-0.2219782 1.56864,-0.7721267 0.0471,-1.6606075 0.40982,-0.8199861 2.33422,-0.2474811 0.3669,-0.9116923 -0.14648,-0.8141852 1.87367,-0.3765641 0.83387,-1.6343753 z m 0.84498,0.7004466 c -0.0846,0.4926291 0.48739,-0.063177 0,0 z m -1.60102,1.6454934 c 0.7403,1.7040675 1.19928,-0.061267 0,0 z m 1.03399,0.333546 c -0.0562,1.1063764 1.12878,0.8035945 0,0 z m 1.22301,0.1223002 c -0.19214,0.3393652 0.39425,-0.0128 0,0 z m -0.43361,0.7782739 c -0.20331,0.3258222 0.38294,-0.00804 0,0 z m 0.4892,0.044473 c -0.23701,0.6317361 0.61319,0.047514 0,0 z m 0.62262,0.055591 c -0.0868,0.5569917 0.5469,-0.083813 0,0 z m -0.87834,1.3453021 c -0.22333,0.5839978 0.59024,-0.028713 0,0 z m 0.10006,0.5559099 c -0.19419,0.3366113 0.38298,-0.018182 0,0 z m -2.77955,0.6448551 c -0.39408,0.3100447 0.40101,0.2883847 0,0 z m 4.22492,0.04447 c -0.26269,0.4069317 0.47993,0.141712 0,0 z m -0.54479,0.3001907 c -0.0782,0.484179 0.48039,-0.088 0,0 z m -1.12294,0.455847 c -0.20439,0.325596 0.38385,0.0021 0,0 z m -3.62453,0.277955 c -0.83387,0.29838 0.95284,0.831336 0,0 z m 3.72459,0.166773 c -0.17902,0.341252 0.39297,-0.02605 0,0 z m -2.00127,0.3669 c -0.19388,0.517367 0.51822,-0.04554 0,0 z m -1.11182,1.167411 c 0.20748,0.499228 0.67649,-0.230394 0,0 z m 1.03399,0.55591 c -0.0216,0.701711 0.6027,-0.252915 0,0 z m -2.11246,0.144537 c -0.18406,0.575767 0.58554,-0.05121 0,0 z m 6.21507,0.600382 c -0.38181,0.504034 0.57538,0.14425 0,0 z m -0.57814,0.733801 c 1.12518,0.685213 -0.26862,-1.419282 0,0 z m 2.00127,-0.466964 c -0.19535,0.336297 0.38386,-0.0079 0,0 z m -0.11118,0.355782 c -0.21213,0.586194 0.58122,-0.03265 0,0 z m -9.56165,0.100064 c 0.0967,1.549247 1.23446,0.966887 0,0 z m 9.25034,0.222364 0.0417,0.04169 z m 0.23349,0.31131 0.0417,0.05003 z m -7.27131,0.211249 c -0.23422,1.425302 1.77313,0.271399 0,0 z m 8.16076,1.47872 c 0.94934,-1.189388 0.36292,-1.46405 0,0 z m -7.30466,-0.578146 c 0.25365,1.256731 1.69261,0.267917 0,0 z m 6.11501,2.023512 c -0.20857,0.748807 0.60194,-0.06637 0,0 z m 0.63374,0.06671 c -0.0128,0.394257 0.33937,-0.192138 0,0 z m -4.89201,0.189009 c 0.0294,0.560062 0.55133,-0.248471 0,0 z m 4.65853,0.289074 c -0.095,0.479478 0.48614,-0.07594 0,0 z m -8.51654,0.222364 c 0.048,0.634063 0.58747,-0.314488 0,0 z m -3.335461,1.934566 c 0.758011,0.29106 0.346188,-0.750856 0,0 z m 0.644851,-0.133418 c -0.135244,0.75237 0.68795,-0.09777 0,0 z m 7.0823,0.1223 c -0.24679,0.432515 0.47882,0.11007 0,0 z m -5.99271,0.756038 c -0.19885,0.667207 0.64321,-0.06392 0,0 z m -2.501597,0.3669 c 1.431837,0.342028 -0.04619,-0.92694 0,0 z m 12.619157,-0.133419 c -0.5861,0.443398 0.55912,0.421114 0,0 z m -2.11246,0.111182 c -0.0554,0.485159 0.48241,-0.08621 0,0 z m 2.17917,0.466964 c 0.29367,0.953034 1.10662,-0.309853 0,0 z m -12.363439,0.07783 c -0.05679,0.622941 0.552048,-0.185137 0,0 z m 7.137879,0.433609 c 0.7722,0.560515 0.41881,-1.334837 0,0 z m -3.06862,-0.222364 c -0.44133,0.539302 0.59706,0.166041 0,0 z m 0.84498,1.223002 c -0.48319,0.565164 1.79185,0.25731 0,0 z m 11.70747,0.01112 c -0.54752,0.324297 0.47394,0.327518 0,0 z m -9.67283,0.978402 c -0.0878,0.558224 0.57018,-0.06815 0,0 z m -1.7678,1.801148 c -0.34237,0.550196 0.72775,0.151273 0,0 z m 11.02925,0.644856 c -0.0554,0.485159 0.48241,-0.08622 0,0 z m -0.84498,0.433609 c -0.84803,1.054918 0.88938,0.147106 0,0 z m -0.72268,0.222364 c -0.02,0.759097 0.66621,-0.24888 0,0 z m -14.887269,0.789393 c -0.520442,1.665878 1.164564,0.348079 0.177891,0.07783 z m -0.578147,0.1223 0.04169,0.04169 z m 1.323066,1.156292 c 0.472586,0.164759 0.01183,-0.812643 0,0 z m 0.322428,-0.511437 c 0.247712,1.34374 1.334522,0.993618 0,0 z m 0.400252,1.278593 c 1.33052,0.757961 1.47248,-0.147055 0,0 z m 5.09214,3.791306 c -0.30857,0.665514 0.69851,0.278933 0,0 z m 5.53686,-0.03336 c -0.20331,0.325823 0.38294,-0.008 0,0 z m 4.32498,1.30083 c -0.26753,1.880584 1.88591,1.729736 0.47808,0.200127 0.36457,-1.122671 -0.27112,-0.408624 -0.47808,-0.200127 z m 6.35961,0.06671 c -0.009,0.597718 0.52974,-0.216345 0,0 z m 0.52256,1.300829 c -0.19214,0.339365 0.39425,-0.0128 0,0 z m -5.88153,0.422492 c -0.41322,0.256234 0.37834,0.311682 0,0 z m 2.446,0.100064 c 0.20326,1.757216 1.51007,0.255632 0,0 z m -21.102339,0.544791 c -0.0079,0.383861 0.336296,-0.19535 0,0 z m 17.655699,0.689329 c -0.0811,0.482204 0.4822,-0.08111 0,0 z m 0.0222,0.355782 c -0.19535,0.336297 0.38386,-0.0079 0,0 z m 0.45585,0.200128 0.0417,0.04169 z m -17.577879,0.822746 c 0.132576,2.031962 1.618927,-0.155035 0.211245,0.211246 l 0.02224,-0.289073 -0.233482,0.07783 z m 13.341839,0.633738 c -1.70995,1.253322 2.328,0.733891 0.51144,0.389137 l -0.22654,-0.244601 z m 2.11246,0.300191 c 0.28267,0.50041 0.58081,-0.372544 0,0 z m 2.25699,-0.08895 c -0.0425,0.623682 0.54479,-0.194014 0,0 z M 21.33621,43.792632 c 0.882559,0.946366 0.675474,-1.036909 0,0 z m 27.328536,1.323065 0.0417,0.04169 z m -0.87834,0.378019 c -0.96702,2.107511 1.84645,-1.390253 0,0 z m -1.8901,0.389137 c -0.19283,0.82307 1.60961,0.03095 0,0 z m 1.53432,0.667092 c -0.0125,0.395153 0.34971,-0.184389 0,0 z m -15.88791,1.578784 0.0417,0.04169 z m 8.56101,0.833865 c 0.75152,1.009311 0.46558,-1.183908 0,0 z m -9.77289,0.03336 c 0.12954,0.482949 0.41512,-0.261063 0,0 z m 2.02351,0.06671 c -0.78777,0.785526 0.93411,0.452905 0,0 z m 11.3628,0.411373 c -2.23783,0.295454 1.28485,0.496091 0,0 z m 0.4892,-0.01112 0.0417,0.04169 z m 0.43361,-0.01112 0.0417,0.04169 z m -16.432699,1.078465 c -0.512437,0.618738 1.038719,0.27093 0,0 z m 14.475899,0.86722 c 0.76433,0.879166 0.72594,-1.53794 0,0 z M 22.092287,51.219593 c -0.05093,0.530604 0.495686,-0.185769 0,0 z m 19.690329,0.500318 c 0.86906,1.13017 1.78637,-0.587498 0,0 z m -10.57341,0.722683 c -0.53133,0.598711 0.74181,0.223636 0,0 z m -8.583245,0.778274 c -0.805331,0.95053 1.042534,-0.05915 0,0 z m 0.489201,0.43361 c -0.01659,0.532834 0.587729,-0.235728 0,0 z m 16.532764,0.266837 c -0.005,0.606892 0.54477,-0.215272 0,0 z m -16.477173,4.56958 c -0.662854,0.457878 0.598988,0.435217 0,0 z m 0.4892,0.700446 c 1.210704,-0.86068 0.42462,-1.341815 0,0 z m 28.084573,-0.544792 c -0.26747,0.695974 0.57919,0.100601 0,0 z m -25.916524,0.255719 c -0.439275,0.505639 0.597362,0.19539 0,0 z m 1.134056,-0.02224 c -0.08622,0.482408 0.48516,-0.05545 0,0 z m 24.226558,0.466964 0.0417,0.04169 z m -10.00638,0.466964 c -0.0555,0.48516 0.48241,-0.08622 0,0 z m -15.676662,0.233483 c -0.742561,0.399104 0.413394,0.458027 0,0 z m 18.467332,-0.04447 c 0.002,0.383849 0.32559,-0.204386 0,0 z m 6.80433,0.911692 c 0.15933,0.55787 1.45713,-0.618693 0.33355,-0.18484 z m -1.15629,0.544792 c -0.0802,0.555827 0.54155,-0.108575 0,0 z m -9.51718,2.023512 c -0.854,1.563434 1.00231,-0.406108 0,0 z m -0.66709,0.31131 c -0.0259,0.684109 0.59429,-0.256519 0,0 z m 1.15629,0 c 0.18117,0.582193 0.69226,-0.294112 0,0 z m -18.322788,0.05559 c -0.333676,1.216046 2.30697,1.202244 0,0 z m 8.572128,1.378656 c -0.4076,0.278072 0.38674,0.290782 0,0 z m 12.89711,0.67821 c -0.33317,0.426865 0.50508,0.119284 0,0 z m -1.47872,0.333546 c -0.38597,2.892862 3.98489,-0.450517 0.76716,0.08895 l -0.37524,-0.07783 z m -8.95015,1.145175 c -0.52227,0.383283 0.50692,0.414147 0,0 z"
         style="fill:#57b1a0;fill-opacity:1;stroke:#000000;stroke-width:0.01042331"
         id="path1584" />
    </g>
    <path
       sodipodi:nodetypes="cccccccccsscccccccc"
       inkscape:connector-curvature="0"
       id="path1680"
       d="m 14.076096,296.26035 c -0.08681,-0.006 -0.410402,-0.0274 -0.719083,-0.0476 -0.755834,-0.0494 -1.454157,-0.12199 -2.192323,-0.22776 -1.156435,-0.16569 -1.5720971,-0.19866 -2.7447931,-0.21769 l -1.139592,-0.0186 v -2.18796 -2.18795 H 20.284764 34.822325 v 2.28002 c 0,2.26443 0.01867,2.26721 -0.036,2.28002 -0.03811,0.009 -0.346464,0.0488 -0.640161,0.10854 -0.751019,0.15266 -2.448221,0.13773 -3.60131,-0.17893 -1.150204,-0.31589 -2.674107,-0.6384 -4.402191,-0.93169 -1.473226,-0.25002 -2.28874,-0.25311 -3.700645,-0.014 -1.044899,0.17694 -2.055901,0.43436 -3.285892,0.83664 -1.028185,0.33629 -1.437123,0.42089 -2.392937,0.49511 -0.404657,0.0314 -2.284724,0.0398 -2.687086,0.0119 z"
       style="opacity:1;fill:#57b1a0;fill-opacity:1;stroke:none;stroke-width:0.03513245;stroke-miterlimit:4;stroke-dasharray:none;stroke-dashoffset:0;stroke-opacity:1"
       inkscape:export-filename="C:\Users\u0076217\Box Sync\01. Research\00. Running projects\02. SEM Fundiv\Species diversity.png"
       inkscape:export-xdpi="300"
       inkscape:export-ydpi="300" />
    <path
       style="fill:#57b1a0;fill-opacity:1;stroke:none;stroke-width:0.11569354px;stroke-linecap:butt;stroke-linejoin:miter;stroke-opacity:1"
       d="m 8.0509599,292.55851 c 0.343647,-0.69764 1.187264,-0.27959 1.543865,-0.0206 0.5079471,0.36897 0.09441,0.71321 -0.696173,0.70777 -0.661193,-0.004 -1.031402,-0.31425 -0.847692,-0.6872 z"
       id="path1626"
       inkscape:connector-curvature="0"
       sodipodi:nodetypes="ssss"
       inkscape:export-filename="C:\Users\u0076217\Box Sync\01. Research\00. Running projects\02. SEM Fundiv\Species diversity.png"
       inkscape:export-xdpi="300"
       inkscape:export-ydpi="300" />
    <path
       sodipodi:nodetypes="aaaa"
       inkscape:connector-curvature="0"
       id="path1628"
       d="m 16.01889,292.90997 c 0.165649,0.28648 -0.366248,0.68207 -0.696172,0.70777 -0.217323,0.017 -0.566768,-0.17557 -0.525251,-0.38956 0.08014,-0.41303 1.01082,-0.68243 1.221423,-0.31821 z"
       style="fill:#57b1a0;fill-opacity:1;stroke:none;stroke-width:0.11569354px;stroke-linecap:butt;stroke-linejoin:miter;stroke-opacity:1"
       inkscape:export-filename="C:\Users\u0076217\Box Sync\01. Research\00. Running projects\02. SEM Fundiv\Species diversity.png"
       inkscape:export-xdpi="300"
       inkscape:export-ydpi="300" />
    <path
       style="fill:#57b1a0;fill-opacity:1;stroke:none;stroke-width:0.06476533px;stroke-linecap:butt;stroke-linejoin:miter;stroke-opacity:1"
       d="m 22.813074,292.51379 c 0.192373,-0.39054 0.664628,-0.15652 0.864255,-0.0115 0.28435,0.20656 0.05285,0.39926 -0.389715,0.39622 -0.370137,-0.002 -0.577379,-0.17592 -0.47454,-0.3847 z"
       id="path1630"
       inkscape:connector-curvature="0"
       sodipodi:nodetypes="ssss"
       inkscape:export-filename="C:\Users\u0076217\Box Sync\01. Research\00. Running projects\02. SEM Fundiv\Species diversity.png"
       inkscape:export-xdpi="300"
       inkscape:export-ydpi="300" />
    <path
       sodipodi:nodetypes="ssss"
       inkscape:connector-curvature="0"
       id="path1632"
       d="m 29.137828,292.05465 c 0.329544,-0.64915 1.13856,-0.26016 1.480527,-0.0192 0.487111,0.34333 0.09054,0.66364 -0.66761,0.65858 -0.634074,-0.004 -0.989092,-0.2924 -0.812917,-0.63944 z"
       style="fill:#57b1a0;fill-opacity:1;stroke:none;stroke-width:0.10928749px;stroke-linecap:butt;stroke-linejoin:miter;stroke-opacity:1"
       inkscape:export-filename="C:\Users\u0076217\Box Sync\01. Research\00. Running projects\02. SEM Fundiv\Species diversity.png"
       inkscape:export-xdpi="300"
       inkscape:export-ydpi="300" />
    <path
       style="fill:#57b1a0;fill-opacity:1;stroke:none;stroke-width:0.06190575px;stroke-linecap:butt;stroke-linejoin:miter;stroke-opacity:1"
       d="m 17.925654,291.85943 c 0.183882,-0.37329 0.635288,-0.1496 0.826097,-0.011 0.271795,0.19743 0.05052,0.38162 -0.372513,0.37871 -0.353793,-0.002 -0.551883,-0.16815 -0.453584,-0.36771 z"
       id="path1634"
       inkscape:connector-curvature="0"
       sodipodi:nodetypes="ssss"
       inkscape:export-filename="C:\Users\u0076217\Box Sync\01. Research\00. Running projects\02. SEM Fundiv\Species diversity.png"
       inkscape:export-xdpi="300"
       inkscape:export-ydpi="300" />
    <path
       sodipodi:nodetypes="csssc"
       inkscape:connector-curvature="0"
       id="path1636"
       d="m 10.662253,292.01284 c 0.343647,-0.69764 0.666391,-0.27959 1.022992,-0.0206 0.507947,0.36897 -0.175301,0.50935 -0.175301,0.50935 -0.640592,0.16381 -1.031401,-0.11583 -0.847691,-0.48878 z"
       style="fill:#57b1a0;fill-opacity:1;stroke:none;stroke-width:0.11569354px;stroke-linecap:butt;stroke-linejoin:miter;stroke-opacity:1"
       inkscape:export-filename="C:\Users\u0076217\Box Sync\01. Research\00. Running projects\02. SEM Fundiv\Species diversity.png"
       inkscape:export-xdpi="300"
       inkscape:export-ydpi="300" />
    <path
       style="fill:#57b1a0;fill-opacity:1;stroke:none;stroke-width:0.05629254px;stroke-linecap:butt;stroke-linejoin:miter;stroke-opacity:1"
       d="m 32.479525,293.16933 c 0.0806,0.13939 -0.178205,0.33187 -0.338731,0.34437 -0.105744,0.008 -0.275775,-0.0854 -0.255573,-0.18954 0.03897,-0.20097 0.491829,-0.33205 0.594304,-0.15483 z"
       id="path1639"
       inkscape:connector-curvature="0"
       sodipodi:nodetypes="aaaa"
       inkscape:export-filename="C:\Users\u0076217\Box Sync\01. Research\00. Running projects\02. SEM Fundiv\Species diversity.png"
       inkscape:export-xdpi="300"
       inkscape:export-ydpi="300" />
    <path
       style="fill:#57b1a0;fill-opacity:1;stroke:none;stroke-width:0.06772608px;stroke-linecap:butt;stroke-linejoin:miter;stroke-opacity:1"
       d="m 19.367226,291.95313 c 0.201167,-0.4084 0.390099,-0.16368 0.598853,-0.0121 0.297345,0.21599 -0.102622,0.29817 -0.102622,0.29817 -0.374994,0.0959 -0.603774,-0.0678 -0.496231,-0.28613 z"
       id="path1641"
       inkscape:connector-curvature="0"
       sodipodi:nodetypes="csssc"
       inkscape:export-filename="C:\Users\u0076217\Box Sync\01. Research\00. Running projects\02. SEM Fundiv\Species diversity.png"
       inkscape:export-xdpi="300"
       inkscape:export-ydpi="300" />
    <path
       sodipodi:nodetypes="aaaa"
       inkscape:connector-curvature="0"
       id="path1647"
       d="m 32.218966,292.43192 c -0.03441,0.15729 -0.355339,0.12502 -0.482344,0.0261 -0.08367,-0.0652 -0.146119,-0.24899 -0.06101,-0.31229 0.164256,-0.12217 0.587119,0.0863 0.543354,0.28624 z"
       style="fill:#57b1a0;fill-opacity:1;stroke:none;stroke-width:0.05629254px;stroke-linecap:butt;stroke-linejoin:miter;stroke-opacity:1"
       inkscape:export-filename="C:\Users\u0076217\Box Sync\01. Research\00. Running projects\02. SEM Fundiv\Species diversity.png"
       inkscape:export-xdpi="300"
       inkscape:export-ydpi="300" />
    <path
       style="fill:#57b1a0;fill-opacity:1;stroke:none;stroke-width:0.05629254px;stroke-linecap:butt;stroke-linejoin:miter;stroke-opacity:1"
       d="m 20.065334,294.21776 c -0.03441,0.15729 -0.355339,0.12502 -0.482345,0.0261 -0.08367,-0.0652 -0.146119,-0.249 -0.06101,-0.31229 0.164257,-0.12217 0.587119,0.0863 0.543355,0.28624 z"
       id="path1666"
       inkscape:connector-curvature="0"
       sodipodi:nodetypes="aaaa"
       inkscape:export-filename="C:\Users\u0076217\Box Sync\01. Research\00. Running projects\02. SEM Fundiv\Species diversity.png"
       inkscape:export-xdpi="300"
       inkscape:export-ydpi="300" />
    <path
       sodipodi:nodetypes="csssc"
       inkscape:connector-curvature="0"
       id="path1668"
       d="m 10.041172,294.83031 c 0.201166,-0.4084 0.390098,-0.16367 0.598853,-0.012 0.297344,0.21599 -0.102623,0.29817 -0.102623,0.29817 -0.374994,0.0959 -0.6037731,-0.0678 -0.49623,-0.28613 z"
       style="fill:#57b1a0;fill-opacity:1;stroke:none;stroke-width:0.06772608px;stroke-linecap:butt;stroke-linejoin:miter;stroke-opacity:1"
       inkscape:export-filename="C:\Users\u0076217\Box Sync\01. Research\00. Running projects\02. SEM Fundiv\Species diversity.png"
       inkscape:export-xdpi="300"
       inkscape:export-ydpi="300" />
    <path
       sodipodi:nodetypes="ssss"
       inkscape:connector-curvature="0"
       id="path1682"
       d="m 8.0509599,292.55851 c 0.343647,-0.69764 1.187264,-0.27959 1.543865,-0.0206 0.5079471,0.36897 0.09441,0.71321 -0.696173,0.70777 -0.661193,-0.004 -1.031402,-0.31425 -0.847692,-0.6872 z"
       style="fill:#57b1a0;fill-opacity:1;stroke:none;stroke-width:0.11569354px;stroke-linecap:butt;stroke-linejoin:miter;stroke-opacity:1"
       inkscape:export-filename="C:\Users\u0076217\Box Sync\01. Research\00. Running projects\02. SEM Fundiv\Species diversity.png"
       inkscape:export-xdpi="300"
       inkscape:export-ydpi="300" />
    <path
       style="fill:#57b1a0;fill-opacity:1;stroke:none;stroke-width:0.11569354px;stroke-linecap:butt;stroke-linejoin:miter;stroke-opacity:1"
       d="m 16.01889,292.90997 c 0.165649,0.28648 -0.366248,0.68207 -0.696172,0.70777 -0.217323,0.017 -0.566768,-0.17557 -0.525251,-0.38956 0.08014,-0.41303 1.01082,-0.68243 1.221423,-0.31821 z"
       id="path1684"
       inkscape:connector-curvature="0"
       sodipodi:nodetypes="aaaa"
       inkscape:export-filename="C:\Users\u0076217\Box Sync\01. Research\00. Running projects\02. SEM Fundiv\Species diversity.png"
       inkscape:export-xdpi="300"
       inkscape:export-ydpi="300" />
    <path
       sodipodi:nodetypes="ssss"
       inkscape:connector-curvature="0"
       id="path1686"
       d="m 22.813074,292.51379 c 0.192373,-0.39054 0.664628,-0.15652 0.864255,-0.0115 0.28435,0.20656 0.05285,0.39926 -0.389715,0.39622 -0.370137,-0.002 -0.577379,-0.17592 -0.47454,-0.3847 z"
       style="fill:#57b1a0;fill-opacity:1;stroke:none;stroke-width:0.06476533px;stroke-linecap:butt;stroke-linejoin:miter;stroke-opacity:1"
       inkscape:export-filename="C:\Users\u0076217\Box Sync\01. Research\00. Running projects\02. SEM Fundiv\Species diversity.png"
       inkscape:export-xdpi="300"
       inkscape:export-ydpi="300" />
    <path
       style="fill:#57b1a0;fill-opacity:1;stroke:none;stroke-width:0.10928749px;stroke-linecap:butt;stroke-linejoin:miter;stroke-opacity:1"
       d="m 29.137828,292.05465 c 0.329544,-0.64915 1.13856,-0.26016 1.480527,-0.0192 0.487111,0.34333 0.09054,0.66364 -0.66761,0.65858 -0.634074,-0.004 -0.989092,-0.2924 -0.812917,-0.63944 z"
       id="path1688"
       inkscape:connector-curvature="0"
       sodipodi:nodetypes="ssss"
       inkscape:export-filename="C:\Users\u0076217\Box Sync\01. Research\00. Running projects\02. SEM Fundiv\Species diversity.png"
       inkscape:export-xdpi="300"
       inkscape:export-ydpi="300" />
    <path
       sodipodi:nodetypes="ssss"
       inkscape:connector-curvature="0"
       id="path1690"
       d="m 17.925654,291.85943 c 0.183882,-0.37329 0.635288,-0.1496 0.826097,-0.011 0.271795,0.19743 0.05052,0.38162 -0.372513,0.37871 -0.353793,-0.002 -0.551883,-0.16815 -0.453584,-0.36771 z"
       style="fill:#57b1a0;fill-opacity:1;stroke:none;stroke-width:0.06190575px;stroke-linecap:butt;stroke-linejoin:miter;stroke-opacity:1"
       inkscape:export-filename="C:\Users\u0076217\Box Sync\01. Research\00. Running projects\02. SEM Fundiv\Species diversity.png"
       inkscape:export-xdpi="300"
       inkscape:export-ydpi="300" />
    <path
       style="fill:#57b1a0;fill-opacity:1;stroke:none;stroke-width:0.11569354px;stroke-linecap:butt;stroke-linejoin:miter;stroke-opacity:1"
       d="m 10.408265,292.01284 c 0.343647,-0.69764 0.666391,-0.27959 1.022992,-0.0206 0.507947,0.36897 -0.1753,0.50935 -0.1753,0.50935 -0.640593,0.16381 -1.031402,-0.11583 -0.847692,-0.48878 z"
       id="path1692"
       inkscape:connector-curvature="0"
       sodipodi:nodetypes="csssc"
       inkscape:export-filename="C:\Users\u0076217\Box Sync\01. Research\00. Running projects\02. SEM Fundiv\Species diversity.png"
       inkscape:export-xdpi="300"
       inkscape:export-ydpi="300" />
    <path
       sodipodi:nodetypes="aaaa"
       inkscape:connector-curvature="0"
       id="path1694"
       d="m 32.479525,293.16933 c 0.0806,0.13939 -0.178205,0.33187 -0.338731,0.34437 -0.105744,0.008 -0.275775,-0.0854 -0.255573,-0.18954 0.03897,-0.20097 0.491829,-0.33205 0.594304,-0.15483 z"
       style="fill:#57b1a0;fill-opacity:1;stroke:none;stroke-width:0.05629254px;stroke-linecap:butt;stroke-linejoin:miter;stroke-opacity:1"
       inkscape:export-filename="C:\Users\u0076217\Box Sync\01. Research\00. Running projects\02. SEM Fundiv\Species diversity.png"
       inkscape:export-xdpi="300"
       inkscape:export-ydpi="300" />
    <path
       sodipodi:nodetypes="csssc"
       inkscape:connector-curvature="0"
       id="path1696"
       d="m 19.367226,291.95313 c 0.201167,-0.4084 0.390099,-0.16368 0.598853,-0.0121 0.297345,0.21599 -0.102622,0.29817 -0.102622,0.29817 -0.374994,0.0959 -0.603774,-0.0678 -0.496231,-0.28613 z"
       style="fill:#57b1a0;fill-opacity:1;stroke:none;stroke-width:0.06772608px;stroke-linecap:butt;stroke-linejoin:miter;stroke-opacity:1"
       inkscape:export-filename="C:\Users\u0076217\Box Sync\01. Research\00. Running projects\02. SEM Fundiv\Species diversity.png"
       inkscape:export-xdpi="300"
       inkscape:export-ydpi="300" />
    <path
       style="fill:#57b1a0;fill-opacity:1;stroke:none;stroke-width:0.05629254px;stroke-linecap:butt;stroke-linejoin:miter;stroke-opacity:1"
       d="m 32.218966,292.43192 c -0.03441,0.15729 -0.355339,0.12502 -0.482344,0.0261 -0.08367,-0.0652 -0.146119,-0.24899 -0.06101,-0.31229 0.164256,-0.12217 0.587119,0.0863 0.543354,0.28624 z"
       id="path1698"
       inkscape:connector-curvature="0"
       sodipodi:nodetypes="aaaa"
       inkscape:export-filename="C:\Users\u0076217\Box Sync\01. Research\00. Running projects\02. SEM Fundiv\Species diversity.png"
       inkscape:export-xdpi="300"
       inkscape:export-ydpi="300" />
    <path
       sodipodi:nodetypes="aaaa"
       inkscape:connector-curvature="0"
       id="path1714"
       d="m 20.065334,294.21776 c -0.03441,0.15729 -0.355339,0.12502 -0.482345,0.0261 -0.08367,-0.0652 -0.146119,-0.249 -0.06101,-0.31229 0.164257,-0.12217 0.587119,0.0863 0.543355,0.28624 z"
       style="fill:#57b1a0;fill-opacity:1;stroke:none;stroke-width:0.05629254px;stroke-linecap:butt;stroke-linejoin:miter;stroke-opacity:1"
       inkscape:export-filename="C:\Users\u0076217\Box Sync\01. Research\00. Running projects\02. SEM Fundiv\Species diversity.png"
       inkscape:export-xdpi="300"
       inkscape:export-ydpi="300" />
    <path
       style="fill:#57b1a0;fill-opacity:1;stroke:none;stroke-width:0.06772608px;stroke-linecap:butt;stroke-linejoin:miter;stroke-opacity:1"
       d="m 10.041172,294.83031 c 0.201166,-0.4084 0.390098,-0.16367 0.598853,-0.012 0.297344,0.21599 -0.102623,0.29817 -0.102623,0.29817 -0.374994,0.0959 -0.6037731,-0.0678 -0.49623,-0.28613 z"
       id="path1716"
       inkscape:connector-curvature="0"
       sodipodi:nodetypes="csssc"
       inkscape:export-filename="C:\Users\u0076217\Box Sync\01. Research\00. Running projects\02. SEM Fundiv\Species diversity.png"
       inkscape:export-xdpi="300"
       inkscape:export-ydpi="300" />
    <path
       inkscape:export-ydpi="300"
       inkscape:export-xdpi="300"
       inkscape:export-filename="C:\Users\u0076217\Box Sync\01. Research\00. Running projects\02. SEM Fundiv\Species diversity.png"
       sodipodi:nodetypes="csssc"
       inkscape:connector-curvature="0"
       id="path2413"
       d="m 10.041172,294.83031 c 0.201166,-0.4084 0.390098,-0.16367 0.598853,-0.012 0.297344,0.21599 -0.102623,0.29817 -0.102623,0.29817 -0.374994,0.0959 -0.6037731,-0.0678 -0.49623,-0.28613 z"
       style="fill:#57b1a0;fill-opacity:1;stroke:none;stroke-width:0.06772608px;stroke-linecap:butt;stroke-linejoin:miter;stroke-opacity:1" />
    <path
       style="fill:#57b1a0;fill-opacity:1;stroke:none;stroke-width:0.02445505px;stroke-linecap:butt;stroke-linejoin:miter;stroke-opacity:1"
       d="m 21.308028,291.37275 v -3.98268 h 0.489101 v 3.98268 z"
       id="path1261"
       inkscape:connector-curvature="0"
       sodipodi:nodetypes="ccccc"
       inkscape:export-xdpi="300"
       inkscape:export-ydpi="300" />
    <path
       style="fill:#ffffff;fill-opacity:1;stroke:none;stroke-width:0.02449357;stroke-linecap:butt;stroke-linejoin:miter;stroke-miterlimit:4;stroke-dasharray:none;stroke-opacity:1"
       d="m 21.308028,291.37275 v 1.9564 l 0.24455,0.37345 0.244551,-0.37345 v -1.9564"
       id="path1263"
       inkscape:connector-curvature="0"
       sodipodi:nodetypes="ccccc"
       inkscape:export-xdpi="300"
       inkscape:export-ydpi="300" />
    <path
       style="fill:#57b1a0;fill-opacity:1;stroke:none;stroke-width:0.02445505px;stroke-linecap:butt;stroke-linejoin:miter;stroke-opacity:1"
       d="m 20.688232,287.58192 c 0.02563,-0.13842 0.09846,-0.24408 0.158803,-0.28935 0.368815,-0.27668 1.074139,-0.28116 1.391051,0 0.07597,0.0674 0.13871,0.15987 0.175975,0.28935 z"
       id="path1265"
       inkscape:connector-curvature="0"
       sodipodi:nodetypes="csscc"
       inkscape:export-xdpi="300"
       inkscape:export-ydpi="300" />
    <path
       inkscape:export-ydpi="300"
       inkscape:export-xdpi="300"
       sodipodi:nodetypes="csscc"
       inkscape:connector-curvature="0"
       id="path1337"
       d="m 20.688232,291.07423 c 0.02563,-0.13842 0.09846,-0.24408 0.158803,-0.28935 0.368815,-0.27668 1.074139,-0.28116 1.391051,0 0.07597,0.0674 0.13871,0.15986 0.175975,0.28935 z"
       style="fill:#57b1a0;fill-opacity:1;stroke:none;stroke-width:0.02445505px;stroke-linecap:butt;stroke-linejoin:miter;stroke-opacity:1" />
  </g>
</svg>
