<?xml version="1.0" encoding="UTF-8" standalone="no"?>
<!-- Created with Inkscape (http://www.inkscape.org/) -->

<svg
   xmlns:dc="http://purl.org/dc/elements/1.1/"
   xmlns:cc="http://creativecommons.org/ns#"
   xmlns:rdf="http://www.w3.org/1999/02/22-rdf-syntax-ns#"
   xmlns:svg="http://www.w3.org/2000/svg"
   xmlns="http://www.w3.org/2000/svg"
   xmlns:sodipodi="http://sodipodi.sourceforge.net/DTD/sodipodi-0.dtd"
   xmlns:inkscape="http://www.inkscape.org/namespaces/inkscape"
   width="12cm"
   height="9cm"
   viewBox="0 0 120 90"
   version="1.1"
   id="svg8"
   inkscape:version="0.92.4 (5da689c313, 2019-01-14)"
   sodipodi:docname="MCE.svg">
  <defs
     id="defs2" />
  <sodipodi:namedview
     id="base"
     pagecolor="#ffffff"
     bordercolor="#666666"
     borderopacity="1.0"
     inkscape:pageopacity="0.0"
     inkscape:pageshadow="2"
     inkscape:zoom="0.49497475"
     inkscape:cx="-229.46856"
     inkscape:cy="-457.27613"
     inkscape:document-units="mm"
     inkscape:current-layer="layer1"
     showgrid="false"
     inkscape:window-width="1280"
     inkscape:window-height="961"
     inkscape:window-x="-8"
     inkscape:window-y="-8"
     inkscape:window-maximized="1"
     units="cm" />
  <metadata
     id="metadata5">
    <rdf:RDF>
      <cc:Work
         rdf:about="">
        <dc:format>image/svg+xml</dc:format>
        <dc:type
           rdf:resource="http://purl.org/dc/dcmitype/StillImage" />
        <dc:title></dc:title>
      </cc:Work>
    </rdf:RDF>
  </metadata>
  <g
     inkscape:label="Laag 1"
     inkscape:groupmode="layer"
     id="layer1"
     transform="translate(0,-207)">
    <path
       id="path1672"
       style="fill:#57b1a0;fill-opacity:1;stroke:#000000;stroke-width:0.00637876"
       d="m 74.120662,210.02442 c 1.058719,0.45853 -0.387247,2.40055 1.31998,1.55132 -1.171092,1.59095 1.931172,-0.47642 0.401436,1.27235 0.696366,1.16812 0.616639,-1.62052 1.993575,-0.73483 1.298274,-0.54145 0.844713,0.51795 1.462861,1.48326 1.053537,0.12541 -0.849469,-2.34958 1.034203,-1.17028 -1.064611,1.85788 0.738728,-0.22094 0.463511,-1.18729 0.865428,0.25318 -0.73759,1.3019 0.802025,1.05121 0.114283,-1.44608 1.149785,-1.63318 3.102636,-1.66019 1.46972,1.04973 -1.641917,-0.56168 -0.122506,1.0206 -1.226358,0.32081 1.212118,0.8904 1.306381,0.78247 1.561806,-0.71664 0.575629,0.6086 -0.666798,1.26552 1.208018,0.72362 1.741799,-0.15321 2.414587,0.61407 -0.938151,0.0784 -1.269984,2.17656 0.667632,1.42715 -1.462535,0.17983 -1.824276,0.12866 -0.621712,0.67869 0.43431,0.38053 1.883956,-1.19847 0.79181,0.62767 0.209963,1.24712 0.24785,1.87991 2.082032,1.53768 -1.387045,1.02767 2.785367,-0.25228 0.877702,1.6874 1.484993,-0.40582 4.275219,-0.66071 3.102634,2.04799 -0.8423,-0.68079 -0.641384,0.40257 -1.435645,0.0476 0.313517,1.18436 -0.625572,2.40519 -0.0281,2.94866 0.0863,2.0524 0.676478,-1.48122 1.839623,0.22212 0.787423,0.88069 1.6304,1.19997 2.127971,-0.34022 1.859949,-0.82492 4.0372,1.21876 2.585503,2.25893 0.20816,-1.31482 -0.992214,0.73631 -1.020584,-0.53072 -0.697877,0.76911 -2.60812,-0.24016 -1.928095,-0.26619 -0.987936,0.6469 -1.856556,1.12503 0.365503,0.95659 2.841036,-0.80004 4.604433,4.2316 2.350779,3.05868 -1.253984,0.22212 -2.214753,-0.32347 -2.037815,-0.75014 -1.356551,-1.24899 -2.349498,-0.82933 -1.325913,0.32063 -1.238101,0.56308 1.059952,3.11095 -1.228982,2.92062 0.707481,0.3627 3.515546,1.10456 1.365048,1.44585 -1.103607,0.62066 0.07155,0.26145 0.118247,0.52729 1.092389,-0.12866 0.589613,1.11201 0.0071,0.55112 0.286626,1.34449 -2.686752,0.6351 -1.638693,1.58442 0.492795,-1.36381 0.745963,1.39299 0.830091,-0.72123 -1.925041,-1.46915 3.497687,0.14789 4.843381,0.12334 -2.555837,-0.34102 -4.153842,2.25896 -3.286104,0.25583 0.363617,0.68384 1.718803,-1.08909 1.763073,0.63448 1.474891,0.14137 -0.876457,0.12599 0.891324,0.85047 0.704717,-0.79907 1.676137,0.95133 0.959377,-1.09542 -0.39224,0.90072 -0.19077,-1.64035 -0.0142,-0.44906 0.78354,-0.94024 1.09958,0.49653 1.83187,-0.068 -0.0582,1.6454 1.39063,0.0606 0.32501,2.25192 0.21933,-1.7477 -0.0373,0.89525 0,0 -1.26262,-0.76428 0.40661,2.78575 -1.77586,1.63975 1.85167,0.58565 0.84648,0.67316 0.25005,1.14565 2.81653,2.20312 -3.390549,0.307 -2.440941,1.35824 -0.576667,0.14906 0.895814,0.88226 1.201271,0.6736 -1.689868,0.0804 -0.665064,2.26307 -2.636252,2.16736 0.552124,1.15982 1.370901,1.73472 0.642674,2.73831 3.937148,-0.90279 0.797857,-0.40614 2.140718,-0.5154 0.97551,0.42043 -2.4346,0.70064 -0.994604,0.46012 0.742957,-0.26559 1.552724,-0.38357 1.563224,1.01462 1.31749,0.47453 -0.797767,-2.20022 0.87601,-0.92024 1.39104,1.37152 -2.006757,1.51985 0.1803,1.88642 0.64174,1.55572 -1.63768,0.0908 -1.29106,1.71629 -1.915291,-0.57674 -0.30598,2.29534 -1.791301,1.59719 -1.050057,-0.071 -2.482368,-0.13398 -0.883666,1.06821 -0.216677,0.71735 -0.697034,0.89093 -1.280004,1.29959 1.855673,0.0178 -1.705146,0.85955 0.823278,0.74163 0.03703,1.23615 1.332482,1.20187 -0.775509,2.19774 0.76262,2.25287 -1.446011,0.44672 -0.89132,-0.70762 -1.303029,-0.13753 0.345244,3.3375 0.938947,2.20449 2.023634,-0.81735 5.041375,0.78149 2.911268,2.36523 -1.830716,0.44897 -4.095336,-0.0884 -4.272064,-0.31044 -0.931605,0.42901 -1.448152,0.88348 -2.565102,0.0816 0.618503,0.81664 -0.703038,1.00693 0.435443,2.3474 -1.938155,0.0207 -1.810089,1.49742 0.578344,1.4084 -1.293873,-0.0568 -4.958767,0.28098 -2.40895,-0.52986 0.102926,-3.00527 -1.051361,1.14549 -2.898168,0.0331 -0.0653,1.16884 3.180425,0.6729 0.972962,1.10226 -0.551924,-0.10441 -3.83065,-0.12541 -2.231701,0.29251 -2.118403,1.03873 -0.706505,-0.62599 -1.922142,-1.38205 -1.367297,0.55063 -0.959038,0.0148 -2.412018,0.65402 -0.284259,0.57805 -1.668248,1.23778 0.0071,0.61916 -0.440142,1.25957 -2.938514,-0.43628 -1.102241,-0.2653 -1.556414,-0.62241 -1.975096,-0.45439 -2.905311,-1.59897 1.289756,-0.2298 -1.023967,-1.79851 -0.870921,0.034 -0.135726,-1.94028 -0.0328,14.55579 0.432722,15.10263 -2.336142,0.64527 -2.044003,-0.6395 -2.883135,-0.0666 -1.200849,-1.98523 0.855612,-14.3151 -0.631792,-15.22673 -0.920819,0.28393 -1.651813,0.94967 -2.497064,-0.0544 -0.318302,1.32635 -0.756232,-0.16267 -1.242599,0.91601 -1.023665,-1.69825 -1.243297,2.57726 -1.791997,0.05 -1.250315,0.21473 -2.515629,-0.77827 -0.680395,-0.89811 -0.30551,-0.47104 0.123512,-0.70981 0.394622,-1.26555 0.0619,-0.728 0.894253,0.97472 0.850518,-0.84367 -0.338985,-1.00542 2.515476,-0.93488 1.714595,0.85727 0.569519,1.74809 2.534032,-1.50849 0.707614,-0.29937 -0.697874,-2.04906 2.831095,-2.1673 2.136474,-0.47627 0.797355,-0.48553 0.711994,-3.29458 -0.578344,-1.85069 -0.584079,-0.17746 -0.528458,-1.706 -1.44245,-0.59194 -0.182191,-1.08617 -1.123477,0.67677 -0.993403,-1.13627 -1.029941,-1.08599 3.587274,-0.53122 1.354011,-2.65354 -0.630585,-1.3153 -1.027744,-0.65432 -1.864308,-1.8643 0.31333,1.24816 0.73079,3.03567 -0.605543,1.4969 0.01745,0.6277 -1.055096,-1.88659 -0.700811,-0.53752 -0.847085,0.40673 -1.507563,-0.19402 0.197304,-0.80289 -1.310823,-0.37677 -1.220553,0.61688 -2.038652,-0.47712 -0.734677,0.0704 -4.229589,-0.37991 -2.077771,-0.4278 0.323954,-1.15437 -0.916557,-0.17775 -1.469661,-1.80304 0.779542,1.66971 -2.636339,1.07008 -0.728036,0.0748 -1.865474,-0.67973 -2.299943,-1.02048 -4.681153,-1.00699 2.377179,0.48662 0.02721,-1.54413 0.94065,-1.13201 0.939644,0.68822 3.490324,-2.42775 0.807978,-1.37184 0.746546,1.25312 -1.796181,-0.39802 -1.530904,0.93213 -1.325774,-1.43133 3.288397,-1.10738 0.728039,-1.27916 -0.235192,-1.00415 0.506308,-2.1594 -0.911733,-1.48326 0.950357,0.43398 -0.935104,1.1014 -0.163291,-0.37423 0.256309,-0.27713 -1.946531,1.5273 -1.657631,0.81223 -0.964669,-0.57141 -2.613924,0.13694 -2.608488,-1.21367 -1.854938,0.60573 0.118543,-1.53028 1.1703,-0.12244 -0.954906,-0.78777 1.92961,-0.0911 1.224711,0.32661 0.507446,-1.56525 -0.982927,-0.52001 -1.149871,-1.78947 -0.333605,-0.24164 -0.839321,-0.85517 -1.170341,0.59878 0.06303,-1.06005 0.180328,-1.44738 -0.884508,-1.65338 -0.48645,0.45621 -0.356571,0.0148 -1.197509,-0.14286 1.245734,-1.51922 0.175063,-0.78948 -0.326593,-2.26996 0.952987,-0.2514 2.686836,0.76369 4.116423,-0.0178 1.5791,0.21206 -1.460181,0.10588 0.0071,0.67443 -1.806274,1.2772 0.462549,0.38113 0.491593,0.079 -0.980883,2.0524 0.89856,1.62248 1.964661,3.08474 1.961775,-0.15587 2.494376,-1.43511 1.33528,-2.36777 -0.547522,-1.09481 -1.253104,-0.0621 -0.62086,-1.31317 -0.710604,-0.90486 -1.031843,1.02876 -1.619356,-0.31978 -0.806527,1.08827 -0.09725,-1.63818 -1.023142,-0.32661 -0.444714,-0.8154 -0.08219,-1.71698 -0.875179,-0.34702 0.234719,-1.2993 0.262136,-2.57363 -1.598931,-1.66696 -1.354803,-0.34682 0.774232,-1.01613 -0.583452,-1.83082 0.788639,-0.21857 2.365568,-1.31358 2.209596,0.51085 0.333436,-0.10263 0.296495,-0.0521 1.054632,-0.54433 -0.383007,1.33065 0.931505,0.0148 0.55111,-0.35379 -0.474951,-0.69034 -0.238623,-0.92897 -0.984015,-0.52818 1.277902,0.65994 -1.389215,1.04056 -0.424402,-0.60809 2.343832,0.24785 4.852904,-0.23632 2.557451,-0.51286 -0.598075,0.16859 0.315705,-0.83118 0.177754,-0.90918 -0.616571,-0.39854 0.323484,-2.39897 -0.374234,-2.17046 1.152882,1.40695 2.103358,-0.72022 2.864502,-1.18389 -0.03508,-0.95766 -1.045206,-0.3036 -0.279823,-1.32423 1.037072,-0.75547 1.254796,-1.27581 0.123363,-1.61511 -0.725212,1.30997 -0.938239,-1.1738 -1.394823,-0.47627 -0.02366,-1.38779 -1.900294,-2.79101 0.142884,-2.52426 -1.098056,1.29846 0.527334,0.34048 0.611517,0.0621 0.574239,-1.29944 -1.725612,-2.18908 0.259386,-2.62719 -1.33145,-0.79706 1.096991,-0.30875 1.435636,0.44906 0.502989,-1.02551 1.931937,0.49067 0.210939,0.54432 0.541513,0.56891 3.413506,-0.50002 1.87109,-0.43545 0.248176,-0.88706 0.715632,-1.54277 1.013805,-0.12925 0.744309,-1.21272 2.755544,-0.41842 2.068844,0.75577 0.939656,0.53728 1.593831,-0.61922 0.475859,-0.66734 1.796255,-1.28435 -0.559658,-0.83322 -0.71442,-2.40859 -0.04969,-0.15586 -1.658796,-0.54266 -0.639585,-1.19071 -0.858868,0.0751 -2.000688,-2.70214 -1.340397,-2.15687 0.802741,-0.62232 1.34095,0.34483 1.428851,-1.2179 1.459424,-0.46438 0.161665,2.16243 1.160927,0.98999 1.019397,-1.3709 1.503576,0.48739 2.787088,0.51794 1.361035,1.45634 -0.761937,-3.83855 0.188816,-1.17454 1.153408,-0.14079 1.244717,1.18968 2.136418,0.17687 0.739876,0.0612 0.415685,-1.20208 -0.2926,-1.23834 0.33965,-1.49568 -1.977867,-2.14595 -0.109581,-2.57191 -2.269805,-0.94021 1.252661,-0.006 0.721222,-0.61916 0.517029,-1.50094 -0.904581,-1.57551 0.911733,-2.17047 z m 13.369868,14.64219 c 0.494332,2.93185 1.938273,-0.59558 0,0 z m -9.804573,0.72119 c -0.258173,1.54987 -2.23008,-0.5046 -2.565104,1.30636 1.492786,0.24283 2.52192,0.29944 3.367969,0.16327 1.764639,-0.16504 0.419974,-1.26659 -0.802865,-1.46969 z m -4.694764,0.2653 c 0.630594,1.53168 2.018733,-0.23927 0,0 z m -2.857684,3.02783 c -2.527386,0.43892 -0.365728,1.1867 -0.261101,1.29022 0.0281,1.76462 0.730973,-1.10678 0.759494,0.30191 -0.01568,0.4535 -0.864943,0.6991 0.05268,1.25875 -0.223184,1.78314 2.522207,-0.62188 0.768852,0.0207 -1.495271,-2.02108 0.683263,-1.77796 1.535997,-1.20769 1.641181,-0.06 -0.621694,-1.79426 -1.051206,-0.71954 -0.715615,-0.10707 -0.99505,-0.97922 -1.804756,-0.94405 z m 7.525235,2.08884 c 0.632031,0.86922 -2.874362,-0.23631 -1.94084,1.01888 0.64424,-0.17923 1.850753,1.37756 2.436675,0.0713 0.01124,-5e-4 0.981675,-1.57178 -0.495835,-1.09031 z m 6.341334,1.0342 c 0.420343,0.21561 -1.145112,-0.62178 -1.165186,0.3955 -0.01568,0.99049 1.627862,0.77227 1.981665,0.0118 0.572449,0.26412 2.367114,-0.96872 0.809679,-0.73483 -0.578782,0.17362 -1.208755,-1.04878 -1.626158,0.32659 z m 1.313165,1.33358 c -0.463794,1.86781 -1.60347,0.76106 -1.612541,1.5309 0.356417,1.46566 1.516551,0.49162 2.210119,-0.12392 2.001454,0.003 -0.125079,-1.70396 -0.311813,-0.43407 -0.197393,-0.50321 -0.128037,-0.59791 -0.285768,-0.97297 z m -4.63352,2.78962 c 0.635793,1.03083 0.419702,0.43229 0.401429,1.24854 2.336396,0.84624 1.967146,-0.95627 0.741639,-1.11923 -0.763966,0.21029 -0.441195,-0.0828 -1.143068,-0.12925 z m -22.099415,1.71461 c -0.07184,0.91142 -3.46903,0.64639 -0.421849,1.32677 1.050035,0.52622 2.87228,-0.71318 2.73522,0.034 -1.218181,1.68775 2.889254,0.54027 0.962439,0.23868 0.949821,-1.39261 -1.77347,-1.45244 -3.27581,-1.59935 z m 18.404838,2.42902 c -0.500194,1.92862 2.866684,0.68443 0,0 z m -5.150638,1.17031 c -0.07412,0.96582 -1.407142,1.09844 0.309586,1.6236 1.214391,0.15646 -0.0041,-0.53965 1.54196,-0.71019 -0.499272,-0.55556 -1.283509,-0.17036 -1.851546,-0.91341 z m 10.042728,0.30618 c -1.420162,0.22064 -1.750274,1.57332 -1.76565,1.58364 1.267171,0.70584 2.562238,0.10914 1.078434,-0.76718 0.687526,0.0328 2.229646,-1.59548 0.687216,-0.81646 z m -10.0155,3.85786 c -0.698442,0.51209 -2.347044,1.27709 -0.292571,1.70098 1.993238,-0.33741 1.385099,-0.79283 0.292571,-1.70098 z m 13.32904,0.55791 c -0.970064,2.06869 1.944401,1.64184 2.748816,0.44908 -1.974031,-0.66757 -3.019432,0.96142 -2.292416,-0.67774 -0.155365,0.0719 -0.257847,0.26441 -0.4564,0.22863 z m -25.950484,1.20432 0.02544,0.0266 z m 21.153666,1.05461 c 0.848475,1.13455 -2.71415,1.82176 -0.381031,1.96636 -0.156607,-0.71412 2.390959,-1.43425 2.187491,-0.76461 0.814166,-1.45227 -1.204467,-0.90954 -1.80646,-1.20175 z m -2.435838,0.63956 c -1.169687,-0.11032 -2.201122,1.64563 -0.571542,0.4695 1.521053,1.10497 0.347743,0.21709 0.938947,-0.53072 z m -3.293141,1.93235 c -2.140946,0.30008 0.858625,1.5136 0.353802,-0.2449 l -0.210052,0.0689 z m -13.852955,1.41523 0.03064,0.0266 z m 13.465133,0.24489 c 0.96477,0.95952 -1.394279,0.5873 -0.659996,1.79627 1.193893,-0.25968 2.326985,-0.286 0.971274,-1.57767 l -0.134011,-0.14669 z m 13.124918,0.55794 c -0.120228,0.52947 -1.956865,-0.0376 -0.251755,1.11586 1.049137,1.19574 2.707332,2.22066 2.434146,1.05886 -2.343588,0.5842 -0.09426,-3.01218 -2.182397,-2.17472 z m -3.225101,5.02814 c -0.06288,0.77461 -2.495759,0.0991 -1.374406,0.90495 0.454697,2.05858 3.632055,-0.0944 1.564077,-1.05209 z m 3.939527,5.13022 c 0.815683,1.59367 -0.650644,0.77301 -1.832836,0.7731 -1.084457,1.89192 1.646856,0.71418 1.866863,0.88025 0.96477,0.003 3.701407,-0.8368 1.292755,-0.93893 -0.645719,-0.61442 -0.591461,-0.003 -1.326782,-0.71442 z"
       inkscape:connector-curvature="0"
       sodipodi:nodetypes="cccccccccccccccccccccccccccccccccccccccccccccccccccccccccccccccccccccccccccccccccccccccccccccccccccccccccccccccccccccccccccccccccccccccccccccccccccccccccccccccccccccccccccccccccccccccccccccccccccccccccccccccccccccccccccccccccccccccccccccccccccccccccccccccccccccc"
       inkscape:export-filename="C:\Users\u0076217\Box Sync\01. Research\00. Running projects\02. SEM Fundiv\Species diversity.png"
       inkscape:export-xdpi="300"
       inkscape:export-ydpi="300" />
    <g
       inkscape:export-ydpi="300"
       inkscape:export-xdpi="300"
       inkscape:export-filename="C:\Users\u0076217\Box Sync\01. Research\00. Running projects\02. SEM Fundiv\Species diversity.png"
       transform="matrix(0.89788747,0,0,0.89788747,4.1334704,209.72331)"
       id="g1586"
       style="fill:#57b1a0;fill-opacity:1">
      <path
         sodipodi:nodetypes="ccccccccccccccccccccccccccccccccccccccccccccccccccccccccccccccccccccccccccccccccccccccccccccccccccccccccccccccccccccccccccccccccccccccccccccccccccccccccccccccccccccccccccccccccccccccccccccccccccccccccccccccccccccccccccccccccccccccccccccccccccccccccccccccccccccccccccccccccccccccccccccccccccccccccccccccccccccccccccccccccccccccccccccccccccccccccccccccccccccccccccccccccc"
         inkscape:connector-curvature="0"
         d="m 35.000516,3.5225191 c 0.45956,-0.9109214 0.48218,-1.4340771 0.9784,-0.2890732 0.18715,-1.5775161 0.31034,0.1436222 0.45029,0.6170601 -0.35544,0.5928264 -0.0918,2.4184662 1.13961,1.284152 0.37364,1.1390317 -1.17584,2.0573882 0.47809,1.7233208 -1.50748,1.9175558 0.27509,0.7355834 0.6115,0.111182 1.19358,-0.8863873 -1.03012,1.5434273 -0.2446,1.6024104 -0.3977,0.9088361 -0.54212,2.7553438 0.82274,1.1507331 0.81897,-0.5554769 -0.32526,1.0092327 0.21681,1.2716447 0.0231,0.942306 -1.49905,3.696243 0.36134,2.390412 0.78089,-1.725422 -0.084,3.545782 0.74492,1.952634 -1.00285,-0.292185 1.53533,-2.607587 0.29237,-0.587006 -0.11398,0.507998 1.08889,3.04402 0.76855,1.397233 0.77402,0.868495 1.73829,-1.575566 0.68464,0.572599 0.31557,0.455495 -0.43004,0.880908 -0.0556,1.967921 -0.75732,0.317773 -1.43277,2.441249 -0.0334,0.811629 -0.17038,1.17818 -0.92936,3.283999 -0.58927,3.168686 1.48937,-0.0021 1.14123,-2.60451 2.21391,-1.839715 1.53367,-1.030104 0.73651,-0.228915 1.29527,0.377672 0.99976,-0.2856 -2.05508,3.662622 0.27101,1.995717 0.22581,0.860235 -0.84776,2.779191 0.81163,1.534312 -0.17607,1.348096 -3.87919,2.603212 -1.21189,2.568303 0.82746,-1.369167 1.58908,-1.592495 0.85472,0.04586 0.0106,1.471773 -1.7881,3.16148 -0.48781,4.179053 0.38735,-0.333984 1.39349,-2.780286 1.36753,-0.744919 0.22757,-0.891331 1.8928,-1.719542 0.65598,-0.255719 1.04559,0.870696 -0.92982,3.417479 -2.30147,4.892008 -0.71511,-0.765307 -2.34963,-0.14957 -0.23626,0.04308 2.34436,-0.178855 -1.90118,1.433664 0.59621,0.879727 1.07071,-1.449854 2.39998,0.09875 2.95605,-0.478082 0.26185,0.754088 2.85769,-0.967323 3.35492,-0.222364 -0.88583,0.731278 -1.37251,3.735929 -2.95744,4.169324 1.14014,0.417942 0.0254,1.962177 0.96919,2.556318 0.15251,1.295989 -1.43573,1.994624 -0.27923,2.757546 0.59802,0.488066 0.4916,5.559489 1.85679,3.076294 0.54223,0.556349 2.93758,-2.276781 1.97505,0.520211 -0.53013,2.211881 -2.10503,1.454924 -2.59418,3.739362 -1.66343,1.546276 0.18018,2.348949 1.06317,0.503099 1.70227,0.835918 -1.6976,2.063745 -0.14453,2.824022 -1.79546,-0.180457 1.67314,1.213332 1.42313,0.562859 1.31739,-0.765547 1.88322,1.696811 -0.0556,1.949854 -0.84923,0.549563 -2.40822,1.487406 -0.0667,1.867858 -1.07392,-0.667402 1.19586,-0.879538 1.0319,-1.041124 1.06787,-0.428671 1.3198,1.128804 2.28827,1.652625 -0.0299,2.37041 -1.70397,2.68808 -2.09995,4.477854 -0.39577,1.034549 -3.70949,1.248722 -1.78864,1.573225 1.01183,-0.525332 -1.04571,1.692433 0.20152,0.775495 0.93377,0.745845 -0.12584,-1.43115 1.4134,-0.714344 0.6789,-0.283525 1.16457,-0.700524 2.03637,-0.368117 2.07957,-1.68705 -0.29317,2.318716 1.91683,1.440475 0.89069,0.77777 -2.17994,-0.669213 -1.77543,1.120706 -1.72215,0.532963 0.66558,0.703603 -0.83386,1.400893 -0.47947,1.015408 -3.74228,1.296302 -3.96364,2.156931 -0.1067,0.296462 -2.78205,-0.539572 -3.04083,1.54543 -0.49406,-0.803319 -3.01516,-0.723936 -2.54606,0.111182 -1.03845,-1.14497 -0.0396,1.633465 -0.8561,-0.211246 -0.92479,1.319972 0.16521,-1.481517 -0.97841,0.211246 0.65237,0.439903 0.0541,0.937769 -0.32242,0.655973 -0.66627,-1.219669 -0.34786,2.053116 -0.75604,0.03336 -0.95508,0.898935 -2.35092,0.631872 -2.14303,0.101454 -0.48488,0.163736 -1.18513,-1.602137 -1.20355,0.209856 -2.22956,0.05411 0.930448,5.02941 -2.373442,3.669258 -3.856098,1.672466 1.081025,-5.774343 -2.329558,-6.204208 0.28945,-1.884668 -2.16156,-0.616223 -0.26683,-0.422491 -1.0844,0.158059 -1.48278,3.104963 -1.64202,1.492444 -1.12706,1.250164 -2.2259,0.218764 -0.89293,-1.036598 -1.72397,0.351475 -1.25773,0.511679 -2.89074,0.1223 0.85529,1.187042 0.58932,2.656879 -0.0111,1.134056 -0.851254,1.747302 -2.000434,-0.04083 -3.802419,1.067347 -1.203343,0.251868 -0.749339,-2.766765 -0.98952,-0.856101 -1.495304,1.002119 0.69017,-1.803089 -1.067347,-0.567028 -0.85034,-0.85956 -1.29373,0.839253 -1.923448,-0.578146 -1.149945,0.551048 -3.00175,-0.16686 -2.830971,-1.246629 1.578583,-0.39685 -2.281027,-1.00847 -0.104234,-0.979791 2.527445,-0.04404 -2.616202,-1.313967 0.282125,-1.228561 1.31428,0.290597 -2.963662,-2.958061 -0.0042,-2.03741 -1.097702,-1.360098 1.937876,-2.071189 2.112458,-0.411373 1.009753,0.01331 2.350038,1.053197 2.490477,-0.31131 -0.619927,-0.166438 -4.603051,-0.672751 -2.312586,-1.645493 -1.451724,-0.276473 -1.044139,-1.486178 0.255937,-1.142559 0.4344,-0.414644 -0.794709,-0.402811 -2.22e-4,-1.047726 -1.786849,0.739872 -0.388556,-1.023307 -1.356421,-0.67821 -2.128679,-1.280506 1.021517,-0.901563 -0.844983,-2.187506 -1.233305,-1.639083 1.447889,-0.333225 0.189009,-1.67051 0.203958,-1.093747 2.470027,1.193376 1.134057,-0.700446 2.257935,0.167875 -0.806063,-0.621393 0.544792,-0.533674 -1.707758,0.0079 -2.965523,-3.417215 -2.35011,-3.864964 1.201375,0.90488 3.775484,3.041602 6.208125,2.197235 -1.27268,0.441949 -0.959114,-1.802991 -1.901212,-0.466965 -5.56e-4,-0.781941 -0.03232,-1.171656 -1.367539,-1.367538 1.342147,-1.177852 -1.578015,0.251227 -0.567028,-1.156293 -1.088117,0.934965 -3.585732,-2.790204 -0.933929,-1.367538 -1.407646,-2.956892 2.70368,1.311552 2.090222,-1.011757 1.258051,0.63546 2.134031,1.297028 1.334184,-0.311309 0.03493,-1.080333 3.13603,0.835767 1.168279,-0.736059 -1.493814,-0.804216 0.738475,-1.540588 -1.251666,-1.698827 -0.865944,-0.403287 0.837945,-1.766118 -1.006197,-0.711564 -0.112703,-1.224019 -2.45827,-2.274591 -2.379295,-4.536226 0.640889,0.186351 1.830277,2.07779 1.412012,0.422492 1.210292,0.770116 2.049457,2.46063 3.557823,1.311947 -2.149755,-1.069762 -1.294635,-2.858356 -0.825526,-2.943543 -0.973015,-1.561585 1.334688,0.18491 1.370318,-0.947826 1.541624,0.990798 -0.813278,-1.909599 0.244601,-2.47241 -0.425814,-1.324679 1.88236,0.535454 0.544791,-1.152123 1.659401,-1.615138 -2.271484,-0.766543 -1.933177,-2.760093 -1.058355,-1.332212 -2.221769,-4.795676 0.03752,-2.262554 1.395136,1.369718 2.959809,0.939955 3.490941,2.353411 2.545039,0.770717 -1.744547,-1.920032 -1.039378,-2.345072 -1.783649,-0.734728 -2.162712,-3.745561 -1.588512,-3.399389 0.63322,1.007006 0.754924,0.275173 1.249407,0.542012 1.244475,0.189444 -1.679982,-3.818391 0.05003,-3.669006 0.805413,1.739535 0.825923,-2.108309 -0.06254,-2.575253 0.817043,-0.800244 0.920501,-1.587386 0.129249,-2.739246 0.928862,1.237365 2.701193,0.735263 1.223002,-0.689328 -0.144756,-2.097406 -0.100068,-2.492262 0.810591,-0.54566 0.99218,1.616726 3.24635,1.554536 1.57982,-0.399387 0.25547,-1.096765 -0.0999,-2.13474 -0.7338,-3.58006 0.79334,-0.226926 1.52587,-0.0248 2.13469,1.278593 1.07296,-0.818333 -0.83416,-2.558379 -0.56146,-2.993575 -0.83431,-1.297178 1.55993,0.807022 0.44629,-1.151776 -0.80175,-1.252808 -0.73216,-1.5788427 0.69332,-0.857839 0.33328,-0.8624927 -1.15005,-1.3623392 0.77832,-1.2341186 -0.12065,-1.5284878 1.55453,0.9478506 0.31461,-0.9836126 -0.35917,-0.8796675 2.53961,0.7313073 0.48329,-0.7468306 0.0222,-0.2219782 1.56864,-0.7721267 0.0471,-1.6606075 0.40982,-0.8199861 2.33422,-0.2474811 0.3669,-0.9116923 -0.14648,-0.8141852 1.87367,-0.3765641 0.83387,-1.6343753 z m 0.84498,0.7004466 c -0.0846,0.4926291 0.48739,-0.063177 0,0 z m -1.60102,1.6454934 c 0.7403,1.7040675 1.19928,-0.061267 0,0 z m 1.03399,0.333546 c -0.0562,1.1063764 1.12878,0.8035945 0,0 z m 1.22301,0.1223002 c -0.19214,0.3393652 0.39425,-0.0128 0,0 z m -0.43361,0.7782739 c -0.20331,0.3258222 0.38294,-0.00804 0,0 z m 0.4892,0.044473 c -0.23701,0.6317361 0.61319,0.047514 0,0 z m 0.62262,0.055591 c -0.0868,0.5569917 0.5469,-0.083813 0,0 z m -0.87834,1.3453021 c -0.22333,0.5839978 0.59024,-0.028713 0,0 z m 0.10006,0.5559099 c -0.19419,0.3366113 0.38298,-0.018182 0,0 z m -2.77955,0.6448551 c -0.39408,0.3100447 0.40101,0.2883847 0,0 z m 4.22492,0.04447 c -0.26269,0.4069317 0.47993,0.141712 0,0 z m -0.54479,0.3001907 c -0.0782,0.484179 0.48039,-0.088 0,0 z m -1.12294,0.455847 c -0.20439,0.325596 0.38385,0.0021 0,0 z m -3.62453,0.277955 c -0.83387,0.29838 0.95284,0.831336 0,0 z m 3.72459,0.166773 c -0.17902,0.341252 0.39297,-0.02605 0,0 z m -2.00127,0.3669 c -0.19388,0.517367 0.51822,-0.04554 0,0 z m -1.11182,1.167411 c 0.20748,0.499228 0.67649,-0.230394 0,0 z m 1.03399,0.55591 c -0.0216,0.701711 0.6027,-0.252915 0,0 z m -2.11246,0.144537 c -0.18406,0.575767 0.58554,-0.05121 0,0 z m 6.21507,0.600382 c -0.38181,0.504034 0.57538,0.14425 0,0 z m -0.57814,0.733801 c 1.12518,0.685213 -0.26862,-1.419282 0,0 z m 2.00127,-0.466964 c -0.19535,0.336297 0.38386,-0.0079 0,0 z m -0.11118,0.355782 c -0.21213,0.586194 0.58122,-0.03265 0,0 z m -9.56165,0.100064 c 0.0967,1.549247 1.23446,0.966887 0,0 z m 9.25034,0.222364 0.0417,0.04169 z m 0.23349,0.31131 0.0417,0.05003 z m -7.27131,0.211249 c -0.23422,1.425302 1.77313,0.271399 0,0 z m 8.16076,1.47872 c 0.94934,-1.189388 0.36292,-1.46405 0,0 z m -7.30466,-0.578146 c 0.25365,1.256731 1.69261,0.267917 0,0 z m 6.11501,2.023512 c -0.20857,0.748807 0.60194,-0.06637 0,0 z m 0.63374,0.06671 c -0.0128,0.394257 0.33937,-0.192138 0,0 z m -4.89201,0.189009 c 0.0294,0.560062 0.55133,-0.248471 0,0 z m 4.65853,0.289074 c -0.095,0.479478 0.48614,-0.07594 0,0 z m -8.51654,0.222364 c 0.048,0.634063 0.58747,-0.314488 0,0 z m -3.335461,1.934566 c 0.758011,0.29106 0.346188,-0.750856 0,0 z m 0.644851,-0.133418 c -0.135244,0.75237 0.68795,-0.09777 0,0 z m 7.0823,0.1223 c -0.24679,0.432515 0.47882,0.11007 0,0 z m -5.99271,0.756038 c -0.19885,0.667207 0.64321,-0.06392 0,0 z m -2.501597,0.3669 c 1.431837,0.342028 -0.04619,-0.92694 0,0 z m 12.619157,-0.133419 c -0.5861,0.443398 0.55912,0.421114 0,0 z m -2.11246,0.111182 c -0.0554,0.485159 0.48241,-0.08621 0,0 z m 2.17917,0.466964 c 0.29367,0.953034 1.10662,-0.309853 0,0 z m -12.363439,0.07783 c -0.05679,0.622941 0.552048,-0.185137 0,0 z m 7.137879,0.433609 c 0.7722,0.560515 0.41881,-1.334837 0,0 z m -3.06862,-0.222364 c -0.44133,0.539302 0.59706,0.166041 0,0 z m 0.84498,1.223002 c -0.48319,0.565164 1.79185,0.25731 0,0 z m 11.70747,0.01112 c -0.54752,0.324297 0.47394,0.327518 0,0 z m -9.67283,0.978402 c -0.0878,0.558224 0.57018,-0.06815 0,0 z m -1.7678,1.801148 c -0.34237,0.550196 0.72775,0.151273 0,0 z m 11.02925,0.644856 c -0.0554,0.485159 0.48241,-0.08622 0,0 z m -0.84498,0.433609 c -0.84803,1.054918 0.88938,0.147106 0,0 z m -0.72268,0.222364 c -0.02,0.759097 0.66621,-0.24888 0,0 z m -14.887269,0.789393 c -0.520442,1.665878 1.164564,0.348079 0.177891,0.07783 z m -0.578147,0.1223 0.04169,0.04169 z m 1.323066,1.156292 c 0.472586,0.164759 0.01183,-0.812643 0,0 z m 0.322428,-0.511437 c 0.247712,1.34374 1.334522,0.993618 0,0 z m 0.400252,1.278593 c 1.33052,0.757961 1.47248,-0.147055 0,0 z m 5.09214,3.791306 c -0.30857,0.665514 0.69851,0.278933 0,0 z m 5.53686,-0.03336 c -0.20331,0.325823 0.38294,-0.008 0,0 z m 4.32498,1.30083 c -0.26753,1.880584 1.88591,1.729736 0.47808,0.200127 0.36457,-1.122671 -0.27112,-0.408624 -0.47808,-0.200127 z m 6.35961,0.06671 c -0.009,0.597718 0.52974,-0.216345 0,0 z m 0.52256,1.300829 c -0.19214,0.339365 0.39425,-0.0128 0,0 z m -5.88153,0.422492 c -0.41322,0.256234 0.37834,0.311682 0,0 z m 2.446,0.100064 c 0.20326,1.757216 1.51007,0.255632 0,0 z m -21.102339,0.544791 c -0.0079,0.383861 0.336296,-0.19535 0,0 z m 17.655699,0.689329 c -0.0811,0.482204 0.4822,-0.08111 0,0 z m 0.0222,0.355782 c -0.19535,0.336297 0.38386,-0.0079 0,0 z m 0.45585,0.200128 0.0417,0.04169 z m -17.577879,0.822746 c 0.132576,2.031962 1.618927,-0.155035 0.211245,0.211246 l 0.02224,-0.289073 -0.233482,0.07783 z m 13.341839,0.633738 c -1.70995,1.253322 2.328,0.733891 0.51144,0.389137 l -0.22654,-0.244601 z m 2.11246,0.300191 c 0.28267,0.50041 0.58081,-0.372544 0,0 z m 2.25699,-0.08895 c -0.0425,0.623682 0.54479,-0.194014 0,0 z M 21.33621,43.792632 c 0.882559,0.946366 0.675474,-1.036909 0,0 z m 27.328536,1.323065 0.0417,0.04169 z m -0.87834,0.378019 c -0.96702,2.107511 1.84645,-1.390253 0,0 z m -1.8901,0.389137 c -0.19283,0.82307 1.60961,0.03095 0,0 z m 1.53432,0.667092 c -0.0125,0.395153 0.34971,-0.184389 0,0 z m -15.88791,1.578784 0.0417,0.04169 z m 8.56101,0.833865 c 0.75152,1.009311 0.46558,-1.183908 0,0 z m -9.77289,0.03336 c 0.12954,0.482949 0.41512,-0.261063 0,0 z m 2.02351,0.06671 c -0.78777,0.785526 0.93411,0.452905 0,0 z m 11.3628,0.411373 c -2.23783,0.295454 1.28485,0.496091 0,0 z m 0.4892,-0.01112 0.0417,0.04169 z m 0.43361,-0.01112 0.0417,0.04169 z m -16.432699,1.078465 c -0.512437,0.618738 1.038719,0.27093 0,0 z m 14.475899,0.86722 c 0.76433,0.879166 0.72594,-1.53794 0,0 z M 22.092287,51.219593 c -0.05093,0.530604 0.495686,-0.185769 0,0 z m 19.690329,0.500318 c 0.86906,1.13017 1.78637,-0.587498 0,0 z m -10.57341,0.722683 c -0.53133,0.598711 0.74181,0.223636 0,0 z m -8.583245,0.778274 c -0.805331,0.95053 1.042534,-0.05915 0,0 z m 0.489201,0.43361 c -0.01659,0.532834 0.587729,-0.235728 0,0 z m 16.532764,0.266837 c -0.005,0.606892 0.54477,-0.215272 0,0 z m -16.477173,4.56958 c -0.662854,0.457878 0.598988,0.435217 0,0 z m 0.4892,0.700446 c 1.210704,-0.86068 0.42462,-1.341815 0,0 z m 28.084573,-0.544792 c -0.26747,0.695974 0.57919,0.100601 0,0 z m -25.916524,0.255719 c -0.439275,0.505639 0.597362,0.19539 0,0 z m 1.134056,-0.02224 c -0.08622,0.482408 0.48516,-0.05545 0,0 z m 24.226558,0.466964 0.0417,0.04169 z m -10.00638,0.466964 c -0.0555,0.48516 0.48241,-0.08622 0,0 z m -15.676662,0.233483 c -0.742561,0.399104 0.413394,0.458027 0,0 z m 18.467332,-0.04447 c 0.002,0.383849 0.32559,-0.204386 0,0 z m 6.80433,0.911692 c 0.15933,0.55787 1.45713,-0.618693 0.33355,-0.18484 z m -1.15629,0.544792 c -0.0802,0.555827 0.54155,-0.108575 0,0 z m -9.51718,2.023512 c -0.854,1.563434 1.00231,-0.406108 0,0 z m -0.66709,0.31131 c -0.0259,0.684109 0.59429,-0.256519 0,0 z m 1.15629,0 c 0.18117,0.582193 0.69226,-0.294112 0,0 z m -18.322788,0.05559 c -0.333676,1.216046 2.30697,1.202244 0,0 z m 8.572128,1.378656 c -0.4076,0.278072 0.38674,0.290782 0,0 z m 12.89711,0.67821 c -0.33317,0.426865 0.50508,0.119284 0,0 z m -1.47872,0.333546 c -0.38597,2.892862 3.98489,-0.450517 0.76716,0.08895 l -0.37524,-0.07783 z m -8.95015,1.145175 c -0.52227,0.383283 0.50692,0.414147 0,0 z"
         style="fill:#57b1a0;fill-opacity:1;stroke:#000000;stroke-width:0.01042331"
         id="path1584" />
    </g>
    <path
       sodipodi:nodetypes="cccccccccsscccccccc"
       inkscape:connector-curvature="0"
       id="path1680"
       d="m 40.134587,295.16877 c -0.256754,-0.0177 -1.213825,-0.081 -2.126794,-0.14078 -2.23549,-0.14611 -4.300883,-0.3608 -6.484117,-0.67364 -3.420326,-0.49005 -4.649708,-0.58756 -8.118128,-0.64385 l -3.370512,-0.055 v -6.47121 -6.47118 h 38.462597 42.996977 v 6.74349 c 0,6.69738 0.0552,6.70561 -0.10648,6.74349 -0.11271,0.0266 -1.02472,0.14434 -1.893377,0.32103 -2.221245,0.45151 -7.240969,0.40735 -10.651399,-0.52921 -3.401897,-0.9343 -7.909064,-1.88817 -13.020125,-2.75561 -4.357282,-0.73948 -6.769285,-0.74861 -10.945201,-0.0414 -3.090442,0.52332 -6.080629,1.28468 -9.718508,2.47448 -3.041007,0.99463 -4.250502,1.24485 -7.077462,1.46436 -1.196832,0.0929 -6.757406,0.11772 -7.947451,0.0352 z"
       style="opacity:1;fill:#57b1a0;fill-opacity:1;stroke:none;stroke-width:0.10390937;stroke-miterlimit:4;stroke-dasharray:none;stroke-dashoffset:0;stroke-opacity:1"
       inkscape:export-filename="C:\Users\u0076217\Box Sync\01. Research\00. Running projects\02. SEM Fundiv\Species diversity.png"
       inkscape:export-xdpi="300"
       inkscape:export-ydpi="300" />
    <path
       style="fill:#57b1a0;fill-opacity:1;stroke:none;stroke-width:0.34218061px;stroke-linecap:butt;stroke-linejoin:miter;stroke-opacity:1"
       d="m 22.314362,284.22004 c 1.016387,-2.06338 3.511508,-0.82693 4.566208,-0.0609 1.502328,1.09128 0.279231,2.10942 -2.059034,2.09333 -1.955575,-0.0118 -3.050523,-0.92944 -2.507174,-2.03249 z"
       id="path1626"
       inkscape:connector-curvature="0"
       sodipodi:nodetypes="ssss"
       inkscape:export-filename="C:\Users\u0076217\Box Sync\01. Research\00. Running projects\02. SEM Fundiv\Species diversity.png"
       inkscape:export-xdpi="300"
       inkscape:export-ydpi="300" />
    <path
       sodipodi:nodetypes="aaaa"
       inkscape:connector-curvature="0"
       id="path1628"
       d="m 45.880685,285.25953 c 0.489931,0.84731 -1.083232,2.01732 -2.059031,2.09334 -0.642765,0.0503 -1.676299,-0.51928 -1.553507,-1.15219 0.237026,-1.22159 2.989649,-2.01838 3.612538,-0.94115 z"
       style="fill:#57b1a0;fill-opacity:1;stroke:none;stroke-width:0.34218061px;stroke-linecap:butt;stroke-linejoin:miter;stroke-opacity:1"
       inkscape:export-filename="C:\Users\u0076217\Box Sync\01. Research\00. Running projects\02. SEM Fundiv\Species diversity.png"
       inkscape:export-xdpi="300"
       inkscape:export-ydpi="300" />
    <path
       style="fill:#57b1a0;fill-opacity:1;stroke:none;stroke-width:0.19155295px;stroke-linecap:butt;stroke-linejoin:miter;stroke-opacity:1"
       d="m 65.975481,284.08777 c 0.568971,-1.15508 1.965734,-0.46293 2.556161,-0.034 0.841006,0.61093 0.156311,1.18087 -1.15264,1.17188 -1.094734,-0.006 -1.707683,-0.52031 -1.403521,-1.13781 z"
       id="path1630"
       inkscape:connector-curvature="0"
       sodipodi:nodetypes="ssss"
       inkscape:export-filename="C:\Users\u0076217\Box Sync\01. Research\00. Running projects\02. SEM Fundiv\Species diversity.png"
       inkscape:export-xdpi="300"
       inkscape:export-ydpi="300" />
    <path
       sodipodi:nodetypes="ssss"
       inkscape:connector-curvature="0"
       id="path1632"
       d="m 84.681868,282.7298 c 0.974675,-1.91996 3.367459,-0.76946 4.378876,-0.0568 1.440702,1.01545 0.267785,1.96281 -1.974554,1.94785 -1.875367,-0.0118 -2.925385,-0.86482 -2.404322,-1.89124 z"
       style="fill:#57b1a0;fill-opacity:1;stroke:none;stroke-width:0.32323378px;stroke-linecap:butt;stroke-linejoin:miter;stroke-opacity:1"
       inkscape:export-filename="C:\Users\u0076217\Box Sync\01. Research\00. Running projects\02. SEM Fundiv\Species diversity.png"
       inkscape:export-xdpi="300"
       inkscape:export-ydpi="300" />
    <path
       style="fill:#57b1a0;fill-opacity:1;stroke:none;stroke-width:0.18309534px;stroke-linecap:butt;stroke-linejoin:miter;stroke-opacity:1"
       d="m 51.520219,282.15241 c 0.543858,-1.10406 1.878958,-0.44247 2.443303,-0.0325 0.803874,0.58393 0.14942,1.1287 -1.101762,1.12009 -1.046394,-0.006 -1.632275,-0.49733 -1.341541,-1.08755 z"
       id="path1634"
       inkscape:connector-curvature="0"
       sodipodi:nodetypes="ssss"
       inkscape:export-filename="C:\Users\u0076217\Box Sync\01. Research\00. Running projects\02. SEM Fundiv\Species diversity.png"
       inkscape:export-xdpi="300"
       inkscape:export-ydpi="300" />
    <path
       sodipodi:nodetypes="csssc"
       inkscape:connector-curvature="0"
       id="path1636"
       d="m 30.037645,282.60614 c 1.016387,-2.06337 1.970949,-0.82693 3.025649,-0.0609 1.502328,1.09128 -0.518478,1.50648 -0.518478,1.50648 -1.894645,0.48449 -3.05052,-0.34259 -2.507171,-1.44564 z"
       style="fill:#57b1a0;fill-opacity:1;stroke:none;stroke-width:0.34218061px;stroke-linecap:butt;stroke-linejoin:miter;stroke-opacity:1"
       inkscape:export-filename="C:\Users\u0076217\Box Sync\01. Research\00. Running projects\02. SEM Fundiv\Species diversity.png"
       inkscape:export-xdpi="300"
       inkscape:export-ydpi="300" />
    <path
       style="fill:#57b1a0;fill-opacity:1;stroke:none;stroke-width:0.16649345px;stroke-linecap:butt;stroke-linejoin:miter;stroke-opacity:1"
       d="m 94.565427,286.02663 c 0.238387,0.41226 -0.527067,0.98155 -1.001846,1.01852 -0.312754,0.0237 -0.815645,-0.25258 -0.755895,-0.56059 0.11526,-0.5944 1.454657,-0.98209 1.757741,-0.45793 z"
       id="path1639"
       inkscape:connector-curvature="0"
       sodipodi:nodetypes="aaaa"
       inkscape:export-filename="C:\Users\u0076217\Box Sync\01. Research\00. Running projects\02. SEM Fundiv\Species diversity.png"
       inkscape:export-xdpi="300"
       inkscape:export-ydpi="300" />
    <path
       style="fill:#57b1a0;fill-opacity:1;stroke:none;stroke-width:0.20030983px;stroke-linecap:butt;stroke-linejoin:miter;stroke-opacity:1"
       d="m 55.78388,282.42954 c 0.594981,-1.20791 1.153775,-0.48411 1.771195,-0.0358 0.879442,0.63882 -0.303519,0.88188 -0.303519,0.88188 -1.1091,0.28364 -1.78575,-0.20053 -1.467676,-0.84627 z"
       id="path1641"
       inkscape:connector-curvature="0"
       sodipodi:nodetypes="csssc"
       inkscape:export-filename="C:\Users\u0076217\Box Sync\01. Research\00. Running projects\02. SEM Fundiv\Species diversity.png"
       inkscape:export-xdpi="300"
       inkscape:export-ydpi="300" />
    <path
       sodipodi:nodetypes="aaaa"
       inkscape:connector-curvature="0"
       id="path1647"
       d="m 93.794786,283.84563 c -0.101773,0.46521 -1.050967,0.36976 -1.426603,0.0772 -0.247466,-0.19283 -0.432169,-0.73642 -0.180446,-0.92364 0.485811,-0.36134 1.73649,0.25525 1.607049,0.8466 z"
       style="fill:#57b1a0;fill-opacity:1;stroke:none;stroke-width:0.16649345px;stroke-linecap:butt;stroke-linejoin:miter;stroke-opacity:1"
       inkscape:export-filename="C:\Users\u0076217\Box Sync\01. Research\00. Running projects\02. SEM Fundiv\Species diversity.png"
       inkscape:export-xdpi="300"
       inkscape:export-ydpi="300" />
    <path
       style="fill:#57b1a0;fill-opacity:1;stroke:none;stroke-width:0.16649345px;stroke-linecap:butt;stroke-linejoin:miter;stroke-opacity:1"
       d="m 57.848637,289.12751 c -0.101773,0.46521 -1.050968,0.36977 -1.426607,0.0772 -0.247466,-0.19284 -0.432168,-0.73646 -0.180446,-0.92365 0.485815,-0.36133 1.736491,0.25525 1.607053,0.8466 z"
       id="path1666"
       inkscape:connector-curvature="0"
       sodipodi:nodetypes="aaaa"
       inkscape:export-filename="C:\Users\u0076217\Box Sync\01. Research\00. Running projects\02. SEM Fundiv\Species diversity.png"
       inkscape:export-xdpi="300"
       inkscape:export-ydpi="300" />
    <path
       sodipodi:nodetypes="csssc"
       inkscape:connector-curvature="0"
       id="path1668"
       d="m 28.200707,290.93922 c 0.594978,-1.2079 1.153772,-0.48408 1.771196,-0.0355 0.879438,0.63882 -0.303523,0.88188 -0.303523,0.88188 -1.1091,0.28364 -1.785748,-0.20053 -1.467673,-0.84627 z"
       style="fill:#57b1a0;fill-opacity:1;stroke:none;stroke-width:0.20030983px;stroke-linecap:butt;stroke-linejoin:miter;stroke-opacity:1"
       inkscape:export-filename="C:\Users\u0076217\Box Sync\01. Research\00. Running projects\02. SEM Fundiv\Species diversity.png"
       inkscape:export-xdpi="300"
       inkscape:export-ydpi="300" />
    <path
       sodipodi:nodetypes="ssss"
       inkscape:connector-curvature="0"
       id="path1682"
       d="m 22.314362,284.22004 c 1.016387,-2.06338 3.511508,-0.82693 4.566208,-0.0609 1.502328,1.09128 0.279231,2.10942 -2.059034,2.09333 -1.955575,-0.0118 -3.050523,-0.92944 -2.507174,-2.03249 z"
       style="fill:#57b1a0;fill-opacity:1;stroke:none;stroke-width:0.34218061px;stroke-linecap:butt;stroke-linejoin:miter;stroke-opacity:1"
       inkscape:export-filename="C:\Users\u0076217\Box Sync\01. Research\00. Running projects\02. SEM Fundiv\Species diversity.png"
       inkscape:export-xdpi="300"
       inkscape:export-ydpi="300" />
    <path
       style="fill:#57b1a0;fill-opacity:1;stroke:none;stroke-width:0.34218061px;stroke-linecap:butt;stroke-linejoin:miter;stroke-opacity:1"
       d="m 45.880685,285.25953 c 0.489931,0.84731 -1.083232,2.01732 -2.059031,2.09334 -0.642765,0.0503 -1.676299,-0.51928 -1.553507,-1.15219 0.237026,-1.22159 2.989649,-2.01838 3.612538,-0.94115 z"
       id="path1684"
       inkscape:connector-curvature="0"
       sodipodi:nodetypes="aaaa"
       inkscape:export-filename="C:\Users\u0076217\Box Sync\01. Research\00. Running projects\02. SEM Fundiv\Species diversity.png"
       inkscape:export-xdpi="300"
       inkscape:export-ydpi="300" />
    <path
       sodipodi:nodetypes="ssss"
       inkscape:connector-curvature="0"
       id="path1686"
       d="m 65.975481,284.08777 c 0.568971,-1.15508 1.965734,-0.46293 2.556161,-0.034 0.841006,0.61093 0.156311,1.18087 -1.15264,1.17188 -1.094734,-0.006 -1.707683,-0.52031 -1.403521,-1.13781 z"
       style="fill:#57b1a0;fill-opacity:1;stroke:none;stroke-width:0.19155295px;stroke-linecap:butt;stroke-linejoin:miter;stroke-opacity:1"
       inkscape:export-filename="C:\Users\u0076217\Box Sync\01. Research\00. Running projects\02. SEM Fundiv\Species diversity.png"
       inkscape:export-xdpi="300"
       inkscape:export-ydpi="300" />
    <path
       style="fill:#57b1a0;fill-opacity:1;stroke:none;stroke-width:0.32323378px;stroke-linecap:butt;stroke-linejoin:miter;stroke-opacity:1"
       d="m 84.681868,282.7298 c 0.974675,-1.91996 3.367459,-0.76946 4.378876,-0.0568 1.440702,1.01545 0.267785,1.96281 -1.974554,1.94785 -1.875367,-0.0118 -2.925385,-0.86482 -2.404322,-1.89124 z"
       id="path1688"
       inkscape:connector-curvature="0"
       sodipodi:nodetypes="ssss"
       inkscape:export-filename="C:\Users\u0076217\Box Sync\01. Research\00. Running projects\02. SEM Fundiv\Species diversity.png"
       inkscape:export-xdpi="300"
       inkscape:export-ydpi="300" />
    <path
       sodipodi:nodetypes="ssss"
       inkscape:connector-curvature="0"
       id="path1690"
       d="m 51.520219,282.15241 c 0.543858,-1.10406 1.878958,-0.44247 2.443303,-0.0325 0.803874,0.58393 0.14942,1.1287 -1.101762,1.12009 -1.046394,-0.006 -1.632275,-0.49733 -1.341541,-1.08755 z"
       style="fill:#57b1a0;fill-opacity:1;stroke:none;stroke-width:0.18309534px;stroke-linecap:butt;stroke-linejoin:miter;stroke-opacity:1"
       inkscape:export-filename="C:\Users\u0076217\Box Sync\01. Research\00. Running projects\02. SEM Fundiv\Species diversity.png"
       inkscape:export-xdpi="300"
       inkscape:export-ydpi="300" />
    <path
       style="fill:#57b1a0;fill-opacity:1;stroke:none;stroke-width:0.34218061px;stroke-linecap:butt;stroke-linejoin:miter;stroke-opacity:1"
       d="m 29.286438,282.60614 c 1.016387,-2.06337 1.970949,-0.82693 3.025649,-0.0609 1.502328,1.09128 -0.518475,1.50648 -0.518475,1.50648 -1.894648,0.48449 -3.050523,-0.34259 -2.507174,-1.44564 z"
       id="path1692"
       inkscape:connector-curvature="0"
       sodipodi:nodetypes="csssc"
       inkscape:export-filename="C:\Users\u0076217\Box Sync\01. Research\00. Running projects\02. SEM Fundiv\Species diversity.png"
       inkscape:export-xdpi="300"
       inkscape:export-ydpi="300" />
    <path
       sodipodi:nodetypes="aaaa"
       inkscape:connector-curvature="0"
       id="path1694"
       d="m 94.565427,286.02663 c 0.238387,0.41226 -0.527067,0.98155 -1.001846,1.01852 -0.312754,0.0237 -0.815645,-0.25258 -0.755895,-0.56059 0.11526,-0.5944 1.454657,-0.98209 1.757741,-0.45793 z"
       style="fill:#57b1a0;fill-opacity:1;stroke:none;stroke-width:0.16649345px;stroke-linecap:butt;stroke-linejoin:miter;stroke-opacity:1"
       inkscape:export-filename="C:\Users\u0076217\Box Sync\01. Research\00. Running projects\02. SEM Fundiv\Species diversity.png"
       inkscape:export-xdpi="300"
       inkscape:export-ydpi="300" />
    <path
       sodipodi:nodetypes="csssc"
       inkscape:connector-curvature="0"
       id="path1696"
       d="m 55.78388,282.42954 c 0.594981,-1.20791 1.153775,-0.48411 1.771195,-0.0358 0.879442,0.63882 -0.303519,0.88188 -0.303519,0.88188 -1.1091,0.28364 -1.78575,-0.20053 -1.467676,-0.84627 z"
       style="fill:#57b1a0;fill-opacity:1;stroke:none;stroke-width:0.20030983px;stroke-linecap:butt;stroke-linejoin:miter;stroke-opacity:1"
       inkscape:export-filename="C:\Users\u0076217\Box Sync\01. Research\00. Running projects\02. SEM Fundiv\Species diversity.png"
       inkscape:export-xdpi="300"
       inkscape:export-ydpi="300" />
    <path
       style="fill:#57b1a0;fill-opacity:1;stroke:none;stroke-width:0.16649345px;stroke-linecap:butt;stroke-linejoin:miter;stroke-opacity:1"
       d="m 93.794786,283.84563 c -0.101773,0.46521 -1.050967,0.36976 -1.426603,0.0772 -0.247466,-0.19283 -0.432169,-0.73642 -0.180446,-0.92364 0.485811,-0.36134 1.73649,0.25525 1.607049,0.8466 z"
       id="path1698"
       inkscape:connector-curvature="0"
       sodipodi:nodetypes="aaaa"
       inkscape:export-filename="C:\Users\u0076217\Box Sync\01. Research\00. Running projects\02. SEM Fundiv\Species diversity.png"
       inkscape:export-xdpi="300"
       inkscape:export-ydpi="300" />
    <path
       sodipodi:nodetypes="aaaa"
       inkscape:connector-curvature="0"
       id="path1714"
       d="m 57.848637,289.12751 c -0.101773,0.46521 -1.050968,0.36977 -1.426607,0.0772 -0.247466,-0.19284 -0.432168,-0.73646 -0.180446,-0.92365 0.485815,-0.36133 1.736491,0.25525 1.607053,0.8466 z"
       style="fill:#57b1a0;fill-opacity:1;stroke:none;stroke-width:0.16649345px;stroke-linecap:butt;stroke-linejoin:miter;stroke-opacity:1"
       inkscape:export-filename="C:\Users\u0076217\Box Sync\01. Research\00. Running projects\02. SEM Fundiv\Species diversity.png"
       inkscape:export-xdpi="300"
       inkscape:export-ydpi="300" />
    <path
       style="fill:#57b1a0;fill-opacity:1;stroke:none;stroke-width:0.20030983px;stroke-linecap:butt;stroke-linejoin:miter;stroke-opacity:1"
       d="m 28.200707,290.93922 c 0.594978,-1.2079 1.153772,-0.48408 1.771196,-0.0355 0.879438,0.63882 -0.303523,0.88188 -0.303523,0.88188 -1.1091,0.28364 -1.785748,-0.20053 -1.467673,-0.84627 z"
       id="path1716"
       inkscape:connector-curvature="0"
       sodipodi:nodetypes="csssc"
       inkscape:export-filename="C:\Users\u0076217\Box Sync\01. Research\00. Running projects\02. SEM Fundiv\Species diversity.png"
       inkscape:export-xdpi="300"
       inkscape:export-ydpi="300" />
    <path
       inkscape:export-ydpi="300"
       inkscape:export-xdpi="300"
       inkscape:export-filename="C:\Users\u0076217\Box Sync\01. Research\00. Running projects\02. SEM Fundiv\Species diversity.png"
       sodipodi:nodetypes="csssc"
       inkscape:connector-curvature="0"
       id="path2413"
       d="m 28.200707,290.93922 c 0.594978,-1.2079 1.153772,-0.48408 1.771196,-0.0355 0.879438,0.63882 -0.303523,0.88188 -0.303523,0.88188 -1.1091,0.28364 -1.785748,-0.20053 -1.467673,-0.84627 z"
       style="fill:#57b1a0;fill-opacity:1;stroke:none;stroke-width:0.20030983px;stroke-linecap:butt;stroke-linejoin:miter;stroke-opacity:1" />
    <path
       style="fill:#57b1a0;fill-opacity:1;stroke:none;stroke-width:0.07232939px;stroke-linecap:butt;stroke-linejoin:miter;stroke-opacity:1"
       d="m 61.524086,280.71298 v -11.77936 h 1.446588 v 11.77936 z"
       id="path1261"
       inkscape:connector-curvature="0"
       sodipodi:nodetypes="ccccc"
       inkscape:export-xdpi="300"
       inkscape:export-ydpi="300" />
    <path
       style="fill:#ffffff;fill-opacity:1;stroke:none;stroke-width:0.07244332;stroke-linecap:butt;stroke-linejoin:miter;stroke-miterlimit:4;stroke-dasharray:none;stroke-opacity:1"
       d="m 61.524086,280.71298 v 5.78634 l 0.723293,1.10453 0.723295,-1.10453 v -5.78634"
       id="path1263"
       inkscape:connector-curvature="0"
       sodipodi:nodetypes="ccccc"
       inkscape:export-xdpi="300"
       inkscape:export-ydpi="300" />
    <path
       style="fill:#57b1a0;fill-opacity:1;stroke:none;stroke-width:0.07232939px;stroke-linecap:butt;stroke-linejoin:miter;stroke-opacity:1"
       d="m 59.690949,269.50104 c 0.0758,-0.40939 0.29121,-0.7219 0.469683,-0.85579 1.090824,-0.81832 3.176924,-0.83157 4.114237,0 0.224693,0.19934 0.410255,0.47284 0.520472,0.85579 z"
       id="path1265"
       inkscape:connector-curvature="0"
       sodipodi:nodetypes="csscc"
       inkscape:export-xdpi="300"
       inkscape:export-ydpi="300" />
    <path
       inkscape:export-ydpi="300"
       inkscape:export-xdpi="300"
       sodipodi:nodetypes="csscc"
       inkscape:connector-curvature="0"
       id="path1337"
       d="m 59.690949,279.83006 c 0.0758,-0.4094 0.29121,-0.7219 0.469683,-0.85579 1.090824,-0.81833 3.176924,-0.83158 4.114237,0 0.224693,0.19934 0.410255,0.47281 0.520472,0.85579 z"
       style="fill:#57b1a0;fill-opacity:1;stroke:none;stroke-width:0.07232939px;stroke-linecap:butt;stroke-linejoin:miter;stroke-opacity:1" />
  </g>
</svg>
