<?xml version="1.0" encoding="UTF-8" standalone="no"?>
<!-- Created with Inkscape (http://www.inkscape.org/) -->

<svg
   xmlns:dc="http://purl.org/dc/elements/1.1/"
   xmlns:cc="http://creativecommons.org/ns#"
   xmlns:rdf="http://www.w3.org/1999/02/22-rdf-syntax-ns#"
   xmlns:svg="http://www.w3.org/2000/svg"
   xmlns="http://www.w3.org/2000/svg"
   xmlns:sodipodi="http://sodipodi.sourceforge.net/DTD/sodipodi-0.dtd"
   xmlns:inkscape="http://www.inkscape.org/namespaces/inkscape"
   width="10cm"
   height="10cm"
   viewBox="0 0 100 100"
   version="1.1"
   id="svg8"
   inkscape:version="0.92.4 (5da689c313, 2019-01-14)"
   sodipodi:docname="MCE.svg">
  <defs
     id="defs2" />
  <sodipodi:namedview
     id="base"
     pagecolor="#ffffff"
     bordercolor="#666666"
     borderopacity="1.0"
     inkscape:pageopacity="0.0"
     inkscape:pageshadow="2"
     inkscape:zoom="0.7"
     inkscape:cx="-134.73664"
     inkscape:cy="57.40545"
     inkscape:document-units="mm"
     inkscape:current-layer="layer1"
     showgrid="false"
     inkscape:window-width="1280"
     inkscape:window-height="1001"
     inkscape:window-x="1272"
     inkscape:window-y="-8"
     inkscape:window-maximized="1"
     units="cm" />
  <metadata
     id="metadata5">
    <rdf:RDF>
      <cc:Work
         rdf:about="">
        <dc:format>image/svg+xml</dc:format>
        <dc:type
           rdf:resource="http://purl.org/dc/dcmitype/StillImage" />
        <dc:title />
      </cc:Work>
    </rdf:RDF>
  </metadata>
  <g
     inkscape:label="Laag 1"
     inkscape:groupmode="layer"
     id="layer1"
     transform="translate(0,-197)">
    <path
       id="path1672"
       style="fill:#00407a;fill-opacity:1;stroke:#000000;stroke-width:0.00748679"
       d="m 65.691329,196.8131 c 1.242626,0.53818 -0.454513,2.81754 1.54927,1.82079 -1.374518,1.86731 2.266628,-0.55918 0.471168,1.49336 0.817328,1.37103 0.723753,-1.90201 2.339871,-0.86247 1.523792,-0.63551 0.991445,0.60793 1.716968,1.74091 1.236543,0.14719 -0.997026,-2.75771 1.213852,-1.37356 -1.249541,2.1806 0.867049,-0.25932 0.544025,-1.39353 1.015758,0.29715 -0.865714,1.52805 0.941343,1.23381 0.134133,-1.69727 1.349508,-1.91688 3.641582,-1.94858 1.72502,1.23207 -1.927128,-0.65924 -0.143786,1.19789 -1.439384,0.37653 1.422671,1.04507 1.533308,0.91839 1.833102,-0.84112 0.675619,0.71432 -0.782626,1.48535 1.417859,0.84932 2.044362,-0.17982 2.834016,0.72074 -1.101113,0.092 -1.490588,2.55464 0.783604,1.67505 -1.716586,0.21107 -2.141164,0.15101 -0.729708,0.79659 0.509754,0.44662 2.211212,-1.40665 0.929354,0.73669 0.246434,1.46376 0.290902,2.20646 2.443693,1.80479 -1.627984,1.20618 3.269203,-0.2961 1.030165,1.98051 1.742946,-0.47632 5.01785,-0.77548 3.641581,2.40373 -0.988614,-0.79904 -0.752797,0.47251 -1.685026,0.0559 0.367978,1.3901 -0.734238,2.82298 -0.03298,3.46086 0.10129,2.40891 0.793987,-1.73852 2.159178,0.26071 0.924203,1.03366 1.913611,1.4084 2.497611,-0.39933 2.183035,-0.96821 4.738485,1.43047 3.034622,2.65133 0.244318,-1.54322 -1.164567,0.8642 -1.197866,-0.62292 -0.819102,0.90272 -3.061166,-0.28187 -2.263016,-0.31242 -1.159547,0.75926 -2.179052,1.32046 0.428993,1.12275 3.334541,-0.93901 5.404251,4.96666 2.759123,3.59 -1.471809,0.26069 -2.599469,-0.37966 -2.391795,-0.88044 -1.592193,-1.46597 -2.75762,-0.9734 -1.556234,0.37631 -1.453165,0.6609 1.244073,3.65134 -1.442464,3.42795 0.830375,0.42572 4.126219,1.29643 1.602167,1.69701 -1.295311,0.72848 0.08398,0.30687 0.138786,0.61888 1.282144,-0.15101 0.692034,1.30518 0.0083,0.64686 0.336415,1.57802 -3.153458,0.74541 -1.923345,1.85964 0.578397,-1.60071 0.875542,1.63496 0.974283,-0.84652 -2.259431,-1.72435 4.105257,0.17359 5.684706,0.14478 -2.999801,-0.40026 -4.875389,2.65134 -3.85692,0.30027 0.426779,0.80261 2.01737,-1.27828 2.06933,0.74469 1.731089,0.16592 -1.028703,0.14787 1.046152,0.9982 0.827128,-0.93787 1.967283,1.11658 1.126025,-1.28571 -0.460372,1.05718 -0.223907,-1.92528 -0.01671,-0.52706 0.919641,-1.10357 1.290578,0.58278 2.150069,-0.0799 -0.06828,1.93122 1.632182,0.0711 0.381464,2.64311 0.257425,-2.0513 -0.04384,1.05075 0,0 -1.481942,-0.89705 0.477234,3.26964 -2.08433,1.92458 2.173305,0.68738 0.993516,0.79009 0.293492,1.34466 3.305756,2.5858 -3.979509,0.36031 -2.864948,1.59417 -0.676839,0.17495 1.051421,1.03551 1.409939,0.7906 -1.98341,0.0944 -0.780591,2.65619 -3.094185,2.54385 0.64803,1.36128 1.609035,2.03605 0.754309,3.21396 4.621043,-1.0596 0.936451,-0.47668 2.512575,-0.60491 1.144964,0.49345 -2.857505,0.82234 -1.167374,0.54003 0.872014,-0.31172 1.822439,-0.45019 1.834764,1.19088 1.546338,0.55696 -0.936342,-2.58242 1.02818,-1.0801 1.632663,1.60977 -2.355343,1.78386 0.211609,2.21411 0.753215,1.82596 -1.922144,0.10656 -1.515315,2.01441 -2.247988,-0.67692 -0.35913,2.69407 -2.10246,1.87463 -1.232458,-0.0833 -2.913571,-0.15724 -1.037164,1.25377 -0.254316,0.84196 -0.818114,1.04569 -1.502349,1.52534 2.178015,0.021 -2.001341,1.00885 0.966287,0.87045 0.04346,1.45088 1.563942,1.41065 -0.910221,2.5795 0.895093,2.64422 -1.697191,0.52432 -1.046147,-0.83054 -1.529373,-0.16141 0.405214,3.91724 1.102047,2.58743 2.375153,-0.95934 5.917087,0.91725 3.416974,2.77608 -2.148723,0.52696 -4.806721,-0.10375 -5.014149,-0.36437 -1.093429,0.50354 -1.699703,1.03696 -3.010675,0.0958 0.725941,0.9585 -0.825161,1.18183 0.511082,2.75515 -2.274824,0.0244 -2.124512,1.75753 0.678805,1.65305 -1.518625,-0.0666 -5.820134,0.32979 -2.827399,-0.6219 0.120806,-3.5273 -1.233988,1.34447 -3.401597,0.0388 -0.07664,1.37188 3.732885,0.78979 1.141971,1.29373 -0.647797,-0.12255 -4.496058,-0.1472 -2.619361,0.34333 -2.486383,1.21916 -0.829229,-0.73474 -2.25603,-1.62212 -1.604806,0.64627 -1.125628,0.0174 -2.831,0.76762 -0.333637,0.67845 -1.958034,1.45278 0.0083,0.72671 -0.516597,1.47837 -3.448953,-0.51207 -1.293706,-0.31138 -1.826774,-0.73053 -2.318183,-0.53333 -3.409982,-1.87672 1.513794,-0.26973 -1.201836,-2.11093 -1.022206,0.0399 -0.159303,-2.27732 -0.0385,17.08422 0.507888,17.72605 -2.741944,0.75736 -2.399059,-0.75059 -3.383952,-0.0782 -1.409445,-2.33007 1.004237,-16.80172 -0.741538,-17.8717 -1.080772,0.33324 -1.938744,1.11463 -2.93082,-0.0638 -0.373593,1.55675 -0.887595,-0.19092 -1.458446,1.07514 -1.201483,-1.99326 -1.459266,3.02494 -2.103279,0.0587 -1.467502,0.25203 -2.952609,-0.91345 -0.798583,-1.05412 -0.35858,-0.55286 0.144966,-0.83311 0.46317,-1.48538 0.07265,-0.85446 1.04959,1.14403 0.998259,-0.99022 -0.39787,-1.18008 2.952429,-1.09728 2.01243,1.00618 0.668448,2.05175 2.974208,-1.77053 0.830531,-0.35138 -0.819099,-2.40499 3.322873,-2.54377 2.507592,-0.55899 0.935861,-0.56987 0.835672,-3.86687 -0.678805,-2.17217 -0.685538,-0.20828 -0.620254,-2.00234 -1.693013,-0.69476 -0.213838,-1.27485 -1.318631,0.79432 -1.165963,-1.33366 -1.208848,-1.27462 4.210406,-0.62348 1.589211,-3.11448 -0.740121,-1.54377 -1.206269,-0.76797 -2.18815,-2.18813 0.367758,1.46498 0.857733,3.56298 -0.71073,1.75691 0.02048,0.73675 -1.238372,-2.21429 -0.822545,-0.63088 -0.994229,0.47739 -1.769437,-0.22772 0.231576,-0.94235 -1.53852,-0.44222 -1.432571,0.72404 -2.392779,-0.56 -0.862294,0.0826 -4.964294,-0.44591 -2.438692,-0.50212 0.380227,-1.35488 -1.075768,-0.20863 -1.72495,-2.11623 0.914953,1.95975 -3.094287,1.25595 -0.8545,0.0878 -2.18952,-0.7978 -2.699458,-1.19775 -5.494298,-1.1819 2.790109,0.57113 0.03195,-1.81236 1.104045,-1.32866 1.102867,0.80777 4.096615,-2.84946 0.94833,-1.61014 0.876225,1.4708 -2.108189,-0.46716 -1.796832,1.09405 -1.556069,-1.67995 3.859613,-1.29974 0.854504,-1.50136 -0.276046,-1.17858 0.594257,-2.5345 -1.070107,-1.74092 1.11544,0.50937 -1.097537,1.29273 -0.191654,-0.43922 0.30083,-0.32527 -2.284657,1.79259 -1.945573,0.95332 -1.132238,-0.67067 -3.067978,0.16072 -3.061599,-1.42449 -2.177152,0.71093 0.139135,-1.7961 1.373588,-0.14371 -1.120779,-0.92461 2.264796,-0.10694 1.437452,0.38334 0.595592,-1.83715 -1.153667,-0.61034 -1.349611,-2.10032 -0.391554,-0.28361 -0.985117,-1.00371 -1.373637,0.7028 0.07397,-1.24419 0.211652,-1.6988 -1.038152,-1.94059 -0.57095,0.53545 -0.418509,0.0175 -1.405524,-0.16768 1.462126,-1.78311 0.205473,-0.9266 -0.383324,-2.66425 1.118527,-0.29507 3.153556,0.89634 4.831471,-0.021 1.8534,0.24889 -1.713823,0.12428 0.0083,0.79158 -2.120036,1.49906 0.542896,0.44734 0.576985,0.0927 -1.151267,2.40891 1.054646,1.90431 2.305936,3.62057 2.302547,-0.18294 2.927664,-1.68439 1.567227,-2.77906 -0.642631,-1.28499 -1.470777,-0.0729 -0.728708,-1.54127 -0.83404,-1.06205 -1.211081,1.20745 -1.900649,-0.37534 -0.946625,1.27732 -0.114142,-1.92273 -1.200867,-0.38334 -0.521965,-0.95704 -0.09646,-2.01523 -1.027203,-0.4073 0.27549,-1.525 0.30767,-3.02069 -1.876675,-1.95653 -1.590141,-0.40706 0.90872,-1.19263 -0.684802,-2.14884 0.92563,-0.25653 2.776482,-1.54176 2.593417,0.59958 0.391356,-0.12044 0.347998,-0.0612 1.237828,-0.63887 -0.449538,1.5618 1.093313,0.0174 0.646841,-0.41525 -0.557452,-0.81026 -0.280074,-1.09034 -1.154944,-0.61993 1.499881,0.77458 -1.630531,1.22131 -0.498124,-0.71371 2.75097,0.29089 5.695884,-0.27737 3.001696,-0.60195 -0.701965,0.19788 0.370545,-0.97557 0.208631,-1.06711 -0.723673,-0.46777 0.379675,-2.81568 -0.439241,-2.54748 1.353145,1.65134 2.468724,-0.84532 3.362084,-1.38954 -0.04118,-1.12401 -1.226766,-0.35634 -0.32843,-1.55426 1.217219,-0.8867 1.472761,-1.49743 0.144792,-1.89567 -0.851186,1.53752 -1.101217,-1.37769 -1.637112,-0.559 -0.02777,-1.62886 -2.230388,-3.27582 0.167704,-2.96274 -1.288796,1.52401 0.618934,0.39964 0.717741,0.0729 0.673988,-1.52517 -2.025361,-2.56934 0.304443,-3.08355 -1.562731,-0.93551 1.287545,-0.36239 1.685014,0.52706 0.590362,-1.20364 2.267527,0.57591 0.24758,0.63887 0.635578,0.66775 4.006454,-0.58686 2.196111,-0.51108 0.291286,-1.04115 0.839942,-1.81076 1.189909,-0.15171 0.873601,-1.42337 3.234199,-0.4911 2.428215,0.88707 1.10288,0.6306 1.87069,-0.72678 0.558518,-0.78326 2.108276,-1.50746 -0.656873,-0.97797 -0.838519,-2.82699 -0.05832,-0.18293 -1.946939,-0.63692 -0.750684,-1.39754 -1.008059,0.0882 -2.348219,-3.17152 -1.573232,-2.53154 0.942182,-0.73041 1.573881,0.40473 1.677051,-1.42945 1.712935,-0.54505 0.189747,2.53806 1.362587,1.16196 1.196473,-1.60903 1.764756,0.57205 3.271223,0.6079 1.597455,1.70933 -0.894291,-4.50533 0.221615,-1.37855 1.353761,-0.16526 1.460932,1.39632 2.507526,0.20759 0.868397,0.0717 0.487892,-1.41089 -0.343426,-1.45344 0.398649,-1.75551 -2.321434,-2.51873 -0.128617,-3.01868 -2.664083,-1.10354 1.470257,-0.007 0.846504,-0.72671 0.60684,-1.76166 -1.061712,-1.84919 1.070106,-2.5475 z m 15.692298,17.18563 c 0.580201,3.44113 2.274963,-0.69904 0,0 z m -11.507689,0.84647 c -0.303018,1.81908 -2.617458,-0.59226 -3.010677,1.53327 1.752091,0.28502 2.959993,0.35146 3.953005,0.19164 2.071168,-0.19371 0.492926,-1.4866 -0.942328,-1.72499 z m -5.510272,0.31138 c 0.740131,1.79774 2.369399,-0.28084 0,0 z m -3.354083,3.55379 c -2.966408,0.51515 -0.429257,1.39282 -0.306455,1.51433 0.03298,2.07115 0.857948,-1.29903 0.891423,0.35434 -0.0184,0.53229 -1.015189,0.82055 0.06184,1.47742 -0.261953,2.09288 2.96033,-0.72991 0.902407,0.0244 -1.75501,-2.37215 0.801949,-2.0868 1.802809,-1.41747 1.926264,-0.0704 -0.729686,-2.10594 -1.233807,-0.84454 -0.839923,-0.12566 -1.167897,-1.1493 -2.118255,-1.10802 z m 8.832415,2.45167 c 0.74182,1.02021 -3.373656,-0.27735 -2.277976,1.19587 0.756149,-0.21037 2.172241,1.61686 2.859941,0.0837 0.01319,-5.9e-4 1.152198,-1.84482 -0.581965,-1.2797 z m 7.442863,1.21385 c 0.493361,0.25306 -1.344024,-0.72979 -1.367585,0.4642 -0.0184,1.16254 1.910631,0.90642 2.325893,0.0138 0.671886,0.31 2.778296,-1.13699 0.950324,-0.86247 -0.67932,0.20378 -1.418723,-1.23097 -1.908632,0.38332 z m 1.541271,1.56523 c -0.544358,2.19226 -1.882003,0.89327 -1.892649,1.79682 0.418328,1.72026 1.779985,0.57703 2.594029,-0.14544 2.349119,0.003 -0.146805,-1.99994 -0.365976,-0.50946 -0.231682,-0.59063 -0.150278,-0.70178 -0.335408,-1.14199 z m -5.438392,3.27419 c 0.746235,1.2099 0.492607,0.50739 0.47116,1.46542 2.742243,0.99324 2.308852,-1.12238 0.870467,-1.31364 -0.896672,0.24681 -0.517834,-0.0971 -1.341627,-0.1517 z m -25.93822,2.01246 c -0.08432,1.06974 -4.071622,0.75866 -0.495126,1.55723 1.232431,0.61763 3.371213,-0.83706 3.210344,0.0399 -1.429787,1.98093 3.391135,0.63413 1.129621,0.28015 1.11481,-1.63452 -2.081534,-1.70474 -3.844839,-1.87717 z m 21.601873,2.85095 c -0.587081,2.26363 3.364645,0.80332 0,0 z m -6.045336,1.3736 c -0.087,1.13359 -1.651572,1.28925 0.363363,1.90563 1.425338,0.18364 -0.0048,-0.63338 1.809808,-0.83356 -0.585999,-0.65206 -1.506463,-0.19995 -2.173171,-1.07207 z m 11.787213,0.35936 c -1.666854,0.25898 -2.054309,1.84661 -2.072355,1.85874 1.487285,0.82844 3.007315,0.12809 1.265764,-0.90045 0.806954,0.0385 2.616949,-1.87262 0.806591,-0.95829 z m -11.755256,4.528 c -0.819765,0.60104 -2.754739,1.49893 -0.343392,1.99645 2.339476,-0.39601 1.6257,-0.93055 0.343392,-1.99645 z m 15.644377,0.65483 c -1.13857,2.42803 2.282155,1.92703 3.226304,0.52708 -2.316934,-0.78353 -3.543927,1.12842 -2.690624,-0.79547 -0.182353,0.0844 -0.302636,0.31034 -0.53568,0.26835 z m -30.458244,1.41351 0.02986,0.0312 z m 24.828189,1.2378 c 0.99586,1.33164 -3.185614,2.13821 -0.447219,2.30794 -0.18381,-0.83817 2.806285,-1.6834 2.567473,-0.89744 0.955591,-1.70453 -1.413691,-1.06753 -2.120254,-1.4105 z m -2.858957,0.75065 c -1.37287,-0.12947 -2.583472,1.93149 -0.670823,0.55107 1.785269,1.2969 0.408148,0.2548 1.102048,-0.62292 z m -3.865181,2.26802 c -2.512842,0.35221 1.007774,1.77652 0.41526,-0.28744 l -0.24654,0.0809 z m -16.259299,1.66106 0.03596,0.0313 z m 15.804111,0.28744 c 1.132355,1.12619 -1.636475,0.68931 -0.774642,2.10829 1.401279,-0.30479 2.731197,-0.33568 1.13999,-1.85172 l -0.157289,-0.17218 z m 15.404796,0.65485 c -0.141111,0.62144 -2.296783,-0.0442 -0.295486,1.30969 1.231379,1.40345 3.177612,2.60641 2.856973,1.24279 -2.750684,0.68568 -0.110634,-3.53541 -2.561494,-2.55248 z m -3.78532,5.90155 c -0.0738,0.90918 -2.929287,0.11632 -1.613148,1.06216 0.53368,2.41617 4.262964,-0.1108 1.835765,-1.23485 z m 4.623847,6.02138 c 0.957372,1.87051 -0.763664,0.90728 -2.151211,0.90739 -1.272834,2.22056 1.932925,0.83824 2.191149,1.03315 1.132356,0.003 4.344364,-0.98216 1.517314,-1.10202 -0.757884,-0.72115 -0.694201,-0.003 -1.557252,-0.83852 z"
       inkscape:connector-curvature="0"
       sodipodi:nodetypes="cccccccccccccccccccccccccccccccccccccccccccccccccccccccccccccccccccccccccccccccccccccccccccccccccccccccccccccccccccccccccccccccccccccccccccccccccccccccccccccccccccccccccccccccccccccccccccccccccccccccccccccccccccccccccccccccccccccccccccccccccccccccccccccccccccccc"
       inkscape:export-filename="C:\Users\u0076217\Box Sync\01. Research\00. Running projects\02. SEM Fundiv\Species diversity.png"
       inkscape:export-xdpi="300"
       inkscape:export-ydpi="300" />
    <g
       inkscape:export-ydpi="300"
       inkscape:export-xdpi="300"
       inkscape:export-filename="C:\Users\u0076217\Box Sync\01. Research\00. Running projects\02. SEM Fundiv\Species diversity.png"
       transform="matrix(1.0538561,0,0,1.0538561,-16.453071,196.45968)"
       id="g1586"
       style="fill:#00407a;fill-opacity:1">
      <path
         sodipodi:nodetypes="ccccccccccccccccccccccccccccccccccccccccccccccccccccccccccccccccccccccccccccccccccccccccccccccccccccccccccccccccccccccccccccccccccccccccccccccccccccccccccccccccccccccccccccccccccccccccccccccccccccccccccccccccccccccccccccccccccccccccccccccccccccccccccccccccccccccccccccccccccccccccccccccccccccccccccccccccccccccccccccccccccccccccccccccccccccccccccccccccccccccccccccccccc"
         inkscape:connector-curvature="0"
         d="m 35.000516,3.5225191 c 0.45956,-0.9109214 0.48218,-1.4340771 0.9784,-0.2890732 0.18715,-1.5775161 0.31034,0.1436222 0.45029,0.6170601 -0.35544,0.5928264 -0.0918,2.4184662 1.13961,1.284152 0.37364,1.1390317 -1.17584,2.0573882 0.47809,1.7233208 -1.50748,1.9175558 0.27509,0.7355834 0.6115,0.111182 1.19358,-0.8863873 -1.03012,1.5434273 -0.2446,1.6024104 -0.3977,0.9088361 -0.54212,2.7553438 0.82274,1.1507331 0.81897,-0.5554769 -0.32526,1.0092327 0.21681,1.2716447 0.0231,0.942306 -1.49905,3.696243 0.36134,2.390412 0.78089,-1.725422 -0.084,3.545782 0.74492,1.952634 -1.00285,-0.292185 1.53533,-2.607587 0.29237,-0.587006 -0.11398,0.507998 1.08889,3.04402 0.76855,1.397233 0.77402,0.868495 1.73829,-1.575566 0.68464,0.572599 0.31557,0.455495 -0.43004,0.880908 -0.0556,1.967921 -0.75732,0.317773 -1.43277,2.441249 -0.0334,0.811629 -0.17038,1.17818 -0.92936,3.283999 -0.58927,3.168686 1.48937,-0.0021 1.14123,-2.60451 2.21391,-1.839715 1.53367,-1.030104 0.73651,-0.228915 1.29527,0.377672 0.99976,-0.2856 -2.05508,3.662622 0.27101,1.995717 0.22581,0.860235 -0.84776,2.779191 0.81163,1.534312 -0.17607,1.348096 -3.87919,2.603212 -1.21189,2.568303 0.82746,-1.369167 1.58908,-1.592495 0.85472,0.04586 0.0106,1.471773 -1.7881,3.16148 -0.48781,4.179053 0.38735,-0.333984 1.39349,-2.780286 1.36753,-0.744919 0.22757,-0.891331 1.8928,-1.719542 0.65598,-0.255719 1.04559,0.870696 -0.92982,3.417479 -2.30147,4.892008 -0.71511,-0.765307 -2.34963,-0.14957 -0.23626,0.04308 2.34436,-0.178855 -1.90118,1.433664 0.59621,0.879727 1.07071,-1.449854 2.39998,0.09875 2.95605,-0.478082 0.26185,0.754088 2.85769,-0.967323 3.35492,-0.222364 -0.88583,0.731278 -1.37251,3.735929 -2.95744,4.169324 1.14014,0.417942 0.0254,1.962177 0.96919,2.556318 0.15251,1.295989 -1.43573,1.994624 -0.27923,2.757546 0.59802,0.488066 0.4916,5.559489 1.85679,3.076294 0.54223,0.556349 2.93758,-2.276781 1.97505,0.520211 -0.53013,2.211881 -2.10503,1.454924 -2.59418,3.739362 -1.66343,1.546276 0.18018,2.348949 1.06317,0.503099 1.70227,0.835918 -1.6976,2.063745 -0.14453,2.824022 -1.79546,-0.180457 1.67314,1.213332 1.42313,0.562859 1.31739,-0.765547 1.88322,1.696811 -0.0556,1.949854 -0.84923,0.549563 -2.40822,1.487406 -0.0667,1.867858 -1.07392,-0.667402 1.19586,-0.879538 1.0319,-1.041124 1.06787,-0.428671 1.3198,1.128804 2.28827,1.652625 -0.0299,2.37041 -1.70397,2.68808 -2.09995,4.477854 -0.39577,1.034549 -3.70949,1.248722 -1.78864,1.573225 1.01183,-0.525332 -1.04571,1.692433 0.20152,0.775495 0.93377,0.745845 -0.12584,-1.43115 1.4134,-0.714344 0.6789,-0.283525 1.16457,-0.700524 2.03637,-0.368117 2.07957,-1.68705 -0.29317,2.318716 1.91683,1.440475 0.89069,0.77777 -2.17994,-0.669213 -1.77543,1.120706 -1.72215,0.532963 0.66558,0.703603 -0.83386,1.400893 -0.47947,1.015408 -3.74228,1.296302 -3.96364,2.156931 -0.1067,0.296462 -2.78205,-0.539572 -3.04083,1.54543 -0.49406,-0.803319 -3.01516,-0.723936 -2.54606,0.111182 -1.03845,-1.14497 -0.0396,1.633465 -0.8561,-0.211246 -0.92479,1.319972 0.16521,-1.481517 -0.97841,0.211246 0.65237,0.439903 0.0541,0.937769 -0.32242,0.655973 -0.66627,-1.219669 -0.34786,2.053116 -0.75604,0.03336 -0.95508,0.898935 -2.35092,0.631872 -2.14303,0.101454 -0.48488,0.163736 -1.18513,-1.602137 -1.20355,0.209856 -2.22956,0.05411 0.930448,5.02941 -2.373442,3.669258 -3.856098,1.672466 1.081025,-5.774343 -2.329558,-6.204208 0.28945,-1.884668 -2.16156,-0.616223 -0.26683,-0.422491 -1.0844,0.158059 -1.48278,3.104963 -1.64202,1.492444 -1.12706,1.250164 -2.2259,0.218764 -0.89293,-1.036598 -1.72397,0.351475 -1.25773,0.511679 -2.89074,0.1223 0.85529,1.187042 0.58932,2.656879 -0.0111,1.134056 -0.851254,1.747302 -2.000434,-0.04083 -3.802419,1.067347 -1.203343,0.251868 -0.749339,-2.766765 -0.98952,-0.856101 -1.495304,1.002119 0.69017,-1.803089 -1.067347,-0.567028 -0.85034,-0.85956 -1.29373,0.839253 -1.923448,-0.578146 -1.149945,0.551048 -3.00175,-0.16686 -2.830971,-1.246629 1.578583,-0.39685 -2.281027,-1.00847 -0.104234,-0.979791 2.527445,-0.04404 -2.616202,-1.313967 0.282125,-1.228561 1.31428,0.290597 -2.963662,-2.958061 -0.0042,-2.03741 -1.097702,-1.360098 1.937876,-2.071189 2.112458,-0.411373 1.009753,0.01331 2.350038,1.053197 2.490477,-0.31131 -0.619927,-0.166438 -4.603051,-0.672751 -2.312586,-1.645493 -1.451724,-0.276473 -1.044139,-1.486178 0.255937,-1.142559 0.4344,-0.414644 -0.794709,-0.402811 -2.22e-4,-1.047726 -1.786849,0.739872 -0.388556,-1.023307 -1.356421,-0.67821 -2.128679,-1.280506 1.021517,-0.901563 -0.844983,-2.187506 -1.233305,-1.639083 1.447889,-0.333225 0.189009,-1.67051 0.203958,-1.093747 2.470027,1.193376 1.134057,-0.700446 2.257935,0.167875 -0.806063,-0.621393 0.544792,-0.533674 -1.707758,0.0079 -2.965523,-3.417215 -2.35011,-3.864964 1.201375,0.90488 3.775484,3.041602 6.208125,2.197235 -1.27268,0.441949 -0.959114,-1.802991 -1.901212,-0.466965 -5.56e-4,-0.781941 -0.03232,-1.171656 -1.367539,-1.367538 1.342147,-1.177852 -1.578015,0.251227 -0.567028,-1.156293 -1.088117,0.934965 -3.585732,-2.790204 -0.933929,-1.367538 -1.407646,-2.956892 2.70368,1.311552 2.090222,-1.011757 1.258051,0.63546 2.134031,1.297028 1.334184,-0.311309 0.03493,-1.080333 3.13603,0.835767 1.168279,-0.736059 -1.493814,-0.804216 0.738475,-1.540588 -1.251666,-1.698827 -0.865944,-0.403287 0.837945,-1.766118 -1.006197,-0.711564 -0.112703,-1.224019 -2.45827,-2.274591 -2.379295,-4.536226 0.640889,0.186351 1.830277,2.07779 1.412012,0.422492 1.210292,0.770116 2.049457,2.46063 3.557823,1.311947 -2.149755,-1.069762 -1.294635,-2.858356 -0.825526,-2.943543 -0.973015,-1.561585 1.334688,0.18491 1.370318,-0.947826 1.541624,0.990798 -0.813278,-1.909599 0.244601,-2.47241 -0.425814,-1.324679 1.88236,0.535454 0.544791,-1.152123 1.659401,-1.615138 -2.271484,-0.766543 -1.933177,-2.760093 -1.058355,-1.332212 -2.221769,-4.795676 0.03752,-2.262554 1.395136,1.369718 2.959809,0.939955 3.490941,2.353411 2.545039,0.770717 -1.744547,-1.920032 -1.039378,-2.345072 -1.783649,-0.734728 -2.162712,-3.745561 -1.588512,-3.399389 0.63322,1.007006 0.754924,0.275173 1.249407,0.542012 1.244475,0.189444 -1.679982,-3.818391 0.05003,-3.669006 0.805413,1.739535 0.825923,-2.108309 -0.06254,-2.575253 0.817043,-0.800244 0.920501,-1.587386 0.129249,-2.739246 0.928862,1.237365 2.701193,0.735263 1.223002,-0.689328 -0.144756,-2.097406 -0.100068,-2.492262 0.810591,-0.54566 0.99218,1.616726 3.24635,1.554536 1.57982,-0.399387 0.25547,-1.096765 -0.0999,-2.13474 -0.7338,-3.58006 0.79334,-0.226926 1.52587,-0.0248 2.13469,1.278593 1.07296,-0.818333 -0.83416,-2.558379 -0.56146,-2.993575 -0.83431,-1.297178 1.55993,0.807022 0.44629,-1.151776 -0.80175,-1.252808 -0.73216,-1.5788427 0.69332,-0.857839 0.33328,-0.8624927 -1.15005,-1.3623392 0.77832,-1.2341186 -0.12065,-1.5284878 1.55453,0.9478506 0.31461,-0.9836126 -0.35917,-0.8796675 2.53961,0.7313073 0.48329,-0.7468306 0.0222,-0.2219782 1.56864,-0.7721267 0.0471,-1.6606075 0.40982,-0.8199861 2.33422,-0.2474811 0.3669,-0.9116923 -0.14648,-0.8141852 1.87367,-0.3765641 0.83387,-1.6343753 z m 0.84498,0.7004466 c -0.0846,0.4926291 0.48739,-0.063177 0,0 z m -1.60102,1.6454934 c 0.7403,1.7040675 1.19928,-0.061267 0,0 z m 1.03399,0.333546 c -0.0562,1.1063764 1.12878,0.8035945 0,0 z m 1.22301,0.1223002 c -0.19214,0.3393652 0.39425,-0.0128 0,0 z m -0.43361,0.7782739 c -0.20331,0.3258222 0.38294,-0.00804 0,0 z m 0.4892,0.044473 c -0.23701,0.6317361 0.61319,0.047514 0,0 z m 0.62262,0.055591 c -0.0868,0.5569917 0.5469,-0.083813 0,0 z m -0.87834,1.3453021 c -0.22333,0.5839978 0.59024,-0.028713 0,0 z m 0.10006,0.5559099 c -0.19419,0.3366113 0.38298,-0.018182 0,0 z m -2.77955,0.6448551 c -0.39408,0.3100447 0.40101,0.2883847 0,0 z m 4.22492,0.04447 c -0.26269,0.4069317 0.47993,0.141712 0,0 z m -0.54479,0.3001907 c -0.0782,0.484179 0.48039,-0.088 0,0 z m -1.12294,0.455847 c -0.20439,0.325596 0.38385,0.0021 0,0 z m -3.62453,0.277955 c -0.83387,0.29838 0.95284,0.831336 0,0 z m 3.72459,0.166773 c -0.17902,0.341252 0.39297,-0.02605 0,0 z m -2.00127,0.3669 c -0.19388,0.517367 0.51822,-0.04554 0,0 z m -1.11182,1.167411 c 0.20748,0.499228 0.67649,-0.230394 0,0 z m 1.03399,0.55591 c -0.0216,0.701711 0.6027,-0.252915 0,0 z m -2.11246,0.144537 c -0.18406,0.575767 0.58554,-0.05121 0,0 z m 6.21507,0.600382 c -0.38181,0.504034 0.57538,0.14425 0,0 z m -0.57814,0.733801 c 1.12518,0.685213 -0.26862,-1.419282 0,0 z m 2.00127,-0.466964 c -0.19535,0.336297 0.38386,-0.0079 0,0 z m -0.11118,0.355782 c -0.21213,0.586194 0.58122,-0.03265 0,0 z m -9.56165,0.100064 c 0.0967,1.549247 1.23446,0.966887 0,0 z m 9.25034,0.222364 0.0417,0.04169 z m 0.23349,0.31131 0.0417,0.05003 z m -7.27131,0.211249 c -0.23422,1.425302 1.77313,0.271399 0,0 z m 8.16076,1.47872 c 0.94934,-1.189388 0.36292,-1.46405 0,0 z m -7.30466,-0.578146 c 0.25365,1.256731 1.69261,0.267917 0,0 z m 6.11501,2.023512 c -0.20857,0.748807 0.60194,-0.06637 0,0 z m 0.63374,0.06671 c -0.0128,0.394257 0.33937,-0.192138 0,0 z m -4.89201,0.189009 c 0.0294,0.560062 0.55133,-0.248471 0,0 z m 4.65853,0.289074 c -0.095,0.479478 0.48614,-0.07594 0,0 z m -8.51654,0.222364 c 0.048,0.634063 0.58747,-0.314488 0,0 z m -3.335461,1.934566 c 0.758011,0.29106 0.346188,-0.750856 0,0 z m 0.644851,-0.133418 c -0.135244,0.75237 0.68795,-0.09777 0,0 z m 7.0823,0.1223 c -0.24679,0.432515 0.47882,0.11007 0,0 z m -5.99271,0.756038 c -0.19885,0.667207 0.64321,-0.06392 0,0 z m -2.501597,0.3669 c 1.431837,0.342028 -0.04619,-0.92694 0,0 z m 12.619157,-0.133419 c -0.5861,0.443398 0.55912,0.421114 0,0 z m -2.11246,0.111182 c -0.0554,0.485159 0.48241,-0.08621 0,0 z m 2.17917,0.466964 c 0.29367,0.953034 1.10662,-0.309853 0,0 z m -12.363439,0.07783 c -0.05679,0.622941 0.552048,-0.185137 0,0 z m 7.137879,0.433609 c 0.7722,0.560515 0.41881,-1.334837 0,0 z m -3.06862,-0.222364 c -0.44133,0.539302 0.59706,0.166041 0,0 z m 0.84498,1.223002 c -0.48319,0.565164 1.79185,0.25731 0,0 z m 11.70747,0.01112 c -0.54752,0.324297 0.47394,0.327518 0,0 z m -9.67283,0.978402 c -0.0878,0.558224 0.57018,-0.06815 0,0 z m -1.7678,1.801148 c -0.34237,0.550196 0.72775,0.151273 0,0 z m 11.02925,0.644856 c -0.0554,0.485159 0.48241,-0.08622 0,0 z m -0.84498,0.433609 c -0.84803,1.054918 0.88938,0.147106 0,0 z m -0.72268,0.222364 c -0.02,0.759097 0.66621,-0.24888 0,0 z m -14.887269,0.789393 c -0.520442,1.665878 1.164564,0.348079 0.177891,0.07783 z m -0.578147,0.1223 0.04169,0.04169 z m 1.323066,1.156292 c 0.472586,0.164759 0.01183,-0.812643 0,0 z m 0.322428,-0.511437 c 0.247712,1.34374 1.334522,0.993618 0,0 z m 0.400252,1.278593 c 1.33052,0.757961 1.47248,-0.147055 0,0 z m 5.09214,3.791306 c -0.30857,0.665514 0.69851,0.278933 0,0 z m 5.53686,-0.03336 c -0.20331,0.325823 0.38294,-0.008 0,0 z m 4.32498,1.30083 c -0.26753,1.880584 1.88591,1.729736 0.47808,0.200127 0.36457,-1.122671 -0.27112,-0.408624 -0.47808,-0.200127 z m 6.35961,0.06671 c -0.009,0.597718 0.52974,-0.216345 0,0 z m 0.52256,1.300829 c -0.19214,0.339365 0.39425,-0.0128 0,0 z m -5.88153,0.422492 c -0.41322,0.256234 0.37834,0.311682 0,0 z m 2.446,0.100064 c 0.20326,1.757216 1.51007,0.255632 0,0 z m -21.102339,0.544791 c -0.0079,0.383861 0.336296,-0.19535 0,0 z m 17.655699,0.689329 c -0.0811,0.482204 0.4822,-0.08111 0,0 z m 0.0222,0.355782 c -0.19535,0.336297 0.38386,-0.0079 0,0 z m 0.45585,0.200128 0.0417,0.04169 z m -17.577879,0.822746 c 0.132576,2.031962 1.618927,-0.155035 0.211245,0.211246 l 0.02224,-0.289073 -0.233482,0.07783 z m 13.341839,0.633738 c -1.70995,1.253322 2.328,0.733891 0.51144,0.389137 l -0.22654,-0.244601 z m 2.11246,0.300191 c 0.28267,0.50041 0.58081,-0.372544 0,0 z m 2.25699,-0.08895 c -0.0425,0.623682 0.54479,-0.194014 0,0 z M 21.33621,43.792632 c 0.882559,0.946366 0.675474,-1.036909 0,0 z m 27.328536,1.323065 0.0417,0.04169 z m -0.87834,0.378019 c -0.96702,2.107511 1.84645,-1.390253 0,0 z m -1.8901,0.389137 c -0.19283,0.82307 1.60961,0.03095 0,0 z m 1.53432,0.667092 c -0.0125,0.395153 0.34971,-0.184389 0,0 z m -15.88791,1.578784 0.0417,0.04169 z m 8.56101,0.833865 c 0.75152,1.009311 0.46558,-1.183908 0,0 z m -9.77289,0.03336 c 0.12954,0.482949 0.41512,-0.261063 0,0 z m 2.02351,0.06671 c -0.78777,0.785526 0.93411,0.452905 0,0 z m 11.3628,0.411373 c -2.23783,0.295454 1.28485,0.496091 0,0 z m 0.4892,-0.01112 0.0417,0.04169 z m 0.43361,-0.01112 0.0417,0.04169 z m -16.432699,1.078465 c -0.512437,0.618738 1.038719,0.27093 0,0 z m 14.475899,0.86722 c 0.76433,0.879166 0.72594,-1.53794 0,0 z M 22.092287,51.219593 c -0.05093,0.530604 0.495686,-0.185769 0,0 z m 19.690329,0.500318 c 0.86906,1.13017 1.78637,-0.587498 0,0 z m -10.57341,0.722683 c -0.53133,0.598711 0.74181,0.223636 0,0 z m -8.583245,0.778274 c -0.805331,0.95053 1.042534,-0.05915 0,0 z m 0.489201,0.43361 c -0.01659,0.532834 0.587729,-0.235728 0,0 z m 16.532764,0.266837 c -0.005,0.606892 0.54477,-0.215272 0,0 z m -16.477173,4.56958 c -0.662854,0.457878 0.598988,0.435217 0,0 z m 0.4892,0.700446 c 1.210704,-0.86068 0.42462,-1.341815 0,0 z m 28.084573,-0.544792 c -0.26747,0.695974 0.57919,0.100601 0,0 z m -25.916524,0.255719 c -0.439275,0.505639 0.597362,0.19539 0,0 z m 1.134056,-0.02224 c -0.08622,0.482408 0.48516,-0.05545 0,0 z m 24.226558,0.466964 0.0417,0.04169 z m -10.00638,0.466964 c -0.0555,0.48516 0.48241,-0.08622 0,0 z m -15.676662,0.233483 c -0.742561,0.399104 0.413394,0.458027 0,0 z m 18.467332,-0.04447 c 0.002,0.383849 0.32559,-0.204386 0,0 z m 6.80433,0.911692 c 0.15933,0.55787 1.45713,-0.618693 0.33355,-0.18484 z m -1.15629,0.544792 c -0.0802,0.555827 0.54155,-0.108575 0,0 z m -9.51718,2.023512 c -0.854,1.563434 1.00231,-0.406108 0,0 z m -0.66709,0.31131 c -0.0259,0.684109 0.59429,-0.256519 0,0 z m 1.15629,0 c 0.18117,0.582193 0.69226,-0.294112 0,0 z m -18.322788,0.05559 c -0.333676,1.216046 2.30697,1.202244 0,0 z m 8.572128,1.378656 c -0.4076,0.278072 0.38674,0.290782 0,0 z m 12.89711,0.67821 c -0.33317,0.426865 0.50508,0.119284 0,0 z m -1.47872,0.333546 c -0.38597,2.892862 3.98489,-0.450517 0.76716,0.08895 l -0.37524,-0.07783 z m -8.95015,1.145175 c -0.52227,0.383283 0.50692,0.414147 0,0 z"
         style="fill:#00407a;fill-opacity:1;stroke:#000000;stroke-width:0.01042331"
         id="path1584" />
    </g>
    <path
       sodipodi:nodetypes="cccccccccsscccccccc"
       inkscape:connector-curvature="0"
       id="path1680"
       d="m 25.801663,296.74754 c -0.301355,-0.0208 -1.424674,-0.0951 -2.496231,-0.16522 -2.623809,-0.17149 -5.047973,-0.42348 -7.610448,-0.79067 -4.014458,-0.57516 -5.457392,-0.68961 -9.5282974,-0.75568 l -3.9559895,-0.0645 v -7.59529 -7.59527 H 47.354484 97.820299 v 7.91487 c 0,7.86076 0.06476,7.87043 -0.124979,7.91488 -0.132289,0.0313 -1.202714,0.16942 -2.222261,0.37679 -2.60709,0.52995 -8.498771,0.47812 -12.501614,-0.62113 -3.992827,-1.09659 -9.282918,-2.21616 -15.281802,-3.23427 -5.114169,-0.86794 -7.945152,-0.87866 -12.846451,-0.0486 -3.62727,0.61422 -7.136871,1.50783 -11.406671,2.90431 -3.56925,1.1674 -4.988841,1.46108 -8.306863,1.71873 -1.404729,0.10903 -7.931208,0.13817 -9.327971,0.0413 z"
       style="opacity:1;fill:#00407a;fill-opacity:1;stroke:none;stroke-width:0.12195908;stroke-miterlimit:4;stroke-dasharray:none;stroke-dashoffset:0;stroke-opacity:1"
       inkscape:export-filename="C:\Users\u0076217\Box Sync\01. Research\00. Running projects\02. SEM Fundiv\Species diversity.png"
       inkscape:export-xdpi="300"
       inkscape:export-ydpi="300" />
    <path
       style="fill:#00407a;fill-opacity:1;stroke:none;stroke-width:0.40161949px;stroke-linecap:butt;stroke-linejoin:miter;stroke-opacity:1"
       d="m 4.8859558,283.89695 c 1.192939,-2.4218 4.121477,-0.97057 5.3593852,-0.0714 1.763292,1.28082 0.327735,2.47583 -2.4167008,2.45695 -2.2952697,-0.0138 -3.5804168,-1.0909 -2.9426844,-2.38556 z"
       id="path1626"
       inkscape:connector-curvature="0"
       sodipodi:nodetypes="ssss"
       inkscape:export-filename="C:\Users\u0076217\Box Sync\01. Research\00. Running projects\02. SEM Fundiv\Species diversity.png"
       inkscape:export-xdpi="300"
       inkscape:export-ydpi="300" />
    <path
       sodipodi:nodetypes="aaaa"
       inkscape:connector-curvature="0"
       id="path1628"
       d="m 32.545894,285.11701 c 0.575034,0.9945 -1.271396,2.36774 -2.416697,2.45697 -0.754418,0.0591 -1.967483,-0.60948 -1.823362,-1.35234 0.278199,-1.43378 3.50897,-2.36898 4.240059,-1.10463 z"
       style="fill:#00407a;fill-opacity:1;stroke:none;stroke-width:0.40161949px;stroke-linecap:butt;stroke-linejoin:miter;stroke-opacity:1"
       inkscape:export-filename="C:\Users\u0076217\Box Sync\01. Research\00. Running projects\02. SEM Fundiv\Species diversity.png"
       inkscape:export-xdpi="300"
       inkscape:export-ydpi="300" />
    <path
       style="fill:#00407a;fill-opacity:1;stroke:none;stroke-width:0.22482689px;stroke-linecap:butt;stroke-linejoin:miter;stroke-opacity:1"
       d="m 56.13128,283.74172 c 0.667805,-1.35574 2.307194,-0.54335 3.000183,-0.0399 0.987094,0.71705 0.183462,1.38598 -1.352862,1.37544 -1.284896,-0.007 -2.004318,-0.61069 -1.647321,-1.33546 z"
       id="path1630"
       inkscape:connector-curvature="0"
       sodipodi:nodetypes="ssss"
       inkscape:export-filename="C:\Users\u0076217\Box Sync\01. Research\00. Running projects\02. SEM Fundiv\Species diversity.png"
       inkscape:export-xdpi="300"
       inkscape:export-ydpi="300" />
    <path
       sodipodi:nodetypes="ssss"
       inkscape:connector-curvature="0"
       id="path1632"
       d="m 78.087082,282.14785 c 1.143983,-2.25347 3.952409,-0.90312 5.139515,-0.0666 1.690961,1.19184 0.3143,2.30376 -2.317546,2.28619 -2.201131,-0.0138 -3.433543,-1.01503 -2.821969,-2.21975 z"
       style="fill:#00407a;fill-opacity:1;stroke:none;stroke-width:0.37938148px;stroke-linecap:butt;stroke-linejoin:miter;stroke-opacity:1"
       inkscape:export-filename="C:\Users\u0076217\Box Sync\01. Research\00. Running projects\02. SEM Fundiv\Species diversity.png"
       inkscape:export-xdpi="300"
       inkscape:export-ydpi="300" />
    <path
       style="fill:#00407a;fill-opacity:1;stroke:none;stroke-width:0.21490012px;stroke-linecap:butt;stroke-linejoin:miter;stroke-opacity:1"
       d="m 39.16505,281.47016 c 0.638329,-1.29583 2.205344,-0.51933 2.867719,-0.0381 0.943512,0.68537 0.175376,1.32476 -1.293145,1.31466 -1.228158,-0.007 -1.915811,-0.58372 -1.574574,-1.27646 z"
       id="path1634"
       inkscape:connector-curvature="0"
       sodipodi:nodetypes="ssss"
       inkscape:export-filename="C:\Users\u0076217\Box Sync\01. Research\00. Running projects\02. SEM Fundiv\Species diversity.png"
       inkscape:export-xdpi="300"
       inkscape:export-ydpi="300" />
    <path
       sodipodi:nodetypes="csssc"
       inkscape:connector-curvature="0"
       id="path1636"
       d="m 13.950819,282.00271 c 1.19294,-2.42179 2.313316,-0.97058 3.551223,-0.0714 1.763292,1.28084 -0.60854,1.76817 -0.60854,1.76817 -2.223757,0.56864 -3.580415,-0.4021 -2.942683,-1.69676 z"
       style="fill:#00407a;fill-opacity:1;stroke:none;stroke-width:0.40161949px;stroke-linecap:butt;stroke-linejoin:miter;stroke-opacity:1"
       inkscape:export-filename="C:\Users\u0076217\Box Sync\01. Research\00. Running projects\02. SEM Fundiv\Species diversity.png"
       inkscape:export-xdpi="300"
       inkscape:export-ydpi="300" />
    <path
       style="fill:#00407a;fill-opacity:1;stroke:none;stroke-width:0.19541439px;stroke-linecap:butt;stroke-linejoin:miter;stroke-opacity:1"
       d="m 89.687478,286.01737 c 0.279795,0.48386 -0.618622,1.15205 -1.175873,1.19543 -0.367082,0.0279 -0.957328,-0.29644 -0.887199,-0.65797 0.135282,-0.69764 1.70734,-1.15267 2.063072,-0.53746 z"
       id="path1639"
       inkscape:connector-curvature="0"
       sodipodi:nodetypes="aaaa"
       inkscape:export-filename="C:\Users\u0076217\Box Sync\01. Research\00. Running projects\02. SEM Fundiv\Species diversity.png"
       inkscape:export-xdpi="300"
       inkscape:export-ydpi="300" />
    <path
       style="fill:#00407a;fill-opacity:1;stroke:none;stroke-width:0.23510487px;stroke-linecap:butt;stroke-linejoin:miter;stroke-opacity:1"
       d="m 44.169335,281.79544 c 0.698333,-1.41774 1.354194,-0.5682 2.078863,-0.042 1.032207,0.74979 -0.356242,1.03508 -0.356242,1.03508 -1.301759,0.33291 -2.095947,-0.23536 -1.722621,-0.99328 z"
       id="path1641"
       inkscape:connector-curvature="0"
       sodipodi:nodetypes="csssc"
       inkscape:export-filename="C:\Users\u0076217\Box Sync\01. Research\00. Running projects\02. SEM Fundiv\Species diversity.png"
       inkscape:export-xdpi="300"
       inkscape:export-ydpi="300" />
    <path
       sodipodi:nodetypes="aaaa"
       inkscape:connector-curvature="0"
       id="path1647"
       d="m 88.782971,283.45751 c -0.119451,0.54602 -1.233526,0.43399 -1.674413,0.0907 -0.290452,-0.22633 -0.507238,-0.86435 -0.21179,-1.08409 0.5702,-0.42411 2.038129,0.29959 1.886203,0.99367 z"
       style="fill:#00407a;fill-opacity:1;stroke:none;stroke-width:0.19541439px;stroke-linecap:butt;stroke-linejoin:miter;stroke-opacity:1"
       inkscape:export-filename="C:\Users\u0076217\Box Sync\01. Research\00. Running projects\02. SEM Fundiv\Species diversity.png"
       inkscape:export-xdpi="300"
       inkscape:export-ydpi="300" />
    <path
       style="fill:#00407a;fill-opacity:1;stroke:none;stroke-width:0.19541439px;stroke-linecap:butt;stroke-linejoin:miter;stroke-opacity:1"
       d="m 46.592753,289.65689 c -0.119451,0.54601 -1.233527,0.434 -1.674418,0.0907 -0.290452,-0.22634 -0.507238,-0.86439 -0.21179,-1.0841 0.570204,-0.42408 2.038131,0.2996 1.886208,0.99366 z"
       id="path1666"
       inkscape:connector-curvature="0"
       sodipodi:nodetypes="aaaa"
       inkscape:export-filename="C:\Users\u0076217\Box Sync\01. Research\00. Running projects\02. SEM Fundiv\Species diversity.png"
       inkscape:export-xdpi="300"
       inkscape:export-ydpi="300" />
    <path
       sodipodi:nodetypes="csssc"
       inkscape:connector-curvature="0"
       id="path1668"
       d="m 11.794794,291.7833 c 0.698329,-1.41772 1.354189,-0.56816 2.078863,-0.0416 1.032203,0.74979 -0.356246,1.03507 -0.356246,1.03507 -1.301759,0.33292 -2.095944,-0.23536 -1.722617,-0.99327 z"
       style="fill:#00407a;fill-opacity:1;stroke:none;stroke-width:0.23510487px;stroke-linecap:butt;stroke-linejoin:miter;stroke-opacity:1"
       inkscape:export-filename="C:\Users\u0076217\Box Sync\01. Research\00. Running projects\02. SEM Fundiv\Species diversity.png"
       inkscape:export-xdpi="300"
       inkscape:export-ydpi="300" />
    <path
       sodipodi:nodetypes="ssss"
       inkscape:connector-curvature="0"
       id="path1682"
       d="m 4.8859558,283.89695 c 1.192939,-2.4218 4.121477,-0.97057 5.3593852,-0.0714 1.763292,1.28082 0.327735,2.47583 -2.4167008,2.45695 -2.2952697,-0.0138 -3.5804168,-1.0909 -2.9426844,-2.38556 z"
       style="fill:#00407a;fill-opacity:1;stroke:none;stroke-width:0.40161949px;stroke-linecap:butt;stroke-linejoin:miter;stroke-opacity:1"
       inkscape:export-filename="C:\Users\u0076217\Box Sync\01. Research\00. Running projects\02. SEM Fundiv\Species diversity.png"
       inkscape:export-xdpi="300"
       inkscape:export-ydpi="300" />
    <path
       style="fill:#00407a;fill-opacity:1;stroke:none;stroke-width:0.40161949px;stroke-linecap:butt;stroke-linejoin:miter;stroke-opacity:1"
       d="m 32.545894,285.11701 c 0.575034,0.9945 -1.271396,2.36774 -2.416697,2.45697 -0.754418,0.0591 -1.967483,-0.60948 -1.823362,-1.35234 0.278199,-1.43378 3.50897,-2.36898 4.240059,-1.10463 z"
       id="path1684"
       inkscape:connector-curvature="0"
       sodipodi:nodetypes="aaaa"
       inkscape:export-filename="C:\Users\u0076217\Box Sync\01. Research\00. Running projects\02. SEM Fundiv\Species diversity.png"
       inkscape:export-xdpi="300"
       inkscape:export-ydpi="300" />
    <path
       sodipodi:nodetypes="ssss"
       inkscape:connector-curvature="0"
       id="path1686"
       d="m 56.13128,283.74172 c 0.667805,-1.35574 2.307194,-0.54335 3.000183,-0.0399 0.987094,0.71705 0.183462,1.38598 -1.352862,1.37544 -1.284896,-0.007 -2.004318,-0.61069 -1.647321,-1.33546 z"
       style="fill:#00407a;fill-opacity:1;stroke:none;stroke-width:0.22482689px;stroke-linecap:butt;stroke-linejoin:miter;stroke-opacity:1"
       inkscape:export-filename="C:\Users\u0076217\Box Sync\01. Research\00. Running projects\02. SEM Fundiv\Species diversity.png"
       inkscape:export-xdpi="300"
       inkscape:export-ydpi="300" />
    <path
       style="fill:#00407a;fill-opacity:1;stroke:none;stroke-width:0.37938148px;stroke-linecap:butt;stroke-linejoin:miter;stroke-opacity:1"
       d="m 78.087082,282.14785 c 1.143983,-2.25347 3.952409,-0.90312 5.139515,-0.0666 1.690961,1.19184 0.3143,2.30376 -2.317546,2.28619 -2.201131,-0.0138 -3.433543,-1.01503 -2.821969,-2.21975 z"
       id="path1688"
       inkscape:connector-curvature="0"
       sodipodi:nodetypes="ssss"
       inkscape:export-filename="C:\Users\u0076217\Box Sync\01. Research\00. Running projects\02. SEM Fundiv\Species diversity.png"
       inkscape:export-xdpi="300"
       inkscape:export-ydpi="300" />
    <path
       sodipodi:nodetypes="ssss"
       inkscape:connector-curvature="0"
       id="path1690"
       d="m 39.16505,281.47016 c 0.638329,-1.29583 2.205344,-0.51933 2.867719,-0.0381 0.943512,0.68537 0.175376,1.32476 -1.293145,1.31466 -1.228158,-0.007 -1.915811,-0.58372 -1.574574,-1.27646 z"
       style="fill:#00407a;fill-opacity:1;stroke:none;stroke-width:0.21490012px;stroke-linecap:butt;stroke-linejoin:miter;stroke-opacity:1"
       inkscape:export-filename="C:\Users\u0076217\Box Sync\01. Research\00. Running projects\02. SEM Fundiv\Species diversity.png"
       inkscape:export-xdpi="300"
       inkscape:export-ydpi="300" />
    <path
       style="fill:#00407a;fill-opacity:1;stroke:none;stroke-width:0.40161949px;stroke-linecap:butt;stroke-linejoin:miter;stroke-opacity:1"
       d="m 13.069123,282.00271 c 1.19294,-2.42179 2.313315,-0.97058 3.551223,-0.0714 1.763292,1.28084 -0.608537,1.76817 -0.608537,1.76817 -2.223761,0.56864 -3.580418,-0.4021 -2.942686,-1.69676 z"
       id="path1692"
       inkscape:connector-curvature="0"
       sodipodi:nodetypes="csssc"
       inkscape:export-filename="C:\Users\u0076217\Box Sync\01. Research\00. Running projects\02. SEM Fundiv\Species diversity.png"
       inkscape:export-xdpi="300"
       inkscape:export-ydpi="300" />
    <path
       sodipodi:nodetypes="aaaa"
       inkscape:connector-curvature="0"
       id="path1694"
       d="m 89.687478,286.01737 c 0.279795,0.48386 -0.618622,1.15205 -1.175873,1.19543 -0.367082,0.0279 -0.957328,-0.29644 -0.887199,-0.65797 0.135282,-0.69764 1.70734,-1.15267 2.063072,-0.53746 z"
       style="fill:#00407a;fill-opacity:1;stroke:none;stroke-width:0.19541439px;stroke-linecap:butt;stroke-linejoin:miter;stroke-opacity:1"
       inkscape:export-filename="C:\Users\u0076217\Box Sync\01. Research\00. Running projects\02. SEM Fundiv\Species diversity.png"
       inkscape:export-xdpi="300"
       inkscape:export-ydpi="300" />
    <path
       sodipodi:nodetypes="csssc"
       inkscape:connector-curvature="0"
       id="path1696"
       d="m 44.169335,281.79544 c 0.698333,-1.41774 1.354194,-0.5682 2.078863,-0.042 1.032207,0.74979 -0.356242,1.03508 -0.356242,1.03508 -1.301759,0.33291 -2.095947,-0.23536 -1.722621,-0.99328 z"
       style="fill:#00407a;fill-opacity:1;stroke:none;stroke-width:0.23510487px;stroke-linecap:butt;stroke-linejoin:miter;stroke-opacity:1"
       inkscape:export-filename="C:\Users\u0076217\Box Sync\01. Research\00. Running projects\02. SEM Fundiv\Species diversity.png"
       inkscape:export-xdpi="300"
       inkscape:export-ydpi="300" />
    <path
       style="fill:#00407a;fill-opacity:1;stroke:none;stroke-width:0.19541439px;stroke-linecap:butt;stroke-linejoin:miter;stroke-opacity:1"
       d="m 88.782971,283.45751 c -0.119451,0.54602 -1.233526,0.43399 -1.674413,0.0907 -0.290452,-0.22633 -0.507238,-0.86435 -0.21179,-1.08409 0.5702,-0.42411 2.038129,0.29959 1.886203,0.99367 z"
       id="path1698"
       inkscape:connector-curvature="0"
       sodipodi:nodetypes="aaaa"
       inkscape:export-filename="C:\Users\u0076217\Box Sync\01. Research\00. Running projects\02. SEM Fundiv\Species diversity.png"
       inkscape:export-xdpi="300"
       inkscape:export-ydpi="300" />
    <path
       sodipodi:nodetypes="aaaa"
       inkscape:connector-curvature="0"
       id="path1714"
       d="m 46.592753,289.65689 c -0.119451,0.54601 -1.233527,0.434 -1.674418,0.0907 -0.290452,-0.22634 -0.507238,-0.86439 -0.21179,-1.0841 0.570204,-0.42408 2.038131,0.2996 1.886208,0.99366 z"
       style="fill:#00407a;fill-opacity:1;stroke:none;stroke-width:0.19541439px;stroke-linecap:butt;stroke-linejoin:miter;stroke-opacity:1"
       inkscape:export-filename="C:\Users\u0076217\Box Sync\01. Research\00. Running projects\02. SEM Fundiv\Species diversity.png"
       inkscape:export-xdpi="300"
       inkscape:export-ydpi="300" />
    <path
       style="fill:#00407a;fill-opacity:1;stroke:none;stroke-width:0.23510487px;stroke-linecap:butt;stroke-linejoin:miter;stroke-opacity:1"
       d="m 11.794794,291.7833 c 0.698329,-1.41772 1.354189,-0.56816 2.078863,-0.0416 1.032203,0.74979 -0.356246,1.03507 -0.356246,1.03507 -1.301759,0.33292 -2.095944,-0.23536 -1.722617,-0.99327 z"
       id="path1716"
       inkscape:connector-curvature="0"
       sodipodi:nodetypes="csssc"
       inkscape:export-filename="C:\Users\u0076217\Box Sync\01. Research\00. Running projects\02. SEM Fundiv\Species diversity.png"
       inkscape:export-xdpi="300"
       inkscape:export-ydpi="300" />
    <path
       inkscape:export-ydpi="300"
       inkscape:export-xdpi="300"
       inkscape:export-filename="C:\Users\u0076217\Box Sync\01. Research\00. Running projects\02. SEM Fundiv\Species diversity.png"
       sodipodi:nodetypes="csssc"
       inkscape:connector-curvature="0"
       id="path2413"
       d="m 11.794794,291.7833 c 0.698329,-1.41772 1.354189,-0.56816 2.078863,-0.0416 1.032203,0.74979 -0.356246,1.03507 -0.356246,1.03507 -1.301759,0.33292 -2.095944,-0.23536 -1.722617,-0.99327 z"
       style="fill:#00407a;fill-opacity:1;stroke:none;stroke-width:0.23510487px;stroke-linecap:butt;stroke-linejoin:miter;stroke-opacity:1" />
    <path
       style="fill:#00407a;fill-opacity:1;stroke:none;stroke-width:0.08489345px;stroke-linecap:butt;stroke-linejoin:miter;stroke-opacity:1"
       d="m 50.90665,279.7807 v -13.8255 h 1.69787 v 13.8255 z"
       id="path1261"
       inkscape:connector-curvature="0"
       sodipodi:nodetypes="ccccc"
       inkscape:export-xdpi="300"
       inkscape:export-ydpi="300" />
    <path
       style="fill:#ffffff;fill-opacity:1;stroke:none;stroke-width:0.08502719;stroke-linecap:butt;stroke-linejoin:miter;stroke-miterlimit:4;stroke-dasharray:none;stroke-opacity:1"
       d="m 50.90665,279.7807 v 6.79146 l 0.848934,1.2964 0.848936,-1.2964 v -6.79146"
       id="path1263"
       inkscape:connector-curvature="0"
       sodipodi:nodetypes="ccccc"
       inkscape:export-xdpi="300"
       inkscape:export-ydpi="300" />
    <path
       style="fill:#00407a;fill-opacity:1;stroke:none;stroke-width:0.08489345px;stroke-linecap:butt;stroke-linejoin:miter;stroke-opacity:1"
       d="m 48.755085,266.62118 c 0.08897,-0.48051 0.341796,-0.8473 0.551271,-1.00445 1.280307,-0.96047 3.728776,-0.97602 4.828906,0 0.263723,0.23397 0.481518,0.55498 0.61088,1.00445 z"
       id="path1265"
       inkscape:connector-curvature="0"
       sodipodi:nodetypes="csscc"
       inkscape:export-xdpi="300"
       inkscape:export-ydpi="300" />
    <path
       inkscape:export-ydpi="300"
       inkscape:export-xdpi="300"
       sodipodi:nodetypes="csscc"
       inkscape:connector-curvature="0"
       id="path1337"
       d="m 48.755085,278.74441 c 0.08897,-0.48052 0.341796,-0.8473 0.551271,-1.00445 1.280307,-0.96047 3.728776,-0.97602 4.828906,0 0.263723,0.23397 0.481518,0.55494 0.61088,1.00445 z"
       style="fill:#00407a;fill-opacity:1;stroke:none;stroke-width:0.08489345px;stroke-linecap:butt;stroke-linejoin:miter;stroke-opacity:1" />
  </g>
</svg>
